%TF.GenerationSoftware,KiCad,Pcbnew,(6.0.7)*%
%TF.CreationDate,2023-01-08T15:04:34+11:00*%
%TF.ProjectId,Xbox_ATX,58626f78-5f41-4545-982e-6b696361645f,rev?*%
%TF.SameCoordinates,Original*%
%TF.FileFunction,Legend,Bot*%
%TF.FilePolarity,Positive*%
%FSLAX46Y46*%
G04 Gerber Fmt 4.6, Leading zero omitted, Abs format (unit mm)*
G04 Created by KiCad (PCBNEW (6.0.7)) date 2023-01-08 15:04:34*
%MOMM*%
%LPD*%
G01*
G04 APERTURE LIST*
%ADD10C,0.250000*%
%ADD11C,0.200000*%
%ADD12C,0.300000*%
G04 APERTURE END LIST*
D10*
X178838095Y-74128571D02*
X178695238Y-74176190D01*
X178647619Y-74223809D01*
X178600000Y-74319047D01*
X178600000Y-74461904D01*
X178647619Y-74557142D01*
X178695238Y-74604761D01*
X178790476Y-74652380D01*
X179171428Y-74652380D01*
X179171428Y-73652380D01*
X178838095Y-73652380D01*
X178742857Y-73700000D01*
X178695238Y-73747619D01*
X178647619Y-73842857D01*
X178647619Y-73938095D01*
X178695238Y-74033333D01*
X178742857Y-74080952D01*
X178838095Y-74128571D01*
X179171428Y-74128571D01*
X177742857Y-74652380D02*
X177742857Y-74128571D01*
X177790476Y-74033333D01*
X177885714Y-73985714D01*
X178076190Y-73985714D01*
X178171428Y-74033333D01*
X177742857Y-74604761D02*
X177838095Y-74652380D01*
X178076190Y-74652380D01*
X178171428Y-74604761D01*
X178219047Y-74509523D01*
X178219047Y-74414285D01*
X178171428Y-74319047D01*
X178076190Y-74271428D01*
X177838095Y-74271428D01*
X177742857Y-74223809D01*
X177314285Y-74604761D02*
X177219047Y-74652380D01*
X177028571Y-74652380D01*
X176933333Y-74604761D01*
X176885714Y-74509523D01*
X176885714Y-74461904D01*
X176933333Y-74366666D01*
X177028571Y-74319047D01*
X177171428Y-74319047D01*
X177266666Y-74271428D01*
X177314285Y-74176190D01*
X177314285Y-74128571D01*
X177266666Y-74033333D01*
X177171428Y-73985714D01*
X177028571Y-73985714D01*
X176933333Y-74033333D01*
X176076190Y-74604761D02*
X176171428Y-74652380D01*
X176361904Y-74652380D01*
X176457142Y-74604761D01*
X176504761Y-74509523D01*
X176504761Y-74128571D01*
X176457142Y-74033333D01*
X176361904Y-73985714D01*
X176171428Y-73985714D01*
X176076190Y-74033333D01*
X176028571Y-74128571D01*
X176028571Y-74223809D01*
X176504761Y-74319047D01*
X175171428Y-74652380D02*
X175171428Y-73652380D01*
X175171428Y-74604761D02*
X175266666Y-74652380D01*
X175457142Y-74652380D01*
X175552380Y-74604761D01*
X175600000Y-74557142D01*
X175647619Y-74461904D01*
X175647619Y-74176190D01*
X175600000Y-74080952D01*
X175552380Y-74033333D01*
X175457142Y-73985714D01*
X175266666Y-73985714D01*
X175171428Y-74033333D01*
X173790476Y-74652380D02*
X173885714Y-74604761D01*
X173933333Y-74557142D01*
X173980952Y-74461904D01*
X173980952Y-74176190D01*
X173933333Y-74080952D01*
X173885714Y-74033333D01*
X173790476Y-73985714D01*
X173647619Y-73985714D01*
X173552380Y-74033333D01*
X173504761Y-74080952D01*
X173457142Y-74176190D01*
X173457142Y-74461904D01*
X173504761Y-74557142D01*
X173552380Y-74604761D01*
X173647619Y-74652380D01*
X173790476Y-74652380D01*
X173028571Y-73985714D02*
X173028571Y-74652380D01*
X173028571Y-74080952D02*
X172980952Y-74033333D01*
X172885714Y-73985714D01*
X172742857Y-73985714D01*
X172647619Y-74033333D01*
X172600000Y-74128571D01*
X172600000Y-74652380D01*
X170933333Y-74652380D02*
X170933333Y-73652380D01*
X170933333Y-74604761D02*
X171028571Y-74652380D01*
X171219047Y-74652380D01*
X171314285Y-74604761D01*
X171361904Y-74557142D01*
X171409523Y-74461904D01*
X171409523Y-74176190D01*
X171361904Y-74080952D01*
X171314285Y-74033333D01*
X171219047Y-73985714D01*
X171028571Y-73985714D01*
X170933333Y-74033333D01*
X170076190Y-74604761D02*
X170171428Y-74652380D01*
X170361904Y-74652380D01*
X170457142Y-74604761D01*
X170504761Y-74509523D01*
X170504761Y-74128571D01*
X170457142Y-74033333D01*
X170361904Y-73985714D01*
X170171428Y-73985714D01*
X170076190Y-74033333D01*
X170028571Y-74128571D01*
X170028571Y-74223809D01*
X170504761Y-74319047D01*
X169647619Y-74604761D02*
X169552380Y-74652380D01*
X169361904Y-74652380D01*
X169266666Y-74604761D01*
X169219047Y-74509523D01*
X169219047Y-74461904D01*
X169266666Y-74366666D01*
X169361904Y-74319047D01*
X169504761Y-74319047D01*
X169600000Y-74271428D01*
X169647619Y-74176190D01*
X169647619Y-74128571D01*
X169600000Y-74033333D01*
X169504761Y-73985714D01*
X169361904Y-73985714D01*
X169266666Y-74033333D01*
X168790476Y-74652380D02*
X168790476Y-73985714D01*
X168790476Y-73652380D02*
X168838095Y-73700000D01*
X168790476Y-73747619D01*
X168742857Y-73700000D01*
X168790476Y-73652380D01*
X168790476Y-73747619D01*
X167885714Y-73985714D02*
X167885714Y-74795238D01*
X167933333Y-74890476D01*
X167980952Y-74938095D01*
X168076190Y-74985714D01*
X168219047Y-74985714D01*
X168314285Y-74938095D01*
X167885714Y-74604761D02*
X167980952Y-74652380D01*
X168171428Y-74652380D01*
X168266666Y-74604761D01*
X168314285Y-74557142D01*
X168361904Y-74461904D01*
X168361904Y-74176190D01*
X168314285Y-74080952D01*
X168266666Y-74033333D01*
X168171428Y-73985714D01*
X167980952Y-73985714D01*
X167885714Y-74033333D01*
X167409523Y-73985714D02*
X167409523Y-74652380D01*
X167409523Y-74080952D02*
X167361904Y-74033333D01*
X167266666Y-73985714D01*
X167123809Y-73985714D01*
X167028571Y-74033333D01*
X166980952Y-74128571D01*
X166980952Y-74652380D01*
X165742857Y-74652380D02*
X165742857Y-73652380D01*
X165742857Y-74033333D02*
X165647619Y-73985714D01*
X165457142Y-73985714D01*
X165361904Y-74033333D01*
X165314285Y-74080952D01*
X165266666Y-74176190D01*
X165266666Y-74461904D01*
X165314285Y-74557142D01*
X165361904Y-74604761D01*
X165457142Y-74652380D01*
X165647619Y-74652380D01*
X165742857Y-74604761D01*
X164933333Y-73985714D02*
X164695238Y-74652380D01*
X164457142Y-73985714D02*
X164695238Y-74652380D01*
X164790476Y-74890476D01*
X164838095Y-74938095D01*
X164933333Y-74985714D01*
X163314285Y-74652380D02*
X163314285Y-73652380D01*
X162742857Y-74652380D01*
X162742857Y-73652380D01*
X161838095Y-73652380D02*
X162028571Y-73652380D01*
X162123809Y-73700000D01*
X162171428Y-73747619D01*
X162266666Y-73890476D01*
X162314285Y-74080952D01*
X162314285Y-74461904D01*
X162266666Y-74557142D01*
X162219047Y-74604761D01*
X162123809Y-74652380D01*
X161933333Y-74652380D01*
X161838095Y-74604761D01*
X161790476Y-74557142D01*
X161742857Y-74461904D01*
X161742857Y-74223809D01*
X161790476Y-74128571D01*
X161838095Y-74080952D01*
X161933333Y-74033333D01*
X162123809Y-74033333D01*
X162219047Y-74080952D01*
X162266666Y-74128571D01*
X162314285Y-74223809D01*
X160885714Y-73985714D02*
X160885714Y-74652380D01*
X161123809Y-73604761D02*
X161361904Y-74319047D01*
X160742857Y-74319047D01*
X160600000Y-74747619D02*
X159838095Y-74747619D01*
X159266666Y-74128571D02*
X159600000Y-74128571D01*
X159600000Y-74652380D02*
X159600000Y-73652380D01*
X159123809Y-73652380D01*
X158742857Y-74652380D02*
X158742857Y-73985714D01*
X158742857Y-74176190D02*
X158695238Y-74080952D01*
X158647619Y-74033333D01*
X158552380Y-73985714D01*
X158457142Y-73985714D01*
X157742857Y-74604761D02*
X157838095Y-74652380D01*
X158028571Y-74652380D01*
X158123809Y-74604761D01*
X158171428Y-74509523D01*
X158171428Y-74128571D01*
X158123809Y-74033333D01*
X158028571Y-73985714D01*
X157838095Y-73985714D01*
X157742857Y-74033333D01*
X157695238Y-74128571D01*
X157695238Y-74223809D01*
X158171428Y-74319047D01*
X156838095Y-74652380D02*
X156838095Y-74128571D01*
X156885714Y-74033333D01*
X156980952Y-73985714D01*
X157171428Y-73985714D01*
X157266666Y-74033333D01*
X156838095Y-74604761D02*
X156933333Y-74652380D01*
X157171428Y-74652380D01*
X157266666Y-74604761D01*
X157314285Y-74509523D01*
X157314285Y-74414285D01*
X157266666Y-74319047D01*
X157171428Y-74271428D01*
X156933333Y-74271428D01*
X156838095Y-74223809D01*
X156361904Y-74652380D02*
X156361904Y-73652380D01*
X156266666Y-74271428D02*
X155980952Y-74652380D01*
X155980952Y-73985714D02*
X156361904Y-74366666D01*
D11*
X167304342Y-111293485D02*
X168504342Y-111293485D01*
X168504342Y-110836342D01*
X168447200Y-110722057D01*
X168390057Y-110664914D01*
X168275771Y-110607771D01*
X168104342Y-110607771D01*
X167990057Y-110664914D01*
X167932914Y-110722057D01*
X167875771Y-110836342D01*
X167875771Y-111293485D01*
X167304342Y-109579200D02*
X167932914Y-109579200D01*
X168047200Y-109636342D01*
X168104342Y-109750628D01*
X168104342Y-109979200D01*
X168047200Y-110093485D01*
X167361485Y-109579200D02*
X167304342Y-109693485D01*
X167304342Y-109979200D01*
X167361485Y-110093485D01*
X167475771Y-110150628D01*
X167590057Y-110150628D01*
X167704342Y-110093485D01*
X167761485Y-109979200D01*
X167761485Y-109693485D01*
X167818628Y-109579200D01*
X167304342Y-109007771D02*
X168104342Y-109007771D01*
X167875771Y-109007771D02*
X167990057Y-108950628D01*
X168047200Y-108893485D01*
X168104342Y-108779200D01*
X168104342Y-108664914D01*
X168104342Y-108436342D02*
X168104342Y-107979200D01*
X168504342Y-108264914D02*
X167475771Y-108264914D01*
X167361485Y-108207771D01*
X167304342Y-108093485D01*
X167304342Y-107979200D01*
X167361485Y-107636342D02*
X167304342Y-107522057D01*
X167304342Y-107293485D01*
X167361485Y-107179200D01*
X167475771Y-107122057D01*
X167532914Y-107122057D01*
X167647200Y-107179200D01*
X167704342Y-107293485D01*
X167704342Y-107464914D01*
X167761485Y-107579200D01*
X167875771Y-107636342D01*
X167932914Y-107636342D01*
X168047200Y-107579200D01*
X168104342Y-107464914D01*
X168104342Y-107293485D01*
X168047200Y-107179200D01*
X167304342Y-105122057D02*
X167304342Y-105693485D01*
X168504342Y-105693485D01*
X167304342Y-104722057D02*
X168104342Y-104722057D01*
X168504342Y-104722057D02*
X168447200Y-104779200D01*
X168390057Y-104722057D01*
X168447200Y-104664914D01*
X168504342Y-104722057D01*
X168390057Y-104722057D01*
X167361485Y-104207771D02*
X167304342Y-104093485D01*
X167304342Y-103864914D01*
X167361485Y-103750628D01*
X167475771Y-103693485D01*
X167532914Y-103693485D01*
X167647200Y-103750628D01*
X167704342Y-103864914D01*
X167704342Y-104036342D01*
X167761485Y-104150628D01*
X167875771Y-104207771D01*
X167932914Y-104207771D01*
X168047200Y-104150628D01*
X168104342Y-104036342D01*
X168104342Y-103864914D01*
X168047200Y-103750628D01*
X168104342Y-103350628D02*
X168104342Y-102893485D01*
X168504342Y-103179200D02*
X167475771Y-103179200D01*
X167361485Y-103122057D01*
X167304342Y-103007771D01*
X167304342Y-102893485D01*
X167418628Y-102493485D02*
X167361485Y-102436342D01*
X167304342Y-102493485D01*
X167361485Y-102550628D01*
X167418628Y-102493485D01*
X167304342Y-102493485D01*
X168047200Y-102493485D02*
X167990057Y-102436342D01*
X167932914Y-102493485D01*
X167990057Y-102550628D01*
X168047200Y-102493485D01*
X167932914Y-102493485D01*
X165372342Y-110607771D02*
X165943771Y-111007771D01*
X165372342Y-111293485D02*
X166572342Y-111293485D01*
X166572342Y-110836342D01*
X166515200Y-110722057D01*
X166458057Y-110664914D01*
X166343771Y-110607771D01*
X166172342Y-110607771D01*
X166058057Y-110664914D01*
X166000914Y-110722057D01*
X165943771Y-110836342D01*
X165943771Y-111293485D01*
X165372342Y-109464914D02*
X165372342Y-110150628D01*
X165372342Y-109807771D02*
X166572342Y-109807771D01*
X166400914Y-109922057D01*
X166286628Y-110036342D01*
X166229485Y-110150628D01*
X165429485Y-108893485D02*
X165372342Y-108893485D01*
X165258057Y-108950628D01*
X165200914Y-109007771D01*
X165372342Y-106779200D02*
X165943771Y-107179200D01*
X165372342Y-107464914D02*
X166572342Y-107464914D01*
X166572342Y-107007771D01*
X166515200Y-106893485D01*
X166458057Y-106836342D01*
X166343771Y-106779200D01*
X166172342Y-106779200D01*
X166058057Y-106836342D01*
X166000914Y-106893485D01*
X165943771Y-107007771D01*
X165943771Y-107464914D01*
X166458057Y-106322057D02*
X166515200Y-106264914D01*
X166572342Y-106150628D01*
X166572342Y-105864914D01*
X166515200Y-105750628D01*
X166458057Y-105693485D01*
X166343771Y-105636342D01*
X166229485Y-105636342D01*
X166058057Y-105693485D01*
X165372342Y-106379200D01*
X165372342Y-105636342D01*
X166000914Y-104207771D02*
X166000914Y-103293485D01*
X165658057Y-103293485D02*
X165658057Y-104207771D01*
X166572342Y-101579200D02*
X166572342Y-101464914D01*
X166515200Y-101350628D01*
X166458057Y-101293485D01*
X166343771Y-101236342D01*
X166115200Y-101179200D01*
X165829485Y-101179200D01*
X165600914Y-101236342D01*
X165486628Y-101293485D01*
X165429485Y-101350628D01*
X165372342Y-101464914D01*
X165372342Y-101579200D01*
X165429485Y-101693485D01*
X165486628Y-101750628D01*
X165600914Y-101807771D01*
X165829485Y-101864914D01*
X166115200Y-101864914D01*
X166343771Y-101807771D01*
X166458057Y-101750628D01*
X166515200Y-101693485D01*
X166572342Y-101579200D01*
X166572342Y-100150628D02*
X166572342Y-100379200D01*
X166515200Y-100493485D01*
X166458057Y-100550628D01*
X166286628Y-100664914D01*
X166058057Y-100722057D01*
X165600914Y-100722057D01*
X165486628Y-100664914D01*
X165429485Y-100607771D01*
X165372342Y-100493485D01*
X165372342Y-100264914D01*
X165429485Y-100150628D01*
X165486628Y-100093485D01*
X165600914Y-100036342D01*
X165886628Y-100036342D01*
X166000914Y-100093485D01*
X166058057Y-100150628D01*
X166115200Y-100264914D01*
X166115200Y-100493485D01*
X166058057Y-100607771D01*
X166000914Y-100664914D01*
X165886628Y-100722057D01*
X166572342Y-99293485D02*
X166572342Y-99179200D01*
X166515200Y-99064914D01*
X166458057Y-99007771D01*
X166343771Y-98950628D01*
X166115200Y-98893485D01*
X165829485Y-98893485D01*
X165600914Y-98950628D01*
X165486628Y-99007771D01*
X165429485Y-99064914D01*
X165372342Y-99179200D01*
X165372342Y-99293485D01*
X165429485Y-99407771D01*
X165486628Y-99464914D01*
X165600914Y-99522057D01*
X165829485Y-99579200D01*
X166115200Y-99579200D01*
X166343771Y-99522057D01*
X166458057Y-99464914D01*
X166515200Y-99407771D01*
X166572342Y-99293485D01*
X166572342Y-98493485D02*
X166572342Y-97750628D01*
X166115200Y-98150628D01*
X166115200Y-97979200D01*
X166058057Y-97864914D01*
X166000914Y-97807771D01*
X165886628Y-97750628D01*
X165600914Y-97750628D01*
X165486628Y-97807771D01*
X165429485Y-97864914D01*
X165372342Y-97979200D01*
X165372342Y-98322057D01*
X165429485Y-98436342D01*
X165486628Y-98493485D01*
X165372342Y-95693485D02*
X165372342Y-96379200D01*
X165372342Y-96036342D02*
X166572342Y-96036342D01*
X166400914Y-96150628D01*
X166286628Y-96264914D01*
X166229485Y-96379200D01*
X165372342Y-95179200D02*
X166572342Y-95179200D01*
X165372342Y-94493485D02*
X166058057Y-95007771D01*
X166572342Y-94493485D02*
X165886628Y-95179200D01*
X163440342Y-110607771D02*
X164011771Y-111007771D01*
X163440342Y-111293485D02*
X164640342Y-111293485D01*
X164640342Y-110836342D01*
X164583200Y-110722057D01*
X164526057Y-110664914D01*
X164411771Y-110607771D01*
X164240342Y-110607771D01*
X164126057Y-110664914D01*
X164068914Y-110722057D01*
X164011771Y-110836342D01*
X164011771Y-111293485D01*
X164640342Y-110207771D02*
X164640342Y-109464914D01*
X164183200Y-109864914D01*
X164183200Y-109693485D01*
X164126057Y-109579200D01*
X164068914Y-109522057D01*
X163954628Y-109464914D01*
X163668914Y-109464914D01*
X163554628Y-109522057D01*
X163497485Y-109579200D01*
X163440342Y-109693485D01*
X163440342Y-110036342D01*
X163497485Y-110150628D01*
X163554628Y-110207771D01*
X164068914Y-108036342D02*
X164068914Y-107122057D01*
X163726057Y-107122057D02*
X163726057Y-108036342D01*
X164640342Y-105407771D02*
X164640342Y-105293485D01*
X164583200Y-105179200D01*
X164526057Y-105122057D01*
X164411771Y-105064914D01*
X164183200Y-105007771D01*
X163897485Y-105007771D01*
X163668914Y-105064914D01*
X163554628Y-105122057D01*
X163497485Y-105179200D01*
X163440342Y-105293485D01*
X163440342Y-105407771D01*
X163497485Y-105522057D01*
X163554628Y-105579200D01*
X163668914Y-105636342D01*
X163897485Y-105693485D01*
X164183200Y-105693485D01*
X164411771Y-105636342D01*
X164526057Y-105579200D01*
X164583200Y-105522057D01*
X164640342Y-105407771D01*
X164640342Y-103979200D02*
X164640342Y-104207771D01*
X164583200Y-104322057D01*
X164526057Y-104379200D01*
X164354628Y-104493485D01*
X164126057Y-104550628D01*
X163668914Y-104550628D01*
X163554628Y-104493485D01*
X163497485Y-104436342D01*
X163440342Y-104322057D01*
X163440342Y-104093485D01*
X163497485Y-103979200D01*
X163554628Y-103922057D01*
X163668914Y-103864914D01*
X163954628Y-103864914D01*
X164068914Y-103922057D01*
X164126057Y-103979200D01*
X164183200Y-104093485D01*
X164183200Y-104322057D01*
X164126057Y-104436342D01*
X164068914Y-104493485D01*
X163954628Y-104550628D01*
X164640342Y-103122057D02*
X164640342Y-103007771D01*
X164583200Y-102893485D01*
X164526057Y-102836342D01*
X164411771Y-102779200D01*
X164183200Y-102722057D01*
X163897485Y-102722057D01*
X163668914Y-102779200D01*
X163554628Y-102836342D01*
X163497485Y-102893485D01*
X163440342Y-103007771D01*
X163440342Y-103122057D01*
X163497485Y-103236342D01*
X163554628Y-103293485D01*
X163668914Y-103350628D01*
X163897485Y-103407771D01*
X164183200Y-103407771D01*
X164411771Y-103350628D01*
X164526057Y-103293485D01*
X164583200Y-103236342D01*
X164640342Y-103122057D01*
X164640342Y-102322057D02*
X164640342Y-101579200D01*
X164183200Y-101979200D01*
X164183200Y-101807771D01*
X164126057Y-101693485D01*
X164068914Y-101636342D01*
X163954628Y-101579200D01*
X163668914Y-101579200D01*
X163554628Y-101636342D01*
X163497485Y-101693485D01*
X163440342Y-101807771D01*
X163440342Y-102150628D01*
X163497485Y-102264914D01*
X163554628Y-102322057D01*
X164240342Y-99636342D02*
X163440342Y-99636342D01*
X164697485Y-99922057D02*
X163840342Y-100207771D01*
X163840342Y-99464914D01*
X164640342Y-99122057D02*
X164640342Y-98322057D01*
X163440342Y-98836342D01*
X164640342Y-97636342D02*
X164640342Y-97522057D01*
X164583200Y-97407771D01*
X164526057Y-97350628D01*
X164411771Y-97293485D01*
X164183200Y-97236342D01*
X163897485Y-97236342D01*
X163668914Y-97293485D01*
X163554628Y-97350628D01*
X163497485Y-97407771D01*
X163440342Y-97522057D01*
X163440342Y-97636342D01*
X163497485Y-97750628D01*
X163554628Y-97807771D01*
X163668914Y-97864914D01*
X163897485Y-97922057D01*
X164183200Y-97922057D01*
X164411771Y-97864914D01*
X164526057Y-97807771D01*
X164583200Y-97750628D01*
X164640342Y-97636342D01*
X163440342Y-96036342D02*
X164011771Y-96436342D01*
X163440342Y-96722057D02*
X164640342Y-96722057D01*
X164640342Y-96264914D01*
X164583200Y-96150628D01*
X164526057Y-96093485D01*
X164411771Y-96036342D01*
X164240342Y-96036342D01*
X164126057Y-96093485D01*
X164068914Y-96150628D01*
X164011771Y-96264914D01*
X164011771Y-96722057D01*
X161394057Y-110493485D02*
X161451200Y-110607771D01*
X161565485Y-110722057D01*
X161736914Y-110893485D01*
X161794057Y-111007771D01*
X161794057Y-111122057D01*
X161508342Y-111064914D02*
X161565485Y-111179200D01*
X161679771Y-111293485D01*
X161908342Y-111350628D01*
X162308342Y-111350628D01*
X162536914Y-111293485D01*
X162651200Y-111179200D01*
X162708342Y-111064914D01*
X162708342Y-110836342D01*
X162651200Y-110722057D01*
X162536914Y-110607771D01*
X162308342Y-110550628D01*
X161908342Y-110550628D01*
X161679771Y-110607771D01*
X161565485Y-110722057D01*
X161508342Y-110836342D01*
X161508342Y-111064914D01*
X161508342Y-109407771D02*
X161508342Y-110093485D01*
X161508342Y-109750628D02*
X162708342Y-109750628D01*
X162536914Y-109864914D01*
X162422628Y-109979200D01*
X162365485Y-110093485D01*
X161565485Y-108836342D02*
X161508342Y-108836342D01*
X161394057Y-108893485D01*
X161336914Y-108950628D01*
X161394057Y-106607771D02*
X161451200Y-106722057D01*
X161565485Y-106836342D01*
X161736914Y-107007771D01*
X161794057Y-107122057D01*
X161794057Y-107236342D01*
X161508342Y-107179200D02*
X161565485Y-107293485D01*
X161679771Y-107407771D01*
X161908342Y-107464914D01*
X162308342Y-107464914D01*
X162536914Y-107407771D01*
X162651200Y-107293485D01*
X162708342Y-107179200D01*
X162708342Y-106950628D01*
X162651200Y-106836342D01*
X162536914Y-106722057D01*
X162308342Y-106664914D01*
X161908342Y-106664914D01*
X161679771Y-106722057D01*
X161565485Y-106836342D01*
X161508342Y-106950628D01*
X161508342Y-107179200D01*
X162594057Y-106207771D02*
X162651200Y-106150628D01*
X162708342Y-106036342D01*
X162708342Y-105750628D01*
X162651200Y-105636342D01*
X162594057Y-105579200D01*
X162479771Y-105522057D01*
X162365485Y-105522057D01*
X162194057Y-105579200D01*
X161508342Y-106264914D01*
X161508342Y-105522057D01*
X162136914Y-104093485D02*
X162136914Y-103179200D01*
X161794057Y-103179200D02*
X161794057Y-104093485D01*
X161565485Y-101750628D02*
X161508342Y-101579200D01*
X161508342Y-101293485D01*
X161565485Y-101179200D01*
X161622628Y-101122057D01*
X161736914Y-101064914D01*
X161851200Y-101064914D01*
X161965485Y-101122057D01*
X162022628Y-101179200D01*
X162079771Y-101293485D01*
X162136914Y-101522057D01*
X162194057Y-101636342D01*
X162251200Y-101693485D01*
X162365485Y-101750628D01*
X162479771Y-101750628D01*
X162594057Y-101693485D01*
X162651200Y-101636342D01*
X162708342Y-101522057D01*
X162708342Y-101236342D01*
X162651200Y-101064914D01*
X162708342Y-100322057D02*
X162708342Y-100093485D01*
X162651200Y-99979200D01*
X162536914Y-99864914D01*
X162308342Y-99807771D01*
X161908342Y-99807771D01*
X161679771Y-99864914D01*
X161565485Y-99979200D01*
X161508342Y-100093485D01*
X161508342Y-100322057D01*
X161565485Y-100436342D01*
X161679771Y-100550628D01*
X161908342Y-100607771D01*
X162308342Y-100607771D01*
X162536914Y-100550628D01*
X162651200Y-100436342D01*
X162708342Y-100322057D01*
X162708342Y-99464914D02*
X162708342Y-98779200D01*
X161508342Y-99122057D02*
X162708342Y-99122057D01*
X162594057Y-98436342D02*
X162651200Y-98379200D01*
X162708342Y-98264914D01*
X162708342Y-97979200D01*
X162651200Y-97864914D01*
X162594057Y-97807771D01*
X162479771Y-97750628D01*
X162365485Y-97750628D01*
X162194057Y-97807771D01*
X161508342Y-98493485D01*
X161508342Y-97750628D01*
X162708342Y-97350628D02*
X162708342Y-96607771D01*
X162251200Y-97007771D01*
X162251200Y-96836342D01*
X162194057Y-96722057D01*
X162136914Y-96664914D01*
X162022628Y-96607771D01*
X161736914Y-96607771D01*
X161622628Y-96664914D01*
X161565485Y-96722057D01*
X161508342Y-96836342D01*
X161508342Y-97179200D01*
X161565485Y-97293485D01*
X161622628Y-97350628D01*
X161508342Y-95179200D02*
X162708342Y-95179200D01*
X161851200Y-94779200D01*
X162708342Y-94379200D01*
X161508342Y-94379200D01*
X161508342Y-93807771D02*
X162708342Y-93807771D01*
X161851200Y-93407771D01*
X162708342Y-93007771D01*
X161508342Y-93007771D01*
X162136914Y-92036342D02*
X162079771Y-91864914D01*
X162022628Y-91807771D01*
X161908342Y-91750628D01*
X161736914Y-91750628D01*
X161622628Y-91807771D01*
X161565485Y-91864914D01*
X161508342Y-91979200D01*
X161508342Y-92436342D01*
X162708342Y-92436342D01*
X162708342Y-92036342D01*
X162651200Y-91922057D01*
X162594057Y-91864914D01*
X162479771Y-91807771D01*
X162365485Y-91807771D01*
X162251200Y-91864914D01*
X162194057Y-91922057D01*
X162136914Y-92036342D01*
X162136914Y-92436342D01*
X162708342Y-91407771D02*
X162708342Y-90722057D01*
X161508342Y-91064914D02*
X162708342Y-91064914D01*
X162708342Y-90436342D02*
X162708342Y-89693485D01*
X162251200Y-90093485D01*
X162251200Y-89922057D01*
X162194057Y-89807771D01*
X162136914Y-89750628D01*
X162022628Y-89693485D01*
X161736914Y-89693485D01*
X161622628Y-89750628D01*
X161565485Y-89807771D01*
X161508342Y-89922057D01*
X161508342Y-90264914D01*
X161565485Y-90379200D01*
X161622628Y-90436342D01*
X161508342Y-89122057D02*
X161508342Y-88893485D01*
X161565485Y-88779200D01*
X161622628Y-88722057D01*
X161794057Y-88607771D01*
X162022628Y-88550628D01*
X162479771Y-88550628D01*
X162594057Y-88607771D01*
X162651200Y-88664914D01*
X162708342Y-88779200D01*
X162708342Y-89007771D01*
X162651200Y-89122057D01*
X162594057Y-89179200D01*
X162479771Y-89236342D01*
X162194057Y-89236342D01*
X162079771Y-89179200D01*
X162022628Y-89122057D01*
X161965485Y-89007771D01*
X161965485Y-88779200D01*
X162022628Y-88664914D01*
X162079771Y-88607771D01*
X162194057Y-88550628D01*
X162708342Y-87807771D02*
X162708342Y-87693485D01*
X162651200Y-87579200D01*
X162594057Y-87522057D01*
X162479771Y-87464914D01*
X162251200Y-87407771D01*
X161965485Y-87407771D01*
X161736914Y-87464914D01*
X161622628Y-87522057D01*
X161565485Y-87579200D01*
X161508342Y-87693485D01*
X161508342Y-87807771D01*
X161565485Y-87922057D01*
X161622628Y-87979200D01*
X161736914Y-88036342D01*
X161965485Y-88093485D01*
X162251200Y-88093485D01*
X162479771Y-88036342D01*
X162594057Y-87979200D01*
X162651200Y-87922057D01*
X162708342Y-87807771D01*
X162308342Y-86379200D02*
X161508342Y-86379200D01*
X162765485Y-86664914D02*
X161908342Y-86950628D01*
X161908342Y-86207771D01*
X160776342Y-111293485D02*
X159804914Y-111293485D01*
X159690628Y-111236342D01*
X159633485Y-111179200D01*
X159576342Y-111064914D01*
X159576342Y-110836342D01*
X159633485Y-110722057D01*
X159690628Y-110664914D01*
X159804914Y-110607771D01*
X160776342Y-110607771D01*
X159576342Y-109407771D02*
X159576342Y-110093485D01*
X159576342Y-109750628D02*
X160776342Y-109750628D01*
X160604914Y-109864914D01*
X160490628Y-109979200D01*
X160433485Y-110093485D01*
X160204914Y-107979200D02*
X160204914Y-107064914D01*
X159862057Y-107064914D02*
X159862057Y-107979200D01*
X159576342Y-105007771D02*
X159576342Y-105579200D01*
X160776342Y-105579200D01*
X159576342Y-104607771D02*
X160776342Y-104607771D01*
X159919200Y-104207771D01*
X160776342Y-103807771D01*
X159576342Y-103807771D01*
X159576342Y-102607771D02*
X159576342Y-103293485D01*
X159576342Y-102950628D02*
X160776342Y-102950628D01*
X160604914Y-103064914D01*
X160490628Y-103179200D01*
X160433485Y-103293485D01*
X159576342Y-101464914D02*
X159576342Y-102150628D01*
X159576342Y-101807771D02*
X160776342Y-101807771D01*
X160604914Y-101922057D01*
X160490628Y-102036342D01*
X160433485Y-102150628D01*
X159576342Y-100322057D02*
X159576342Y-101007771D01*
X159576342Y-100664914D02*
X160776342Y-100664914D01*
X160604914Y-100779200D01*
X160490628Y-100893485D01*
X160433485Y-101007771D01*
X160776342Y-99922057D02*
X160776342Y-99122057D01*
X159576342Y-99636342D01*
X160776342Y-97864914D02*
X160776342Y-97122057D01*
X160319200Y-97522057D01*
X160319200Y-97350628D01*
X160262057Y-97236342D01*
X160204914Y-97179200D01*
X160090628Y-97122057D01*
X159804914Y-97122057D01*
X159690628Y-97179200D01*
X159633485Y-97236342D01*
X159576342Y-97350628D01*
X159576342Y-97693485D01*
X159633485Y-97807771D01*
X159690628Y-97864914D01*
X159690628Y-96607771D02*
X159633485Y-96550628D01*
X159576342Y-96607771D01*
X159633485Y-96664914D01*
X159690628Y-96607771D01*
X159576342Y-96607771D01*
X160776342Y-96150628D02*
X160776342Y-95407771D01*
X160319200Y-95807771D01*
X160319200Y-95636342D01*
X160262057Y-95522057D01*
X160204914Y-95464914D01*
X160090628Y-95407771D01*
X159804914Y-95407771D01*
X159690628Y-95464914D01*
X159633485Y-95522057D01*
X159576342Y-95636342D01*
X159576342Y-95979200D01*
X159633485Y-96093485D01*
X159690628Y-96150628D01*
X160776342Y-95064914D02*
X159576342Y-94664914D01*
X160776342Y-94264914D01*
X157758628Y-110607771D02*
X157701485Y-110664914D01*
X157644342Y-110836342D01*
X157644342Y-110950628D01*
X157701485Y-111122057D01*
X157815771Y-111236342D01*
X157930057Y-111293485D01*
X158158628Y-111350628D01*
X158330057Y-111350628D01*
X158558628Y-111293485D01*
X158672914Y-111236342D01*
X158787200Y-111122057D01*
X158844342Y-110950628D01*
X158844342Y-110836342D01*
X158787200Y-110664914D01*
X158730057Y-110607771D01*
X157644342Y-109464914D02*
X157644342Y-110150628D01*
X157644342Y-109807771D02*
X158844342Y-109807771D01*
X158672914Y-109922057D01*
X158558628Y-110036342D01*
X158501485Y-110150628D01*
X157701485Y-108893485D02*
X157644342Y-108893485D01*
X157530057Y-108950628D01*
X157472914Y-109007771D01*
X157758628Y-106779200D02*
X157701485Y-106836342D01*
X157644342Y-107007771D01*
X157644342Y-107122057D01*
X157701485Y-107293485D01*
X157815771Y-107407771D01*
X157930057Y-107464914D01*
X158158628Y-107522057D01*
X158330057Y-107522057D01*
X158558628Y-107464914D01*
X158672914Y-107407771D01*
X158787200Y-107293485D01*
X158844342Y-107122057D01*
X158844342Y-107007771D01*
X158787200Y-106836342D01*
X158730057Y-106779200D01*
X158730057Y-106322057D02*
X158787200Y-106264914D01*
X158844342Y-106150628D01*
X158844342Y-105864914D01*
X158787200Y-105750628D01*
X158730057Y-105693485D01*
X158615771Y-105636342D01*
X158501485Y-105636342D01*
X158330057Y-105693485D01*
X157644342Y-106379200D01*
X157644342Y-105636342D01*
X158272914Y-104207771D02*
X158272914Y-103293485D01*
X157930057Y-103293485D02*
X157930057Y-104207771D01*
X158844342Y-101579200D02*
X158844342Y-101464914D01*
X158787200Y-101350628D01*
X158730057Y-101293485D01*
X158615771Y-101236342D01*
X158387200Y-101179200D01*
X158101485Y-101179200D01*
X157872914Y-101236342D01*
X157758628Y-101293485D01*
X157701485Y-101350628D01*
X157644342Y-101464914D01*
X157644342Y-101579200D01*
X157701485Y-101693485D01*
X157758628Y-101750628D01*
X157872914Y-101807771D01*
X158101485Y-101864914D01*
X158387200Y-101864914D01*
X158615771Y-101807771D01*
X158730057Y-101750628D01*
X158787200Y-101693485D01*
X158844342Y-101579200D01*
X158844342Y-100150628D02*
X158844342Y-100379200D01*
X158787200Y-100493485D01*
X158730057Y-100550628D01*
X158558628Y-100664914D01*
X158330057Y-100722057D01*
X157872914Y-100722057D01*
X157758628Y-100664914D01*
X157701485Y-100607771D01*
X157644342Y-100493485D01*
X157644342Y-100264914D01*
X157701485Y-100150628D01*
X157758628Y-100093485D01*
X157872914Y-100036342D01*
X158158628Y-100036342D01*
X158272914Y-100093485D01*
X158330057Y-100150628D01*
X158387200Y-100264914D01*
X158387200Y-100493485D01*
X158330057Y-100607771D01*
X158272914Y-100664914D01*
X158158628Y-100722057D01*
X158844342Y-99293485D02*
X158844342Y-99179200D01*
X158787200Y-99064914D01*
X158730057Y-99007771D01*
X158615771Y-98950628D01*
X158387200Y-98893485D01*
X158101485Y-98893485D01*
X157872914Y-98950628D01*
X157758628Y-99007771D01*
X157701485Y-99064914D01*
X157644342Y-99179200D01*
X157644342Y-99293485D01*
X157701485Y-99407771D01*
X157758628Y-99464914D01*
X157872914Y-99522057D01*
X158101485Y-99579200D01*
X158387200Y-99579200D01*
X158615771Y-99522057D01*
X158730057Y-99464914D01*
X158787200Y-99407771D01*
X158844342Y-99293485D01*
X158844342Y-98493485D02*
X158844342Y-97750628D01*
X158387200Y-98150628D01*
X158387200Y-97979200D01*
X158330057Y-97864914D01*
X158272914Y-97807771D01*
X158158628Y-97750628D01*
X157872914Y-97750628D01*
X157758628Y-97807771D01*
X157701485Y-97864914D01*
X157644342Y-97979200D01*
X157644342Y-98322057D01*
X157701485Y-98436342D01*
X157758628Y-98493485D01*
X157644342Y-95693485D02*
X157644342Y-96379200D01*
X157644342Y-96036342D02*
X158844342Y-96036342D01*
X158672914Y-96150628D01*
X158558628Y-96264914D01*
X158501485Y-96379200D01*
X158844342Y-94950628D02*
X158844342Y-94836342D01*
X158787200Y-94722057D01*
X158730057Y-94664914D01*
X158615771Y-94607771D01*
X158387200Y-94550628D01*
X158101485Y-94550628D01*
X157872914Y-94607771D01*
X157758628Y-94664914D01*
X157701485Y-94722057D01*
X157644342Y-94836342D01*
X157644342Y-94950628D01*
X157701485Y-95064914D01*
X157758628Y-95122057D01*
X157872914Y-95179200D01*
X158101485Y-95236342D01*
X158387200Y-95236342D01*
X158615771Y-95179200D01*
X158730057Y-95122057D01*
X158787200Y-95064914D01*
X158844342Y-94950628D01*
X158444342Y-93522057D02*
X157644342Y-93522057D01*
X158444342Y-94036342D02*
X157815771Y-94036342D01*
X157701485Y-93979200D01*
X157644342Y-93864914D01*
X157644342Y-93693485D01*
X157701485Y-93579200D01*
X157758628Y-93522057D01*
X158272914Y-92550628D02*
X158272914Y-92950628D01*
X157644342Y-92950628D02*
X158844342Y-92950628D01*
X158844342Y-92379200D01*
D12*
X165768742Y-122778057D02*
X165554457Y-122849485D01*
X165483028Y-122920914D01*
X165411600Y-123063771D01*
X165411600Y-123278057D01*
X165483028Y-123420914D01*
X165554457Y-123492342D01*
X165697314Y-123563771D01*
X166268742Y-123563771D01*
X166268742Y-122063771D01*
X165768742Y-122063771D01*
X165625885Y-122135200D01*
X165554457Y-122206628D01*
X165483028Y-122349485D01*
X165483028Y-122492342D01*
X165554457Y-122635200D01*
X165625885Y-122706628D01*
X165768742Y-122778057D01*
X166268742Y-122778057D01*
X164125885Y-122563771D02*
X164125885Y-123563771D01*
X164768742Y-122563771D02*
X164768742Y-123349485D01*
X164697314Y-123492342D01*
X164554457Y-123563771D01*
X164340171Y-123563771D01*
X164197314Y-123492342D01*
X164125885Y-123420914D01*
X163554457Y-122563771D02*
X162768742Y-122563771D01*
X163554457Y-123563771D01*
X162768742Y-123563771D01*
X162340171Y-122563771D02*
X161554457Y-122563771D01*
X162340171Y-123563771D01*
X161554457Y-123563771D01*
X161125885Y-122563771D02*
X160768742Y-123563771D01*
X160411600Y-122563771D02*
X160768742Y-123563771D01*
X160911600Y-123920914D01*
X160983028Y-123992342D01*
X161125885Y-124063771D01*
X158983028Y-123420914D02*
X159054457Y-123492342D01*
X159268742Y-123563771D01*
X159411600Y-123563771D01*
X159625885Y-123492342D01*
X159768742Y-123349485D01*
X159840171Y-123206628D01*
X159911600Y-122920914D01*
X159911600Y-122706628D01*
X159840171Y-122420914D01*
X159768742Y-122278057D01*
X159625885Y-122135200D01*
X159411600Y-122063771D01*
X159268742Y-122063771D01*
X159054457Y-122135200D01*
X158983028Y-122206628D01*
%TO.C,G\u002A\u002A\u002A*%
G36*
X164163727Y-117471840D02*
G01*
X164167774Y-117428597D01*
X164172763Y-117404118D01*
X164206853Y-117289748D01*
X164255259Y-117188978D01*
X164314218Y-117107867D01*
X164379965Y-117052474D01*
X164396748Y-117043484D01*
X164473641Y-117022063D01*
X164568070Y-117018281D01*
X164670419Y-117030438D01*
X164771074Y-117056838D01*
X164860418Y-117095781D01*
X164918133Y-117135564D01*
X164984849Y-117210070D01*
X165019337Y-117289062D01*
X165021717Y-117374032D01*
X164992107Y-117466470D01*
X164950432Y-117539417D01*
X164875048Y-117631616D01*
X164791929Y-117691824D01*
X164699697Y-117720774D01*
X164608666Y-117720822D01*
X164462712Y-117695646D01*
X164347287Y-117660072D01*
X164261080Y-117613553D01*
X164202775Y-117555545D01*
X164199625Y-117550919D01*
X164196789Y-117546184D01*
X164449944Y-117546184D01*
X164475635Y-117560861D01*
X164525863Y-117578363D01*
X164567353Y-117589654D01*
X164679462Y-117608780D01*
X164768407Y-117604262D01*
X164834036Y-117576120D01*
X164855762Y-117555936D01*
X164879691Y-117522213D01*
X164889742Y-117486157D01*
X164889274Y-117433876D01*
X164888304Y-117421330D01*
X164877960Y-117365145D01*
X164857668Y-117300611D01*
X164831335Y-117236605D01*
X164802869Y-117182007D01*
X164776179Y-117145694D01*
X164762931Y-117136470D01*
X164752541Y-117140717D01*
X164748319Y-117165706D01*
X164749831Y-117216313D01*
X164752617Y-117252907D01*
X164757295Y-117316882D01*
X164756424Y-117358211D01*
X164747629Y-117387431D01*
X164728536Y-117415076D01*
X164711653Y-117434718D01*
X164642842Y-117489694D01*
X164556101Y-117523584D01*
X164482566Y-117532333D01*
X164451387Y-117536089D01*
X164449944Y-117546184D01*
X164196789Y-117546184D01*
X164173314Y-117506988D01*
X164163727Y-117471840D01*
G37*
G36*
X164972404Y-120465598D02*
G01*
X164998712Y-120484036D01*
X165027429Y-120511527D01*
X165030356Y-120532389D01*
X165023919Y-120542369D01*
X164994568Y-120558778D01*
X164952305Y-120565650D01*
X164914544Y-120561227D01*
X164903111Y-120554555D01*
X164894969Y-120531243D01*
X164892000Y-120496222D01*
X164901815Y-120459337D01*
X164929499Y-120449028D01*
X164972404Y-120465598D01*
G37*
G36*
X162437733Y-120593378D02*
G01*
X162453501Y-120550609D01*
X162468466Y-120537797D01*
X162511612Y-120538269D01*
X162570933Y-120566803D01*
X162646748Y-120623597D01*
X162724218Y-120694061D01*
X162777828Y-120743644D01*
X162823815Y-120782115D01*
X162856426Y-120804897D01*
X162868638Y-120808935D01*
X162887372Y-120791922D01*
X162918982Y-120753506D01*
X162958566Y-120700483D01*
X163001219Y-120639646D01*
X163042041Y-120577789D01*
X163076127Y-120521706D01*
X163076962Y-120520241D01*
X163117000Y-120449816D01*
X163075333Y-120421814D01*
X163024017Y-120380695D01*
X162962432Y-120321762D01*
X162899441Y-120254497D01*
X162843904Y-120188385D01*
X162804684Y-120132907D01*
X162803527Y-120130953D01*
X162783231Y-120087008D01*
X162758355Y-120019051D01*
X162731740Y-119935569D01*
X162706224Y-119845048D01*
X162700632Y-119823426D01*
X162668062Y-119677566D01*
X162643431Y-119525489D01*
X162626364Y-119362093D01*
X162616487Y-119182279D01*
X162615040Y-119087082D01*
X162746944Y-119087082D01*
X162758659Y-119299410D01*
X162784493Y-119503832D01*
X162823461Y-119693194D01*
X162874580Y-119860343D01*
X162892125Y-119905056D01*
X162968074Y-120057825D01*
X163062488Y-120192307D01*
X163178912Y-120312073D01*
X163320895Y-120420692D01*
X163491983Y-120521735D01*
X163518423Y-120535460D01*
X163621884Y-120585425D01*
X163721528Y-120626422D01*
X163826908Y-120661694D01*
X163947578Y-120694486D01*
X164072168Y-120723462D01*
X164197139Y-120753356D01*
X164291076Y-120781435D01*
X164356164Y-120808632D01*
X164394588Y-120835884D01*
X164408533Y-120864123D01*
X164408666Y-120867322D01*
X164398938Y-120904831D01*
X164375045Y-120949031D01*
X164370246Y-120955760D01*
X164339460Y-121000761D01*
X164303471Y-121058451D01*
X164284658Y-121090666D01*
X164235264Y-121170610D01*
X164191491Y-121221279D01*
X164148085Y-121244908D01*
X164099790Y-121243733D01*
X164041351Y-121219986D01*
X164015048Y-121205308D01*
X163971716Y-121182009D01*
X163941291Y-121169549D01*
X163932949Y-121169161D01*
X163933533Y-121188803D01*
X163944756Y-121231311D01*
X163963850Y-121289034D01*
X163988048Y-121354318D01*
X164014580Y-121419512D01*
X164040679Y-121476965D01*
X164052899Y-121500759D01*
X164089629Y-121558563D01*
X164130081Y-121607303D01*
X164167478Y-121639710D01*
X164191129Y-121649000D01*
X164208888Y-121638041D01*
X164238569Y-121610920D01*
X164246123Y-121603166D01*
X164281984Y-121554877D01*
X164324758Y-121479737D01*
X164372026Y-121382895D01*
X164421371Y-121269501D01*
X164470375Y-121144705D01*
X164500190Y-121061961D01*
X164529410Y-120978015D01*
X164553616Y-120917935D01*
X164578718Y-120878578D01*
X164610629Y-120856801D01*
X164655261Y-120849461D01*
X164718526Y-120853415D01*
X164806335Y-120865521D01*
X164855893Y-120872858D01*
X164981539Y-120889487D01*
X165081216Y-120897881D01*
X165161334Y-120897730D01*
X165228299Y-120888724D01*
X165288521Y-120870554D01*
X165335171Y-120849703D01*
X165386250Y-120820129D01*
X165454365Y-120775097D01*
X165530963Y-120720512D01*
X165607493Y-120662282D01*
X165614262Y-120656925D01*
X165705233Y-120581927D01*
X165771460Y-120519031D01*
X165816295Y-120462400D01*
X165843087Y-120406198D01*
X165855189Y-120344588D01*
X165855951Y-120271735D01*
X165853938Y-120239533D01*
X165828968Y-120103717D01*
X165777273Y-119981470D01*
X165701642Y-119877029D01*
X165604863Y-119794629D01*
X165536132Y-119756771D01*
X165449483Y-119726910D01*
X165341933Y-119703818D01*
X165225535Y-119689236D01*
X165112342Y-119684902D01*
X165056256Y-119687481D01*
X164965138Y-119689505D01*
X164894746Y-119679415D01*
X164849341Y-119658132D01*
X164835623Y-119639756D01*
X164835689Y-119620841D01*
X164854071Y-119603456D01*
X164894688Y-119585757D01*
X164918750Y-119578602D01*
X165642260Y-119578602D01*
X165656935Y-119601340D01*
X165692136Y-119624070D01*
X165755309Y-119667421D01*
X165824587Y-119732115D01*
X165892020Y-119809274D01*
X165949653Y-119890016D01*
X165981464Y-119947160D01*
X166006016Y-120001993D01*
X166021408Y-120047986D01*
X166029743Y-120096261D01*
X166033121Y-120157940D01*
X166033666Y-120223456D01*
X166033666Y-120389578D01*
X166100333Y-120410552D01*
X166168923Y-120424331D01*
X166244159Y-120427377D01*
X166315105Y-120420419D01*
X166370822Y-120404180D01*
X166391375Y-120391231D01*
X166419929Y-120348230D01*
X166421258Y-120294371D01*
X166394853Y-120228353D01*
X166340204Y-120148874D01*
X166261257Y-120059292D01*
X166221965Y-120016942D01*
X166204421Y-119993863D01*
X166206555Y-119986008D01*
X166225333Y-119989070D01*
X166266319Y-119997497D01*
X166323647Y-120006375D01*
X166354749Y-120010301D01*
X166429741Y-120009634D01*
X166480624Y-119988283D01*
X166505971Y-119947064D01*
X166508666Y-119922626D01*
X166493969Y-119882287D01*
X166457011Y-119845556D01*
X166408492Y-119821016D01*
X166375324Y-119815666D01*
X166338322Y-119808687D01*
X166287107Y-119790437D01*
X166229679Y-119764947D01*
X166174036Y-119736249D01*
X166128177Y-119708374D01*
X166100101Y-119685355D01*
X166095254Y-119674507D01*
X166107936Y-119656586D01*
X166140428Y-119618779D01*
X166189184Y-119564983D01*
X166250655Y-119499094D01*
X166321296Y-119425009D01*
X166340342Y-119405283D01*
X166446029Y-119294406D01*
X166529762Y-119202290D01*
X166594281Y-119125302D01*
X166642325Y-119059813D01*
X166676634Y-119002190D01*
X166699948Y-118948804D01*
X166710496Y-118914682D01*
X166720231Y-118832358D01*
X166705982Y-118761138D01*
X166670728Y-118706308D01*
X166617448Y-118673151D01*
X166570117Y-118665666D01*
X166536148Y-118669065D01*
X166509242Y-118683653D01*
X166480725Y-118716016D01*
X166454898Y-118753166D01*
X166387649Y-118844014D01*
X166297546Y-118950619D01*
X166188460Y-119068815D01*
X166064264Y-119194439D01*
X165928830Y-119323326D01*
X165900877Y-119349000D01*
X165827826Y-119415257D01*
X165762784Y-119473425D01*
X165709902Y-119519857D01*
X165673332Y-119550906D01*
X165657343Y-119562888D01*
X165642260Y-119578602D01*
X164918750Y-119578602D01*
X164961454Y-119565904D01*
X165028372Y-119549133D01*
X165187599Y-119521399D01*
X165335194Y-119518656D01*
X165443356Y-119532590D01*
X165495591Y-119541352D01*
X165528475Y-119540027D01*
X165555366Y-119524959D01*
X165589554Y-119492557D01*
X165646511Y-119435599D01*
X165577445Y-119391999D01*
X165433854Y-119320712D01*
X165277333Y-119278581D01*
X165112302Y-119266299D01*
X164943180Y-119284559D01*
X164921629Y-119289100D01*
X164840936Y-119309265D01*
X164787617Y-119329190D01*
X164755913Y-119352293D01*
X164740063Y-119381992D01*
X164736483Y-119399000D01*
X164727930Y-119426363D01*
X164706293Y-119438222D01*
X164665339Y-119440666D01*
X164600333Y-119440666D01*
X164591443Y-119024000D01*
X164708872Y-118682333D01*
X164802073Y-118403170D01*
X164890025Y-118124025D01*
X164969770Y-117854605D01*
X165038349Y-117604620D01*
X165044150Y-117582333D01*
X165069055Y-117480582D01*
X165085215Y-117397302D01*
X165094436Y-117319345D01*
X165098521Y-117233561D01*
X165099218Y-117180942D01*
X165100333Y-116987884D01*
X165018654Y-116823176D01*
X164939817Y-116683827D01*
X164855865Y-116575967D01*
X164764520Y-116498823D01*
X164663506Y-116451622D01*
X164550543Y-116433589D01*
X164423355Y-116443951D01*
X164279664Y-116481934D01*
X164155418Y-116529913D01*
X164073364Y-116565768D01*
X163995409Y-116600927D01*
X163930537Y-116631274D01*
X163888751Y-116652140D01*
X163846003Y-116675074D01*
X163817363Y-116690405D01*
X163811217Y-116693671D01*
X163815138Y-116708847D01*
X163830860Y-116746039D01*
X163855100Y-116797542D01*
X163857967Y-116803386D01*
X163892468Y-116887903D01*
X163915450Y-116973137D01*
X163920336Y-117005402D01*
X163927425Y-117059163D01*
X163936172Y-117085785D01*
X163949280Y-117091444D01*
X163956919Y-117088976D01*
X164006964Y-117076554D01*
X164050350Y-117081496D01*
X164080168Y-117099907D01*
X164089513Y-117127889D01*
X164076211Y-117156275D01*
X164051780Y-117175317D01*
X164005365Y-117203459D01*
X163945244Y-117235830D01*
X163917337Y-117249789D01*
X163824858Y-117298358D01*
X163760388Y-117339612D01*
X163724515Y-117372652D01*
X163717831Y-117396578D01*
X163740925Y-117410488D01*
X163794389Y-117413484D01*
X163810568Y-117412568D01*
X163857196Y-117406513D01*
X163878806Y-117394323D01*
X163883696Y-117374222D01*
X163894716Y-117344283D01*
X163922809Y-117337200D01*
X163960639Y-117353130D01*
X163983277Y-117372095D01*
X164019345Y-117419443D01*
X164023463Y-117457365D01*
X163995658Y-117485842D01*
X163935960Y-117504852D01*
X163844396Y-117514376D01*
X163785346Y-117515573D01*
X163669246Y-117510674D01*
X163584114Y-117495816D01*
X163528949Y-117470489D01*
X163502751Y-117434180D01*
X163504520Y-117386379D01*
X163508664Y-117374006D01*
X163520772Y-117340592D01*
X163525333Y-117325180D01*
X163510578Y-117320073D01*
X163473444Y-117313095D01*
X163454500Y-117310254D01*
X163395214Y-117301106D01*
X163339852Y-117291299D01*
X163331424Y-117289623D01*
X163303759Y-117285303D01*
X163285368Y-117290465D01*
X163270716Y-117311340D01*
X163254267Y-117354157D01*
X163242210Y-117390032D01*
X163224751Y-117445375D01*
X163213570Y-117486541D01*
X163210918Y-117505182D01*
X163211120Y-117505435D01*
X163228698Y-117510159D01*
X163272851Y-117520136D01*
X163337477Y-117534037D01*
X163416476Y-117550532D01*
X163442000Y-117555774D01*
X163544820Y-117577723D01*
X163664665Y-117604806D01*
X163795581Y-117635536D01*
X163931617Y-117668431D01*
X164066821Y-117702005D01*
X164195242Y-117734774D01*
X164310926Y-117765254D01*
X164407922Y-117791961D01*
X164480279Y-117813409D01*
X164497609Y-117819038D01*
X164552311Y-117839780D01*
X164590958Y-117858987D01*
X164606070Y-117872862D01*
X164605942Y-117874000D01*
X164591581Y-117885417D01*
X164557061Y-117891075D01*
X164500859Y-117890786D01*
X164421452Y-117884359D01*
X164317315Y-117871604D01*
X164186926Y-117852334D01*
X164028760Y-117826358D01*
X163841294Y-117793486D01*
X163623003Y-117753531D01*
X163595506Y-117748408D01*
X163477574Y-117726532D01*
X163369995Y-117706826D01*
X163277235Y-117690089D01*
X163203761Y-117677118D01*
X163154041Y-117668711D01*
X163132540Y-117665667D01*
X163132451Y-117665666D01*
X163120492Y-117680300D01*
X163097632Y-117721349D01*
X163065973Y-117784538D01*
X163027617Y-117865588D01*
X162984666Y-117960225D01*
X162958398Y-118019833D01*
X162901780Y-118151521D01*
X162857582Y-118260554D01*
X162823984Y-118354415D01*
X162799163Y-118440585D01*
X162781295Y-118526546D01*
X162768559Y-118619781D01*
X162759132Y-118727770D01*
X162751191Y-118857997D01*
X162750330Y-118874000D01*
X162746944Y-119087082D01*
X162615040Y-119087082D01*
X162613426Y-118980944D01*
X162616807Y-118752988D01*
X162618296Y-118701387D01*
X162629844Y-118328775D01*
X162787721Y-117984720D01*
X162839801Y-117873428D01*
X162894001Y-117761458D01*
X162946629Y-117656173D01*
X162993991Y-117564931D01*
X163032393Y-117495093D01*
X163039632Y-117482727D01*
X163133666Y-117324788D01*
X163128649Y-117146001D01*
X163128630Y-117142404D01*
X163508666Y-117142404D01*
X163522876Y-117150508D01*
X163557094Y-117161864D01*
X163598707Y-117172882D01*
X163635101Y-117179972D01*
X163643679Y-117180830D01*
X163677554Y-117176584D01*
X163722208Y-117164256D01*
X163723198Y-117163913D01*
X163770917Y-117138315D01*
X163797788Y-117098148D01*
X163807912Y-117036118D01*
X163808300Y-117012595D01*
X163802402Y-116960950D01*
X163787601Y-116904308D01*
X163767535Y-116852129D01*
X163745843Y-116813873D01*
X163726163Y-116799000D01*
X163726148Y-116799000D01*
X163715458Y-116813842D01*
X163709240Y-116851169D01*
X163708604Y-116869833D01*
X163692671Y-116956755D01*
X163645396Y-117033048D01*
X163575983Y-117092214D01*
X163536902Y-117119132D01*
X163512615Y-117137891D01*
X163508666Y-117142404D01*
X163128630Y-117142404D01*
X163128221Y-117064151D01*
X163131104Y-116987456D01*
X163136738Y-116926543D01*
X163141587Y-116900531D01*
X163182224Y-116809368D01*
X163248595Y-116738074D01*
X163338681Y-116688055D01*
X163450463Y-116660719D01*
X163491212Y-116656948D01*
X163531370Y-116653578D01*
X163569151Y-116647263D01*
X163609726Y-116636033D01*
X163658265Y-116617915D01*
X163719938Y-116590938D01*
X163799915Y-116553133D01*
X163903368Y-116502527D01*
X163927416Y-116490654D01*
X164069738Y-116421977D01*
X164188285Y-116369062D01*
X164287901Y-116330573D01*
X164373425Y-116305175D01*
X164449699Y-116291534D01*
X164521564Y-116288314D01*
X164593862Y-116294181D01*
X164623549Y-116298699D01*
X164747617Y-116329851D01*
X164867961Y-116382333D01*
X164991614Y-116459587D01*
X165064415Y-116514546D01*
X165127598Y-116566278D01*
X165176088Y-116611873D01*
X165211805Y-116656824D01*
X165236670Y-116706620D01*
X165252604Y-116766750D01*
X165261526Y-116842705D01*
X165265358Y-116939975D01*
X165266020Y-117064050D01*
X165265947Y-117090666D01*
X165253734Y-117398622D01*
X165218594Y-117686088D01*
X165159587Y-117957627D01*
X165075775Y-118217802D01*
X164993540Y-118413704D01*
X164951528Y-118508455D01*
X164909555Y-118609952D01*
X164872553Y-118705876D01*
X164845953Y-118782333D01*
X164822272Y-118862509D01*
X164800474Y-118946381D01*
X164781933Y-119027304D01*
X164768020Y-119098635D01*
X164760109Y-119153731D01*
X164759572Y-119185947D01*
X164761559Y-119190781D01*
X164780347Y-119190569D01*
X164823065Y-119182744D01*
X164881602Y-119168880D01*
X164901744Y-119163588D01*
X165001840Y-119142058D01*
X165110169Y-119130413D01*
X165217000Y-119127153D01*
X165345546Y-119131858D01*
X165451255Y-119149306D01*
X165543079Y-119182208D01*
X165629968Y-119233276D01*
X165672786Y-119265223D01*
X165753502Y-119329026D01*
X166026132Y-119021069D01*
X166137660Y-118896451D01*
X166231145Y-118795635D01*
X166309435Y-118716447D01*
X166375375Y-118656716D01*
X166431815Y-118614267D01*
X166481601Y-118586929D01*
X166527580Y-118572528D01*
X166572601Y-118568891D01*
X166613496Y-118572839D01*
X166715561Y-118601560D01*
X166790921Y-118649510D01*
X166838442Y-118714557D01*
X166856988Y-118794568D01*
X166845426Y-118887411D01*
X166818830Y-118958851D01*
X166797682Y-118998197D01*
X166761210Y-119059557D01*
X166712867Y-119137400D01*
X166656102Y-119226195D01*
X166594366Y-119320414D01*
X166576400Y-119347402D01*
X166516540Y-119437423D01*
X166462864Y-119518964D01*
X166418197Y-119587668D01*
X166385363Y-119639176D01*
X166367188Y-119669130D01*
X166364657Y-119674095D01*
X166373728Y-119695242D01*
X166414366Y-119724535D01*
X166461416Y-119749854D01*
X166554410Y-119802447D01*
X166614633Y-119851695D01*
X166642324Y-119898906D01*
X166637720Y-119945389D01*
X166601057Y-119992451D01*
X166532574Y-120041399D01*
X166516048Y-120050985D01*
X166424892Y-120102430D01*
X166476888Y-120161651D01*
X166505435Y-120196957D01*
X166520187Y-120227882D01*
X166524602Y-120266979D01*
X166522186Y-120326064D01*
X166514312Y-120395077D01*
X166499260Y-120441389D01*
X166478150Y-120471001D01*
X166412506Y-120516761D01*
X166321226Y-120542039D01*
X166205055Y-120546726D01*
X166064737Y-120530715D01*
X166063827Y-120530557D01*
X166006243Y-120521216D01*
X165971458Y-120519647D01*
X165949460Y-120527750D01*
X165930235Y-120547422D01*
X165922305Y-120557397D01*
X165889604Y-120592225D01*
X165836686Y-120641233D01*
X165770221Y-120698898D01*
X165696878Y-120759696D01*
X165623325Y-120818102D01*
X165556231Y-120868592D01*
X165502267Y-120905642D01*
X165500691Y-120906632D01*
X165441043Y-120940020D01*
X165366526Y-120976377D01*
X165296540Y-121006487D01*
X165229472Y-121031237D01*
X165177094Y-121044264D01*
X165124013Y-121047856D01*
X165054837Y-121044302D01*
X165046540Y-121043649D01*
X164962189Y-121033470D01*
X164870830Y-121017203D01*
X164800333Y-121000479D01*
X164742072Y-120985947D01*
X164696897Y-120978138D01*
X164673686Y-120978537D01*
X164672839Y-120979162D01*
X164663015Y-120997514D01*
X164642403Y-121041382D01*
X164613329Y-121105634D01*
X164578118Y-121185139D01*
X164543635Y-121264265D01*
X164501665Y-121359154D01*
X164460239Y-121449040D01*
X164422647Y-121527054D01*
X164392181Y-121586324D01*
X164376036Y-121614265D01*
X164327848Y-121681633D01*
X164276707Y-121740881D01*
X164228409Y-121786247D01*
X164188751Y-121811968D01*
X164173480Y-121815666D01*
X164143904Y-121804999D01*
X164102289Y-121777680D01*
X164075357Y-121755372D01*
X164018694Y-121695026D01*
X163957150Y-121614852D01*
X163898233Y-121525973D01*
X163849449Y-121439507D01*
X163824146Y-121383245D01*
X163798543Y-121304244D01*
X163779543Y-121222823D01*
X163768436Y-121147540D01*
X163766513Y-121086957D01*
X163774101Y-121051302D01*
X163809761Y-121019054D01*
X163870443Y-121005883D01*
X163953634Y-121012079D01*
X164009297Y-121024163D01*
X164116189Y-121051861D01*
X164154011Y-121004597D01*
X164179198Y-120968612D01*
X164191639Y-120941999D01*
X164191917Y-120939547D01*
X164176917Y-120927745D01*
X164137016Y-120912221D01*
X164079985Y-120895857D01*
X164062833Y-120891709D01*
X163919555Y-120855121D01*
X163784333Y-120814418D01*
X163665583Y-120772340D01*
X163573757Y-120732631D01*
X163480515Y-120686601D01*
X163158249Y-121019528D01*
X163072256Y-121107532D01*
X162991923Y-121188169D01*
X162920673Y-121258126D01*
X162861928Y-121314093D01*
X162819109Y-121352758D01*
X162795637Y-121370810D01*
X162794870Y-121371188D01*
X162771819Y-121378825D01*
X162750849Y-121374813D01*
X162724827Y-121354945D01*
X162686621Y-121315014D01*
X162671836Y-121298626D01*
X162580870Y-121175137D01*
X162507905Y-121030267D01*
X162457281Y-120873041D01*
X162449123Y-120835413D01*
X162435173Y-120741482D01*
X162431667Y-120662657D01*
X162509436Y-120662657D01*
X162513881Y-120712884D01*
X162526792Y-120781423D01*
X162546794Y-120861736D01*
X162572514Y-120947283D01*
X162591416Y-121001964D01*
X162627977Y-121090302D01*
X162665810Y-121161064D01*
X162701973Y-121209675D01*
X162733523Y-121231559D01*
X162739552Y-121232333D01*
X162759757Y-121222926D01*
X162798303Y-121198130D01*
X162847264Y-121163081D01*
X162852848Y-121158893D01*
X162892901Y-121125874D01*
X162946819Y-121077413D01*
X163010417Y-121017699D01*
X163079511Y-120950926D01*
X163149916Y-120881284D01*
X163217447Y-120812964D01*
X163277920Y-120750157D01*
X163327151Y-120697055D01*
X163360954Y-120657849D01*
X163375146Y-120636730D01*
X163375333Y-120635576D01*
X163362143Y-120617935D01*
X163330368Y-120593663D01*
X163291700Y-120570072D01*
X163257833Y-120554473D01*
X163242446Y-120552482D01*
X163227732Y-120566749D01*
X163197167Y-120601630D01*
X163155523Y-120651548D01*
X163117086Y-120699000D01*
X163044314Y-120788119D01*
X162980793Y-120862318D01*
X162929243Y-120918620D01*
X162892381Y-120954050D01*
X162873441Y-120965666D01*
X162858176Y-120954377D01*
X162824246Y-120923349D01*
X162776118Y-120876844D01*
X162718259Y-120819123D01*
X162694615Y-120795097D01*
X162634391Y-120735291D01*
X162582006Y-120686452D01*
X162541897Y-120652474D01*
X162518503Y-120637254D01*
X162514828Y-120637282D01*
X162509436Y-120662657D01*
X162431667Y-120662657D01*
X162431500Y-120658903D01*
X162437733Y-120593378D01*
G37*
G36*
X165001513Y-120220528D02*
G01*
X165008666Y-120261462D01*
X164997354Y-120300821D01*
X164969126Y-120338120D01*
X164932549Y-120366592D01*
X164896186Y-120379467D01*
X164869777Y-120371222D01*
X164858875Y-120341038D01*
X164860319Y-120296362D01*
X164872126Y-120252796D01*
X164887833Y-120229116D01*
X164937167Y-120198171D01*
X164976419Y-120195672D01*
X165001513Y-120220528D01*
G37*
G36*
X165241325Y-119923300D02*
G01*
X165255857Y-119975639D01*
X165258439Y-120019833D01*
X165253688Y-120053023D01*
X165231958Y-120063655D01*
X165212833Y-120063733D01*
X165167736Y-120059610D01*
X165139252Y-120054451D01*
X165108199Y-120034323D01*
X165105799Y-119999868D01*
X165132144Y-119953948D01*
X165135844Y-119949451D01*
X165179712Y-119909283D01*
X165215408Y-119900873D01*
X165241325Y-119923300D01*
G37*
G36*
X164249457Y-118412908D02*
G01*
X164249647Y-118446472D01*
X164238946Y-118510497D01*
X164217600Y-118604026D01*
X164185857Y-118726101D01*
X164143963Y-118875766D01*
X164092167Y-119052065D01*
X164040539Y-119222138D01*
X163918167Y-119620276D01*
X163817583Y-119665406D01*
X163743627Y-119703099D01*
X163696796Y-119737092D01*
X163678993Y-119765711D01*
X163685206Y-119782039D01*
X163709584Y-119791693D01*
X163754750Y-119799552D01*
X163783666Y-119802166D01*
X163833154Y-119806516D01*
X163858493Y-119815705D01*
X163868838Y-119835962D01*
X163872293Y-119862455D01*
X163884466Y-119904870D01*
X163906573Y-119927979D01*
X163931509Y-119926659D01*
X163943686Y-119913928D01*
X163958008Y-119882826D01*
X163973471Y-119837076D01*
X163975457Y-119830108D01*
X163993697Y-119783750D01*
X164016300Y-119749849D01*
X164019303Y-119747088D01*
X164037585Y-119737333D01*
X164057502Y-119743782D01*
X164086437Y-119770394D01*
X164108948Y-119795146D01*
X164154286Y-119841982D01*
X164185145Y-119861904D01*
X164205220Y-119855941D01*
X164218099Y-119825552D01*
X164218394Y-119779573D01*
X164195532Y-119726593D01*
X164147174Y-119661452D01*
X164139796Y-119652861D01*
X164107065Y-119608102D01*
X164084649Y-119564718D01*
X164081728Y-119555545D01*
X164075615Y-119480348D01*
X164087983Y-119385965D01*
X164117389Y-119279932D01*
X164150772Y-119195003D01*
X164184314Y-119115841D01*
X164218256Y-119027534D01*
X164254523Y-118924580D01*
X164295036Y-118801478D01*
X164341721Y-118652726D01*
X164351839Y-118619833D01*
X164373724Y-118552186D01*
X164390889Y-118510820D01*
X164406792Y-118489702D01*
X164424891Y-118482798D01*
X164430508Y-118482588D01*
X164474074Y-118489491D01*
X164502068Y-118511113D01*
X164514379Y-118549899D01*
X164510896Y-118608294D01*
X164491508Y-118688743D01*
X164456103Y-118793691D01*
X164411098Y-118909518D01*
X164368759Y-119013913D01*
X164323017Y-119126289D01*
X164278766Y-119234646D01*
X164240900Y-119326984D01*
X164233262Y-119345534D01*
X164155694Y-119533734D01*
X164222458Y-119620534D01*
X164273367Y-119688971D01*
X164304322Y-119739412D01*
X164317009Y-119779212D01*
X164313113Y-119815730D01*
X164294320Y-119856321D01*
X164281432Y-119877909D01*
X164237388Y-119935639D01*
X164195560Y-119960928D01*
X164154091Y-119954415D01*
X164124969Y-119931969D01*
X164098854Y-119908590D01*
X164085317Y-119901657D01*
X164085213Y-119901777D01*
X164074073Y-119917750D01*
X164051299Y-119950640D01*
X164043622Y-119961751D01*
X163991980Y-120019381D01*
X163937970Y-120048808D01*
X163885706Y-120048051D01*
X163874177Y-120043306D01*
X163839975Y-120015607D01*
X163806803Y-119972626D01*
X163800935Y-119962472D01*
X163763469Y-119913170D01*
X163718695Y-119891839D01*
X163671730Y-119875319D01*
X163638926Y-119854552D01*
X163614262Y-119823435D01*
X163610732Y-119789984D01*
X163630140Y-119750026D01*
X163674290Y-119699387D01*
X163727659Y-119649257D01*
X163793098Y-119585617D01*
X163844631Y-119525529D01*
X163875713Y-119476656D01*
X163876446Y-119475026D01*
X163900994Y-119407758D01*
X163929807Y-119307960D01*
X163962760Y-119176146D01*
X163999726Y-119012829D01*
X164040578Y-118818521D01*
X164051282Y-118765666D01*
X164074253Y-118653932D01*
X164092870Y-118570278D01*
X164108538Y-118509951D01*
X164122664Y-118468201D01*
X164136653Y-118440275D01*
X164151910Y-118421420D01*
X164153579Y-118419833D01*
X164197925Y-118388429D01*
X164230595Y-118386826D01*
X164249457Y-118412908D01*
G37*
G36*
X165082207Y-119342123D02*
G01*
X165130825Y-119362171D01*
X165175609Y-119393933D01*
X165198573Y-119420877D01*
X165206794Y-119446972D01*
X165191084Y-119471599D01*
X165177653Y-119483377D01*
X165142766Y-119508837D01*
X165118450Y-119513017D01*
X165091148Y-119497635D01*
X165087395Y-119494833D01*
X165063100Y-119466135D01*
X165038533Y-119421996D01*
X165034426Y-119412554D01*
X165019451Y-119372753D01*
X165019248Y-119353026D01*
X165035002Y-119343006D01*
X165042672Y-119340453D01*
X165082207Y-119342123D01*
G37*
G36*
X165085703Y-120689273D02*
G01*
X165112001Y-120715569D01*
X165122576Y-120759191D01*
X165122017Y-120771296D01*
X165110259Y-120814357D01*
X165088689Y-120826718D01*
X165060438Y-120807270D01*
X165051888Y-120796162D01*
X165029189Y-120748976D01*
X165029289Y-120710100D01*
X165050545Y-120688278D01*
X165085703Y-120689273D01*
G37*
%TD*%
M02*
