%TF.GenerationSoftware,KiCad,Pcbnew,(6.0.7)*%
%TF.CreationDate,2023-01-08T15:04:32+11:00*%
%TF.ProjectId,Xbox_ATX,58626f78-5f41-4545-982e-6b696361645f,rev?*%
%TF.SameCoordinates,Original*%
%TF.FileFunction,Drillmap*%
%TF.FilePolarity,Positive*%
%FSLAX45Y45*%
G04 Gerber Fmt 4.5, Leading zero omitted, Abs format (unit mm)*
G04 Created by KiCad (PCBNEW (6.0.7)) date 2023-01-08 15:04:32*
%MOMM*%
%LPD*%
G01*
G04 APERTURE LIST*
%ADD10C,0.100000*%
%ADD11C,0.200000*%
%ADD12C,0.040000*%
%ADD13C,0.150000*%
%ADD14C,0.180000*%
G04 APERTURE END LIST*
D10*
X14528800Y-12687300D02*
X18034000Y-12687300D01*
X18034000Y-12687300D02*
X18034000Y-7264400D01*
X18034000Y-7264400D02*
X14528800Y-7264400D01*
X14528800Y-7264400D02*
X14528800Y-12687300D01*
D11*
D12*
X16103920Y-11440480D02*
X16143920Y-11480480D01*
X16143920Y-11440480D02*
X16103920Y-11480480D01*
X16103920Y-11526840D02*
X16143920Y-11566840D01*
X16143920Y-11526840D02*
X16103920Y-11566840D01*
X16109000Y-11354120D02*
X16149000Y-11394120D01*
X16149000Y-11354120D02*
X16109000Y-11394120D01*
X16205520Y-11354120D02*
X16245520Y-11394120D01*
X16245520Y-11354120D02*
X16205520Y-11394120D01*
X16205520Y-11440480D02*
X16245520Y-11480480D01*
X16245520Y-11440480D02*
X16205520Y-11480480D01*
X16205520Y-11526840D02*
X16245520Y-11566840D01*
X16245520Y-11526840D02*
X16205520Y-11566840D01*
X16307120Y-11354120D02*
X16347120Y-11394120D01*
X16347120Y-11354120D02*
X16307120Y-11394120D01*
X16307120Y-11440480D02*
X16347120Y-11480480D01*
X16347120Y-11440480D02*
X16307120Y-11480480D01*
X16307120Y-11526840D02*
X16347120Y-11566840D01*
X16347120Y-11526840D02*
X16307120Y-11566840D01*
D13*
X15010200Y-7673600D02*
G75*
G03*
X15010200Y-7673600I-75000J0D01*
G01*
X15010200Y-8093600D02*
G75*
G03*
X15010200Y-8093600I-75000J0D01*
G01*
X15010200Y-8513600D02*
G75*
G03*
X15010200Y-8513600I-75000J0D01*
G01*
X15010200Y-8933600D02*
G75*
G03*
X15010200Y-8933600I-75000J0D01*
G01*
X15010200Y-9353600D02*
G75*
G03*
X15010200Y-9353600I-75000J0D01*
G01*
X15010200Y-9773600D02*
G75*
G03*
X15010200Y-9773600I-75000J0D01*
G01*
X15010200Y-10193600D02*
G75*
G03*
X15010200Y-10193600I-75000J0D01*
G01*
X15010200Y-10613600D02*
G75*
G03*
X15010200Y-10613600I-75000J0D01*
G01*
X15010200Y-11033600D02*
G75*
G03*
X15010200Y-11033600I-75000J0D01*
G01*
X15010200Y-11453600D02*
G75*
G03*
X15010200Y-11453600I-75000J0D01*
G01*
X15010200Y-11873600D02*
G75*
G03*
X15010200Y-11873600I-75000J0D01*
G01*
X15010200Y-12293600D02*
G75*
G03*
X15010200Y-12293600I-75000J0D01*
G01*
X15560200Y-7673600D02*
G75*
G03*
X15560200Y-7673600I-75000J0D01*
G01*
X15560200Y-8093600D02*
G75*
G03*
X15560200Y-8093600I-75000J0D01*
G01*
X15560200Y-8513600D02*
G75*
G03*
X15560200Y-8513600I-75000J0D01*
G01*
X15560200Y-8933600D02*
G75*
G03*
X15560200Y-8933600I-75000J0D01*
G01*
X15560200Y-9353600D02*
G75*
G03*
X15560200Y-9353600I-75000J0D01*
G01*
X15560200Y-9773600D02*
G75*
G03*
X15560200Y-9773600I-75000J0D01*
G01*
X15560200Y-10193600D02*
G75*
G03*
X15560200Y-10193600I-75000J0D01*
G01*
X15560200Y-10613600D02*
G75*
G03*
X15560200Y-10613600I-75000J0D01*
G01*
X15560200Y-11033600D02*
G75*
G03*
X15560200Y-11033600I-75000J0D01*
G01*
X15560200Y-11453600D02*
G75*
G03*
X15560200Y-11453600I-75000J0D01*
G01*
X15560200Y-11873600D02*
G75*
G03*
X15560200Y-11873600I-75000J0D01*
G01*
X15560200Y-12293600D02*
G75*
G03*
X15560200Y-12293600I-75000J0D01*
G01*
D14*
X17390000Y-7914000D02*
X17390000Y-8094000D01*
X17300000Y-8004000D02*
X17480000Y-8004000D01*
X17390000Y-8310000D02*
X17390000Y-8490000D01*
X17300000Y-8400000D02*
X17480000Y-8400000D01*
X17390000Y-8706000D02*
X17390000Y-8886000D01*
X17300000Y-8796000D02*
X17480000Y-8796000D01*
X17390000Y-9102000D02*
X17390000Y-9282000D01*
X17300000Y-9192000D02*
X17480000Y-9192000D01*
X17390000Y-9498000D02*
X17390000Y-9678000D01*
X17300000Y-9588000D02*
X17480000Y-9588000D01*
X17390000Y-9894000D02*
X17390000Y-10074000D01*
X17300000Y-9984000D02*
X17480000Y-9984000D01*
X17390000Y-10290000D02*
X17390000Y-10470000D01*
X17300000Y-10380000D02*
X17480000Y-10380000D01*
X17390000Y-10686000D02*
X17390000Y-10866000D01*
X17300000Y-10776000D02*
X17480000Y-10776000D01*
X17390000Y-11082000D02*
X17390000Y-11262000D01*
X17300000Y-11172000D02*
X17480000Y-11172000D01*
X17390000Y-11478000D02*
X17390000Y-11658000D01*
X17300000Y-11568000D02*
X17480000Y-11568000D01*
X17390000Y-11874000D02*
X17390000Y-12054000D01*
X17300000Y-11964000D02*
X17480000Y-11964000D01*
X17390000Y-12270000D02*
X17390000Y-12450000D01*
X17300000Y-12360000D02*
X17480000Y-12360000D01*
D11*
X14781419Y-13002776D02*
X14781419Y-12802776D01*
X14829038Y-12802776D01*
X14857609Y-12812300D01*
X14876657Y-12831348D01*
X14886181Y-12850395D01*
X14895705Y-12888490D01*
X14895705Y-12917062D01*
X14886181Y-12955157D01*
X14876657Y-12974205D01*
X14857609Y-12993252D01*
X14829038Y-13002776D01*
X14781419Y-13002776D01*
X14981419Y-13002776D02*
X14981419Y-12869443D01*
X14981419Y-12907538D02*
X14990943Y-12888490D01*
X15000467Y-12878967D01*
X15019514Y-12869443D01*
X15038562Y-12869443D01*
X15105228Y-13002776D02*
X15105228Y-12869443D01*
X15105228Y-12802776D02*
X15095705Y-12812300D01*
X15105228Y-12821824D01*
X15114752Y-12812300D01*
X15105228Y-12802776D01*
X15105228Y-12821824D01*
X15229038Y-13002776D02*
X15209990Y-12993252D01*
X15200467Y-12974205D01*
X15200467Y-12802776D01*
X15333800Y-13002776D02*
X15314752Y-12993252D01*
X15305228Y-12974205D01*
X15305228Y-12802776D01*
X15562371Y-13002776D02*
X15562371Y-12802776D01*
X15629038Y-12945633D01*
X15695705Y-12802776D01*
X15695705Y-13002776D01*
X15876657Y-13002776D02*
X15876657Y-12898014D01*
X15867133Y-12878967D01*
X15848086Y-12869443D01*
X15809990Y-12869443D01*
X15790943Y-12878967D01*
X15876657Y-12993252D02*
X15857609Y-13002776D01*
X15809990Y-13002776D01*
X15790943Y-12993252D01*
X15781419Y-12974205D01*
X15781419Y-12955157D01*
X15790943Y-12936109D01*
X15809990Y-12926586D01*
X15857609Y-12926586D01*
X15876657Y-12917062D01*
X15971895Y-12869443D02*
X15971895Y-13069443D01*
X15971895Y-12878967D02*
X15990943Y-12869443D01*
X16029038Y-12869443D01*
X16048086Y-12878967D01*
X16057609Y-12888490D01*
X16067133Y-12907538D01*
X16067133Y-12964681D01*
X16057609Y-12983728D01*
X16048086Y-12993252D01*
X16029038Y-13002776D01*
X15990943Y-13002776D01*
X15971895Y-12993252D01*
X16152848Y-12983728D02*
X16162371Y-12993252D01*
X16152848Y-13002776D01*
X16143324Y-12993252D01*
X16152848Y-12983728D01*
X16152848Y-13002776D01*
X16152848Y-12878967D02*
X16162371Y-12888490D01*
X16152848Y-12898014D01*
X16143324Y-12888490D01*
X16152848Y-12878967D01*
X16152848Y-12898014D01*
D12*
X14483800Y-13312300D02*
X14523800Y-13352300D01*
X14523800Y-13312300D02*
X14483800Y-13352300D01*
D11*
X14819514Y-13222776D02*
X14838562Y-13222776D01*
X14857609Y-13232300D01*
X14867133Y-13241824D01*
X14876657Y-13260871D01*
X14886181Y-13298967D01*
X14886181Y-13346586D01*
X14876657Y-13384681D01*
X14867133Y-13403728D01*
X14857609Y-13413252D01*
X14838562Y-13422776D01*
X14819514Y-13422776D01*
X14800467Y-13413252D01*
X14790943Y-13403728D01*
X14781419Y-13384681D01*
X14771895Y-13346586D01*
X14771895Y-13298967D01*
X14781419Y-13260871D01*
X14790943Y-13241824D01*
X14800467Y-13232300D01*
X14819514Y-13222776D01*
X14971895Y-13403728D02*
X14981419Y-13413252D01*
X14971895Y-13422776D01*
X14962371Y-13413252D01*
X14971895Y-13403728D01*
X14971895Y-13422776D01*
X15152848Y-13289443D02*
X15152848Y-13422776D01*
X15105228Y-13213252D02*
X15057609Y-13356109D01*
X15181419Y-13356109D01*
X15295705Y-13222776D02*
X15314752Y-13222776D01*
X15333800Y-13232300D01*
X15343324Y-13241824D01*
X15352848Y-13260871D01*
X15362371Y-13298967D01*
X15362371Y-13346586D01*
X15352848Y-13384681D01*
X15343324Y-13403728D01*
X15333800Y-13413252D01*
X15314752Y-13422776D01*
X15295705Y-13422776D01*
X15276657Y-13413252D01*
X15267133Y-13403728D01*
X15257609Y-13384681D01*
X15248086Y-13346586D01*
X15248086Y-13298967D01*
X15257609Y-13260871D01*
X15267133Y-13241824D01*
X15276657Y-13232300D01*
X15295705Y-13222776D01*
X15486181Y-13222776D02*
X15505228Y-13222776D01*
X15524276Y-13232300D01*
X15533800Y-13241824D01*
X15543324Y-13260871D01*
X15552848Y-13298967D01*
X15552848Y-13346586D01*
X15543324Y-13384681D01*
X15533800Y-13403728D01*
X15524276Y-13413252D01*
X15505228Y-13422776D01*
X15486181Y-13422776D01*
X15467133Y-13413252D01*
X15457609Y-13403728D01*
X15448086Y-13384681D01*
X15438562Y-13346586D01*
X15438562Y-13298967D01*
X15448086Y-13260871D01*
X15457609Y-13241824D01*
X15467133Y-13232300D01*
X15486181Y-13222776D01*
X15638562Y-13422776D02*
X15638562Y-13289443D01*
X15638562Y-13308490D02*
X15648086Y-13298967D01*
X15667133Y-13289443D01*
X15695705Y-13289443D01*
X15714752Y-13298967D01*
X15724276Y-13318014D01*
X15724276Y-13422776D01*
X15724276Y-13318014D02*
X15733800Y-13298967D01*
X15752848Y-13289443D01*
X15781419Y-13289443D01*
X15800467Y-13298967D01*
X15809990Y-13318014D01*
X15809990Y-13422776D01*
X15905228Y-13422776D02*
X15905228Y-13289443D01*
X15905228Y-13308490D02*
X15914752Y-13298967D01*
X15933800Y-13289443D01*
X15962371Y-13289443D01*
X15981419Y-13298967D01*
X15990943Y-13318014D01*
X15990943Y-13422776D01*
X15990943Y-13318014D02*
X16000467Y-13298967D01*
X16019514Y-13289443D01*
X16048086Y-13289443D01*
X16067133Y-13298967D01*
X16076657Y-13318014D01*
X16076657Y-13422776D01*
X16467133Y-13213252D02*
X16295705Y-13470395D01*
X16724276Y-13222776D02*
X16743324Y-13222776D01*
X16762371Y-13232300D01*
X16771895Y-13241824D01*
X16781419Y-13260871D01*
X16790943Y-13298967D01*
X16790943Y-13346586D01*
X16781419Y-13384681D01*
X16771895Y-13403728D01*
X16762371Y-13413252D01*
X16743324Y-13422776D01*
X16724276Y-13422776D01*
X16705228Y-13413252D01*
X16695705Y-13403728D01*
X16686181Y-13384681D01*
X16676657Y-13346586D01*
X16676657Y-13298967D01*
X16686181Y-13260871D01*
X16695705Y-13241824D01*
X16705228Y-13232300D01*
X16724276Y-13222776D01*
X16876657Y-13403728D02*
X16886181Y-13413252D01*
X16876657Y-13422776D01*
X16867133Y-13413252D01*
X16876657Y-13403728D01*
X16876657Y-13422776D01*
X17009990Y-13222776D02*
X17029038Y-13222776D01*
X17048086Y-13232300D01*
X17057610Y-13241824D01*
X17067133Y-13260871D01*
X17076657Y-13298967D01*
X17076657Y-13346586D01*
X17067133Y-13384681D01*
X17057610Y-13403728D01*
X17048086Y-13413252D01*
X17029038Y-13422776D01*
X17009990Y-13422776D01*
X16990943Y-13413252D01*
X16981419Y-13403728D01*
X16971895Y-13384681D01*
X16962371Y-13346586D01*
X16962371Y-13298967D01*
X16971895Y-13260871D01*
X16981419Y-13241824D01*
X16990943Y-13232300D01*
X17009990Y-13222776D01*
X17267133Y-13422776D02*
X17152848Y-13422776D01*
X17209990Y-13422776D02*
X17209990Y-13222776D01*
X17190943Y-13251348D01*
X17171895Y-13270395D01*
X17152848Y-13279919D01*
X17448086Y-13222776D02*
X17352848Y-13222776D01*
X17343324Y-13318014D01*
X17352848Y-13308490D01*
X17371895Y-13298967D01*
X17419514Y-13298967D01*
X17438562Y-13308490D01*
X17448086Y-13318014D01*
X17457610Y-13337062D01*
X17457610Y-13384681D01*
X17448086Y-13403728D01*
X17438562Y-13413252D01*
X17419514Y-13422776D01*
X17371895Y-13422776D01*
X17352848Y-13413252D01*
X17343324Y-13403728D01*
X17524276Y-13222776D02*
X17657610Y-13222776D01*
X17571895Y-13422776D01*
X17724276Y-13222776D02*
X17724276Y-13260871D01*
X17800467Y-13222776D02*
X17800467Y-13260871D01*
X18095705Y-13498967D02*
X18086181Y-13489443D01*
X18067133Y-13460871D01*
X18057610Y-13441824D01*
X18048086Y-13413252D01*
X18038562Y-13365633D01*
X18038562Y-13327538D01*
X18048086Y-13279919D01*
X18057610Y-13251348D01*
X18067133Y-13232300D01*
X18086181Y-13203728D01*
X18095705Y-13194205D01*
X18181419Y-13422776D02*
X18219514Y-13422776D01*
X18238562Y-13413252D01*
X18248086Y-13403728D01*
X18267133Y-13375157D01*
X18276657Y-13337062D01*
X18276657Y-13260871D01*
X18267133Y-13241824D01*
X18257610Y-13232300D01*
X18238562Y-13222776D01*
X18200467Y-13222776D01*
X18181419Y-13232300D01*
X18171895Y-13241824D01*
X18162371Y-13260871D01*
X18162371Y-13308490D01*
X18171895Y-13327538D01*
X18181419Y-13337062D01*
X18200467Y-13346586D01*
X18238562Y-13346586D01*
X18257610Y-13337062D01*
X18267133Y-13327538D01*
X18276657Y-13308490D01*
X18514752Y-13422776D02*
X18514752Y-13222776D01*
X18600467Y-13422776D02*
X18600467Y-13318014D01*
X18590943Y-13298967D01*
X18571895Y-13289443D01*
X18543324Y-13289443D01*
X18524276Y-13298967D01*
X18514752Y-13308490D01*
X18724276Y-13422776D02*
X18705229Y-13413252D01*
X18695705Y-13403728D01*
X18686181Y-13384681D01*
X18686181Y-13327538D01*
X18695705Y-13308490D01*
X18705229Y-13298967D01*
X18724276Y-13289443D01*
X18752848Y-13289443D01*
X18771895Y-13298967D01*
X18781419Y-13308490D01*
X18790943Y-13327538D01*
X18790943Y-13384681D01*
X18781419Y-13403728D01*
X18771895Y-13413252D01*
X18752848Y-13422776D01*
X18724276Y-13422776D01*
X18905229Y-13422776D02*
X18886181Y-13413252D01*
X18876657Y-13394205D01*
X18876657Y-13222776D01*
X19057610Y-13413252D02*
X19038562Y-13422776D01*
X19000467Y-13422776D01*
X18981419Y-13413252D01*
X18971895Y-13394205D01*
X18971895Y-13318014D01*
X18981419Y-13298967D01*
X19000467Y-13289443D01*
X19038562Y-13289443D01*
X19057610Y-13298967D01*
X19067133Y-13318014D01*
X19067133Y-13337062D01*
X18971895Y-13356109D01*
X19143324Y-13413252D02*
X19162371Y-13422776D01*
X19200467Y-13422776D01*
X19219514Y-13413252D01*
X19229038Y-13394205D01*
X19229038Y-13384681D01*
X19219514Y-13365633D01*
X19200467Y-13356109D01*
X19171895Y-13356109D01*
X19152848Y-13346586D01*
X19143324Y-13327538D01*
X19143324Y-13318014D01*
X19152848Y-13298967D01*
X19171895Y-13289443D01*
X19200467Y-13289443D01*
X19219514Y-13298967D01*
X19295705Y-13498967D02*
X19305229Y-13489443D01*
X19324276Y-13460871D01*
X19333800Y-13441824D01*
X19343324Y-13413252D01*
X19352848Y-13365633D01*
X19352848Y-13327538D01*
X19343324Y-13279919D01*
X19333800Y-13251348D01*
X19324276Y-13232300D01*
X19305229Y-13203728D01*
X19295705Y-13194205D01*
D13*
X14523800Y-13596300D02*
G75*
G03*
X14523800Y-13596300I-75000J0D01*
G01*
D11*
X14886181Y-13686776D02*
X14771895Y-13686776D01*
X14829038Y-13686776D02*
X14829038Y-13486776D01*
X14809990Y-13515348D01*
X14790943Y-13534395D01*
X14771895Y-13543919D01*
X14971895Y-13667728D02*
X14981419Y-13677252D01*
X14971895Y-13686776D01*
X14962371Y-13677252D01*
X14971895Y-13667728D01*
X14971895Y-13686776D01*
X15162371Y-13486776D02*
X15067133Y-13486776D01*
X15057609Y-13582014D01*
X15067133Y-13572490D01*
X15086181Y-13562967D01*
X15133800Y-13562967D01*
X15152848Y-13572490D01*
X15162371Y-13582014D01*
X15171895Y-13601062D01*
X15171895Y-13648681D01*
X15162371Y-13667728D01*
X15152848Y-13677252D01*
X15133800Y-13686776D01*
X15086181Y-13686776D01*
X15067133Y-13677252D01*
X15057609Y-13667728D01*
X15295705Y-13486776D02*
X15314752Y-13486776D01*
X15333800Y-13496300D01*
X15343324Y-13505824D01*
X15352848Y-13524871D01*
X15362371Y-13562967D01*
X15362371Y-13610586D01*
X15352848Y-13648681D01*
X15343324Y-13667728D01*
X15333800Y-13677252D01*
X15314752Y-13686776D01*
X15295705Y-13686776D01*
X15276657Y-13677252D01*
X15267133Y-13667728D01*
X15257609Y-13648681D01*
X15248086Y-13610586D01*
X15248086Y-13562967D01*
X15257609Y-13524871D01*
X15267133Y-13505824D01*
X15276657Y-13496300D01*
X15295705Y-13486776D01*
X15486181Y-13486776D02*
X15505228Y-13486776D01*
X15524276Y-13496300D01*
X15533800Y-13505824D01*
X15543324Y-13524871D01*
X15552848Y-13562967D01*
X15552848Y-13610586D01*
X15543324Y-13648681D01*
X15533800Y-13667728D01*
X15524276Y-13677252D01*
X15505228Y-13686776D01*
X15486181Y-13686776D01*
X15467133Y-13677252D01*
X15457609Y-13667728D01*
X15448086Y-13648681D01*
X15438562Y-13610586D01*
X15438562Y-13562967D01*
X15448086Y-13524871D01*
X15457609Y-13505824D01*
X15467133Y-13496300D01*
X15486181Y-13486776D01*
X15638562Y-13686776D02*
X15638562Y-13553443D01*
X15638562Y-13572490D02*
X15648086Y-13562967D01*
X15667133Y-13553443D01*
X15695705Y-13553443D01*
X15714752Y-13562967D01*
X15724276Y-13582014D01*
X15724276Y-13686776D01*
X15724276Y-13582014D02*
X15733800Y-13562967D01*
X15752848Y-13553443D01*
X15781419Y-13553443D01*
X15800467Y-13562967D01*
X15809990Y-13582014D01*
X15809990Y-13686776D01*
X15905228Y-13686776D02*
X15905228Y-13553443D01*
X15905228Y-13572490D02*
X15914752Y-13562967D01*
X15933800Y-13553443D01*
X15962371Y-13553443D01*
X15981419Y-13562967D01*
X15990943Y-13582014D01*
X15990943Y-13686776D01*
X15990943Y-13582014D02*
X16000467Y-13562967D01*
X16019514Y-13553443D01*
X16048086Y-13553443D01*
X16067133Y-13562967D01*
X16076657Y-13582014D01*
X16076657Y-13686776D01*
X16467133Y-13477252D02*
X16295705Y-13734395D01*
X16724276Y-13486776D02*
X16743324Y-13486776D01*
X16762371Y-13496300D01*
X16771895Y-13505824D01*
X16781419Y-13524871D01*
X16790943Y-13562967D01*
X16790943Y-13610586D01*
X16781419Y-13648681D01*
X16771895Y-13667728D01*
X16762371Y-13677252D01*
X16743324Y-13686776D01*
X16724276Y-13686776D01*
X16705228Y-13677252D01*
X16695705Y-13667728D01*
X16686181Y-13648681D01*
X16676657Y-13610586D01*
X16676657Y-13562967D01*
X16686181Y-13524871D01*
X16695705Y-13505824D01*
X16705228Y-13496300D01*
X16724276Y-13486776D01*
X16876657Y-13667728D02*
X16886181Y-13677252D01*
X16876657Y-13686776D01*
X16867133Y-13677252D01*
X16876657Y-13667728D01*
X16876657Y-13686776D01*
X17009990Y-13486776D02*
X17029038Y-13486776D01*
X17048086Y-13496300D01*
X17057610Y-13505824D01*
X17067133Y-13524871D01*
X17076657Y-13562967D01*
X17076657Y-13610586D01*
X17067133Y-13648681D01*
X17057610Y-13667728D01*
X17048086Y-13677252D01*
X17029038Y-13686776D01*
X17009990Y-13686776D01*
X16990943Y-13677252D01*
X16981419Y-13667728D01*
X16971895Y-13648681D01*
X16962371Y-13610586D01*
X16962371Y-13562967D01*
X16971895Y-13524871D01*
X16981419Y-13505824D01*
X16990943Y-13496300D01*
X17009990Y-13486776D01*
X17257610Y-13486776D02*
X17162371Y-13486776D01*
X17152848Y-13582014D01*
X17162371Y-13572490D01*
X17181419Y-13562967D01*
X17229038Y-13562967D01*
X17248086Y-13572490D01*
X17257610Y-13582014D01*
X17267133Y-13601062D01*
X17267133Y-13648681D01*
X17257610Y-13667728D01*
X17248086Y-13677252D01*
X17229038Y-13686776D01*
X17181419Y-13686776D01*
X17162371Y-13677252D01*
X17152848Y-13667728D01*
X17362371Y-13686776D02*
X17400467Y-13686776D01*
X17419514Y-13677252D01*
X17429038Y-13667728D01*
X17448086Y-13639157D01*
X17457610Y-13601062D01*
X17457610Y-13524871D01*
X17448086Y-13505824D01*
X17438562Y-13496300D01*
X17419514Y-13486776D01*
X17381419Y-13486776D01*
X17362371Y-13496300D01*
X17352848Y-13505824D01*
X17343324Y-13524871D01*
X17343324Y-13572490D01*
X17352848Y-13591538D01*
X17362371Y-13601062D01*
X17381419Y-13610586D01*
X17419514Y-13610586D01*
X17438562Y-13601062D01*
X17448086Y-13591538D01*
X17457610Y-13572490D01*
X17648086Y-13686776D02*
X17533800Y-13686776D01*
X17590943Y-13686776D02*
X17590943Y-13486776D01*
X17571895Y-13515348D01*
X17552848Y-13534395D01*
X17533800Y-13543919D01*
X17724276Y-13486776D02*
X17724276Y-13524871D01*
X17800467Y-13486776D02*
X17800467Y-13524871D01*
X18095705Y-13762967D02*
X18086181Y-13753443D01*
X18067133Y-13724871D01*
X18057610Y-13705824D01*
X18048086Y-13677252D01*
X18038562Y-13629633D01*
X18038562Y-13591538D01*
X18048086Y-13543919D01*
X18057610Y-13515348D01*
X18067133Y-13496300D01*
X18086181Y-13467728D01*
X18095705Y-13458205D01*
X18162371Y-13505824D02*
X18171895Y-13496300D01*
X18190943Y-13486776D01*
X18238562Y-13486776D01*
X18257610Y-13496300D01*
X18267133Y-13505824D01*
X18276657Y-13524871D01*
X18276657Y-13543919D01*
X18267133Y-13572490D01*
X18152848Y-13686776D01*
X18276657Y-13686776D01*
X18448086Y-13553443D02*
X18448086Y-13686776D01*
X18400467Y-13477252D02*
X18352848Y-13620109D01*
X18476657Y-13620109D01*
X18705229Y-13686776D02*
X18705229Y-13486776D01*
X18790943Y-13686776D02*
X18790943Y-13582014D01*
X18781419Y-13562967D01*
X18762371Y-13553443D01*
X18733800Y-13553443D01*
X18714752Y-13562967D01*
X18705229Y-13572490D01*
X18914752Y-13686776D02*
X18895705Y-13677252D01*
X18886181Y-13667728D01*
X18876657Y-13648681D01*
X18876657Y-13591538D01*
X18886181Y-13572490D01*
X18895705Y-13562967D01*
X18914752Y-13553443D01*
X18943324Y-13553443D01*
X18962371Y-13562967D01*
X18971895Y-13572490D01*
X18981419Y-13591538D01*
X18981419Y-13648681D01*
X18971895Y-13667728D01*
X18962371Y-13677252D01*
X18943324Y-13686776D01*
X18914752Y-13686776D01*
X19095705Y-13686776D02*
X19076657Y-13677252D01*
X19067133Y-13658205D01*
X19067133Y-13486776D01*
X19248086Y-13677252D02*
X19229038Y-13686776D01*
X19190943Y-13686776D01*
X19171895Y-13677252D01*
X19162371Y-13658205D01*
X19162371Y-13582014D01*
X19171895Y-13562967D01*
X19190943Y-13553443D01*
X19229038Y-13553443D01*
X19248086Y-13562967D01*
X19257610Y-13582014D01*
X19257610Y-13601062D01*
X19162371Y-13620109D01*
X19333800Y-13677252D02*
X19352848Y-13686776D01*
X19390943Y-13686776D01*
X19409990Y-13677252D01*
X19419514Y-13658205D01*
X19419514Y-13648681D01*
X19409990Y-13629633D01*
X19390943Y-13620109D01*
X19362371Y-13620109D01*
X19343324Y-13610586D01*
X19333800Y-13591538D01*
X19333800Y-13582014D01*
X19343324Y-13562967D01*
X19362371Y-13553443D01*
X19390943Y-13553443D01*
X19409990Y-13562967D01*
X19486181Y-13762967D02*
X19495705Y-13753443D01*
X19514752Y-13724871D01*
X19524276Y-13705824D01*
X19533800Y-13677252D01*
X19543324Y-13629633D01*
X19543324Y-13591538D01*
X19533800Y-13543919D01*
X19524276Y-13515348D01*
X19514752Y-13496300D01*
X19495705Y-13467728D01*
X19486181Y-13458205D01*
D14*
X14433800Y-13776300D02*
X14433800Y-13956300D01*
X14343800Y-13866300D02*
X14523800Y-13866300D01*
D11*
X14886181Y-13956776D02*
X14771895Y-13956776D01*
X14829038Y-13956776D02*
X14829038Y-13756776D01*
X14809990Y-13785348D01*
X14790943Y-13804395D01*
X14771895Y-13813919D01*
X14971895Y-13937728D02*
X14981419Y-13947252D01*
X14971895Y-13956776D01*
X14962371Y-13947252D01*
X14971895Y-13937728D01*
X14971895Y-13956776D01*
X15095705Y-13842490D02*
X15076657Y-13832967D01*
X15067133Y-13823443D01*
X15057609Y-13804395D01*
X15057609Y-13794871D01*
X15067133Y-13775824D01*
X15076657Y-13766300D01*
X15095705Y-13756776D01*
X15133800Y-13756776D01*
X15152848Y-13766300D01*
X15162371Y-13775824D01*
X15171895Y-13794871D01*
X15171895Y-13804395D01*
X15162371Y-13823443D01*
X15152848Y-13832967D01*
X15133800Y-13842490D01*
X15095705Y-13842490D01*
X15076657Y-13852014D01*
X15067133Y-13861538D01*
X15057609Y-13880586D01*
X15057609Y-13918681D01*
X15067133Y-13937728D01*
X15076657Y-13947252D01*
X15095705Y-13956776D01*
X15133800Y-13956776D01*
X15152848Y-13947252D01*
X15162371Y-13937728D01*
X15171895Y-13918681D01*
X15171895Y-13880586D01*
X15162371Y-13861538D01*
X15152848Y-13852014D01*
X15133800Y-13842490D01*
X15295705Y-13756776D02*
X15314752Y-13756776D01*
X15333800Y-13766300D01*
X15343324Y-13775824D01*
X15352848Y-13794871D01*
X15362371Y-13832967D01*
X15362371Y-13880586D01*
X15352848Y-13918681D01*
X15343324Y-13937728D01*
X15333800Y-13947252D01*
X15314752Y-13956776D01*
X15295705Y-13956776D01*
X15276657Y-13947252D01*
X15267133Y-13937728D01*
X15257609Y-13918681D01*
X15248086Y-13880586D01*
X15248086Y-13832967D01*
X15257609Y-13794871D01*
X15267133Y-13775824D01*
X15276657Y-13766300D01*
X15295705Y-13756776D01*
X15486181Y-13756776D02*
X15505228Y-13756776D01*
X15524276Y-13766300D01*
X15533800Y-13775824D01*
X15543324Y-13794871D01*
X15552848Y-13832967D01*
X15552848Y-13880586D01*
X15543324Y-13918681D01*
X15533800Y-13937728D01*
X15524276Y-13947252D01*
X15505228Y-13956776D01*
X15486181Y-13956776D01*
X15467133Y-13947252D01*
X15457609Y-13937728D01*
X15448086Y-13918681D01*
X15438562Y-13880586D01*
X15438562Y-13832967D01*
X15448086Y-13794871D01*
X15457609Y-13775824D01*
X15467133Y-13766300D01*
X15486181Y-13756776D01*
X15638562Y-13956776D02*
X15638562Y-13823443D01*
X15638562Y-13842490D02*
X15648086Y-13832967D01*
X15667133Y-13823443D01*
X15695705Y-13823443D01*
X15714752Y-13832967D01*
X15724276Y-13852014D01*
X15724276Y-13956776D01*
X15724276Y-13852014D02*
X15733800Y-13832967D01*
X15752848Y-13823443D01*
X15781419Y-13823443D01*
X15800467Y-13832967D01*
X15809990Y-13852014D01*
X15809990Y-13956776D01*
X15905228Y-13956776D02*
X15905228Y-13823443D01*
X15905228Y-13842490D02*
X15914752Y-13832967D01*
X15933800Y-13823443D01*
X15962371Y-13823443D01*
X15981419Y-13832967D01*
X15990943Y-13852014D01*
X15990943Y-13956776D01*
X15990943Y-13852014D02*
X16000467Y-13832967D01*
X16019514Y-13823443D01*
X16048086Y-13823443D01*
X16067133Y-13832967D01*
X16076657Y-13852014D01*
X16076657Y-13956776D01*
X16467133Y-13747252D02*
X16295705Y-14004395D01*
X16724276Y-13756776D02*
X16743324Y-13756776D01*
X16762371Y-13766300D01*
X16771895Y-13775824D01*
X16781419Y-13794871D01*
X16790943Y-13832967D01*
X16790943Y-13880586D01*
X16781419Y-13918681D01*
X16771895Y-13937728D01*
X16762371Y-13947252D01*
X16743324Y-13956776D01*
X16724276Y-13956776D01*
X16705228Y-13947252D01*
X16695705Y-13937728D01*
X16686181Y-13918681D01*
X16676657Y-13880586D01*
X16676657Y-13832967D01*
X16686181Y-13794871D01*
X16695705Y-13775824D01*
X16705228Y-13766300D01*
X16724276Y-13756776D01*
X16876657Y-13937728D02*
X16886181Y-13947252D01*
X16876657Y-13956776D01*
X16867133Y-13947252D01*
X16876657Y-13937728D01*
X16876657Y-13956776D01*
X17009990Y-13756776D02*
X17029038Y-13756776D01*
X17048086Y-13766300D01*
X17057610Y-13775824D01*
X17067133Y-13794871D01*
X17076657Y-13832967D01*
X17076657Y-13880586D01*
X17067133Y-13918681D01*
X17057610Y-13937728D01*
X17048086Y-13947252D01*
X17029038Y-13956776D01*
X17009990Y-13956776D01*
X16990943Y-13947252D01*
X16981419Y-13937728D01*
X16971895Y-13918681D01*
X16962371Y-13880586D01*
X16962371Y-13832967D01*
X16971895Y-13794871D01*
X16981419Y-13775824D01*
X16990943Y-13766300D01*
X17009990Y-13756776D01*
X17143324Y-13756776D02*
X17276657Y-13756776D01*
X17190943Y-13956776D01*
X17390943Y-13756776D02*
X17409990Y-13756776D01*
X17429038Y-13766300D01*
X17438562Y-13775824D01*
X17448086Y-13794871D01*
X17457610Y-13832967D01*
X17457610Y-13880586D01*
X17448086Y-13918681D01*
X17438562Y-13937728D01*
X17429038Y-13947252D01*
X17409990Y-13956776D01*
X17390943Y-13956776D01*
X17371895Y-13947252D01*
X17362371Y-13937728D01*
X17352848Y-13918681D01*
X17343324Y-13880586D01*
X17343324Y-13832967D01*
X17352848Y-13794871D01*
X17362371Y-13775824D01*
X17371895Y-13766300D01*
X17390943Y-13756776D01*
X17552848Y-13956776D02*
X17590943Y-13956776D01*
X17609990Y-13947252D01*
X17619514Y-13937728D01*
X17638562Y-13909157D01*
X17648086Y-13871062D01*
X17648086Y-13794871D01*
X17638562Y-13775824D01*
X17629038Y-13766300D01*
X17609990Y-13756776D01*
X17571895Y-13756776D01*
X17552848Y-13766300D01*
X17543324Y-13775824D01*
X17533800Y-13794871D01*
X17533800Y-13842490D01*
X17543324Y-13861538D01*
X17552848Y-13871062D01*
X17571895Y-13880586D01*
X17609990Y-13880586D01*
X17629038Y-13871062D01*
X17638562Y-13861538D01*
X17648086Y-13842490D01*
X17724276Y-13756776D02*
X17724276Y-13794871D01*
X17800467Y-13756776D02*
X17800467Y-13794871D01*
X18095705Y-14032967D02*
X18086181Y-14023443D01*
X18067133Y-13994871D01*
X18057610Y-13975824D01*
X18048086Y-13947252D01*
X18038562Y-13899633D01*
X18038562Y-13861538D01*
X18048086Y-13813919D01*
X18057610Y-13785348D01*
X18067133Y-13766300D01*
X18086181Y-13737728D01*
X18095705Y-13728205D01*
X18276657Y-13956776D02*
X18162371Y-13956776D01*
X18219514Y-13956776D02*
X18219514Y-13756776D01*
X18200467Y-13785348D01*
X18181419Y-13804395D01*
X18162371Y-13813919D01*
X18352848Y-13775824D02*
X18362371Y-13766300D01*
X18381419Y-13756776D01*
X18429038Y-13756776D01*
X18448086Y-13766300D01*
X18457610Y-13775824D01*
X18467133Y-13794871D01*
X18467133Y-13813919D01*
X18457610Y-13842490D01*
X18343324Y-13956776D01*
X18467133Y-13956776D01*
X18705229Y-13956776D02*
X18705229Y-13756776D01*
X18790943Y-13956776D02*
X18790943Y-13852014D01*
X18781419Y-13832967D01*
X18762371Y-13823443D01*
X18733800Y-13823443D01*
X18714752Y-13832967D01*
X18705229Y-13842490D01*
X18914752Y-13956776D02*
X18895705Y-13947252D01*
X18886181Y-13937728D01*
X18876657Y-13918681D01*
X18876657Y-13861538D01*
X18886181Y-13842490D01*
X18895705Y-13832967D01*
X18914752Y-13823443D01*
X18943324Y-13823443D01*
X18962371Y-13832967D01*
X18971895Y-13842490D01*
X18981419Y-13861538D01*
X18981419Y-13918681D01*
X18971895Y-13937728D01*
X18962371Y-13947252D01*
X18943324Y-13956776D01*
X18914752Y-13956776D01*
X19095705Y-13956776D02*
X19076657Y-13947252D01*
X19067133Y-13928205D01*
X19067133Y-13756776D01*
X19248086Y-13947252D02*
X19229038Y-13956776D01*
X19190943Y-13956776D01*
X19171895Y-13947252D01*
X19162371Y-13928205D01*
X19162371Y-13852014D01*
X19171895Y-13832967D01*
X19190943Y-13823443D01*
X19229038Y-13823443D01*
X19248086Y-13832967D01*
X19257610Y-13852014D01*
X19257610Y-13871062D01*
X19162371Y-13890109D01*
X19333800Y-13947252D02*
X19352848Y-13956776D01*
X19390943Y-13956776D01*
X19409990Y-13947252D01*
X19419514Y-13928205D01*
X19419514Y-13918681D01*
X19409990Y-13899633D01*
X19390943Y-13890109D01*
X19362371Y-13890109D01*
X19343324Y-13880586D01*
X19333800Y-13861538D01*
X19333800Y-13852014D01*
X19343324Y-13832967D01*
X19362371Y-13823443D01*
X19390943Y-13823443D01*
X19409990Y-13832967D01*
X19486181Y-14032967D02*
X19495705Y-14023443D01*
X19514752Y-13994871D01*
X19524276Y-13975824D01*
X19533800Y-13947252D01*
X19543324Y-13899633D01*
X19543324Y-13861538D01*
X19533800Y-13813919D01*
X19524276Y-13785348D01*
X19514752Y-13766300D01*
X19495705Y-13737728D01*
X19486181Y-13728205D01*
M02*
