M48
; DRILL file {KiCad (6.0.7)} date Sun Jan  8 15:04:31 2023
; FORMAT={-:-/ absolute / inch / decimal}
; #@! TF.CreationDate,2023-01-08T15:04:31+11:00
; #@! TF.GenerationSoftware,Kicad,Pcbnew,(6.0.7)
; #@! TF.FileFunction,Plated,1,2,PTH
FMAT,2
INCH
; #@! TA.AperFunction,Plated,PTH,ViaDrill
T1C0.0157
; #@! TA.AperFunction,Plated,PTH,ComponentDrill
T2C0.0591
; #@! TA.AperFunction,Plated,PTH,ComponentDrill
T3C0.0709
%
G90
G05
T1
X6.348Y-4.512
X6.348Y-4.546
X6.35Y-4.478
X6.388Y-4.478
X6.388Y-4.512
X6.388Y-4.546
X6.428Y-4.478
X6.428Y-4.512
X6.428Y-4.546
T2
X5.88Y-3.0211
X5.88Y-3.1865
X5.88Y-3.3518
X5.88Y-3.5172
X5.88Y-3.6825
X5.88Y-3.8479
X5.88Y-4.0132
X5.88Y-4.1786
X5.88Y-4.3439
X5.88Y-4.5093
X5.88Y-4.6746
X5.88Y-4.84
X6.0965Y-3.0211
X6.0965Y-3.1865
X6.0965Y-3.3518
X6.0965Y-3.5172
X6.0965Y-3.6825
X6.0965Y-3.8479
X6.0965Y-4.0132
X6.0965Y-4.1786
X6.0965Y-4.3439
X6.0965Y-4.5093
X6.0965Y-4.6746
X6.0965Y-4.84
T3
X6.8465Y-3.1512
X6.8465Y-3.3071
X6.8465Y-3.463
X6.8465Y-3.6189
X6.8465Y-3.7748
X6.8465Y-3.9307
X6.8465Y-4.0866
X6.8465Y-4.2425
X6.8465Y-4.3984
X6.8465Y-4.5543
X6.8465Y-4.7102
X6.8465Y-4.8661
T0
M30
