%TF.GenerationSoftware,KiCad,Pcbnew,(6.0.7)*%
%TF.CreationDate,2023-01-08T15:04:34+11:00*%
%TF.ProjectId,Xbox_ATX,58626f78-5f41-4545-982e-6b696361645f,rev?*%
%TF.SameCoordinates,Original*%
%TF.FileFunction,Legend,Top*%
%TF.FilePolarity,Positive*%
%FSLAX46Y46*%
G04 Gerber Fmt 4.6, Leading zero omitted, Abs format (unit mm)*
G04 Created by KiCad (PCBNEW (6.0.7)) date 2023-01-08 15:04:34*
%MOMM*%
%LPD*%
G01*
G04 APERTURE LIST*
%ADD10C,0.250000*%
%ADD11C,0.150000*%
%ADD12C,0.120000*%
G04 APERTURE END LIST*
D10*
X165134000Y-112485714D02*
X165134000Y-111914285D01*
X165476857Y-112600000D02*
X164276857Y-112200000D01*
X165476857Y-111800000D01*
X164276857Y-111571428D02*
X164276857Y-110885714D01*
X165476857Y-111228571D02*
X164276857Y-111228571D01*
X164276857Y-110600000D02*
X165476857Y-109800000D01*
X164276857Y-109800000D02*
X165476857Y-110600000D01*
X164676857Y-108600000D02*
X164676857Y-108142857D01*
X164276857Y-108428571D02*
X165305428Y-108428571D01*
X165419714Y-108371428D01*
X165476857Y-108257142D01*
X165476857Y-108142857D01*
X165476857Y-107571428D02*
X165419714Y-107685714D01*
X165362571Y-107742857D01*
X165248285Y-107800000D01*
X164905428Y-107800000D01*
X164791142Y-107742857D01*
X164734000Y-107685714D01*
X164676857Y-107571428D01*
X164676857Y-107400000D01*
X164734000Y-107285714D01*
X164791142Y-107228571D01*
X164905428Y-107171428D01*
X165248285Y-107171428D01*
X165362571Y-107228571D01*
X165419714Y-107285714D01*
X165476857Y-107400000D01*
X165476857Y-107571428D01*
X164276857Y-105857142D02*
X165476857Y-105057142D01*
X164276857Y-105057142D02*
X165476857Y-105857142D01*
X164848285Y-104200000D02*
X164905428Y-104028571D01*
X164962571Y-103971428D01*
X165076857Y-103914285D01*
X165248285Y-103914285D01*
X165362571Y-103971428D01*
X165419714Y-104028571D01*
X165476857Y-104142857D01*
X165476857Y-104600000D01*
X164276857Y-104600000D01*
X164276857Y-104200000D01*
X164334000Y-104085714D01*
X164391142Y-104028571D01*
X164505428Y-103971428D01*
X164619714Y-103971428D01*
X164734000Y-104028571D01*
X164791142Y-104085714D01*
X164848285Y-104200000D01*
X164848285Y-104600000D01*
X164276857Y-103171428D02*
X164276857Y-102942857D01*
X164334000Y-102828571D01*
X164448285Y-102714285D01*
X164676857Y-102657142D01*
X165076857Y-102657142D01*
X165305428Y-102714285D01*
X165419714Y-102828571D01*
X165476857Y-102942857D01*
X165476857Y-103171428D01*
X165419714Y-103285714D01*
X165305428Y-103400000D01*
X165076857Y-103457142D01*
X164676857Y-103457142D01*
X164448285Y-103400000D01*
X164334000Y-103285714D01*
X164276857Y-103171428D01*
X164276857Y-102257142D02*
X165476857Y-101457142D01*
X164276857Y-101457142D02*
X165476857Y-102257142D01*
X167408857Y-111657142D02*
X166837428Y-112057142D01*
X167408857Y-112342857D02*
X166208857Y-112342857D01*
X166208857Y-111885714D01*
X166266000Y-111771428D01*
X166323142Y-111714285D01*
X166437428Y-111657142D01*
X166608857Y-111657142D01*
X166723142Y-111714285D01*
X166780285Y-111771428D01*
X166837428Y-111885714D01*
X166837428Y-112342857D01*
X167351714Y-110685714D02*
X167408857Y-110800000D01*
X167408857Y-111028571D01*
X167351714Y-111142857D01*
X167237428Y-111200000D01*
X166780285Y-111200000D01*
X166666000Y-111142857D01*
X166608857Y-111028571D01*
X166608857Y-110800000D01*
X166666000Y-110685714D01*
X166780285Y-110628571D01*
X166894571Y-110628571D01*
X167008857Y-111200000D01*
X166608857Y-110228571D02*
X167408857Y-109942857D01*
X166608857Y-109657142D01*
X167408857Y-107657142D02*
X167408857Y-108342857D01*
X167408857Y-108000000D02*
X166208857Y-108000000D01*
X166380285Y-108114285D01*
X166494571Y-108228571D01*
X166551714Y-108342857D01*
X167294571Y-107142857D02*
X167351714Y-107085714D01*
X167408857Y-107142857D01*
X167351714Y-107200000D01*
X167294571Y-107142857D01*
X167408857Y-107142857D01*
X166208857Y-106342857D02*
X166208857Y-106228571D01*
X166266000Y-106114285D01*
X166323142Y-106057142D01*
X166437428Y-106000000D01*
X166666000Y-105942857D01*
X166951714Y-105942857D01*
X167180285Y-106000000D01*
X167294571Y-106057142D01*
X167351714Y-106114285D01*
X167408857Y-106228571D01*
X167408857Y-106342857D01*
X167351714Y-106457142D01*
X167294571Y-106514285D01*
X167180285Y-106571428D01*
X166951714Y-106628571D01*
X166666000Y-106628571D01*
X166437428Y-106571428D01*
X166323142Y-106514285D01*
X166266000Y-106457142D01*
X166208857Y-106342857D01*
X166951714Y-105428571D02*
X166951714Y-104514285D01*
X167408857Y-103314285D02*
X167408857Y-104000000D01*
X167408857Y-103657142D02*
X166208857Y-103657142D01*
X166380285Y-103771428D01*
X166494571Y-103885714D01*
X166551714Y-104000000D01*
X167294571Y-102800000D02*
X167351714Y-102742857D01*
X167408857Y-102800000D01*
X167351714Y-102857142D01*
X167294571Y-102800000D01*
X167408857Y-102800000D01*
X167408857Y-101600000D02*
X167408857Y-102285714D01*
X167408857Y-101942857D02*
X166208857Y-101942857D01*
X166380285Y-102057142D01*
X166494571Y-102171428D01*
X166551714Y-102285714D01*
D11*
%TO.C,C1*%
X163206133Y-84177142D02*
X163158514Y-84224761D01*
X163015657Y-84272380D01*
X162920419Y-84272380D01*
X162777561Y-84224761D01*
X162682323Y-84129523D01*
X162634704Y-84034285D01*
X162587085Y-83843809D01*
X162587085Y-83700952D01*
X162634704Y-83510476D01*
X162682323Y-83415238D01*
X162777561Y-83320000D01*
X162920419Y-83272380D01*
X163015657Y-83272380D01*
X163158514Y-83320000D01*
X163206133Y-83367619D01*
X164158514Y-84272380D02*
X163587085Y-84272380D01*
X163872800Y-84272380D02*
X163872800Y-83272380D01*
X163777561Y-83415238D01*
X163682323Y-83510476D01*
X163587085Y-83558095D01*
%TO.C,J1*%
X152218666Y-100931238D02*
X152218666Y-100455047D01*
X152504380Y-101026476D02*
X151504380Y-100693142D01*
X152504380Y-100359809D01*
X151504380Y-100169333D02*
X151504380Y-99597904D01*
X152504380Y-99883619D02*
X151504380Y-99883619D01*
X151504380Y-99359809D02*
X152504380Y-98693142D01*
X151504380Y-98693142D02*
X152504380Y-99359809D01*
%TO.C,Q1*%
X162464761Y-107354619D02*
X162369523Y-107307000D01*
X162274285Y-107211761D01*
X162131428Y-107068904D01*
X162036190Y-107021285D01*
X161940952Y-107021285D01*
X161988571Y-107259380D02*
X161893333Y-107211761D01*
X161798095Y-107116523D01*
X161750476Y-106926047D01*
X161750476Y-106592714D01*
X161798095Y-106402238D01*
X161893333Y-106307000D01*
X161988571Y-106259380D01*
X162179047Y-106259380D01*
X162274285Y-106307000D01*
X162369523Y-106402238D01*
X162417142Y-106592714D01*
X162417142Y-106926047D01*
X162369523Y-107116523D01*
X162274285Y-107211761D01*
X162179047Y-107259380D01*
X161988571Y-107259380D01*
X163369523Y-107259380D02*
X162798095Y-107259380D01*
X163083809Y-107259380D02*
X163083809Y-106259380D01*
X162988571Y-106402238D01*
X162893333Y-106497476D01*
X162798095Y-106545095D01*
%TO.C,R1*%
X166060380Y-97956666D02*
X165584190Y-98290000D01*
X166060380Y-98528095D02*
X165060380Y-98528095D01*
X165060380Y-98147142D01*
X165108000Y-98051904D01*
X165155619Y-98004285D01*
X165250857Y-97956666D01*
X165393714Y-97956666D01*
X165488952Y-98004285D01*
X165536571Y-98051904D01*
X165584190Y-98147142D01*
X165584190Y-98528095D01*
X166060380Y-97004285D02*
X166060380Y-97575714D01*
X166060380Y-97290000D02*
X165060380Y-97290000D01*
X165203238Y-97385238D01*
X165298476Y-97480476D01*
X165346095Y-97575714D01*
%TO.C,Q2*%
X164404761Y-90347619D02*
X164309523Y-90300000D01*
X164214285Y-90204761D01*
X164071428Y-90061904D01*
X163976190Y-90014285D01*
X163880952Y-90014285D01*
X163928571Y-90252380D02*
X163833333Y-90204761D01*
X163738095Y-90109523D01*
X163690476Y-89919047D01*
X163690476Y-89585714D01*
X163738095Y-89395238D01*
X163833333Y-89300000D01*
X163928571Y-89252380D01*
X164119047Y-89252380D01*
X164214285Y-89300000D01*
X164309523Y-89395238D01*
X164357142Y-89585714D01*
X164357142Y-89919047D01*
X164309523Y-90109523D01*
X164214285Y-90204761D01*
X164119047Y-90252380D01*
X163928571Y-90252380D01*
X164738095Y-89347619D02*
X164785714Y-89300000D01*
X164880952Y-89252380D01*
X165119047Y-89252380D01*
X165214285Y-89300000D01*
X165261904Y-89347619D01*
X165309523Y-89442857D01*
X165309523Y-89538095D01*
X165261904Y-89680952D01*
X164690476Y-90252380D01*
X165309523Y-90252380D01*
%TO.C,R3*%
X161996380Y-98210666D02*
X161520190Y-98544000D01*
X161996380Y-98782095D02*
X160996380Y-98782095D01*
X160996380Y-98401142D01*
X161044000Y-98305904D01*
X161091619Y-98258285D01*
X161186857Y-98210666D01*
X161329714Y-98210666D01*
X161424952Y-98258285D01*
X161472571Y-98305904D01*
X161520190Y-98401142D01*
X161520190Y-98782095D01*
X160996380Y-97877333D02*
X160996380Y-97258285D01*
X161377333Y-97591619D01*
X161377333Y-97448761D01*
X161424952Y-97353523D01*
X161472571Y-97305904D01*
X161567809Y-97258285D01*
X161805904Y-97258285D01*
X161901142Y-97305904D01*
X161948761Y-97353523D01*
X161996380Y-97448761D01*
X161996380Y-97734476D01*
X161948761Y-97829714D01*
X161901142Y-97877333D01*
%TO.C,C2*%
X168997333Y-75133142D02*
X168949714Y-75180761D01*
X168806857Y-75228380D01*
X168711619Y-75228380D01*
X168568761Y-75180761D01*
X168473523Y-75085523D01*
X168425904Y-74990285D01*
X168378285Y-74799809D01*
X168378285Y-74656952D01*
X168425904Y-74466476D01*
X168473523Y-74371238D01*
X168568761Y-74276000D01*
X168711619Y-74228380D01*
X168806857Y-74228380D01*
X168949714Y-74276000D01*
X168997333Y-74323619D01*
X169378285Y-74323619D02*
X169425904Y-74276000D01*
X169521142Y-74228380D01*
X169759238Y-74228380D01*
X169854476Y-74276000D01*
X169902095Y-74323619D01*
X169949714Y-74418857D01*
X169949714Y-74514095D01*
X169902095Y-74656952D01*
X169330666Y-75228380D01*
X169949714Y-75228380D01*
%TO.C,R2*%
X164028380Y-98210666D02*
X163552190Y-98544000D01*
X164028380Y-98782095D02*
X163028380Y-98782095D01*
X163028380Y-98401142D01*
X163076000Y-98305904D01*
X163123619Y-98258285D01*
X163218857Y-98210666D01*
X163361714Y-98210666D01*
X163456952Y-98258285D01*
X163504571Y-98305904D01*
X163552190Y-98401142D01*
X163552190Y-98782095D01*
X163123619Y-97829714D02*
X163076000Y-97782095D01*
X163028380Y-97686857D01*
X163028380Y-97448761D01*
X163076000Y-97353523D01*
X163123619Y-97305904D01*
X163218857Y-97258285D01*
X163314095Y-97258285D01*
X163456952Y-97305904D01*
X164028380Y-97877333D01*
X164028380Y-97258285D01*
%TO.C,U1*%
X162458095Y-73692380D02*
X162458095Y-74501904D01*
X162505714Y-74597142D01*
X162553333Y-74644761D01*
X162648571Y-74692380D01*
X162839047Y-74692380D01*
X162934285Y-74644761D01*
X162981904Y-74597142D01*
X163029523Y-74501904D01*
X163029523Y-73692380D01*
X164029523Y-74692380D02*
X163458095Y-74692380D01*
X163743809Y-74692380D02*
X163743809Y-73692380D01*
X163648571Y-73835238D01*
X163553333Y-73930476D01*
X163458095Y-73978095D01*
D12*
%TO.C,J2*%
X179160000Y-78330000D02*
X179160000Y-125310000D01*
X170875200Y-78293600D02*
X179132400Y-78311800D01*
X170953600Y-125301800D02*
X170902800Y-78311800D01*
X179160000Y-125310000D02*
X178160000Y-125310000D01*
X177583000Y-125301800D02*
X177583000Y-78321800D01*
X178160000Y-125310000D02*
X170953600Y-125301800D01*
%TO.C,C1*%
X160692220Y-84330000D02*
X160973380Y-84330000D01*
X160692220Y-83310000D02*
X160973380Y-83310000D01*
%TO.C,J1*%
X146812000Y-83036000D02*
X156972000Y-83036000D01*
X146812000Y-125476000D02*
X156972000Y-125476000D01*
X156972000Y-125476000D02*
X156972000Y-74676000D01*
X156972000Y-74676000D02*
X146812000Y-74676000D01*
X146812000Y-74676000D02*
X146812000Y-125476000D01*
%TO.C,R1*%
X165085500Y-95741258D02*
X165085500Y-95266742D01*
X166130500Y-95741258D02*
X166130500Y-95266742D01*
%TO.C,R3*%
X161021500Y-95741258D02*
X161021500Y-95266742D01*
X162066500Y-95741258D02*
X162066500Y-95266742D01*
%TO.C,C2*%
X168654000Y-77359420D02*
X168654000Y-77640580D01*
X169674000Y-77359420D02*
X169674000Y-77640580D01*
%TO.C,R2*%
X164098500Y-95266742D02*
X164098500Y-95741258D01*
X163053500Y-95266742D02*
X163053500Y-95741258D01*
%TO.C,U1*%
X161370000Y-82150000D02*
X165130000Y-82150000D01*
X159120000Y-75330000D02*
X165130000Y-75330000D01*
X165130000Y-82150000D02*
X165130000Y-80890000D01*
X165130000Y-75330000D02*
X165130000Y-76590000D01*
%TD*%
M02*
