%TF.GenerationSoftware,KiCad,Pcbnew,(6.0.7)*%
%TF.CreationDate,2023-01-08T15:22:18+11:00*%
%TF.ProjectId,Xbox_ATX,58626f78-5f41-4545-982e-6b696361645f,rev?*%
%TF.SameCoordinates,Original*%
%TF.FileFunction,Copper,L2,Bot*%
%TF.FilePolarity,Positive*%
%FSLAX46Y46*%
G04 Gerber Fmt 4.6, Leading zero omitted, Abs format (unit mm)*
G04 Created by KiCad (PCBNEW (6.0.7)) date 2023-01-08 15:22:18*
%MOMM*%
%LPD*%
G01*
G04 APERTURE LIST*
G04 Aperture macros list*
%AMRoundRect*
0 Rectangle with rounded corners*
0 $1 Rounding radius*
0 $2 $3 $4 $5 $6 $7 $8 $9 X,Y pos of 4 corners*
0 Add a 4 corners polygon primitive as box body*
4,1,4,$2,$3,$4,$5,$6,$7,$8,$9,$2,$3,0*
0 Add four circle primitives for the rounded corners*
1,1,$1+$1,$2,$3*
1,1,$1+$1,$4,$5*
1,1,$1+$1,$6,$7*
1,1,$1+$1,$8,$9*
0 Add four rect primitives between the rounded corners*
20,1,$1+$1,$2,$3,$4,$5,0*
20,1,$1+$1,$4,$5,$6,$7,0*
20,1,$1+$1,$6,$7,$8,$9,0*
20,1,$1+$1,$8,$9,$2,$3,0*%
G04 Aperture macros list end*
%TA.AperFunction,ComponentPad*%
%ADD10C,2.700000*%
%TD*%
%TA.AperFunction,ComponentPad*%
%ADD11RoundRect,0.213608X1.136392X-1.136392X1.136392X1.136392X-1.136392X1.136392X-1.136392X-1.136392X0*%
%TD*%
%TA.AperFunction,ViaPad*%
%ADD12C,0.800000*%
%TD*%
%TA.AperFunction,Conductor*%
%ADD13C,1.500000*%
%TD*%
%TA.AperFunction,Conductor*%
%ADD14C,1.250000*%
%TD*%
G04 APERTURE END LIST*
D10*
%TO.P,J2,12,Pin_12*%
%TO.N,/Power_ON*%
X173900000Y-80040000D03*
%TO.P,J2,11,Pin_11*%
%TO.N,/Power_OK*%
X173900000Y-84000000D03*
%TO.P,J2,10,Pin_10*%
%TO.N,GND*%
X173900000Y-87960000D03*
%TO.P,J2,9,Pin_9*%
X173900000Y-91920000D03*
%TO.P,J2,8,Pin_8*%
X173900000Y-95880000D03*
%TO.P,J2,7,Pin_7*%
X173900000Y-99840000D03*
%TO.P,J2,6,Pin_6*%
%TO.N,/3V3SB*%
X173900000Y-103800000D03*
%TO.P,J2,5,Pin_5*%
%TO.N,+3V3*%
X173900000Y-107760000D03*
%TO.P,J2,4,Pin_4*%
%TO.N,+5V*%
X173900000Y-111720000D03*
%TO.P,J2,3,Pin_3*%
X173900000Y-115680000D03*
%TO.P,J2,2,Pin_2*%
X173900000Y-119640000D03*
D11*
%TO.P,J2,1,Pin_1*%
%TO.N,+12V*%
X173900000Y-123600000D03*
%TD*%
D10*
%TO.P,J1,1,+3.3V*%
%TO.N,+3V3*%
X149352000Y-122936000D03*
%TO.P,J1,2,+3.3V*%
X149352000Y-118736000D03*
%TO.P,J1,3,GND*%
%TO.N,GND*%
X149352000Y-114536000D03*
%TO.P,J1,4,+5V*%
%TO.N,+5V*%
X149352000Y-110336000D03*
%TO.P,J1,5,GND*%
%TO.N,GND*%
X149352000Y-106136000D03*
%TO.P,J1,6,+5V*%
%TO.N,+5V*%
X149352000Y-101936000D03*
%TO.P,J1,7,GND*%
%TO.N,GND*%
X149352000Y-97736000D03*
%TO.P,J1,8,PWR_OK*%
%TO.N,/PWR_OK*%
X149352000Y-93536000D03*
%TO.P,J1,9,+5VSB*%
%TO.N,/5VSB*%
X149352000Y-89336000D03*
%TO.P,J1,10,+12V*%
%TO.N,+12V*%
X149352000Y-85136000D03*
%TO.P,J1,11,+12V*%
X149352000Y-80936000D03*
%TO.P,J1,12,+3.3V*%
%TO.N,+3V3*%
X149352000Y-76736000D03*
%TO.P,J1,13,+3.3V*%
X154852000Y-122936000D03*
%TO.P,J1,14,-12V*%
%TO.N,unconnected-(J1-Pad14)*%
X154852000Y-118736000D03*
%TO.P,J1,15,GND*%
%TO.N,GND*%
X154852000Y-114536000D03*
%TO.P,J1,16,PS_ON#*%
%TO.N,/PS_ON*%
X154852000Y-110336000D03*
%TO.P,J1,17,GND*%
%TO.N,GND*%
X154852000Y-106136000D03*
%TO.P,J1,18,GND*%
X154852000Y-101936000D03*
%TO.P,J1,19,GND*%
X154852000Y-97736000D03*
%TO.P,J1,20,NC*%
%TO.N,unconnected-(J1-Pad20)*%
X154852000Y-93536000D03*
%TO.P,J1,21,+5V*%
%TO.N,+5V*%
X154852000Y-89336000D03*
%TO.P,J1,22,+5V*%
X154852000Y-85136000D03*
%TO.P,J1,23,+5V*%
X154852000Y-80936000D03*
%TO.P,J1,24,GND*%
%TO.N,GND*%
X154852000Y-76736000D03*
%TD*%
D12*
%TO.N,+5V*%
X162255200Y-115468400D03*
X163271200Y-115468400D03*
X161290000Y-113741200D03*
X163271200Y-113741200D03*
X163271200Y-114604800D03*
X161239200Y-114604800D03*
X162255200Y-114604800D03*
X162255200Y-113741200D03*
X161239200Y-115468400D03*
%TD*%
D13*
%TO.N,+3V3*%
X168540000Y-107760000D02*
X173900000Y-107760000D01*
X168200000Y-108100000D02*
X168200000Y-120471000D01*
X168200000Y-77200000D02*
X168200000Y-108100000D01*
X168200000Y-108100000D02*
X168540000Y-107760000D01*
X168200000Y-120471000D02*
X165735000Y-122936000D01*
X165735000Y-122936000D02*
X154852000Y-122936000D01*
X151652000Y-74436000D02*
X165436000Y-74436000D01*
X165436000Y-74436000D02*
X168200000Y-77200000D01*
X149352000Y-76736000D02*
X151652000Y-74436000D01*
D14*
%TO.N,+12V*%
X171643000Y-125857000D02*
X173900000Y-123600000D01*
X146177000Y-123571000D02*
X148463000Y-125857000D01*
X146177000Y-88311000D02*
X146177000Y-123571000D01*
X149352000Y-85136000D02*
X146177000Y-88311000D01*
X148463000Y-125857000D02*
X171643000Y-125857000D01*
D13*
%TO.N,+5V*%
X161239200Y-114604800D02*
X161239200Y-114503200D01*
X151892000Y-99396000D02*
X149352000Y-101936000D01*
X154852000Y-89336000D02*
X153615000Y-89336000D01*
X151892000Y-91059000D02*
X151892000Y-99396000D01*
X156362000Y-89336000D02*
X154852000Y-89336000D01*
X153615000Y-89336000D02*
X151892000Y-91059000D01*
X157226000Y-110490000D02*
X157226000Y-90200000D01*
X157226000Y-90200000D02*
X156362000Y-89336000D01*
X161239200Y-114503200D02*
X157226000Y-110490000D01*
%TD*%
%TA.AperFunction,Conductor*%
%TO.N,+5V*%
G36*
X163721321Y-113304002D02*
G01*
X163767814Y-113357658D01*
X163779200Y-113410000D01*
X163779200Y-115799600D01*
X163759198Y-115867721D01*
X163705542Y-115914214D01*
X163653200Y-115925600D01*
X160908000Y-115925600D01*
X160839879Y-115905598D01*
X160793386Y-115851942D01*
X160782000Y-115799600D01*
X160782000Y-113410000D01*
X160802002Y-113341879D01*
X160855658Y-113295386D01*
X160908000Y-113284000D01*
X163653200Y-113284000D01*
X163721321Y-113304002D01*
G37*
%TD.AperFunction*%
%TD*%
%TA.AperFunction,Conductor*%
%TO.N,GND*%
G36*
X179773621Y-73172502D02*
G01*
X179820114Y-73226158D01*
X179831500Y-73278500D01*
X179831500Y-126238500D01*
X179811498Y-126306621D01*
X179757842Y-126353114D01*
X179705500Y-126364500D01*
X173042701Y-126364500D01*
X172974580Y-126344498D01*
X172928087Y-126290842D01*
X172917983Y-126220568D01*
X172947477Y-126155988D01*
X172953606Y-126149405D01*
X173607606Y-125495405D01*
X173669918Y-125461379D01*
X173696701Y-125458500D01*
X174999547Y-125458499D01*
X175084370Y-125458499D01*
X175185066Y-125448052D01*
X175191599Y-125445872D01*
X175191601Y-125445872D01*
X175337847Y-125397080D01*
X175344795Y-125394762D01*
X175487981Y-125306156D01*
X175606943Y-125186986D01*
X175695300Y-125043646D01*
X175748310Y-124883823D01*
X175758500Y-124784371D01*
X175758499Y-122415630D01*
X175748052Y-122314934D01*
X175694762Y-122155205D01*
X175606156Y-122012019D01*
X175486986Y-121893057D01*
X175474246Y-121885204D01*
X175349876Y-121808540D01*
X175349874Y-121808539D01*
X175343646Y-121804700D01*
X175268591Y-121779806D01*
X175190351Y-121753855D01*
X175190349Y-121753855D01*
X175183823Y-121751690D01*
X175176984Y-121750989D01*
X175176983Y-121750989D01*
X175147259Y-121747944D01*
X175084371Y-121741500D01*
X174118670Y-121741500D01*
X174050549Y-121721498D01*
X174004056Y-121667842D01*
X173993952Y-121597568D01*
X174023446Y-121532988D01*
X174083172Y-121494604D01*
X174097975Y-121491212D01*
X174239216Y-121467702D01*
X174330576Y-121452496D01*
X174330580Y-121452495D01*
X174334966Y-121451765D01*
X174339207Y-121450424D01*
X174339210Y-121450423D01*
X174581661Y-121373746D01*
X174581663Y-121373745D01*
X174585907Y-121372403D01*
X174589918Y-121370477D01*
X174589923Y-121370475D01*
X174819143Y-121260405D01*
X174819144Y-121260404D01*
X174823162Y-121258475D01*
X174933187Y-121184958D01*
X175038289Y-121114732D01*
X175038293Y-121114729D01*
X175041997Y-121112254D01*
X175045314Y-121109283D01*
X175045318Y-121109280D01*
X175234729Y-120939629D01*
X175234730Y-120939628D01*
X175238047Y-120936657D01*
X175407398Y-120735189D01*
X175430696Y-120697833D01*
X175498901Y-120588470D01*
X175546674Y-120511869D01*
X175551952Y-120499932D01*
X175651295Y-120275219D01*
X175653093Y-120271152D01*
X175724534Y-120017843D01*
X175740723Y-119897316D01*
X175759143Y-119760176D01*
X175759144Y-119760168D01*
X175759570Y-119756994D01*
X175759671Y-119753783D01*
X175763146Y-119643222D01*
X175763146Y-119643217D01*
X175763247Y-119640000D01*
X175744659Y-119377466D01*
X175742439Y-119367152D01*
X175690201Y-119124523D01*
X175689264Y-119120171D01*
X175686930Y-119113843D01*
X175599710Y-118877424D01*
X175598169Y-118873247D01*
X175473191Y-118641622D01*
X175316824Y-118429918D01*
X175307145Y-118420085D01*
X175135318Y-118245539D01*
X175132187Y-118242358D01*
X175128647Y-118239657D01*
X175128641Y-118239651D01*
X174926506Y-118085386D01*
X174926502Y-118085383D01*
X174922965Y-118082684D01*
X174693332Y-117954084D01*
X174447870Y-117859122D01*
X174443545Y-117858119D01*
X174443540Y-117858118D01*
X174302794Y-117825495D01*
X174191476Y-117799693D01*
X174044957Y-117787003D01*
X173978816Y-117761198D01*
X173937126Y-117703730D01*
X173933124Y-117632847D01*
X173968079Y-117571052D01*
X174030895Y-117537965D01*
X174052860Y-117535508D01*
X174061954Y-117535294D01*
X174075347Y-117534978D01*
X174079745Y-117534246D01*
X174330576Y-117492496D01*
X174330580Y-117492495D01*
X174334966Y-117491765D01*
X174339207Y-117490424D01*
X174339210Y-117490423D01*
X174581661Y-117413746D01*
X174581663Y-117413745D01*
X174585907Y-117412403D01*
X174589918Y-117410477D01*
X174589923Y-117410475D01*
X174819143Y-117300405D01*
X174819144Y-117300404D01*
X174823162Y-117298475D01*
X174933187Y-117224958D01*
X175038289Y-117154732D01*
X175038293Y-117154729D01*
X175041997Y-117152254D01*
X175045314Y-117149283D01*
X175045318Y-117149280D01*
X175234729Y-116979629D01*
X175234730Y-116979628D01*
X175238047Y-116976657D01*
X175407398Y-116775189D01*
X175546674Y-116551869D01*
X175596688Y-116438740D01*
X175651295Y-116315219D01*
X175653093Y-116311152D01*
X175654907Y-116304722D01*
X175686297Y-116193421D01*
X175724534Y-116057843D01*
X175744560Y-115908749D01*
X175759143Y-115800176D01*
X175759144Y-115800168D01*
X175759570Y-115796994D01*
X175763247Y-115680000D01*
X175744659Y-115417466D01*
X175743359Y-115411425D01*
X175690201Y-115164523D01*
X175689264Y-115160171D01*
X175684534Y-115147348D01*
X175599710Y-114917424D01*
X175598169Y-114913247D01*
X175473191Y-114681622D01*
X175316824Y-114469918D01*
X175132187Y-114282358D01*
X175128647Y-114279657D01*
X175128641Y-114279651D01*
X174926506Y-114125386D01*
X174926502Y-114125383D01*
X174922965Y-114122684D01*
X174693332Y-113994084D01*
X174447870Y-113899122D01*
X174443545Y-113898119D01*
X174443540Y-113898118D01*
X174302794Y-113865495D01*
X174191476Y-113839693D01*
X174044957Y-113827003D01*
X173978816Y-113801198D01*
X173937126Y-113743730D01*
X173933124Y-113672847D01*
X173968079Y-113611052D01*
X174030895Y-113577965D01*
X174052860Y-113575508D01*
X174061954Y-113575294D01*
X174075347Y-113574978D01*
X174079745Y-113574246D01*
X174330576Y-113532496D01*
X174330580Y-113532495D01*
X174334966Y-113531765D01*
X174339207Y-113530424D01*
X174339210Y-113530423D01*
X174581661Y-113453746D01*
X174581663Y-113453745D01*
X174585907Y-113452403D01*
X174589918Y-113450477D01*
X174589923Y-113450475D01*
X174819143Y-113340405D01*
X174819144Y-113340404D01*
X174823162Y-113338475D01*
X174957806Y-113248509D01*
X175038289Y-113194732D01*
X175038293Y-113194729D01*
X175041997Y-113192254D01*
X175045314Y-113189283D01*
X175045318Y-113189280D01*
X175234729Y-113019629D01*
X175234730Y-113019628D01*
X175238047Y-113016657D01*
X175407398Y-112815189D01*
X175409823Y-112811302D01*
X175544320Y-112595643D01*
X175546674Y-112591869D01*
X175653093Y-112351152D01*
X175724534Y-112097843D01*
X175738191Y-111996165D01*
X175759143Y-111840176D01*
X175759144Y-111840168D01*
X175759570Y-111836994D01*
X175759671Y-111833783D01*
X175763146Y-111723222D01*
X175763146Y-111723217D01*
X175763247Y-111720000D01*
X175744659Y-111457466D01*
X175739736Y-111434597D01*
X175690201Y-111204523D01*
X175689264Y-111200171D01*
X175670218Y-111148543D01*
X175599710Y-110957424D01*
X175598169Y-110953247D01*
X175550783Y-110865426D01*
X175475304Y-110725538D01*
X175473191Y-110721622D01*
X175316824Y-110509918D01*
X175132187Y-110322358D01*
X175128647Y-110319657D01*
X175128641Y-110319651D01*
X174926506Y-110165386D01*
X174926502Y-110165383D01*
X174922965Y-110162684D01*
X174693332Y-110034084D01*
X174447870Y-109939122D01*
X174443545Y-109938119D01*
X174443540Y-109938118D01*
X174302794Y-109905495D01*
X174191476Y-109879693D01*
X174044957Y-109867003D01*
X173978816Y-109841198D01*
X173937126Y-109783730D01*
X173933124Y-109712847D01*
X173968079Y-109651052D01*
X174030895Y-109617965D01*
X174052860Y-109615508D01*
X174061954Y-109615294D01*
X174075347Y-109614978D01*
X174079745Y-109614246D01*
X174330576Y-109572496D01*
X174330580Y-109572495D01*
X174334966Y-109571765D01*
X174339207Y-109570424D01*
X174339210Y-109570423D01*
X174581661Y-109493746D01*
X174581663Y-109493745D01*
X174585907Y-109492403D01*
X174589918Y-109490477D01*
X174589923Y-109490475D01*
X174819143Y-109380405D01*
X174819144Y-109380404D01*
X174823162Y-109378475D01*
X174957520Y-109288700D01*
X175038289Y-109234732D01*
X175038293Y-109234729D01*
X175041997Y-109232254D01*
X175045314Y-109229283D01*
X175045318Y-109229280D01*
X175234729Y-109059629D01*
X175234730Y-109059628D01*
X175238047Y-109056657D01*
X175407398Y-108855189D01*
X175546674Y-108631869D01*
X175549271Y-108625996D01*
X175651295Y-108395219D01*
X175653093Y-108391152D01*
X175724534Y-108137843D01*
X175756553Y-107899458D01*
X175759143Y-107880176D01*
X175759144Y-107880168D01*
X175759570Y-107876994D01*
X175759671Y-107873783D01*
X175763146Y-107763222D01*
X175763146Y-107763217D01*
X175763247Y-107760000D01*
X175744659Y-107497466D01*
X175689264Y-107240171D01*
X175598169Y-106993247D01*
X175522405Y-106852831D01*
X175475304Y-106765538D01*
X175473191Y-106761622D01*
X175316824Y-106549918D01*
X175306202Y-106539127D01*
X175135318Y-106365539D01*
X175132187Y-106362358D01*
X175128647Y-106359657D01*
X175128641Y-106359651D01*
X174926506Y-106205386D01*
X174926502Y-106205383D01*
X174922965Y-106202684D01*
X174693332Y-106074084D01*
X174447870Y-105979122D01*
X174443545Y-105978119D01*
X174443540Y-105978118D01*
X174302794Y-105945495D01*
X174191476Y-105919693D01*
X174044957Y-105907003D01*
X173978816Y-105881198D01*
X173937126Y-105823730D01*
X173933124Y-105752847D01*
X173968079Y-105691052D01*
X174030895Y-105657965D01*
X174052860Y-105655508D01*
X174061954Y-105655294D01*
X174075347Y-105654978D01*
X174079745Y-105654246D01*
X174330576Y-105612496D01*
X174330580Y-105612495D01*
X174334966Y-105611765D01*
X174339207Y-105610424D01*
X174339210Y-105610423D01*
X174581661Y-105533746D01*
X174581663Y-105533745D01*
X174585907Y-105532403D01*
X174589918Y-105530477D01*
X174589923Y-105530475D01*
X174819143Y-105420405D01*
X174819144Y-105420404D01*
X174823162Y-105418475D01*
X174933187Y-105344958D01*
X175038289Y-105274732D01*
X175038293Y-105274729D01*
X175041997Y-105272254D01*
X175045314Y-105269283D01*
X175045318Y-105269280D01*
X175234729Y-105099629D01*
X175234730Y-105099628D01*
X175238047Y-105096657D01*
X175407398Y-104895189D01*
X175546674Y-104671869D01*
X175548535Y-104667661D01*
X175651295Y-104435219D01*
X175653093Y-104431152D01*
X175724534Y-104177843D01*
X175729757Y-104138955D01*
X175759143Y-103920176D01*
X175759144Y-103920168D01*
X175759570Y-103916994D01*
X175763247Y-103800000D01*
X175744659Y-103537466D01*
X175733167Y-103484085D01*
X175690201Y-103284523D01*
X175689264Y-103280171D01*
X175671736Y-103232657D01*
X175599710Y-103037424D01*
X175598169Y-103033247D01*
X175473191Y-102801622D01*
X175316824Y-102589918D01*
X175298417Y-102571219D01*
X175194272Y-102465426D01*
X175132187Y-102402358D01*
X175128647Y-102399657D01*
X175128641Y-102399651D01*
X174926506Y-102245386D01*
X174926502Y-102245383D01*
X174922965Y-102242684D01*
X174693332Y-102114084D01*
X174447870Y-102019122D01*
X174443545Y-102018119D01*
X174443540Y-102018118D01*
X174279224Y-101980032D01*
X174191476Y-101959693D01*
X174040417Y-101946610D01*
X173974277Y-101920805D01*
X173932587Y-101863338D01*
X173928585Y-101792454D01*
X173963540Y-101730659D01*
X174026356Y-101697572D01*
X174048321Y-101695115D01*
X174070843Y-101694584D01*
X174079698Y-101693747D01*
X174330459Y-101652009D01*
X174339093Y-101649936D01*
X174581477Y-101573280D01*
X174589739Y-101570009D01*
X174818895Y-101459970D01*
X174826619Y-101455564D01*
X175009218Y-101333556D01*
X175017506Y-101323638D01*
X175010249Y-101309459D01*
X173912812Y-100212022D01*
X173898868Y-100204408D01*
X173897035Y-100204539D01*
X173890420Y-100208790D01*
X172790070Y-101309140D01*
X172782904Y-101322263D01*
X172790294Y-101332566D01*
X172825455Y-101361192D01*
X172832731Y-101366305D01*
X173050514Y-101497421D01*
X173058428Y-101501454D01*
X173292523Y-101600581D01*
X173300928Y-101603458D01*
X173546650Y-101668610D01*
X173555382Y-101670276D01*
X173767506Y-101695382D01*
X173832804Y-101723252D01*
X173872668Y-101782001D01*
X173874442Y-101852975D01*
X173837563Y-101913642D01*
X173773740Y-101944739D01*
X173759621Y-101946319D01*
X173752631Y-101946704D01*
X173670917Y-101951200D01*
X173670911Y-101951201D01*
X173666473Y-101951445D01*
X173538369Y-101976927D01*
X173412711Y-102001921D01*
X173412706Y-102001922D01*
X173408339Y-102002791D01*
X173404136Y-102004267D01*
X173164223Y-102088518D01*
X173164220Y-102088519D01*
X173160015Y-102089996D01*
X173156062Y-102092049D01*
X173156056Y-102092052D01*
X173071531Y-102135960D01*
X172926456Y-102211321D01*
X172922841Y-102213904D01*
X172922835Y-102213908D01*
X172819585Y-102287692D01*
X172712322Y-102364344D01*
X172709095Y-102367422D01*
X172709093Y-102367424D01*
X172671316Y-102403462D01*
X172521885Y-102546011D01*
X172358945Y-102752700D01*
X172330529Y-102801622D01*
X172228987Y-102976438D01*
X172228984Y-102976444D01*
X172226753Y-102980285D01*
X172225083Y-102984408D01*
X172179351Y-103097316D01*
X172127947Y-103224225D01*
X172064498Y-103479654D01*
X172037672Y-103741474D01*
X172048005Y-104004462D01*
X172095290Y-104263371D01*
X172178584Y-104513034D01*
X172210509Y-104576925D01*
X172257950Y-104671869D01*
X172296225Y-104748470D01*
X172445865Y-104964982D01*
X172624520Y-105158249D01*
X172828623Y-105324415D01*
X172832431Y-105326708D01*
X172832433Y-105326709D01*
X173050288Y-105457868D01*
X173050292Y-105457870D01*
X173054104Y-105460165D01*
X173190026Y-105517721D01*
X173292359Y-105561054D01*
X173292364Y-105561056D01*
X173296462Y-105562791D01*
X173300760Y-105563930D01*
X173300764Y-105563932D01*
X173423662Y-105596517D01*
X173550862Y-105630244D01*
X173555281Y-105630767D01*
X173764601Y-105655542D01*
X173829898Y-105683413D01*
X173869762Y-105742161D01*
X173871536Y-105813136D01*
X173834657Y-105873802D01*
X173770833Y-105904900D01*
X173756716Y-105906479D01*
X173738854Y-105907462D01*
X173670917Y-105911200D01*
X173670911Y-105911201D01*
X173666473Y-105911445D01*
X173538369Y-105936927D01*
X173412711Y-105961921D01*
X173412706Y-105961922D01*
X173408339Y-105962791D01*
X173404136Y-105964267D01*
X173164223Y-106048518D01*
X173164220Y-106048519D01*
X173160015Y-106049996D01*
X173156062Y-106052049D01*
X173156056Y-106052052D01*
X173046010Y-106109217D01*
X172926456Y-106171321D01*
X172922841Y-106173904D01*
X172922835Y-106173908D01*
X172851207Y-106225095D01*
X172712322Y-106324344D01*
X172709095Y-106327422D01*
X172709093Y-106327424D01*
X172563125Y-106466670D01*
X172500029Y-106499217D01*
X172476154Y-106501500D01*
X169584500Y-106501500D01*
X169516379Y-106481498D01*
X169469886Y-106427842D01*
X169458500Y-106375500D01*
X169458500Y-99785942D01*
X172038348Y-99785942D01*
X172048328Y-100039960D01*
X172049302Y-100048784D01*
X172094978Y-100298875D01*
X172097182Y-100307462D01*
X172177636Y-100548613D01*
X172181040Y-100556831D01*
X172294667Y-100784235D01*
X172299185Y-100791874D01*
X172407294Y-100948296D01*
X172417612Y-100956647D01*
X172431267Y-100949523D01*
X173527978Y-99852812D01*
X173534356Y-99841132D01*
X174264408Y-99841132D01*
X174264539Y-99842965D01*
X174268790Y-99849580D01*
X175370027Y-100950817D01*
X175383428Y-100958135D01*
X175393329Y-100951149D01*
X175404127Y-100938305D01*
X175409353Y-100931110D01*
X175543867Y-100715425D01*
X175548038Y-100707547D01*
X175650817Y-100475065D01*
X175653833Y-100466688D01*
X175722832Y-100222034D01*
X175724636Y-100213326D01*
X175758643Y-99960145D01*
X175759171Y-99953752D01*
X175762645Y-99843222D01*
X175762518Y-99836779D01*
X175744478Y-99581986D01*
X175743225Y-99573183D01*
X175689720Y-99324662D01*
X175687241Y-99316129D01*
X175599254Y-99077630D01*
X175595599Y-99069535D01*
X175474881Y-98845807D01*
X175470122Y-98838309D01*
X175392004Y-98732545D01*
X175380876Y-98724103D01*
X175368283Y-98730927D01*
X174272022Y-99827188D01*
X174264408Y-99841132D01*
X173534356Y-99841132D01*
X173535592Y-99838868D01*
X173535461Y-99837035D01*
X173531210Y-99830420D01*
X172431423Y-98730633D01*
X172418582Y-98723621D01*
X172407893Y-98731416D01*
X172362115Y-98789485D01*
X172357122Y-98796833D01*
X172229440Y-99016655D01*
X172225532Y-99024629D01*
X172130097Y-99260247D01*
X172127348Y-99268709D01*
X172066067Y-99515413D01*
X172064538Y-99524174D01*
X172038627Y-99777059D01*
X172038348Y-99785942D01*
X169458500Y-99785942D01*
X169458500Y-97362263D01*
X172782904Y-97362263D01*
X172790294Y-97372566D01*
X172825455Y-97401192D01*
X172832731Y-97406305D01*
X173050514Y-97537421D01*
X173058428Y-97541454D01*
X173292523Y-97640581D01*
X173300928Y-97643458D01*
X173546650Y-97708610D01*
X173555380Y-97710276D01*
X173770394Y-97735724D01*
X173835691Y-97763594D01*
X173875555Y-97822343D01*
X173877329Y-97893317D01*
X173840450Y-97953984D01*
X173776626Y-97985081D01*
X173762507Y-97986661D01*
X173670976Y-97991698D01*
X173662174Y-97992810D01*
X173412832Y-98042408D01*
X173404279Y-98044748D01*
X173164421Y-98128978D01*
X173156255Y-98132512D01*
X172930669Y-98249696D01*
X172923097Y-98254335D01*
X172792292Y-98347810D01*
X172783889Y-98358533D01*
X172790869Y-98371659D01*
X173887188Y-99467978D01*
X173901132Y-99475592D01*
X173902965Y-99475461D01*
X173909580Y-99471210D01*
X175009129Y-98371661D01*
X175015983Y-98359109D01*
X175007776Y-98348039D01*
X174926230Y-98285805D01*
X174918801Y-98280925D01*
X174697005Y-98156713D01*
X174688971Y-98152932D01*
X174451865Y-98061203D01*
X174443392Y-98058596D01*
X174195736Y-98001193D01*
X174186960Y-97999803D01*
X174035868Y-97986717D01*
X173969727Y-97960912D01*
X173928038Y-97903445D01*
X173924035Y-97832561D01*
X173958990Y-97770766D01*
X174021805Y-97737679D01*
X174043772Y-97735222D01*
X174070843Y-97734584D01*
X174079698Y-97733747D01*
X174330459Y-97692009D01*
X174339093Y-97689936D01*
X174581477Y-97613280D01*
X174589739Y-97610009D01*
X174818895Y-97499970D01*
X174826619Y-97495564D01*
X175009218Y-97373556D01*
X175017506Y-97363638D01*
X175010249Y-97349459D01*
X173912812Y-96252022D01*
X173898868Y-96244408D01*
X173897035Y-96244539D01*
X173890420Y-96248790D01*
X172790070Y-97349140D01*
X172782904Y-97362263D01*
X169458500Y-97362263D01*
X169458500Y-95825942D01*
X172038348Y-95825942D01*
X172048328Y-96079960D01*
X172049302Y-96088784D01*
X172094978Y-96338875D01*
X172097182Y-96347462D01*
X172177636Y-96588613D01*
X172181040Y-96596831D01*
X172294667Y-96824235D01*
X172299185Y-96831874D01*
X172407294Y-96988296D01*
X172417612Y-96996647D01*
X172431267Y-96989523D01*
X173527978Y-95892812D01*
X173534356Y-95881132D01*
X174264408Y-95881132D01*
X174264539Y-95882965D01*
X174268790Y-95889580D01*
X175370027Y-96990817D01*
X175383428Y-96998135D01*
X175393329Y-96991149D01*
X175404127Y-96978305D01*
X175409353Y-96971110D01*
X175543867Y-96755425D01*
X175548038Y-96747547D01*
X175650817Y-96515065D01*
X175653833Y-96506688D01*
X175722832Y-96262034D01*
X175724636Y-96253326D01*
X175758643Y-96000145D01*
X175759171Y-95993752D01*
X175762645Y-95883222D01*
X175762518Y-95876779D01*
X175744478Y-95621986D01*
X175743225Y-95613183D01*
X175689720Y-95364662D01*
X175687241Y-95356129D01*
X175599254Y-95117630D01*
X175595599Y-95109535D01*
X175474881Y-94885807D01*
X175470122Y-94878309D01*
X175392004Y-94772545D01*
X175380876Y-94764103D01*
X175368283Y-94770927D01*
X174272022Y-95867188D01*
X174264408Y-95881132D01*
X173534356Y-95881132D01*
X173535592Y-95878868D01*
X173535461Y-95877035D01*
X173531210Y-95870420D01*
X172431423Y-94770633D01*
X172418582Y-94763621D01*
X172407893Y-94771416D01*
X172362115Y-94829485D01*
X172357122Y-94836833D01*
X172229440Y-95056655D01*
X172225532Y-95064629D01*
X172130097Y-95300247D01*
X172127348Y-95308709D01*
X172066067Y-95555413D01*
X172064538Y-95564174D01*
X172038627Y-95817059D01*
X172038348Y-95825942D01*
X169458500Y-95825942D01*
X169458500Y-93402263D01*
X172782904Y-93402263D01*
X172790294Y-93412566D01*
X172825455Y-93441192D01*
X172832731Y-93446305D01*
X173050514Y-93577421D01*
X173058428Y-93581454D01*
X173292523Y-93680581D01*
X173300928Y-93683458D01*
X173546650Y-93748610D01*
X173555380Y-93750276D01*
X173770394Y-93775724D01*
X173835691Y-93803594D01*
X173875555Y-93862343D01*
X173877329Y-93933317D01*
X173840450Y-93993984D01*
X173776626Y-94025081D01*
X173762507Y-94026661D01*
X173670976Y-94031698D01*
X173662174Y-94032810D01*
X173412832Y-94082408D01*
X173404279Y-94084748D01*
X173164421Y-94168978D01*
X173156255Y-94172512D01*
X172930669Y-94289696D01*
X172923097Y-94294335D01*
X172792292Y-94387810D01*
X172783889Y-94398533D01*
X172790869Y-94411659D01*
X173887188Y-95507978D01*
X173901132Y-95515592D01*
X173902965Y-95515461D01*
X173909580Y-95511210D01*
X175009129Y-94411661D01*
X175015983Y-94399109D01*
X175007776Y-94388039D01*
X174926230Y-94325805D01*
X174918801Y-94320925D01*
X174697005Y-94196713D01*
X174688971Y-94192932D01*
X174451865Y-94101203D01*
X174443392Y-94098596D01*
X174195736Y-94041193D01*
X174186960Y-94039803D01*
X174035868Y-94026717D01*
X173969727Y-94000912D01*
X173928038Y-93943445D01*
X173924035Y-93872561D01*
X173958990Y-93810766D01*
X174021805Y-93777679D01*
X174043772Y-93775222D01*
X174070843Y-93774584D01*
X174079698Y-93773747D01*
X174330459Y-93732009D01*
X174339093Y-93729936D01*
X174581477Y-93653280D01*
X174589739Y-93650009D01*
X174818895Y-93539970D01*
X174826619Y-93535564D01*
X175009218Y-93413556D01*
X175017506Y-93403638D01*
X175010249Y-93389459D01*
X173912812Y-92292022D01*
X173898868Y-92284408D01*
X173897035Y-92284539D01*
X173890420Y-92288790D01*
X172790070Y-93389140D01*
X172782904Y-93402263D01*
X169458500Y-93402263D01*
X169458500Y-91865942D01*
X172038348Y-91865942D01*
X172048328Y-92119960D01*
X172049302Y-92128784D01*
X172094978Y-92378875D01*
X172097182Y-92387462D01*
X172177636Y-92628613D01*
X172181040Y-92636831D01*
X172294667Y-92864235D01*
X172299185Y-92871874D01*
X172407294Y-93028296D01*
X172417612Y-93036647D01*
X172431267Y-93029523D01*
X173527978Y-91932812D01*
X173534356Y-91921132D01*
X174264408Y-91921132D01*
X174264539Y-91922965D01*
X174268790Y-91929580D01*
X175370027Y-93030817D01*
X175383428Y-93038135D01*
X175393329Y-93031149D01*
X175404127Y-93018305D01*
X175409353Y-93011110D01*
X175543867Y-92795425D01*
X175548038Y-92787547D01*
X175650817Y-92555065D01*
X175653833Y-92546688D01*
X175722832Y-92302034D01*
X175724636Y-92293326D01*
X175758643Y-92040145D01*
X175759171Y-92033752D01*
X175762645Y-91923222D01*
X175762518Y-91916779D01*
X175744478Y-91661986D01*
X175743225Y-91653183D01*
X175689720Y-91404662D01*
X175687241Y-91396129D01*
X175599254Y-91157630D01*
X175595599Y-91149535D01*
X175474881Y-90925807D01*
X175470122Y-90918309D01*
X175392004Y-90812545D01*
X175380876Y-90804103D01*
X175368283Y-90810927D01*
X174272022Y-91907188D01*
X174264408Y-91921132D01*
X173534356Y-91921132D01*
X173535592Y-91918868D01*
X173535461Y-91917035D01*
X173531210Y-91910420D01*
X172431423Y-90810633D01*
X172418582Y-90803621D01*
X172407893Y-90811416D01*
X172362115Y-90869485D01*
X172357122Y-90876833D01*
X172229440Y-91096655D01*
X172225532Y-91104629D01*
X172130097Y-91340247D01*
X172127348Y-91348709D01*
X172066067Y-91595413D01*
X172064538Y-91604174D01*
X172038627Y-91857059D01*
X172038348Y-91865942D01*
X169458500Y-91865942D01*
X169458500Y-89442263D01*
X172782904Y-89442263D01*
X172790294Y-89452566D01*
X172825455Y-89481192D01*
X172832731Y-89486305D01*
X173050514Y-89617421D01*
X173058428Y-89621454D01*
X173292523Y-89720581D01*
X173300928Y-89723458D01*
X173546650Y-89788610D01*
X173555380Y-89790276D01*
X173770394Y-89815724D01*
X173835691Y-89843594D01*
X173875555Y-89902343D01*
X173877329Y-89973317D01*
X173840450Y-90033984D01*
X173776626Y-90065081D01*
X173762507Y-90066661D01*
X173670976Y-90071698D01*
X173662174Y-90072810D01*
X173412832Y-90122408D01*
X173404279Y-90124748D01*
X173164421Y-90208978D01*
X173156255Y-90212512D01*
X172930669Y-90329696D01*
X172923097Y-90334335D01*
X172792292Y-90427810D01*
X172783889Y-90438533D01*
X172790869Y-90451659D01*
X173887188Y-91547978D01*
X173901132Y-91555592D01*
X173902965Y-91555461D01*
X173909580Y-91551210D01*
X175009129Y-90451661D01*
X175015983Y-90439109D01*
X175007776Y-90428039D01*
X174926230Y-90365805D01*
X174918801Y-90360925D01*
X174697005Y-90236713D01*
X174688971Y-90232932D01*
X174451865Y-90141203D01*
X174443392Y-90138596D01*
X174195736Y-90081193D01*
X174186960Y-90079803D01*
X174035868Y-90066717D01*
X173969727Y-90040912D01*
X173928038Y-89983445D01*
X173924035Y-89912561D01*
X173958990Y-89850766D01*
X174021805Y-89817679D01*
X174043772Y-89815222D01*
X174070843Y-89814584D01*
X174079698Y-89813747D01*
X174330459Y-89772009D01*
X174339093Y-89769936D01*
X174581477Y-89693280D01*
X174589739Y-89690009D01*
X174818895Y-89579970D01*
X174826619Y-89575564D01*
X175009218Y-89453556D01*
X175017506Y-89443638D01*
X175010249Y-89429459D01*
X173912812Y-88332022D01*
X173898868Y-88324408D01*
X173897035Y-88324539D01*
X173890420Y-88328790D01*
X172790070Y-89429140D01*
X172782904Y-89442263D01*
X169458500Y-89442263D01*
X169458500Y-87905942D01*
X172038348Y-87905942D01*
X172048328Y-88159960D01*
X172049302Y-88168784D01*
X172094978Y-88418875D01*
X172097182Y-88427462D01*
X172177636Y-88668613D01*
X172181040Y-88676831D01*
X172294667Y-88904235D01*
X172299185Y-88911874D01*
X172407294Y-89068296D01*
X172417612Y-89076647D01*
X172431267Y-89069523D01*
X173527978Y-87972812D01*
X173534356Y-87961132D01*
X174264408Y-87961132D01*
X174264539Y-87962965D01*
X174268790Y-87969580D01*
X175370027Y-89070817D01*
X175383428Y-89078135D01*
X175393329Y-89071149D01*
X175404127Y-89058305D01*
X175409353Y-89051110D01*
X175543867Y-88835425D01*
X175548038Y-88827547D01*
X175650817Y-88595065D01*
X175653833Y-88586688D01*
X175722832Y-88342034D01*
X175724636Y-88333326D01*
X175758643Y-88080145D01*
X175759171Y-88073752D01*
X175762645Y-87963222D01*
X175762518Y-87956779D01*
X175744478Y-87701986D01*
X175743225Y-87693183D01*
X175689720Y-87444662D01*
X175687241Y-87436129D01*
X175599254Y-87197630D01*
X175595599Y-87189535D01*
X175474881Y-86965807D01*
X175470122Y-86958309D01*
X175392004Y-86852545D01*
X175380876Y-86844103D01*
X175368283Y-86850927D01*
X174272022Y-87947188D01*
X174264408Y-87961132D01*
X173534356Y-87961132D01*
X173535592Y-87958868D01*
X173535461Y-87957035D01*
X173531210Y-87950420D01*
X172431423Y-86850633D01*
X172418582Y-86843621D01*
X172407893Y-86851416D01*
X172362115Y-86909485D01*
X172357122Y-86916833D01*
X172229440Y-87136655D01*
X172225532Y-87144629D01*
X172130097Y-87380247D01*
X172127348Y-87388709D01*
X172066067Y-87635413D01*
X172064538Y-87644174D01*
X172038627Y-87897059D01*
X172038348Y-87905942D01*
X169458500Y-87905942D01*
X169458500Y-83941474D01*
X172037672Y-83941474D01*
X172048005Y-84204462D01*
X172095290Y-84463371D01*
X172178584Y-84713034D01*
X172237652Y-84831247D01*
X172260971Y-84877915D01*
X172296225Y-84948470D01*
X172445865Y-85164982D01*
X172564431Y-85293245D01*
X172596772Y-85328231D01*
X172624520Y-85358249D01*
X172828623Y-85524415D01*
X172832431Y-85526708D01*
X172832433Y-85526709D01*
X173050288Y-85657868D01*
X173050292Y-85657870D01*
X173054104Y-85660165D01*
X173190026Y-85717721D01*
X173292359Y-85761054D01*
X173292364Y-85761056D01*
X173296462Y-85762791D01*
X173300760Y-85763930D01*
X173300764Y-85763932D01*
X173423662Y-85796518D01*
X173550862Y-85830244D01*
X173555281Y-85830767D01*
X173767488Y-85855884D01*
X173832786Y-85883755D01*
X173872649Y-85942503D01*
X173874423Y-86013478D01*
X173837544Y-86074144D01*
X173773720Y-86105242D01*
X173759601Y-86106821D01*
X173670976Y-86111698D01*
X173662174Y-86112810D01*
X173412832Y-86162408D01*
X173404279Y-86164748D01*
X173164421Y-86248978D01*
X173156255Y-86252512D01*
X172930669Y-86369696D01*
X172923097Y-86374335D01*
X172792292Y-86467810D01*
X172783889Y-86478533D01*
X172790869Y-86491659D01*
X173887188Y-87587978D01*
X173901132Y-87595592D01*
X173902965Y-87595461D01*
X173909580Y-87591210D01*
X175009129Y-86491661D01*
X175015983Y-86479109D01*
X175007776Y-86468039D01*
X174926230Y-86405805D01*
X174918801Y-86400925D01*
X174697005Y-86276713D01*
X174688971Y-86272932D01*
X174451865Y-86181203D01*
X174443392Y-86178596D01*
X174195736Y-86121193D01*
X174186959Y-86119803D01*
X174040407Y-86107110D01*
X173974266Y-86081305D01*
X173932576Y-86023838D01*
X173928574Y-85952954D01*
X173963529Y-85891159D01*
X174026345Y-85858072D01*
X174048309Y-85855615D01*
X174075347Y-85854978D01*
X174079745Y-85854246D01*
X174330576Y-85812496D01*
X174330580Y-85812495D01*
X174334966Y-85811765D01*
X174339207Y-85810424D01*
X174339210Y-85810423D01*
X174581661Y-85733746D01*
X174581663Y-85733745D01*
X174585907Y-85732403D01*
X174589918Y-85730477D01*
X174589923Y-85730475D01*
X174819143Y-85620405D01*
X174819144Y-85620404D01*
X174823162Y-85618475D01*
X174933187Y-85544958D01*
X175038289Y-85474732D01*
X175038293Y-85474729D01*
X175041997Y-85472254D01*
X175045314Y-85469283D01*
X175045318Y-85469280D01*
X175234729Y-85299629D01*
X175234730Y-85299628D01*
X175238047Y-85296657D01*
X175407398Y-85095189D01*
X175418447Y-85077474D01*
X175544320Y-84875643D01*
X175546674Y-84871869D01*
X175569568Y-84820085D01*
X175651295Y-84635219D01*
X175653093Y-84631152D01*
X175724534Y-84377843D01*
X175733319Y-84312438D01*
X175759143Y-84120176D01*
X175759144Y-84120168D01*
X175759570Y-84116994D01*
X175763247Y-84000000D01*
X175744659Y-83737466D01*
X175733167Y-83684085D01*
X175690201Y-83484523D01*
X175689264Y-83480171D01*
X175678165Y-83450084D01*
X175599710Y-83237424D01*
X175598169Y-83233247D01*
X175473191Y-83001622D01*
X175316824Y-82789918D01*
X175132187Y-82602358D01*
X175128647Y-82599657D01*
X175128641Y-82599651D01*
X174926506Y-82445386D01*
X174926502Y-82445383D01*
X174922965Y-82442684D01*
X174693332Y-82314084D01*
X174447870Y-82219122D01*
X174443545Y-82218119D01*
X174443540Y-82218118D01*
X174302794Y-82185495D01*
X174191476Y-82159693D01*
X174044957Y-82147003D01*
X173978816Y-82121198D01*
X173937126Y-82063730D01*
X173933124Y-81992847D01*
X173968079Y-81931052D01*
X174030895Y-81897965D01*
X174052860Y-81895508D01*
X174061954Y-81895294D01*
X174075347Y-81894978D01*
X174116495Y-81888129D01*
X174330576Y-81852496D01*
X174330580Y-81852495D01*
X174334966Y-81851765D01*
X174339207Y-81850424D01*
X174339210Y-81850423D01*
X174581661Y-81773746D01*
X174581663Y-81773745D01*
X174585907Y-81772403D01*
X174589918Y-81770477D01*
X174589923Y-81770475D01*
X174819143Y-81660405D01*
X174819144Y-81660404D01*
X174823162Y-81658475D01*
X174953750Y-81571219D01*
X175038289Y-81514732D01*
X175038293Y-81514729D01*
X175041997Y-81512254D01*
X175045314Y-81509283D01*
X175045318Y-81509280D01*
X175234729Y-81339629D01*
X175234730Y-81339628D01*
X175238047Y-81336657D01*
X175407398Y-81135189D01*
X175456676Y-81056176D01*
X175544320Y-80915643D01*
X175546674Y-80911869D01*
X175653093Y-80671152D01*
X175724534Y-80417843D01*
X175732827Y-80356099D01*
X175759143Y-80160176D01*
X175759144Y-80160168D01*
X175759570Y-80156994D01*
X175760720Y-80120408D01*
X175763146Y-80043222D01*
X175763146Y-80043217D01*
X175763247Y-80040000D01*
X175744659Y-79777466D01*
X175734335Y-79729510D01*
X175690201Y-79524523D01*
X175689264Y-79520171D01*
X175681950Y-79500344D01*
X175599710Y-79277424D01*
X175598169Y-79273247D01*
X175490244Y-79073227D01*
X175475304Y-79045538D01*
X175473191Y-79041622D01*
X175316824Y-78829918D01*
X175132187Y-78642358D01*
X175128647Y-78639657D01*
X175128641Y-78639651D01*
X174926506Y-78485386D01*
X174926502Y-78485383D01*
X174922965Y-78482684D01*
X174693332Y-78354084D01*
X174447870Y-78259122D01*
X174443545Y-78258119D01*
X174443540Y-78258118D01*
X174302794Y-78225495D01*
X174191476Y-78199693D01*
X173929267Y-78176983D01*
X173924832Y-78177227D01*
X173924828Y-78177227D01*
X173670916Y-78191200D01*
X173670909Y-78191201D01*
X173666473Y-78191445D01*
X173569511Y-78210732D01*
X173412711Y-78241921D01*
X173412706Y-78241922D01*
X173408339Y-78242791D01*
X173404136Y-78244267D01*
X173164223Y-78328518D01*
X173164220Y-78328519D01*
X173160015Y-78329996D01*
X173156062Y-78332049D01*
X173156056Y-78332052D01*
X173037917Y-78393421D01*
X172926456Y-78451321D01*
X172922841Y-78453904D01*
X172922835Y-78453908D01*
X172819585Y-78527692D01*
X172712322Y-78604344D01*
X172709095Y-78607422D01*
X172709093Y-78607424D01*
X172675311Y-78639651D01*
X172521885Y-78786011D01*
X172358945Y-78992700D01*
X172330529Y-79041622D01*
X172228987Y-79216438D01*
X172228984Y-79216444D01*
X172226753Y-79220285D01*
X172127947Y-79464225D01*
X172126876Y-79468538D01*
X172126874Y-79468543D01*
X172109532Y-79538358D01*
X172064498Y-79719654D01*
X172037672Y-79981474D01*
X172048005Y-80244462D01*
X172048805Y-80248842D01*
X172079365Y-80416171D01*
X172095290Y-80503371D01*
X172178584Y-80753034D01*
X172180577Y-80757022D01*
X172257950Y-80911869D01*
X172296225Y-80988470D01*
X172445865Y-81204982D01*
X172624520Y-81398249D01*
X172828623Y-81564415D01*
X172832431Y-81566708D01*
X172832433Y-81566709D01*
X173050288Y-81697868D01*
X173050292Y-81697870D01*
X173054104Y-81700165D01*
X173190026Y-81757721D01*
X173292359Y-81801054D01*
X173292364Y-81801056D01*
X173296462Y-81802791D01*
X173300760Y-81803930D01*
X173300764Y-81803932D01*
X173423662Y-81836517D01*
X173550862Y-81870244D01*
X173555281Y-81870767D01*
X173764601Y-81895542D01*
X173829898Y-81923413D01*
X173869762Y-81982161D01*
X173871536Y-82053136D01*
X173834657Y-82113802D01*
X173770833Y-82144900D01*
X173756716Y-82146479D01*
X173738854Y-82147462D01*
X173670917Y-82151200D01*
X173670911Y-82151201D01*
X173666473Y-82151445D01*
X173538369Y-82176927D01*
X173412711Y-82201921D01*
X173412706Y-82201922D01*
X173408339Y-82202791D01*
X173404136Y-82204267D01*
X173164223Y-82288518D01*
X173164220Y-82288519D01*
X173160015Y-82289996D01*
X173156062Y-82292049D01*
X173156056Y-82292052D01*
X173024615Y-82360331D01*
X172926456Y-82411321D01*
X172922841Y-82413904D01*
X172922835Y-82413908D01*
X172819585Y-82487692D01*
X172712322Y-82564344D01*
X172709095Y-82567422D01*
X172709093Y-82567424D01*
X172571385Y-82698791D01*
X172521885Y-82746011D01*
X172358945Y-82952700D01*
X172330529Y-83001622D01*
X172228987Y-83176438D01*
X172228984Y-83176444D01*
X172226753Y-83180285D01*
X172225083Y-83184408D01*
X172155937Y-83355122D01*
X172127947Y-83424225D01*
X172126876Y-83428538D01*
X172126874Y-83428543D01*
X172115088Y-83475990D01*
X172064498Y-83679654D01*
X172037672Y-83941474D01*
X169458500Y-83941474D01*
X169458500Y-77291395D01*
X169459578Y-77274948D01*
X169461746Y-77258483D01*
X169461746Y-77258479D01*
X169462479Y-77252913D01*
X169458640Y-77171511D01*
X169458500Y-77165576D01*
X169458500Y-77143001D01*
X169456181Y-77117011D01*
X169455822Y-77111749D01*
X169452160Y-77034113D01*
X169451896Y-77028512D01*
X169447892Y-77011030D01*
X169445211Y-76994100D01*
X169444116Y-76981832D01*
X169443617Y-76976238D01*
X169421630Y-76895867D01*
X169420344Y-76890749D01*
X169402995Y-76815000D01*
X169402994Y-76814998D01*
X169401742Y-76809530D01*
X169394706Y-76793033D01*
X169389073Y-76776858D01*
X169385818Y-76764961D01*
X169385817Y-76764957D01*
X169384337Y-76759549D01*
X169348461Y-76684333D01*
X169346290Y-76679524D01*
X169315804Y-76608051D01*
X169315804Y-76608050D01*
X169313603Y-76602891D01*
X169303749Y-76587890D01*
X169295343Y-76572970D01*
X169290035Y-76561841D01*
X169287622Y-76556782D01*
X169284354Y-76552234D01*
X169284351Y-76552229D01*
X169238998Y-76489114D01*
X169236009Y-76484765D01*
X169225774Y-76469183D01*
X169190265Y-76415125D01*
X169171747Y-76394341D01*
X169163498Y-76384045D01*
X169159804Y-76378904D01*
X169156529Y-76374346D01*
X169079777Y-76299968D01*
X169078367Y-76298579D01*
X166390525Y-73610737D01*
X166379657Y-73598346D01*
X166369533Y-73585152D01*
X166366123Y-73580708D01*
X166305826Y-73525842D01*
X166301531Y-73521743D01*
X166285590Y-73505802D01*
X166283440Y-73504004D01*
X166265577Y-73489068D01*
X166261602Y-73485600D01*
X166204112Y-73433288D01*
X166204103Y-73433281D01*
X166199964Y-73429515D01*
X166184773Y-73419986D01*
X166170907Y-73409911D01*
X166161451Y-73402004D01*
X166161441Y-73401997D01*
X166157146Y-73398406D01*
X166152276Y-73395628D01*
X166138812Y-73387948D01*
X166089550Y-73336823D01*
X166075748Y-73267180D01*
X166101790Y-73201132D01*
X166159405Y-73159647D01*
X166201239Y-73152500D01*
X179705500Y-73152500D01*
X179773621Y-73172502D01*
G37*
%TD.AperFunction*%
%TA.AperFunction,Conductor*%
G36*
X150958225Y-73172502D02*
G01*
X151004718Y-73226158D01*
X151014822Y-73296432D01*
X150985328Y-73361012D01*
X150963629Y-73380823D01*
X150941113Y-73397002D01*
X150936777Y-73399983D01*
X150867125Y-73445735D01*
X150846344Y-73464251D01*
X150836048Y-73472500D01*
X150826346Y-73479471D01*
X150798904Y-73507789D01*
X150751968Y-73556223D01*
X150750579Y-73557633D01*
X149471812Y-74836400D01*
X149409500Y-74870426D01*
X149382624Y-74873101D01*
X149381267Y-74872983D01*
X149376831Y-74873227D01*
X149376825Y-74873227D01*
X149122916Y-74887200D01*
X149122909Y-74887201D01*
X149118473Y-74887445D01*
X148990369Y-74912927D01*
X148864711Y-74937921D01*
X148864706Y-74937922D01*
X148860339Y-74938791D01*
X148856136Y-74940267D01*
X148616223Y-75024518D01*
X148616220Y-75024519D01*
X148612015Y-75025996D01*
X148608062Y-75028049D01*
X148608056Y-75028052D01*
X148476615Y-75096331D01*
X148378456Y-75147321D01*
X148374841Y-75149904D01*
X148374835Y-75149908D01*
X148271585Y-75223692D01*
X148164322Y-75300344D01*
X147973885Y-75482011D01*
X147810945Y-75688700D01*
X147795958Y-75714502D01*
X147680987Y-75912438D01*
X147680984Y-75912444D01*
X147678753Y-75916285D01*
X147579947Y-76160225D01*
X147516498Y-76415654D01*
X147489672Y-76677474D01*
X147491162Y-76715400D01*
X147495076Y-76815000D01*
X147500005Y-76940462D01*
X147509801Y-76994100D01*
X147530017Y-77104790D01*
X147547290Y-77199371D01*
X147548699Y-77203594D01*
X147604572Y-77371065D01*
X147630584Y-77449034D01*
X147632577Y-77453022D01*
X147709950Y-77607869D01*
X147748225Y-77684470D01*
X147897865Y-77900982D01*
X148076520Y-78094249D01*
X148280623Y-78260415D01*
X148284431Y-78262708D01*
X148284433Y-78262709D01*
X148502288Y-78393868D01*
X148502292Y-78393870D01*
X148506104Y-78396165D01*
X148642026Y-78453721D01*
X148744359Y-78497054D01*
X148744364Y-78497056D01*
X148748462Y-78498791D01*
X148752760Y-78499930D01*
X148752764Y-78499932D01*
X148875662Y-78532518D01*
X149002862Y-78566244D01*
X149264229Y-78597179D01*
X149527347Y-78590978D01*
X149534743Y-78589747D01*
X149782576Y-78548496D01*
X149782580Y-78548495D01*
X149786966Y-78547765D01*
X149791207Y-78546424D01*
X149791210Y-78546423D01*
X150033661Y-78469746D01*
X150033663Y-78469745D01*
X150037907Y-78468403D01*
X150041918Y-78466477D01*
X150041923Y-78466475D01*
X150271143Y-78356405D01*
X150271144Y-78356404D01*
X150275162Y-78354475D01*
X150385187Y-78280958D01*
X150479018Y-78218263D01*
X153734904Y-78218263D01*
X153742294Y-78228566D01*
X153777455Y-78257192D01*
X153784731Y-78262305D01*
X154002514Y-78393421D01*
X154010428Y-78397454D01*
X154244523Y-78496581D01*
X154252928Y-78499458D01*
X154498650Y-78564610D01*
X154507382Y-78566276D01*
X154759835Y-78596155D01*
X154768703Y-78596573D01*
X155022843Y-78590584D01*
X155031698Y-78589747D01*
X155282459Y-78548009D01*
X155291093Y-78545936D01*
X155533477Y-78469280D01*
X155541739Y-78466009D01*
X155770895Y-78355970D01*
X155778619Y-78351564D01*
X155961218Y-78229556D01*
X155969506Y-78219638D01*
X155962249Y-78205459D01*
X154864812Y-77108022D01*
X154850868Y-77100408D01*
X154849035Y-77100539D01*
X154842420Y-77104790D01*
X153742070Y-78205140D01*
X153734904Y-78218263D01*
X150479018Y-78218263D01*
X150490289Y-78210732D01*
X150490293Y-78210729D01*
X150493997Y-78208254D01*
X150497314Y-78205283D01*
X150497318Y-78205280D01*
X150686729Y-78035629D01*
X150686730Y-78035628D01*
X150690047Y-78032657D01*
X150859398Y-77831189D01*
X150998674Y-77607869D01*
X151105093Y-77367152D01*
X151176534Y-77113843D01*
X151194265Y-76981832D01*
X151211143Y-76856176D01*
X151211144Y-76856168D01*
X151211570Y-76852994D01*
X151215247Y-76736000D01*
X151213788Y-76715398D01*
X151228931Y-76646037D01*
X151250379Y-76617409D01*
X152136383Y-75731405D01*
X152198695Y-75697379D01*
X152225478Y-75694500D01*
X153089254Y-75694500D01*
X153157375Y-75714502D01*
X153203868Y-75768158D01*
X153213972Y-75838432D01*
X153198208Y-75883785D01*
X153181440Y-75912654D01*
X153177532Y-75920629D01*
X153082097Y-76156247D01*
X153079348Y-76164709D01*
X153018067Y-76411413D01*
X153016538Y-76420174D01*
X152990627Y-76673059D01*
X152990348Y-76681942D01*
X153000328Y-76935960D01*
X153001302Y-76944784D01*
X153046978Y-77194875D01*
X153049182Y-77203462D01*
X153129636Y-77444613D01*
X153133040Y-77452831D01*
X153246667Y-77680235D01*
X153251185Y-77687874D01*
X153359294Y-77844296D01*
X153369612Y-77852647D01*
X153383267Y-77845523D01*
X154762905Y-76465885D01*
X154825217Y-76431859D01*
X154896032Y-76436924D01*
X154941095Y-76465885D01*
X156322027Y-77846817D01*
X156335428Y-77854135D01*
X156345329Y-77847149D01*
X156356127Y-77834305D01*
X156361353Y-77827110D01*
X156495867Y-77611425D01*
X156500038Y-77603547D01*
X156602817Y-77371065D01*
X156605833Y-77362688D01*
X156674832Y-77118034D01*
X156676636Y-77109326D01*
X156710643Y-76856145D01*
X156711171Y-76849752D01*
X156714645Y-76739222D01*
X156714518Y-76732779D01*
X156696478Y-76477986D01*
X156695225Y-76469183D01*
X156641720Y-76220662D01*
X156639241Y-76212129D01*
X156551254Y-75973630D01*
X156547599Y-75965535D01*
X156501626Y-75880332D01*
X156486882Y-75810883D01*
X156512025Y-75744488D01*
X156569072Y-75702226D01*
X156612514Y-75694500D01*
X164862523Y-75694500D01*
X164930644Y-75714502D01*
X164951618Y-75731405D01*
X166904595Y-77684383D01*
X166938621Y-77746695D01*
X166941500Y-77773478D01*
X166941500Y-107986862D01*
X166940733Y-107996289D01*
X166941124Y-107996318D01*
X166940713Y-108001921D01*
X166939806Y-108007457D01*
X166939894Y-108013070D01*
X166939894Y-108013072D01*
X166941484Y-108114264D01*
X166941500Y-108116243D01*
X166941500Y-119897522D01*
X166921498Y-119965643D01*
X166904595Y-119986617D01*
X165250617Y-121640595D01*
X165188305Y-121674621D01*
X165161522Y-121677500D01*
X156273932Y-121677500D01*
X156205811Y-121657498D01*
X156184140Y-121639893D01*
X156087318Y-121541539D01*
X156084187Y-121538358D01*
X156080647Y-121535657D01*
X156080641Y-121535651D01*
X155878506Y-121381386D01*
X155878502Y-121381383D01*
X155874965Y-121378684D01*
X155645332Y-121250084D01*
X155399870Y-121155122D01*
X155395545Y-121154119D01*
X155395540Y-121154118D01*
X155237471Y-121117480D01*
X155143476Y-121095693D01*
X154881267Y-121072983D01*
X154876832Y-121073227D01*
X154876828Y-121073227D01*
X154622916Y-121087200D01*
X154622909Y-121087201D01*
X154618473Y-121087445D01*
X154508701Y-121109280D01*
X154364711Y-121137921D01*
X154364706Y-121137922D01*
X154360339Y-121138791D01*
X154356136Y-121140267D01*
X154116223Y-121224518D01*
X154116220Y-121224519D01*
X154112015Y-121225996D01*
X154108062Y-121228049D01*
X154108056Y-121228052D01*
X154045775Y-121260405D01*
X153878456Y-121347321D01*
X153874841Y-121349904D01*
X153874835Y-121349908D01*
X153799237Y-121403932D01*
X153664322Y-121500344D01*
X153661095Y-121503422D01*
X153661093Y-121503424D01*
X153478614Y-121677500D01*
X153473885Y-121682011D01*
X153310945Y-121888700D01*
X153282529Y-121937622D01*
X153180987Y-122112438D01*
X153180984Y-122112444D01*
X153178753Y-122116285D01*
X153177083Y-122120408D01*
X153159710Y-122163301D01*
X153079947Y-122360225D01*
X153078876Y-122364538D01*
X153078874Y-122364543D01*
X153064969Y-122420523D01*
X153016498Y-122615654D01*
X152989672Y-122877474D01*
X153000005Y-123140462D01*
X153047290Y-123399371D01*
X153130584Y-123649034D01*
X153132577Y-123653022D01*
X153241704Y-123871419D01*
X153248225Y-123884470D01*
X153250754Y-123888129D01*
X153386447Y-124084461D01*
X153397865Y-124100982D01*
X153576520Y-124294249D01*
X153780623Y-124460415D01*
X153784431Y-124462708D01*
X153784443Y-124462716D01*
X153829021Y-124489554D01*
X153877065Y-124541825D01*
X153889221Y-124611774D01*
X153861631Y-124677190D01*
X153803054Y-124717305D01*
X153764032Y-124723500D01*
X150437564Y-124723500D01*
X150369443Y-124703498D01*
X150322950Y-124649842D01*
X150312846Y-124579568D01*
X150342340Y-124514988D01*
X150367562Y-124492735D01*
X150490289Y-124410732D01*
X150490293Y-124410729D01*
X150493997Y-124408254D01*
X150497314Y-124405283D01*
X150497318Y-124405280D01*
X150686729Y-124235629D01*
X150686730Y-124235628D01*
X150690047Y-124232657D01*
X150859398Y-124031189D01*
X150862613Y-124026035D01*
X150994185Y-123815067D01*
X150998674Y-123807869D01*
X151105093Y-123567152D01*
X151176534Y-123313843D01*
X151181757Y-123274955D01*
X151211143Y-123056176D01*
X151211144Y-123056168D01*
X151211570Y-123052994D01*
X151215247Y-122936000D01*
X151196659Y-122673466D01*
X151185167Y-122620085D01*
X151142201Y-122420523D01*
X151141264Y-122416171D01*
X151122218Y-122364543D01*
X151051710Y-122173424D01*
X151050169Y-122169247D01*
X150925191Y-121937622D01*
X150768824Y-121725918D01*
X150751810Y-121708634D01*
X150587318Y-121541539D01*
X150584187Y-121538358D01*
X150580647Y-121535657D01*
X150580641Y-121535651D01*
X150378506Y-121381386D01*
X150378502Y-121381383D01*
X150374965Y-121378684D01*
X150145332Y-121250084D01*
X149899870Y-121155122D01*
X149895545Y-121154119D01*
X149895540Y-121154118D01*
X149737471Y-121117480D01*
X149643476Y-121095693D01*
X149381267Y-121072983D01*
X149376832Y-121073227D01*
X149376828Y-121073227D01*
X149122916Y-121087200D01*
X149122909Y-121087201D01*
X149118473Y-121087445D01*
X149008701Y-121109280D01*
X148864711Y-121137921D01*
X148864706Y-121137922D01*
X148860339Y-121138791D01*
X148856136Y-121140267D01*
X148616223Y-121224518D01*
X148616220Y-121224519D01*
X148612015Y-121225996D01*
X148608062Y-121228049D01*
X148608056Y-121228052D01*
X148545775Y-121260405D01*
X148378456Y-121347321D01*
X148374841Y-121349904D01*
X148374835Y-121349908D01*
X148299237Y-121403932D01*
X148164322Y-121500344D01*
X148161095Y-121503422D01*
X148161093Y-121503424D01*
X147978614Y-121677500D01*
X147973885Y-121682011D01*
X147810945Y-121888700D01*
X147782529Y-121937622D01*
X147680987Y-122112438D01*
X147680984Y-122112444D01*
X147678753Y-122116285D01*
X147677083Y-122120408D01*
X147659710Y-122163301D01*
X147579947Y-122360225D01*
X147578876Y-122364537D01*
X147578873Y-122364546D01*
X147558784Y-122445421D01*
X147522950Y-122506711D01*
X147459668Y-122538898D01*
X147389031Y-122531762D01*
X147333465Y-122487570D01*
X147310500Y-122415046D01*
X147310500Y-119265426D01*
X147330502Y-119197305D01*
X147384158Y-119150812D01*
X147454432Y-119140708D01*
X147519012Y-119170202D01*
X147556024Y-119225550D01*
X147587420Y-119319654D01*
X147630584Y-119449034D01*
X147632577Y-119453022D01*
X147726005Y-119640000D01*
X147748225Y-119684470D01*
X147897865Y-119900982D01*
X148076520Y-120094249D01*
X148280623Y-120260415D01*
X148284431Y-120262708D01*
X148284433Y-120262709D01*
X148502288Y-120393868D01*
X148502292Y-120393870D01*
X148506104Y-120396165D01*
X148642026Y-120453721D01*
X148744359Y-120497054D01*
X148744364Y-120497056D01*
X148748462Y-120498791D01*
X148752760Y-120499930D01*
X148752764Y-120499932D01*
X148875662Y-120532517D01*
X149002862Y-120566244D01*
X149264229Y-120597179D01*
X149527347Y-120590978D01*
X149542613Y-120588437D01*
X149782576Y-120548496D01*
X149782580Y-120548495D01*
X149786966Y-120547765D01*
X149791207Y-120546424D01*
X149791210Y-120546423D01*
X150033661Y-120469746D01*
X150033663Y-120469745D01*
X150037907Y-120468403D01*
X150041918Y-120466477D01*
X150041923Y-120466475D01*
X150271143Y-120356405D01*
X150271144Y-120356404D01*
X150275162Y-120354475D01*
X150406274Y-120266869D01*
X150490289Y-120210732D01*
X150490293Y-120210729D01*
X150493997Y-120208254D01*
X150497314Y-120205283D01*
X150497318Y-120205280D01*
X150686729Y-120035629D01*
X150686730Y-120035628D01*
X150690047Y-120032657D01*
X150859398Y-119831189D01*
X150998674Y-119607869D01*
X151105093Y-119367152D01*
X151176534Y-119113843D01*
X151183753Y-119060099D01*
X151211143Y-118856176D01*
X151211144Y-118856168D01*
X151211570Y-118852994D01*
X151211671Y-118849783D01*
X151215146Y-118739222D01*
X151215146Y-118739217D01*
X151215247Y-118736000D01*
X151211103Y-118677474D01*
X152989672Y-118677474D01*
X153000005Y-118940462D01*
X153047290Y-119199371D01*
X153130584Y-119449034D01*
X153132577Y-119453022D01*
X153226005Y-119640000D01*
X153248225Y-119684470D01*
X153397865Y-119900982D01*
X153576520Y-120094249D01*
X153780623Y-120260415D01*
X153784431Y-120262708D01*
X153784433Y-120262709D01*
X154002288Y-120393868D01*
X154002292Y-120393870D01*
X154006104Y-120396165D01*
X154142026Y-120453721D01*
X154244359Y-120497054D01*
X154244364Y-120497056D01*
X154248462Y-120498791D01*
X154252760Y-120499930D01*
X154252764Y-120499932D01*
X154375662Y-120532517D01*
X154502862Y-120566244D01*
X154764229Y-120597179D01*
X155027347Y-120590978D01*
X155042613Y-120588437D01*
X155282576Y-120548496D01*
X155282580Y-120548495D01*
X155286966Y-120547765D01*
X155291207Y-120546424D01*
X155291210Y-120546423D01*
X155533661Y-120469746D01*
X155533663Y-120469745D01*
X155537907Y-120468403D01*
X155541918Y-120466477D01*
X155541923Y-120466475D01*
X155771143Y-120356405D01*
X155771144Y-120356404D01*
X155775162Y-120354475D01*
X155906274Y-120266869D01*
X155990289Y-120210732D01*
X155990293Y-120210729D01*
X155993997Y-120208254D01*
X155997314Y-120205283D01*
X155997318Y-120205280D01*
X156186729Y-120035629D01*
X156186730Y-120035628D01*
X156190047Y-120032657D01*
X156359398Y-119831189D01*
X156498674Y-119607869D01*
X156605093Y-119367152D01*
X156676534Y-119113843D01*
X156683753Y-119060099D01*
X156711143Y-118856176D01*
X156711144Y-118856168D01*
X156711570Y-118852994D01*
X156711671Y-118849783D01*
X156715146Y-118739222D01*
X156715146Y-118739217D01*
X156715247Y-118736000D01*
X156696659Y-118473466D01*
X156687284Y-118429918D01*
X156642201Y-118220523D01*
X156641264Y-118216171D01*
X156638038Y-118207424D01*
X156551710Y-117973424D01*
X156550169Y-117969247D01*
X156543160Y-117956257D01*
X156427304Y-117741538D01*
X156425191Y-117737622D01*
X156268824Y-117525918D01*
X156253395Y-117510244D01*
X156155180Y-117410475D01*
X156084187Y-117338358D01*
X156080647Y-117335657D01*
X156080641Y-117335651D01*
X155878506Y-117181386D01*
X155878502Y-117181383D01*
X155874965Y-117178684D01*
X155645332Y-117050084D01*
X155399870Y-116955122D01*
X155395545Y-116954119D01*
X155395540Y-116954118D01*
X155254794Y-116921495D01*
X155143476Y-116895693D01*
X154881267Y-116872983D01*
X154876832Y-116873227D01*
X154876828Y-116873227D01*
X154622916Y-116887200D01*
X154622909Y-116887201D01*
X154618473Y-116887445D01*
X154490369Y-116912927D01*
X154364711Y-116937921D01*
X154364706Y-116937922D01*
X154360339Y-116938791D01*
X154356136Y-116940267D01*
X154116223Y-117024518D01*
X154116220Y-117024519D01*
X154112015Y-117025996D01*
X154108062Y-117028049D01*
X154108056Y-117028052D01*
X153976615Y-117096331D01*
X153878456Y-117147321D01*
X153874841Y-117149904D01*
X153874835Y-117149908D01*
X153802497Y-117201602D01*
X153664322Y-117300344D01*
X153661095Y-117303422D01*
X153661093Y-117303424D01*
X153545446Y-117413746D01*
X153473885Y-117482011D01*
X153310945Y-117688700D01*
X153282529Y-117737622D01*
X153180987Y-117912438D01*
X153180984Y-117912444D01*
X153178753Y-117916285D01*
X153079947Y-118160225D01*
X153078876Y-118164538D01*
X153078874Y-118164543D01*
X153067088Y-118211990D01*
X153016498Y-118415654D01*
X152989672Y-118677474D01*
X151211103Y-118677474D01*
X151196659Y-118473466D01*
X151187284Y-118429918D01*
X151142201Y-118220523D01*
X151141264Y-118216171D01*
X151138038Y-118207424D01*
X151051710Y-117973424D01*
X151050169Y-117969247D01*
X151043160Y-117956257D01*
X150927304Y-117741538D01*
X150925191Y-117737622D01*
X150768824Y-117525918D01*
X150753395Y-117510244D01*
X150655180Y-117410475D01*
X150584187Y-117338358D01*
X150580647Y-117335657D01*
X150580641Y-117335651D01*
X150378506Y-117181386D01*
X150378502Y-117181383D01*
X150374965Y-117178684D01*
X150145332Y-117050084D01*
X149899870Y-116955122D01*
X149895545Y-116954119D01*
X149895540Y-116954118D01*
X149754794Y-116921495D01*
X149643476Y-116895693D01*
X149381267Y-116872983D01*
X149376832Y-116873227D01*
X149376828Y-116873227D01*
X149122916Y-116887200D01*
X149122909Y-116887201D01*
X149118473Y-116887445D01*
X148990369Y-116912927D01*
X148864711Y-116937921D01*
X148864706Y-116937922D01*
X148860339Y-116938791D01*
X148856136Y-116940267D01*
X148616223Y-117024518D01*
X148616220Y-117024519D01*
X148612015Y-117025996D01*
X148608062Y-117028049D01*
X148608056Y-117028052D01*
X148476615Y-117096331D01*
X148378456Y-117147321D01*
X148374841Y-117149904D01*
X148374835Y-117149908D01*
X148302497Y-117201602D01*
X148164322Y-117300344D01*
X148161095Y-117303422D01*
X148161093Y-117303424D01*
X148045446Y-117413746D01*
X147973885Y-117482011D01*
X147810945Y-117688700D01*
X147782529Y-117737622D01*
X147680987Y-117912438D01*
X147680984Y-117912444D01*
X147678753Y-117916285D01*
X147579947Y-118160225D01*
X147578876Y-118164537D01*
X147578873Y-118164546D01*
X147558784Y-118245421D01*
X147522950Y-118306711D01*
X147459668Y-118338898D01*
X147389031Y-118331762D01*
X147333465Y-118287570D01*
X147310500Y-118215046D01*
X147310500Y-116018263D01*
X148234904Y-116018263D01*
X148242294Y-116028566D01*
X148277455Y-116057192D01*
X148284731Y-116062305D01*
X148502514Y-116193421D01*
X148510428Y-116197454D01*
X148744523Y-116296581D01*
X148752928Y-116299458D01*
X148998650Y-116364610D01*
X149007382Y-116366276D01*
X149259835Y-116396155D01*
X149268703Y-116396573D01*
X149522843Y-116390584D01*
X149531698Y-116389747D01*
X149782459Y-116348009D01*
X149791093Y-116345936D01*
X150033477Y-116269280D01*
X150041739Y-116266009D01*
X150270895Y-116155970D01*
X150278619Y-116151564D01*
X150461218Y-116029556D01*
X150469506Y-116019638D01*
X150468802Y-116018263D01*
X153734904Y-116018263D01*
X153742294Y-116028566D01*
X153777455Y-116057192D01*
X153784731Y-116062305D01*
X154002514Y-116193421D01*
X154010428Y-116197454D01*
X154244523Y-116296581D01*
X154252928Y-116299458D01*
X154498650Y-116364610D01*
X154507382Y-116366276D01*
X154759835Y-116396155D01*
X154768703Y-116396573D01*
X155022843Y-116390584D01*
X155031698Y-116389747D01*
X155282459Y-116348009D01*
X155291093Y-116345936D01*
X155533477Y-116269280D01*
X155541739Y-116266009D01*
X155770895Y-116155970D01*
X155778619Y-116151564D01*
X155961218Y-116029556D01*
X155969506Y-116019638D01*
X155962249Y-116005459D01*
X154864812Y-114908022D01*
X154850868Y-114900408D01*
X154849035Y-114900539D01*
X154842420Y-114904790D01*
X153742070Y-116005140D01*
X153734904Y-116018263D01*
X150468802Y-116018263D01*
X150462249Y-116005459D01*
X149364812Y-114908022D01*
X149350868Y-114900408D01*
X149349035Y-114900539D01*
X149342420Y-114904790D01*
X148242070Y-116005140D01*
X148234904Y-116018263D01*
X147310500Y-116018263D01*
X147310500Y-115063845D01*
X147330502Y-114995724D01*
X147384158Y-114949231D01*
X147454432Y-114939127D01*
X147519012Y-114968621D01*
X147556024Y-115023969D01*
X147629636Y-115244613D01*
X147633040Y-115252831D01*
X147746667Y-115480235D01*
X147751185Y-115487874D01*
X147859294Y-115644296D01*
X147869612Y-115652647D01*
X147883267Y-115645523D01*
X148979978Y-114548812D01*
X148986356Y-114537132D01*
X149716408Y-114537132D01*
X149716539Y-114538965D01*
X149720790Y-114545580D01*
X150822027Y-115646817D01*
X150835428Y-115654135D01*
X150845329Y-115647149D01*
X150856127Y-115634305D01*
X150861353Y-115627110D01*
X150995867Y-115411425D01*
X151000038Y-115403547D01*
X151102817Y-115171065D01*
X151105833Y-115162688D01*
X151174832Y-114918034D01*
X151176636Y-114909326D01*
X151210643Y-114656145D01*
X151211171Y-114649752D01*
X151214645Y-114539222D01*
X151214518Y-114532779D01*
X151210919Y-114481942D01*
X152990348Y-114481942D01*
X153000328Y-114735960D01*
X153001302Y-114744784D01*
X153046978Y-114994875D01*
X153049182Y-115003462D01*
X153129636Y-115244613D01*
X153133040Y-115252831D01*
X153246667Y-115480235D01*
X153251185Y-115487874D01*
X153359294Y-115644296D01*
X153369612Y-115652647D01*
X153383267Y-115645523D01*
X154479978Y-114548812D01*
X154486356Y-114537132D01*
X155216408Y-114537132D01*
X155216539Y-114538965D01*
X155220790Y-114545580D01*
X156322027Y-115646817D01*
X156335428Y-115654135D01*
X156345329Y-115647149D01*
X156356127Y-115634305D01*
X156361353Y-115627110D01*
X156495867Y-115411425D01*
X156500038Y-115403547D01*
X156602817Y-115171065D01*
X156605833Y-115162688D01*
X156674832Y-114918034D01*
X156676636Y-114909326D01*
X156710643Y-114656145D01*
X156711171Y-114649752D01*
X156714645Y-114539222D01*
X156714518Y-114532779D01*
X156696478Y-114277986D01*
X156695225Y-114269183D01*
X156641720Y-114020662D01*
X156639241Y-114012129D01*
X156551254Y-113773630D01*
X156547599Y-113765535D01*
X156426881Y-113541807D01*
X156422122Y-113534309D01*
X156344004Y-113428545D01*
X156332876Y-113420103D01*
X156320283Y-113426927D01*
X155224022Y-114523188D01*
X155216408Y-114537132D01*
X154486356Y-114537132D01*
X154487592Y-114534868D01*
X154487461Y-114533035D01*
X154483210Y-114526420D01*
X153383423Y-113426633D01*
X153370582Y-113419621D01*
X153359893Y-113427416D01*
X153314115Y-113485485D01*
X153309122Y-113492833D01*
X153181440Y-113712655D01*
X153177532Y-113720629D01*
X153082097Y-113956247D01*
X153079348Y-113964709D01*
X153018067Y-114211413D01*
X153016538Y-114220174D01*
X152990627Y-114473059D01*
X152990348Y-114481942D01*
X151210919Y-114481942D01*
X151196478Y-114277986D01*
X151195225Y-114269183D01*
X151141720Y-114020662D01*
X151139241Y-114012129D01*
X151051254Y-113773630D01*
X151047599Y-113765535D01*
X150926881Y-113541807D01*
X150922122Y-113534309D01*
X150844004Y-113428545D01*
X150832876Y-113420103D01*
X150820283Y-113426927D01*
X149724022Y-114523188D01*
X149716408Y-114537132D01*
X148986356Y-114537132D01*
X148987592Y-114534868D01*
X148987461Y-114533035D01*
X148983210Y-114526420D01*
X147883423Y-113426633D01*
X147870582Y-113419621D01*
X147859893Y-113427416D01*
X147814115Y-113485485D01*
X147809122Y-113492833D01*
X147681440Y-113712655D01*
X147677532Y-113720629D01*
X147582097Y-113956247D01*
X147579348Y-113964709D01*
X147558784Y-114047494D01*
X147522950Y-114108784D01*
X147459668Y-114140971D01*
X147389031Y-114133835D01*
X147333465Y-114089644D01*
X147310500Y-114017119D01*
X147310500Y-113054533D01*
X148235889Y-113054533D01*
X148242869Y-113067659D01*
X149339188Y-114163978D01*
X149353132Y-114171592D01*
X149354965Y-114171461D01*
X149361580Y-114167210D01*
X150461129Y-113067661D01*
X150467983Y-113055109D01*
X150467556Y-113054533D01*
X153735889Y-113054533D01*
X153742869Y-113067659D01*
X154839188Y-114163978D01*
X154853132Y-114171592D01*
X154854965Y-114171461D01*
X154861580Y-114167210D01*
X155961129Y-113067661D01*
X155967983Y-113055109D01*
X155959776Y-113044039D01*
X155878230Y-112981805D01*
X155870801Y-112976925D01*
X155649005Y-112852713D01*
X155640971Y-112848932D01*
X155403865Y-112757203D01*
X155395392Y-112754596D01*
X155147736Y-112697193D01*
X155138960Y-112695803D01*
X154885691Y-112673868D01*
X154876820Y-112673728D01*
X154622976Y-112687698D01*
X154614174Y-112688810D01*
X154364832Y-112738408D01*
X154356279Y-112740748D01*
X154116421Y-112824978D01*
X154108255Y-112828512D01*
X153882669Y-112945696D01*
X153875097Y-112950335D01*
X153744292Y-113043810D01*
X153735889Y-113054533D01*
X150467556Y-113054533D01*
X150459776Y-113044039D01*
X150378230Y-112981805D01*
X150370801Y-112976925D01*
X150149005Y-112852713D01*
X150140971Y-112848932D01*
X149903865Y-112757203D01*
X149895392Y-112754596D01*
X149647736Y-112697193D01*
X149638960Y-112695803D01*
X149385691Y-112673868D01*
X149376820Y-112673728D01*
X149122976Y-112687698D01*
X149114174Y-112688810D01*
X148864832Y-112738408D01*
X148856279Y-112740748D01*
X148616421Y-112824978D01*
X148608255Y-112828512D01*
X148382669Y-112945696D01*
X148375097Y-112950335D01*
X148244292Y-113043810D01*
X148235889Y-113054533D01*
X147310500Y-113054533D01*
X147310500Y-110865426D01*
X147330502Y-110797305D01*
X147384158Y-110750812D01*
X147454432Y-110740708D01*
X147519012Y-110770202D01*
X147556024Y-110825550D01*
X147600021Y-110957424D01*
X147630584Y-111049034D01*
X147632577Y-111053022D01*
X147709950Y-111207869D01*
X147748225Y-111284470D01*
X147897865Y-111500982D01*
X148076520Y-111694249D01*
X148280623Y-111860415D01*
X148284431Y-111862708D01*
X148284433Y-111862709D01*
X148502288Y-111993868D01*
X148502292Y-111993870D01*
X148506104Y-111996165D01*
X148642026Y-112053721D01*
X148744359Y-112097054D01*
X148744364Y-112097056D01*
X148748462Y-112098791D01*
X148752760Y-112099930D01*
X148752764Y-112099932D01*
X148875662Y-112132517D01*
X149002862Y-112166244D01*
X149264229Y-112197179D01*
X149527347Y-112190978D01*
X149547678Y-112187594D01*
X149782576Y-112148496D01*
X149782580Y-112148495D01*
X149786966Y-112147765D01*
X149791207Y-112146424D01*
X149791210Y-112146423D01*
X150033661Y-112069746D01*
X150033663Y-112069745D01*
X150037907Y-112068403D01*
X150041918Y-112066477D01*
X150041923Y-112066475D01*
X150271143Y-111956405D01*
X150271144Y-111956404D01*
X150275162Y-111954475D01*
X150385187Y-111880958D01*
X150490289Y-111810732D01*
X150490293Y-111810729D01*
X150493997Y-111808254D01*
X150497314Y-111805283D01*
X150497318Y-111805280D01*
X150686729Y-111635629D01*
X150686730Y-111635628D01*
X150690047Y-111632657D01*
X150859398Y-111431189D01*
X150870155Y-111413942D01*
X150996320Y-111211643D01*
X150998674Y-111207869D01*
X151002078Y-111200171D01*
X151103295Y-110971219D01*
X151105093Y-110967152D01*
X151176534Y-110713843D01*
X151182530Y-110669204D01*
X151211143Y-110456176D01*
X151211144Y-110456168D01*
X151211570Y-110452994D01*
X151215247Y-110336000D01*
X151214090Y-110319651D01*
X151196974Y-110077915D01*
X151196659Y-110073466D01*
X151188181Y-110034084D01*
X151142201Y-109820523D01*
X151141264Y-109816171D01*
X151122218Y-109764543D01*
X151051710Y-109573424D01*
X151050169Y-109569247D01*
X151025103Y-109522791D01*
X150927304Y-109341538D01*
X150925191Y-109337622D01*
X150768824Y-109125918D01*
X150584187Y-108938358D01*
X150580647Y-108935657D01*
X150580641Y-108935651D01*
X150378506Y-108781386D01*
X150378502Y-108781383D01*
X150374965Y-108778684D01*
X150145332Y-108650084D01*
X149899870Y-108555122D01*
X149895545Y-108554119D01*
X149895540Y-108554118D01*
X149754794Y-108521495D01*
X149643476Y-108495693D01*
X149381267Y-108472983D01*
X149376832Y-108473227D01*
X149376828Y-108473227D01*
X149122916Y-108487200D01*
X149122909Y-108487201D01*
X149118473Y-108487445D01*
X148990369Y-108512927D01*
X148864711Y-108537921D01*
X148864706Y-108537922D01*
X148860339Y-108538791D01*
X148856136Y-108540267D01*
X148616223Y-108624518D01*
X148616220Y-108624519D01*
X148612015Y-108625996D01*
X148608062Y-108628049D01*
X148608056Y-108628052D01*
X148501027Y-108683650D01*
X148378456Y-108747321D01*
X148374841Y-108749904D01*
X148374835Y-108749908D01*
X148271585Y-108823692D01*
X148164322Y-108900344D01*
X148161095Y-108903422D01*
X148161093Y-108903424D01*
X147979789Y-109076379D01*
X147973885Y-109082011D01*
X147810945Y-109288700D01*
X147757678Y-109380405D01*
X147680987Y-109512438D01*
X147680984Y-109512444D01*
X147678753Y-109516285D01*
X147677083Y-109520408D01*
X147636267Y-109621179D01*
X147579947Y-109760225D01*
X147578876Y-109764537D01*
X147578873Y-109764546D01*
X147558784Y-109845421D01*
X147522950Y-109906711D01*
X147459668Y-109938898D01*
X147389031Y-109931762D01*
X147333465Y-109887570D01*
X147310500Y-109815046D01*
X147310500Y-107618263D01*
X148234904Y-107618263D01*
X148242294Y-107628566D01*
X148277455Y-107657192D01*
X148284731Y-107662305D01*
X148502514Y-107793421D01*
X148510428Y-107797454D01*
X148744523Y-107896581D01*
X148752928Y-107899458D01*
X148998650Y-107964610D01*
X149007382Y-107966276D01*
X149259835Y-107996155D01*
X149268703Y-107996573D01*
X149522843Y-107990584D01*
X149531698Y-107989747D01*
X149782459Y-107948009D01*
X149791093Y-107945936D01*
X150033477Y-107869280D01*
X150041739Y-107866009D01*
X150270895Y-107755970D01*
X150278619Y-107751564D01*
X150461218Y-107629556D01*
X150469506Y-107619638D01*
X150462249Y-107605459D01*
X149364812Y-106508022D01*
X149350868Y-106500408D01*
X149349035Y-106500539D01*
X149342420Y-106504790D01*
X148242070Y-107605140D01*
X148234904Y-107618263D01*
X147310500Y-107618263D01*
X147310500Y-106663845D01*
X147330502Y-106595724D01*
X147384158Y-106549231D01*
X147454432Y-106539127D01*
X147519012Y-106568621D01*
X147556024Y-106623969D01*
X147629636Y-106844613D01*
X147633040Y-106852831D01*
X147746667Y-107080235D01*
X147751185Y-107087874D01*
X147859294Y-107244296D01*
X147869612Y-107252647D01*
X147883267Y-107245523D01*
X148979978Y-106148812D01*
X148986356Y-106137132D01*
X149716408Y-106137132D01*
X149716539Y-106138965D01*
X149720790Y-106145580D01*
X150822027Y-107246817D01*
X150835428Y-107254135D01*
X150845329Y-107247149D01*
X150856127Y-107234305D01*
X150861353Y-107227110D01*
X150995867Y-107011425D01*
X151000038Y-107003547D01*
X151102817Y-106771065D01*
X151105833Y-106762688D01*
X151174832Y-106518034D01*
X151176636Y-106509326D01*
X151210643Y-106256145D01*
X151211171Y-106249752D01*
X151214645Y-106139222D01*
X151214518Y-106132779D01*
X151210919Y-106081942D01*
X152990348Y-106081942D01*
X153000328Y-106335960D01*
X153001302Y-106344784D01*
X153046978Y-106594875D01*
X153049182Y-106603462D01*
X153129636Y-106844613D01*
X153133040Y-106852831D01*
X153246667Y-107080235D01*
X153251185Y-107087874D01*
X153359294Y-107244296D01*
X153369612Y-107252647D01*
X153383267Y-107245523D01*
X154479978Y-106148812D01*
X154487592Y-106134868D01*
X154487461Y-106133035D01*
X154483210Y-106126420D01*
X153383423Y-105026633D01*
X153370582Y-105019621D01*
X153359893Y-105027416D01*
X153314115Y-105085485D01*
X153309122Y-105092833D01*
X153181440Y-105312655D01*
X153177532Y-105320629D01*
X153082097Y-105556247D01*
X153079348Y-105564709D01*
X153018067Y-105811413D01*
X153016538Y-105820174D01*
X152990627Y-106073059D01*
X152990348Y-106081942D01*
X151210919Y-106081942D01*
X151196478Y-105877986D01*
X151195225Y-105869183D01*
X151141720Y-105620662D01*
X151139241Y-105612129D01*
X151051254Y-105373630D01*
X151047599Y-105365535D01*
X150926881Y-105141807D01*
X150922122Y-105134309D01*
X150844004Y-105028545D01*
X150832876Y-105020103D01*
X150820283Y-105026927D01*
X149724022Y-106123188D01*
X149716408Y-106137132D01*
X148986356Y-106137132D01*
X148987592Y-106134868D01*
X148987461Y-106133035D01*
X148983210Y-106126420D01*
X147883423Y-105026633D01*
X147870582Y-105019621D01*
X147859893Y-105027416D01*
X147814115Y-105085485D01*
X147809122Y-105092833D01*
X147681440Y-105312655D01*
X147677532Y-105320629D01*
X147582097Y-105556247D01*
X147579348Y-105564709D01*
X147558784Y-105647494D01*
X147522950Y-105708784D01*
X147459668Y-105740971D01*
X147389031Y-105733835D01*
X147333465Y-105689644D01*
X147310500Y-105617119D01*
X147310500Y-104654533D01*
X148235889Y-104654533D01*
X148242869Y-104667659D01*
X149339188Y-105763978D01*
X149353132Y-105771592D01*
X149354965Y-105771461D01*
X149361580Y-105767210D01*
X150461129Y-104667661D01*
X150467983Y-104655109D01*
X150459776Y-104644039D01*
X150378230Y-104581805D01*
X150370801Y-104576925D01*
X150149005Y-104452713D01*
X150140971Y-104448932D01*
X149903865Y-104357203D01*
X149895392Y-104354596D01*
X149647736Y-104297193D01*
X149638960Y-104295803D01*
X149385691Y-104273868D01*
X149376820Y-104273728D01*
X149122976Y-104287698D01*
X149114174Y-104288810D01*
X148864832Y-104338408D01*
X148856279Y-104340748D01*
X148616421Y-104424978D01*
X148608255Y-104428512D01*
X148382669Y-104545696D01*
X148375097Y-104550335D01*
X148244292Y-104643810D01*
X148235889Y-104654533D01*
X147310500Y-104654533D01*
X147310500Y-102465426D01*
X147330502Y-102397305D01*
X147384158Y-102350812D01*
X147454432Y-102340708D01*
X147519012Y-102370202D01*
X147556024Y-102425550D01*
X147630584Y-102649034D01*
X147632577Y-102653022D01*
X147709950Y-102807869D01*
X147748225Y-102884470D01*
X147750754Y-102888129D01*
X147853938Y-103037424D01*
X147897865Y-103100982D01*
X148076520Y-103294249D01*
X148280623Y-103460415D01*
X148284431Y-103462708D01*
X148284433Y-103462709D01*
X148502288Y-103593868D01*
X148502292Y-103593870D01*
X148506104Y-103596165D01*
X148642026Y-103653721D01*
X148744359Y-103697054D01*
X148744364Y-103697056D01*
X148748462Y-103698791D01*
X148752760Y-103699930D01*
X148752764Y-103699932D01*
X148875662Y-103732517D01*
X149002862Y-103766244D01*
X149264229Y-103797179D01*
X149527347Y-103790978D01*
X149534743Y-103789747D01*
X149782576Y-103748496D01*
X149782580Y-103748495D01*
X149786966Y-103747765D01*
X149791207Y-103746424D01*
X149791210Y-103746423D01*
X150033661Y-103669746D01*
X150033663Y-103669745D01*
X150037907Y-103668403D01*
X150041918Y-103666477D01*
X150041923Y-103666475D01*
X150271143Y-103556405D01*
X150271144Y-103556404D01*
X150275162Y-103554475D01*
X150393609Y-103475331D01*
X150490289Y-103410732D01*
X150490293Y-103410729D01*
X150493997Y-103408254D01*
X150497314Y-103405283D01*
X150497318Y-103405280D01*
X150686729Y-103235629D01*
X150686730Y-103235628D01*
X150690047Y-103232657D01*
X150859398Y-103031189D01*
X150888574Y-102984408D01*
X150996320Y-102811643D01*
X150998674Y-102807869D01*
X151003020Y-102798040D01*
X151103295Y-102571219D01*
X151105093Y-102567152D01*
X151176534Y-102313843D01*
X151199822Y-102140462D01*
X151211143Y-102056176D01*
X151211144Y-102056168D01*
X151211570Y-102052994D01*
X151212666Y-102018118D01*
X151215146Y-101939222D01*
X151215146Y-101939217D01*
X151215247Y-101936000D01*
X151213788Y-101915398D01*
X151221092Y-101881942D01*
X152990348Y-101881942D01*
X153000328Y-102135960D01*
X153001302Y-102144784D01*
X153046978Y-102394875D01*
X153049182Y-102403462D01*
X153129636Y-102644613D01*
X153133040Y-102652831D01*
X153246667Y-102880235D01*
X153251185Y-102887874D01*
X153359294Y-103044296D01*
X153369612Y-103052647D01*
X153383267Y-103045523D01*
X154479978Y-101948812D01*
X154487592Y-101934868D01*
X154487461Y-101933035D01*
X154483210Y-101926420D01*
X153383423Y-100826633D01*
X153370582Y-100819621D01*
X153359893Y-100827416D01*
X153314115Y-100885485D01*
X153309122Y-100892833D01*
X153181440Y-101112655D01*
X153177532Y-101120629D01*
X153082097Y-101356247D01*
X153079348Y-101364709D01*
X153018067Y-101611413D01*
X153016538Y-101620174D01*
X152990627Y-101873059D01*
X152990348Y-101881942D01*
X151221092Y-101881942D01*
X151228931Y-101846037D01*
X151250379Y-101817409D01*
X152717263Y-100350525D01*
X152729654Y-100339657D01*
X152742848Y-100329533D01*
X152747292Y-100326123D01*
X152802158Y-100265826D01*
X152806257Y-100261531D01*
X152822198Y-100245590D01*
X152838942Y-100225564D01*
X152842401Y-100221599D01*
X152851116Y-100212022D01*
X152898485Y-100159964D01*
X152908016Y-100144770D01*
X152918085Y-100130910D01*
X152929593Y-100117147D01*
X152970869Y-100044782D01*
X152973579Y-100040253D01*
X153014885Y-99974405D01*
X153017864Y-99969656D01*
X153021687Y-99960145D01*
X153024553Y-99953017D01*
X153032012Y-99937587D01*
X153038119Y-99926881D01*
X153038123Y-99926872D01*
X153040898Y-99922007D01*
X153068712Y-99843462D01*
X153070573Y-99838537D01*
X153075136Y-99827188D01*
X153101656Y-99761217D01*
X153105296Y-99743639D01*
X153109902Y-99727146D01*
X153115888Y-99710241D01*
X153129352Y-99628021D01*
X153130314Y-99622833D01*
X153135753Y-99596573D01*
X153147213Y-99541233D01*
X153148816Y-99513437D01*
X153150263Y-99500331D01*
X153151286Y-99494086D01*
X153151287Y-99494079D01*
X153152193Y-99488543D01*
X153151891Y-99469280D01*
X153150516Y-99381770D01*
X153150500Y-99379791D01*
X153150500Y-98939383D01*
X153170502Y-98871262D01*
X153224158Y-98824769D01*
X153294432Y-98814665D01*
X153355771Y-98841444D01*
X153369613Y-98852647D01*
X153383267Y-98845523D01*
X154479978Y-97748812D01*
X154487592Y-97734868D01*
X154487461Y-97733035D01*
X154483210Y-97726420D01*
X153383423Y-96626633D01*
X153370582Y-96619621D01*
X153350742Y-96634090D01*
X153283917Y-96658067D01*
X153214737Y-96642110D01*
X153165166Y-96591285D01*
X153150500Y-96532286D01*
X153150500Y-94746994D01*
X153170502Y-94678873D01*
X153224158Y-94632380D01*
X153294432Y-94622276D01*
X153359012Y-94651770D01*
X153380153Y-94675355D01*
X153382585Y-94678873D01*
X153397865Y-94700982D01*
X153576520Y-94894249D01*
X153780623Y-95060415D01*
X153784431Y-95062708D01*
X153784433Y-95062709D01*
X154002288Y-95193868D01*
X154002292Y-95193870D01*
X154006104Y-95196165D01*
X154142026Y-95253721D01*
X154244359Y-95297054D01*
X154244364Y-95297056D01*
X154248462Y-95298791D01*
X154252760Y-95299930D01*
X154252764Y-95299932D01*
X154375662Y-95332518D01*
X154502862Y-95366244D01*
X154764229Y-95397179D01*
X155027347Y-95390978D01*
X155031745Y-95390246D01*
X155282576Y-95348496D01*
X155282580Y-95348495D01*
X155286966Y-95347765D01*
X155291207Y-95346424D01*
X155291210Y-95346423D01*
X155533661Y-95269746D01*
X155533663Y-95269745D01*
X155537907Y-95268403D01*
X155541918Y-95266477D01*
X155541923Y-95266475D01*
X155771139Y-95156407D01*
X155771143Y-95156405D01*
X155775162Y-95154475D01*
X155778870Y-95151997D01*
X155779074Y-95151881D01*
X155848157Y-95135506D01*
X155915126Y-95159079D01*
X155958719Y-95215116D01*
X155967500Y-95261330D01*
X155967500Y-96016103D01*
X155947498Y-96084224D01*
X155893842Y-96130717D01*
X155823568Y-96140821D01*
X155779934Y-96126038D01*
X155648994Y-96052708D01*
X155640971Y-96048932D01*
X155403865Y-95957203D01*
X155395392Y-95954596D01*
X155147736Y-95897193D01*
X155138960Y-95895803D01*
X154885691Y-95873868D01*
X154876820Y-95873728D01*
X154622976Y-95887698D01*
X154614174Y-95888810D01*
X154364832Y-95938408D01*
X154356279Y-95940748D01*
X154116421Y-96024978D01*
X154108255Y-96028512D01*
X153882669Y-96145696D01*
X153875097Y-96150335D01*
X153744292Y-96243810D01*
X153735889Y-96254533D01*
X153742869Y-96267659D01*
X155122115Y-97646905D01*
X155156141Y-97709217D01*
X155151076Y-97780032D01*
X155122115Y-97825095D01*
X153742070Y-99205140D01*
X153734904Y-99218263D01*
X153742294Y-99228566D01*
X153777455Y-99257192D01*
X153784731Y-99262305D01*
X154002514Y-99393421D01*
X154010428Y-99397454D01*
X154244523Y-99496581D01*
X154252928Y-99499458D01*
X154498650Y-99564610D01*
X154507382Y-99566276D01*
X154759835Y-99596155D01*
X154768703Y-99596573D01*
X155022843Y-99590584D01*
X155031698Y-99589747D01*
X155282459Y-99548009D01*
X155291093Y-99545936D01*
X155533477Y-99469280D01*
X155541739Y-99466009D01*
X155770892Y-99355971D01*
X155779071Y-99351306D01*
X155848152Y-99334929D01*
X155915122Y-99358499D01*
X155958717Y-99414535D01*
X155967500Y-99460753D01*
X155967500Y-100216103D01*
X155947498Y-100284224D01*
X155893842Y-100330717D01*
X155823568Y-100340821D01*
X155779934Y-100326038D01*
X155648994Y-100252708D01*
X155640971Y-100248932D01*
X155403865Y-100157203D01*
X155395392Y-100154596D01*
X155147736Y-100097193D01*
X155138960Y-100095803D01*
X154885691Y-100073868D01*
X154876820Y-100073728D01*
X154622976Y-100087698D01*
X154614174Y-100088810D01*
X154364832Y-100138408D01*
X154356279Y-100140748D01*
X154116421Y-100224978D01*
X154108255Y-100228512D01*
X153882669Y-100345696D01*
X153875097Y-100350335D01*
X153744292Y-100443810D01*
X153735889Y-100454533D01*
X153742869Y-100467659D01*
X155122115Y-101846905D01*
X155156141Y-101909217D01*
X155151076Y-101980032D01*
X155122115Y-102025095D01*
X153742070Y-103405140D01*
X153734904Y-103418263D01*
X153742294Y-103428566D01*
X153777455Y-103457192D01*
X153784731Y-103462305D01*
X154002514Y-103593421D01*
X154010428Y-103597454D01*
X154244523Y-103696581D01*
X154252928Y-103699458D01*
X154498650Y-103764610D01*
X154507382Y-103766276D01*
X154759835Y-103796155D01*
X154768703Y-103796573D01*
X155022843Y-103790584D01*
X155031698Y-103789747D01*
X155282459Y-103748009D01*
X155291093Y-103745936D01*
X155533477Y-103669280D01*
X155541739Y-103666009D01*
X155770892Y-103555971D01*
X155779071Y-103551306D01*
X155848152Y-103534929D01*
X155915122Y-103558499D01*
X155958717Y-103614535D01*
X155967500Y-103660753D01*
X155967500Y-104416103D01*
X155947498Y-104484224D01*
X155893842Y-104530717D01*
X155823568Y-104540821D01*
X155779934Y-104526038D01*
X155648994Y-104452708D01*
X155640971Y-104448932D01*
X155403865Y-104357203D01*
X155395392Y-104354596D01*
X155147736Y-104297193D01*
X155138960Y-104295803D01*
X154885691Y-104273868D01*
X154876820Y-104273728D01*
X154622976Y-104287698D01*
X154614174Y-104288810D01*
X154364832Y-104338408D01*
X154356279Y-104340748D01*
X154116421Y-104424978D01*
X154108255Y-104428512D01*
X153882669Y-104545696D01*
X153875097Y-104550335D01*
X153744292Y-104643810D01*
X153735889Y-104654533D01*
X153742869Y-104667659D01*
X155122115Y-106046905D01*
X155156141Y-106109217D01*
X155151076Y-106180032D01*
X155122115Y-106225095D01*
X153742070Y-107605140D01*
X153734904Y-107618263D01*
X153742294Y-107628566D01*
X153777455Y-107657192D01*
X153784731Y-107662305D01*
X154002514Y-107793421D01*
X154010428Y-107797454D01*
X154244523Y-107896581D01*
X154252928Y-107899458D01*
X154498650Y-107964610D01*
X154507382Y-107966276D01*
X154759835Y-107996155D01*
X154768703Y-107996573D01*
X155022843Y-107990584D01*
X155031698Y-107989747D01*
X155282459Y-107948009D01*
X155291093Y-107945936D01*
X155533477Y-107869280D01*
X155541739Y-107866009D01*
X155770892Y-107755971D01*
X155779071Y-107751306D01*
X155848152Y-107734929D01*
X155915122Y-107758499D01*
X155958717Y-107814535D01*
X155967500Y-107860753D01*
X155967500Y-108615529D01*
X155947498Y-108683650D01*
X155893842Y-108730143D01*
X155823568Y-108740247D01*
X155779934Y-108725464D01*
X155649212Y-108652257D01*
X155645332Y-108650084D01*
X155399870Y-108555122D01*
X155395545Y-108554119D01*
X155395540Y-108554118D01*
X155254794Y-108521495D01*
X155143476Y-108495693D01*
X154881267Y-108472983D01*
X154876832Y-108473227D01*
X154876828Y-108473227D01*
X154622916Y-108487200D01*
X154622909Y-108487201D01*
X154618473Y-108487445D01*
X154490369Y-108512927D01*
X154364711Y-108537921D01*
X154364706Y-108537922D01*
X154360339Y-108538791D01*
X154356136Y-108540267D01*
X154116223Y-108624518D01*
X154116220Y-108624519D01*
X154112015Y-108625996D01*
X154108062Y-108628049D01*
X154108056Y-108628052D01*
X154001027Y-108683650D01*
X153878456Y-108747321D01*
X153874841Y-108749904D01*
X153874835Y-108749908D01*
X153771585Y-108823692D01*
X153664322Y-108900344D01*
X153661095Y-108903422D01*
X153661093Y-108903424D01*
X153479789Y-109076379D01*
X153473885Y-109082011D01*
X153310945Y-109288700D01*
X153257678Y-109380405D01*
X153180987Y-109512438D01*
X153180984Y-109512444D01*
X153178753Y-109516285D01*
X153177083Y-109520408D01*
X153136267Y-109621179D01*
X153079947Y-109760225D01*
X153078876Y-109764538D01*
X153078874Y-109764543D01*
X153052320Y-109871445D01*
X153016498Y-110015654D01*
X152989672Y-110277474D01*
X153000005Y-110540462D01*
X153047290Y-110799371D01*
X153130584Y-111049034D01*
X153132577Y-111053022D01*
X153209950Y-111207869D01*
X153248225Y-111284470D01*
X153397865Y-111500982D01*
X153576520Y-111694249D01*
X153780623Y-111860415D01*
X153784431Y-111862708D01*
X153784433Y-111862709D01*
X154002288Y-111993868D01*
X154002292Y-111993870D01*
X154006104Y-111996165D01*
X154142026Y-112053721D01*
X154244359Y-112097054D01*
X154244364Y-112097056D01*
X154248462Y-112098791D01*
X154252760Y-112099930D01*
X154252764Y-112099932D01*
X154375662Y-112132517D01*
X154502862Y-112166244D01*
X154764229Y-112197179D01*
X155027347Y-112190978D01*
X155047678Y-112187594D01*
X155282576Y-112148496D01*
X155282580Y-112148495D01*
X155286966Y-112147765D01*
X155291207Y-112146424D01*
X155291210Y-112146423D01*
X155533661Y-112069746D01*
X155533663Y-112069745D01*
X155537907Y-112068403D01*
X155541918Y-112066477D01*
X155541923Y-112066475D01*
X155771143Y-111956405D01*
X155771144Y-111956404D01*
X155775162Y-111954475D01*
X155885187Y-111880958D01*
X155990289Y-111810732D01*
X155990293Y-111810729D01*
X155993997Y-111808254D01*
X155997314Y-111805283D01*
X155997318Y-111805280D01*
X156186729Y-111635629D01*
X156186730Y-111635628D01*
X156190047Y-111632657D01*
X156283788Y-111521138D01*
X156342931Y-111481865D01*
X156413920Y-111480800D01*
X156469333Y-111513120D01*
X160088250Y-115132037D01*
X160112881Y-115166888D01*
X160151578Y-115248018D01*
X160219029Y-115341887D01*
X160244823Y-115377783D01*
X160268500Y-115451309D01*
X160268500Y-115799600D01*
X160268860Y-115802946D01*
X160268860Y-115802951D01*
X160277145Y-115880013D01*
X160280234Y-115908749D01*
X160280952Y-115912049D01*
X160280952Y-115912050D01*
X160287961Y-115944269D01*
X160291620Y-115961091D01*
X160326290Y-116065257D01*
X160405308Y-116188212D01*
X160408250Y-116191607D01*
X160408252Y-116191610D01*
X160413316Y-116197454D01*
X160451801Y-116241868D01*
X160455194Y-116244808D01*
X160555450Y-116331681D01*
X160555453Y-116331683D01*
X160562261Y-116337582D01*
X160695210Y-116398298D01*
X160718964Y-116405273D01*
X160759008Y-116417031D01*
X160759012Y-116417032D01*
X160763331Y-116418300D01*
X160767780Y-116418940D01*
X160767786Y-116418941D01*
X160903553Y-116438461D01*
X160903558Y-116438461D01*
X160908000Y-116439100D01*
X163653200Y-116439100D01*
X163656546Y-116438740D01*
X163656551Y-116438740D01*
X163758985Y-116427728D01*
X163758992Y-116427727D01*
X163762349Y-116427366D01*
X163765650Y-116426648D01*
X163811410Y-116416694D01*
X163811415Y-116416693D01*
X163814691Y-116415980D01*
X163918857Y-116381310D01*
X164041812Y-116302292D01*
X164095468Y-116255799D01*
X164110479Y-116238475D01*
X164185281Y-116152150D01*
X164185283Y-116152147D01*
X164191182Y-116145339D01*
X164251898Y-116012390D01*
X164271900Y-115944269D01*
X164276533Y-115912050D01*
X164292061Y-115804047D01*
X164292061Y-115804042D01*
X164292700Y-115799600D01*
X164292700Y-113410000D01*
X164289246Y-113377868D01*
X164281328Y-113304215D01*
X164281327Y-113304208D01*
X164280966Y-113300851D01*
X164269580Y-113248509D01*
X164234910Y-113144343D01*
X164155892Y-113021388D01*
X164109399Y-112967732D01*
X164083968Y-112945696D01*
X164005750Y-112877919D01*
X164005747Y-112877917D01*
X163998939Y-112872018D01*
X163865990Y-112811302D01*
X163842236Y-112804327D01*
X163802192Y-112792569D01*
X163802188Y-112792568D01*
X163797869Y-112791300D01*
X163793420Y-112790660D01*
X163793414Y-112790659D01*
X163657647Y-112771139D01*
X163657642Y-112771139D01*
X163653200Y-112770500D01*
X161338477Y-112770500D01*
X161270356Y-112750498D01*
X161249382Y-112733595D01*
X158521405Y-110005617D01*
X158487379Y-109943305D01*
X158484500Y-109916522D01*
X158484500Y-90291396D01*
X158485578Y-90274949D01*
X158487747Y-90258472D01*
X158488479Y-90252914D01*
X158484640Y-90171504D01*
X158484500Y-90165569D01*
X158484500Y-90143001D01*
X158484252Y-90140218D01*
X158484251Y-90140204D01*
X158482182Y-90117023D01*
X158481823Y-90111760D01*
X158479696Y-90066661D01*
X158477897Y-90028512D01*
X158473892Y-90011023D01*
X158471212Y-89994104D01*
X158470115Y-89981821D01*
X158469617Y-89976238D01*
X158468137Y-89970827D01*
X158447631Y-89895870D01*
X158446345Y-89890752D01*
X158428994Y-89814997D01*
X158427742Y-89809530D01*
X158420707Y-89793037D01*
X158415072Y-89776855D01*
X158411820Y-89764967D01*
X158411817Y-89764958D01*
X158410337Y-89759549D01*
X158407922Y-89754486D01*
X158407918Y-89754475D01*
X158374466Y-89684343D01*
X158372293Y-89679532D01*
X158341803Y-89608048D01*
X158339604Y-89602892D01*
X158329756Y-89587900D01*
X158321344Y-89572971D01*
X158313622Y-89556782D01*
X158264996Y-89489111D01*
X158262013Y-89484771D01*
X158218805Y-89418992D01*
X158218801Y-89418987D01*
X158216265Y-89415126D01*
X158197751Y-89394346D01*
X158189506Y-89384055D01*
X158185807Y-89378907D01*
X158185803Y-89378903D01*
X158182529Y-89374346D01*
X158105777Y-89299968D01*
X158104367Y-89298579D01*
X157316525Y-88510737D01*
X157305657Y-88498346D01*
X157295533Y-88485152D01*
X157292123Y-88480708D01*
X157231826Y-88425842D01*
X157227531Y-88421743D01*
X157211590Y-88405802D01*
X157209440Y-88404004D01*
X157191577Y-88389068D01*
X157187602Y-88385600D01*
X157130112Y-88333288D01*
X157130103Y-88333281D01*
X157125964Y-88329515D01*
X157110773Y-88319986D01*
X157096907Y-88309911D01*
X157087451Y-88302004D01*
X157087441Y-88301997D01*
X157083146Y-88298406D01*
X157010752Y-88257113D01*
X157006232Y-88254408D01*
X157001836Y-88251650D01*
X156955202Y-88222397D01*
X156940404Y-88213114D01*
X156940401Y-88213112D01*
X156935656Y-88210136D01*
X156930451Y-88208043D01*
X156930448Y-88208042D01*
X156919021Y-88203448D01*
X156903589Y-88195988D01*
X156892881Y-88189880D01*
X156892872Y-88189876D01*
X156888007Y-88187101D01*
X156882730Y-88185232D01*
X156882725Y-88185230D01*
X156809458Y-88159285D01*
X156804522Y-88157420D01*
X156732416Y-88128434D01*
X156727217Y-88126344D01*
X156721730Y-88125208D01*
X156721728Y-88125207D01*
X156709651Y-88122706D01*
X156693156Y-88118101D01*
X156676241Y-88112111D01*
X156593990Y-88098641D01*
X156588820Y-88097683D01*
X156533396Y-88086205D01*
X156511758Y-88081724D01*
X156511757Y-88081724D01*
X156507233Y-88080787D01*
X156502621Y-88080521D01*
X156502620Y-88080521D01*
X156479452Y-88079185D01*
X156466347Y-88077738D01*
X156460090Y-88076714D01*
X156460086Y-88076714D01*
X156454543Y-88075806D01*
X156448930Y-88075894D01*
X156448928Y-88075894D01*
X156347736Y-88077484D01*
X156345757Y-88077500D01*
X156273932Y-88077500D01*
X156205811Y-88057498D01*
X156184140Y-88039893D01*
X156118104Y-87972812D01*
X156084187Y-87938358D01*
X156080647Y-87935657D01*
X156080641Y-87935651D01*
X155878506Y-87781386D01*
X155878502Y-87781383D01*
X155874965Y-87778684D01*
X155645332Y-87650084D01*
X155399870Y-87555122D01*
X155395545Y-87554119D01*
X155395540Y-87554118D01*
X155254794Y-87521495D01*
X155143476Y-87495693D01*
X154881267Y-87472983D01*
X154876832Y-87473227D01*
X154876828Y-87473227D01*
X154622916Y-87487200D01*
X154622909Y-87487201D01*
X154618473Y-87487445D01*
X154490369Y-87512927D01*
X154364711Y-87537921D01*
X154364706Y-87537922D01*
X154360339Y-87538791D01*
X154356136Y-87540267D01*
X154116223Y-87624518D01*
X154116220Y-87624519D01*
X154112015Y-87625996D01*
X154108062Y-87628049D01*
X154108056Y-87628052D01*
X153982675Y-87693183D01*
X153878456Y-87747321D01*
X153874841Y-87749904D01*
X153874835Y-87749908D01*
X153771585Y-87823692D01*
X153664322Y-87900344D01*
X153505290Y-88052053D01*
X153443038Y-88082042D01*
X153443510Y-88084103D01*
X153426023Y-88088108D01*
X153409104Y-88090788D01*
X153404618Y-88091189D01*
X153391238Y-88092383D01*
X153385830Y-88093862D01*
X153385827Y-88093863D01*
X153310870Y-88114369D01*
X153305752Y-88115655D01*
X153230000Y-88133005D01*
X153229998Y-88133006D01*
X153224530Y-88134258D01*
X153214030Y-88138737D01*
X153208033Y-88141294D01*
X153191858Y-88146927D01*
X153179961Y-88150182D01*
X153179957Y-88150183D01*
X153174549Y-88151663D01*
X153169483Y-88154079D01*
X153169484Y-88154079D01*
X153099333Y-88187539D01*
X153094524Y-88189710D01*
X153023051Y-88220196D01*
X153017891Y-88222397D01*
X153002890Y-88232251D01*
X152987975Y-88240654D01*
X152971782Y-88248378D01*
X152967231Y-88251648D01*
X152967228Y-88251650D01*
X152959619Y-88257118D01*
X152906023Y-88295631D01*
X152904119Y-88296999D01*
X152899768Y-88299989D01*
X152833990Y-88343196D01*
X152833982Y-88343202D01*
X152830126Y-88345735D01*
X152809338Y-88364257D01*
X152799061Y-88372490D01*
X152789346Y-88379471D01*
X152714938Y-88456254D01*
X152713549Y-88457664D01*
X151396560Y-89774652D01*
X151334248Y-89808678D01*
X151263432Y-89803613D01*
X151206597Y-89761066D01*
X151181786Y-89694546D01*
X151182586Y-89668784D01*
X151211143Y-89456176D01*
X151211144Y-89456168D01*
X151211570Y-89452994D01*
X151213737Y-89384055D01*
X151215146Y-89339222D01*
X151215146Y-89339217D01*
X151215247Y-89336000D01*
X151196659Y-89073466D01*
X151184213Y-89015654D01*
X151142201Y-88820523D01*
X151141264Y-88816171D01*
X151128109Y-88780511D01*
X151051710Y-88573424D01*
X151050169Y-88569247D01*
X150949944Y-88383498D01*
X150927304Y-88341538D01*
X150925191Y-88337622D01*
X150768824Y-88125918D01*
X150763949Y-88120965D01*
X150614922Y-87969580D01*
X150584187Y-87938358D01*
X150580647Y-87935657D01*
X150580641Y-87935651D01*
X150378506Y-87781386D01*
X150378502Y-87781383D01*
X150374965Y-87778684D01*
X150145332Y-87650084D01*
X149899870Y-87555122D01*
X149895545Y-87554119D01*
X149895540Y-87554118D01*
X149754794Y-87521495D01*
X149643476Y-87495693D01*
X149381267Y-87472983D01*
X149376832Y-87473227D01*
X149376828Y-87473227D01*
X149122916Y-87487200D01*
X149122909Y-87487201D01*
X149118473Y-87487445D01*
X148954352Y-87520091D01*
X148883097Y-87534264D01*
X148812383Y-87527936D01*
X148756316Y-87484381D01*
X148732697Y-87417429D01*
X148749024Y-87348335D01*
X148769421Y-87321590D01*
X149068651Y-87022360D01*
X149130963Y-86988334D01*
X149172554Y-86986328D01*
X149264229Y-86997179D01*
X149527347Y-86990978D01*
X149555284Y-86986328D01*
X149782576Y-86948496D01*
X149782580Y-86948495D01*
X149786966Y-86947765D01*
X149791207Y-86946424D01*
X149791210Y-86946423D01*
X150033661Y-86869746D01*
X150033663Y-86869745D01*
X150037907Y-86868403D01*
X150041918Y-86866477D01*
X150041923Y-86866475D01*
X150271143Y-86756405D01*
X150271144Y-86756404D01*
X150275162Y-86754475D01*
X150385187Y-86680958D01*
X150490289Y-86610732D01*
X150490293Y-86610729D01*
X150493997Y-86608254D01*
X150497314Y-86605283D01*
X150497318Y-86605280D01*
X150686729Y-86435629D01*
X150686730Y-86435628D01*
X150690047Y-86432657D01*
X150859398Y-86231189D01*
X150890573Y-86181203D01*
X150957341Y-86074144D01*
X150998674Y-86007869D01*
X151022952Y-85952954D01*
X151103295Y-85771219D01*
X151105093Y-85767152D01*
X151176534Y-85513843D01*
X151182120Y-85472254D01*
X151211143Y-85256176D01*
X151211144Y-85256168D01*
X151211570Y-85252994D01*
X151214336Y-85164982D01*
X151215146Y-85139222D01*
X151215146Y-85139217D01*
X151215247Y-85136000D01*
X151212358Y-85095189D01*
X151211104Y-85077474D01*
X152989672Y-85077474D01*
X152989847Y-85081926D01*
X152998401Y-85299629D01*
X153000005Y-85340462D01*
X153047290Y-85599371D01*
X153066806Y-85657868D01*
X153123935Y-85829103D01*
X153130584Y-85849034D01*
X153134007Y-85855884D01*
X153209950Y-86007869D01*
X153248225Y-86084470D01*
X153250754Y-86088129D01*
X153381092Y-86276713D01*
X153397865Y-86300982D01*
X153576520Y-86494249D01*
X153780623Y-86660415D01*
X153784431Y-86662708D01*
X153784433Y-86662709D01*
X154002288Y-86793868D01*
X154002292Y-86793870D01*
X154006104Y-86796165D01*
X154119313Y-86844103D01*
X154244359Y-86897054D01*
X154244364Y-86897056D01*
X154248462Y-86898791D01*
X154252760Y-86899930D01*
X154252764Y-86899932D01*
X154375662Y-86932517D01*
X154502862Y-86966244D01*
X154764229Y-86997179D01*
X155027347Y-86990978D01*
X155055284Y-86986328D01*
X155282576Y-86948496D01*
X155282580Y-86948495D01*
X155286966Y-86947765D01*
X155291207Y-86946424D01*
X155291210Y-86946423D01*
X155533661Y-86869746D01*
X155533663Y-86869745D01*
X155537907Y-86868403D01*
X155541918Y-86866477D01*
X155541923Y-86866475D01*
X155771143Y-86756405D01*
X155771144Y-86756404D01*
X155775162Y-86754475D01*
X155885187Y-86680958D01*
X155990289Y-86610732D01*
X155990293Y-86610729D01*
X155993997Y-86608254D01*
X155997314Y-86605283D01*
X155997318Y-86605280D01*
X156186729Y-86435629D01*
X156186730Y-86435628D01*
X156190047Y-86432657D01*
X156359398Y-86231189D01*
X156390573Y-86181203D01*
X156457341Y-86074144D01*
X156498674Y-86007869D01*
X156522952Y-85952954D01*
X156603295Y-85771219D01*
X156605093Y-85767152D01*
X156676534Y-85513843D01*
X156682120Y-85472254D01*
X156711143Y-85256176D01*
X156711144Y-85256168D01*
X156711570Y-85252994D01*
X156714336Y-85164982D01*
X156715146Y-85139222D01*
X156715146Y-85139217D01*
X156715247Y-85136000D01*
X156712358Y-85095189D01*
X156696974Y-84877915D01*
X156696659Y-84873466D01*
X156685167Y-84820085D01*
X156642201Y-84620523D01*
X156641264Y-84616171D01*
X156622218Y-84564543D01*
X156551710Y-84373424D01*
X156550169Y-84369247D01*
X156425191Y-84137622D01*
X156268824Y-83925918D01*
X156084187Y-83738358D01*
X156080647Y-83735657D01*
X156080641Y-83735651D01*
X155878506Y-83581386D01*
X155878502Y-83581383D01*
X155874965Y-83578684D01*
X155645332Y-83450084D01*
X155399870Y-83355122D01*
X155395545Y-83354119D01*
X155395540Y-83354118D01*
X155254794Y-83321495D01*
X155143476Y-83295693D01*
X154881267Y-83272983D01*
X154876832Y-83273227D01*
X154876828Y-83273227D01*
X154622916Y-83287200D01*
X154622909Y-83287201D01*
X154618473Y-83287445D01*
X154490369Y-83312927D01*
X154364711Y-83337921D01*
X154364706Y-83337922D01*
X154360339Y-83338791D01*
X154356136Y-83340267D01*
X154116223Y-83424518D01*
X154116220Y-83424519D01*
X154112015Y-83425996D01*
X154108062Y-83428049D01*
X154108056Y-83428052D01*
X154015773Y-83475990D01*
X153878456Y-83547321D01*
X153874841Y-83549904D01*
X153874835Y-83549908D01*
X153771585Y-83623692D01*
X153664322Y-83700344D01*
X153661095Y-83703422D01*
X153661093Y-83703424D01*
X153627311Y-83735651D01*
X153473885Y-83882011D01*
X153310945Y-84088700D01*
X153282529Y-84137622D01*
X153180987Y-84312438D01*
X153180984Y-84312444D01*
X153178753Y-84316285D01*
X153079947Y-84560225D01*
X153078876Y-84564538D01*
X153078874Y-84564543D01*
X153061318Y-84635219D01*
X153016498Y-84815654D01*
X152989672Y-85077474D01*
X151211104Y-85077474D01*
X151196974Y-84877915D01*
X151196659Y-84873466D01*
X151185167Y-84820085D01*
X151142201Y-84620523D01*
X151141264Y-84616171D01*
X151122218Y-84564543D01*
X151051710Y-84373424D01*
X151050169Y-84369247D01*
X150925191Y-84137622D01*
X150768824Y-83925918D01*
X150584187Y-83738358D01*
X150580647Y-83735657D01*
X150580641Y-83735651D01*
X150378506Y-83581386D01*
X150378502Y-83581383D01*
X150374965Y-83578684D01*
X150145332Y-83450084D01*
X149899870Y-83355122D01*
X149895545Y-83354119D01*
X149895540Y-83354118D01*
X149754794Y-83321495D01*
X149643476Y-83295693D01*
X149381267Y-83272983D01*
X149376832Y-83273227D01*
X149376828Y-83273227D01*
X149122916Y-83287200D01*
X149122909Y-83287201D01*
X149118473Y-83287445D01*
X148990369Y-83312927D01*
X148864711Y-83337921D01*
X148864706Y-83337922D01*
X148860339Y-83338791D01*
X148856136Y-83340267D01*
X148616223Y-83424518D01*
X148616220Y-83424519D01*
X148612015Y-83425996D01*
X148608062Y-83428049D01*
X148608056Y-83428052D01*
X148515773Y-83475990D01*
X148378456Y-83547321D01*
X148374841Y-83549904D01*
X148374835Y-83549908D01*
X148271585Y-83623692D01*
X148164322Y-83700344D01*
X148161095Y-83703422D01*
X148161093Y-83703424D01*
X148127311Y-83735651D01*
X147973885Y-83882011D01*
X147810945Y-84088700D01*
X147782529Y-84137622D01*
X147680987Y-84312438D01*
X147680984Y-84312444D01*
X147678753Y-84316285D01*
X147579947Y-84560225D01*
X147578876Y-84564538D01*
X147578874Y-84564543D01*
X147561318Y-84635219D01*
X147516498Y-84815654D01*
X147489672Y-85077474D01*
X147489847Y-85081926D01*
X147499524Y-85328231D01*
X147482212Y-85397085D01*
X147462716Y-85422273D01*
X146011595Y-86873394D01*
X145949283Y-86907420D01*
X145878468Y-86902355D01*
X145821632Y-86859808D01*
X145796821Y-86793288D01*
X145796500Y-86784299D01*
X145796500Y-80877474D01*
X147489672Y-80877474D01*
X147500005Y-81140462D01*
X147547290Y-81399371D01*
X147630584Y-81649034D01*
X147636266Y-81660405D01*
X147741117Y-81870244D01*
X147748225Y-81884470D01*
X147755560Y-81895083D01*
X147872119Y-82063730D01*
X147897865Y-82100982D01*
X147991977Y-82202791D01*
X148072589Y-82289996D01*
X148076520Y-82294249D01*
X148280623Y-82460415D01*
X148284431Y-82462708D01*
X148284433Y-82462709D01*
X148502288Y-82593868D01*
X148502292Y-82593870D01*
X148506104Y-82596165D01*
X148642026Y-82653721D01*
X148744359Y-82697054D01*
X148744364Y-82697056D01*
X148748462Y-82698791D01*
X148752760Y-82699930D01*
X148752764Y-82699932D01*
X148875662Y-82732517D01*
X149002862Y-82766244D01*
X149264229Y-82797179D01*
X149527347Y-82790978D01*
X149531745Y-82790246D01*
X149782576Y-82748496D01*
X149782580Y-82748495D01*
X149786966Y-82747765D01*
X149791207Y-82746424D01*
X149791210Y-82746423D01*
X150033661Y-82669746D01*
X150033663Y-82669745D01*
X150037907Y-82668403D01*
X150041918Y-82666477D01*
X150041923Y-82666475D01*
X150271143Y-82556405D01*
X150271144Y-82556404D01*
X150275162Y-82554475D01*
X150385187Y-82480958D01*
X150490289Y-82410732D01*
X150490293Y-82410729D01*
X150493997Y-82408254D01*
X150497314Y-82405283D01*
X150497318Y-82405280D01*
X150686729Y-82235629D01*
X150686730Y-82235628D01*
X150690047Y-82232657D01*
X150859398Y-82031189D01*
X150883311Y-81992847D01*
X150944282Y-81895083D01*
X150998674Y-81807869D01*
X151013760Y-81773746D01*
X151103295Y-81571219D01*
X151105093Y-81567152D01*
X151176534Y-81313843D01*
X151191648Y-81201316D01*
X151211143Y-81056176D01*
X151211144Y-81056168D01*
X151211570Y-81052994D01*
X151215247Y-80936000D01*
X151213539Y-80911869D01*
X151211104Y-80877474D01*
X152989672Y-80877474D01*
X153000005Y-81140462D01*
X153047290Y-81399371D01*
X153130584Y-81649034D01*
X153136266Y-81660405D01*
X153241117Y-81870244D01*
X153248225Y-81884470D01*
X153255560Y-81895083D01*
X153372119Y-82063730D01*
X153397865Y-82100982D01*
X153491977Y-82202791D01*
X153572589Y-82289996D01*
X153576520Y-82294249D01*
X153780623Y-82460415D01*
X153784431Y-82462708D01*
X153784433Y-82462709D01*
X154002288Y-82593868D01*
X154002292Y-82593870D01*
X154006104Y-82596165D01*
X154142026Y-82653721D01*
X154244359Y-82697054D01*
X154244364Y-82697056D01*
X154248462Y-82698791D01*
X154252760Y-82699930D01*
X154252764Y-82699932D01*
X154375662Y-82732517D01*
X154502862Y-82766244D01*
X154764229Y-82797179D01*
X155027347Y-82790978D01*
X155031745Y-82790246D01*
X155282576Y-82748496D01*
X155282580Y-82748495D01*
X155286966Y-82747765D01*
X155291207Y-82746424D01*
X155291210Y-82746423D01*
X155533661Y-82669746D01*
X155533663Y-82669745D01*
X155537907Y-82668403D01*
X155541918Y-82666477D01*
X155541923Y-82666475D01*
X155771143Y-82556405D01*
X155771144Y-82556404D01*
X155775162Y-82554475D01*
X155885187Y-82480958D01*
X155990289Y-82410732D01*
X155990293Y-82410729D01*
X155993997Y-82408254D01*
X155997314Y-82405283D01*
X155997318Y-82405280D01*
X156186729Y-82235629D01*
X156186730Y-82235628D01*
X156190047Y-82232657D01*
X156359398Y-82031189D01*
X156383311Y-81992847D01*
X156444282Y-81895083D01*
X156498674Y-81807869D01*
X156513760Y-81773746D01*
X156603295Y-81571219D01*
X156605093Y-81567152D01*
X156676534Y-81313843D01*
X156691648Y-81201316D01*
X156711143Y-81056176D01*
X156711144Y-81056168D01*
X156711570Y-81052994D01*
X156715247Y-80936000D01*
X156713539Y-80911869D01*
X156696974Y-80677915D01*
X156696659Y-80673466D01*
X156685167Y-80620085D01*
X156642201Y-80420523D01*
X156641264Y-80416171D01*
X156622218Y-80364543D01*
X156551710Y-80173424D01*
X156550169Y-80169247D01*
X156425191Y-79937622D01*
X156268824Y-79725918D01*
X156084187Y-79538358D01*
X156080647Y-79535657D01*
X156080641Y-79535651D01*
X155878506Y-79381386D01*
X155878502Y-79381383D01*
X155874965Y-79378684D01*
X155645332Y-79250084D01*
X155399870Y-79155122D01*
X155395545Y-79154119D01*
X155395540Y-79154118D01*
X155254794Y-79121495D01*
X155143476Y-79095693D01*
X154881267Y-79072983D01*
X154876832Y-79073227D01*
X154876828Y-79073227D01*
X154622916Y-79087200D01*
X154622909Y-79087201D01*
X154618473Y-79087445D01*
X154490369Y-79112927D01*
X154364711Y-79137921D01*
X154364706Y-79137922D01*
X154360339Y-79138791D01*
X154356136Y-79140267D01*
X154116223Y-79224518D01*
X154116220Y-79224519D01*
X154112015Y-79225996D01*
X154108062Y-79228049D01*
X154108056Y-79228052D01*
X153976615Y-79296331D01*
X153878456Y-79347321D01*
X153874841Y-79349904D01*
X153874835Y-79349908D01*
X153771585Y-79423692D01*
X153664322Y-79500344D01*
X153661095Y-79503422D01*
X153661093Y-79503424D01*
X153627311Y-79535651D01*
X153473885Y-79682011D01*
X153310945Y-79888700D01*
X153282529Y-79937622D01*
X153180987Y-80112438D01*
X153180984Y-80112444D01*
X153178753Y-80116285D01*
X153079947Y-80360225D01*
X153078876Y-80364538D01*
X153078874Y-80364543D01*
X153064969Y-80420523D01*
X153016498Y-80615654D01*
X152989672Y-80877474D01*
X151211104Y-80877474D01*
X151196974Y-80677915D01*
X151196659Y-80673466D01*
X151185167Y-80620085D01*
X151142201Y-80420523D01*
X151141264Y-80416171D01*
X151122218Y-80364543D01*
X151051710Y-80173424D01*
X151050169Y-80169247D01*
X150925191Y-79937622D01*
X150768824Y-79725918D01*
X150584187Y-79538358D01*
X150580647Y-79535657D01*
X150580641Y-79535651D01*
X150378506Y-79381386D01*
X150378502Y-79381383D01*
X150374965Y-79378684D01*
X150145332Y-79250084D01*
X149899870Y-79155122D01*
X149895545Y-79154119D01*
X149895540Y-79154118D01*
X149754794Y-79121495D01*
X149643476Y-79095693D01*
X149381267Y-79072983D01*
X149376832Y-79073227D01*
X149376828Y-79073227D01*
X149122916Y-79087200D01*
X149122909Y-79087201D01*
X149118473Y-79087445D01*
X148990369Y-79112927D01*
X148864711Y-79137921D01*
X148864706Y-79137922D01*
X148860339Y-79138791D01*
X148856136Y-79140267D01*
X148616223Y-79224518D01*
X148616220Y-79224519D01*
X148612015Y-79225996D01*
X148608062Y-79228049D01*
X148608056Y-79228052D01*
X148476615Y-79296331D01*
X148378456Y-79347321D01*
X148374841Y-79349904D01*
X148374835Y-79349908D01*
X148271585Y-79423692D01*
X148164322Y-79500344D01*
X148161095Y-79503422D01*
X148161093Y-79503424D01*
X148127311Y-79535651D01*
X147973885Y-79682011D01*
X147810945Y-79888700D01*
X147782529Y-79937622D01*
X147680987Y-80112438D01*
X147680984Y-80112444D01*
X147678753Y-80116285D01*
X147579947Y-80360225D01*
X147578876Y-80364538D01*
X147578874Y-80364543D01*
X147564969Y-80420523D01*
X147516498Y-80615654D01*
X147489672Y-80877474D01*
X145796500Y-80877474D01*
X145796500Y-73278500D01*
X145816502Y-73210379D01*
X145870158Y-73163886D01*
X145922500Y-73152500D01*
X150890104Y-73152500D01*
X150958225Y-73172502D01*
G37*
%TD.AperFunction*%
%TA.AperFunction,Conductor*%
G36*
X147519012Y-93970202D02*
G01*
X147556024Y-94025550D01*
X147630584Y-94249034D01*
X147748225Y-94484470D01*
X147750754Y-94488129D01*
X147882585Y-94678873D01*
X147897865Y-94700982D01*
X148076520Y-94894249D01*
X148280623Y-95060415D01*
X148284431Y-95062708D01*
X148284433Y-95062709D01*
X148502288Y-95193868D01*
X148502292Y-95193870D01*
X148506104Y-95196165D01*
X148642026Y-95253721D01*
X148744359Y-95297054D01*
X148744364Y-95297056D01*
X148748462Y-95298791D01*
X148752760Y-95299930D01*
X148752764Y-95299932D01*
X148875662Y-95332518D01*
X149002862Y-95366244D01*
X149264229Y-95397179D01*
X149527347Y-95390978D01*
X149531745Y-95390246D01*
X149782576Y-95348496D01*
X149782580Y-95348495D01*
X149786966Y-95347765D01*
X149791207Y-95346424D01*
X149791210Y-95346423D01*
X150033661Y-95269746D01*
X150033663Y-95269745D01*
X150037907Y-95268403D01*
X150041918Y-95266477D01*
X150041923Y-95266475D01*
X150271143Y-95156405D01*
X150271144Y-95156404D01*
X150275162Y-95154475D01*
X150437499Y-95046005D01*
X150505251Y-95024790D01*
X150573718Y-95043573D01*
X150621161Y-95096390D01*
X150633500Y-95150770D01*
X150633500Y-96121959D01*
X150613498Y-96190080D01*
X150559842Y-96236573D01*
X150489568Y-96246677D01*
X150431058Y-96222122D01*
X150378230Y-96181805D01*
X150370801Y-96176925D01*
X150149005Y-96052713D01*
X150140971Y-96048932D01*
X149903865Y-95957203D01*
X149895392Y-95954596D01*
X149647736Y-95897193D01*
X149638960Y-95895803D01*
X149385691Y-95873868D01*
X149376820Y-95873728D01*
X149122976Y-95887698D01*
X149114174Y-95888810D01*
X148864832Y-95938408D01*
X148856279Y-95940748D01*
X148616421Y-96024978D01*
X148608255Y-96028512D01*
X148382669Y-96145696D01*
X148375097Y-96150335D01*
X148244292Y-96243810D01*
X148235889Y-96254533D01*
X148242869Y-96267659D01*
X149622115Y-97646905D01*
X149656141Y-97709217D01*
X149651076Y-97780032D01*
X149622115Y-97825095D01*
X148242070Y-99205140D01*
X148234904Y-99218263D01*
X148242294Y-99228566D01*
X148277455Y-99257192D01*
X148284731Y-99262305D01*
X148502514Y-99393421D01*
X148510428Y-99397454D01*
X148744523Y-99496581D01*
X148752928Y-99499458D01*
X148998650Y-99564610D01*
X149007382Y-99566276D01*
X149259835Y-99596155D01*
X149268703Y-99596573D01*
X149522843Y-99590584D01*
X149531698Y-99589747D01*
X149607997Y-99577047D01*
X149678477Y-99585593D01*
X149733149Y-99630887D01*
X149754654Y-99698548D01*
X149736165Y-99767095D01*
X149717780Y-99790432D01*
X149471812Y-100036400D01*
X149409500Y-100070426D01*
X149382624Y-100073101D01*
X149381267Y-100072983D01*
X149376831Y-100073227D01*
X149376825Y-100073227D01*
X149122916Y-100087200D01*
X149122909Y-100087201D01*
X149118473Y-100087445D01*
X148993689Y-100112266D01*
X148864711Y-100137921D01*
X148864706Y-100137922D01*
X148860339Y-100138791D01*
X148856136Y-100140267D01*
X148616223Y-100224518D01*
X148616220Y-100224519D01*
X148612015Y-100225996D01*
X148608062Y-100228049D01*
X148608056Y-100228052D01*
X148499922Y-100284224D01*
X148378456Y-100347321D01*
X148374841Y-100349904D01*
X148374835Y-100349908D01*
X148373972Y-100350525D01*
X148164322Y-100500344D01*
X148161095Y-100503422D01*
X148161093Y-100503424D01*
X148113723Y-100548613D01*
X147973885Y-100682011D01*
X147810945Y-100888700D01*
X147782132Y-100938305D01*
X147680987Y-101112438D01*
X147680984Y-101112444D01*
X147678753Y-101116285D01*
X147677083Y-101120408D01*
X147600639Y-101309140D01*
X147579947Y-101360225D01*
X147578876Y-101364537D01*
X147578873Y-101364546D01*
X147558784Y-101445421D01*
X147522950Y-101506711D01*
X147459668Y-101538898D01*
X147389031Y-101531762D01*
X147333465Y-101487570D01*
X147310500Y-101415046D01*
X147310500Y-98263845D01*
X147330502Y-98195724D01*
X147384158Y-98149231D01*
X147454432Y-98139127D01*
X147519012Y-98168621D01*
X147556024Y-98223969D01*
X147629636Y-98444613D01*
X147633040Y-98452831D01*
X147746667Y-98680235D01*
X147751185Y-98687874D01*
X147859294Y-98844296D01*
X147869612Y-98852647D01*
X147883267Y-98845523D01*
X148979978Y-97748812D01*
X148987592Y-97734868D01*
X148987461Y-97733035D01*
X148983210Y-97726420D01*
X147883423Y-96626633D01*
X147870582Y-96619621D01*
X147859893Y-96627416D01*
X147814115Y-96685485D01*
X147809122Y-96692833D01*
X147681440Y-96912655D01*
X147677532Y-96920629D01*
X147582097Y-97156247D01*
X147579348Y-97164709D01*
X147558784Y-97247494D01*
X147522950Y-97308784D01*
X147459668Y-97340971D01*
X147389031Y-97333835D01*
X147333465Y-97289644D01*
X147310500Y-97217119D01*
X147310500Y-94065426D01*
X147330502Y-93997305D01*
X147384158Y-93950812D01*
X147454432Y-93940708D01*
X147519012Y-93970202D01*
G37*
%TD.AperFunction*%
%TD*%
M02*
