%TF.GenerationSoftware,KiCad,Pcbnew,(6.0.7)*%
%TF.CreationDate,2023-01-08T00:03:09+11:00*%
%TF.ProjectId,Xbox_ATX,58626f78-5f41-4545-982e-6b696361645f,rev?*%
%TF.SameCoordinates,Original*%
%TF.FileFunction,Legend,Top*%
%TF.FilePolarity,Positive*%
%FSLAX46Y46*%
G04 Gerber Fmt 4.6, Leading zero omitted, Abs format (unit mm)*
G04 Created by KiCad (PCBNEW (6.0.7)) date 2023-01-08 00:03:09*
%MOMM*%
%LPD*%
G01*
G04 APERTURE LIST*
%ADD10C,0.250000*%
%ADD11C,0.150000*%
%ADD12C,0.120000*%
G04 APERTURE END LIST*
D10*
X166823200Y-112724514D02*
X166823200Y-112153085D01*
X167166057Y-112838800D02*
X165966057Y-112438800D01*
X167166057Y-112038800D01*
X165966057Y-111810228D02*
X165966057Y-111124514D01*
X167166057Y-111467371D02*
X165966057Y-111467371D01*
X165966057Y-110838800D02*
X167166057Y-110038800D01*
X165966057Y-110038800D02*
X167166057Y-110838800D01*
X166366057Y-108838800D02*
X166366057Y-108381657D01*
X165966057Y-108667371D02*
X166994628Y-108667371D01*
X167108914Y-108610228D01*
X167166057Y-108495942D01*
X167166057Y-108381657D01*
X167166057Y-107810228D02*
X167108914Y-107924514D01*
X167051771Y-107981657D01*
X166937485Y-108038800D01*
X166594628Y-108038800D01*
X166480342Y-107981657D01*
X166423200Y-107924514D01*
X166366057Y-107810228D01*
X166366057Y-107638800D01*
X166423200Y-107524514D01*
X166480342Y-107467371D01*
X166594628Y-107410228D01*
X166937485Y-107410228D01*
X167051771Y-107467371D01*
X167108914Y-107524514D01*
X167166057Y-107638800D01*
X167166057Y-107810228D01*
X165966057Y-106095942D02*
X167166057Y-105295942D01*
X165966057Y-105295942D02*
X167166057Y-106095942D01*
X166537485Y-104438800D02*
X166594628Y-104267371D01*
X166651771Y-104210228D01*
X166766057Y-104153085D01*
X166937485Y-104153085D01*
X167051771Y-104210228D01*
X167108914Y-104267371D01*
X167166057Y-104381657D01*
X167166057Y-104838800D01*
X165966057Y-104838800D01*
X165966057Y-104438800D01*
X166023200Y-104324514D01*
X166080342Y-104267371D01*
X166194628Y-104210228D01*
X166308914Y-104210228D01*
X166423200Y-104267371D01*
X166480342Y-104324514D01*
X166537485Y-104438800D01*
X166537485Y-104838800D01*
X165966057Y-103410228D02*
X165966057Y-103181657D01*
X166023200Y-103067371D01*
X166137485Y-102953085D01*
X166366057Y-102895942D01*
X166766057Y-102895942D01*
X166994628Y-102953085D01*
X167108914Y-103067371D01*
X167166057Y-103181657D01*
X167166057Y-103410228D01*
X167108914Y-103524514D01*
X166994628Y-103638800D01*
X166766057Y-103695942D01*
X166366057Y-103695942D01*
X166137485Y-103638800D01*
X166023200Y-103524514D01*
X165966057Y-103410228D01*
X165966057Y-102495942D02*
X167166057Y-101695942D01*
X165966057Y-101695942D02*
X167166057Y-102495942D01*
X169098057Y-111895942D02*
X168526628Y-112295942D01*
X169098057Y-112581657D02*
X167898057Y-112581657D01*
X167898057Y-112124514D01*
X167955200Y-112010228D01*
X168012342Y-111953085D01*
X168126628Y-111895942D01*
X168298057Y-111895942D01*
X168412342Y-111953085D01*
X168469485Y-112010228D01*
X168526628Y-112124514D01*
X168526628Y-112581657D01*
X169040914Y-110924514D02*
X169098057Y-111038800D01*
X169098057Y-111267371D01*
X169040914Y-111381657D01*
X168926628Y-111438800D01*
X168469485Y-111438800D01*
X168355200Y-111381657D01*
X168298057Y-111267371D01*
X168298057Y-111038800D01*
X168355200Y-110924514D01*
X168469485Y-110867371D01*
X168583771Y-110867371D01*
X168698057Y-111438800D01*
X168298057Y-110467371D02*
X169098057Y-110181657D01*
X168298057Y-109895942D01*
X169098057Y-107895942D02*
X169098057Y-108581657D01*
X169098057Y-108238800D02*
X167898057Y-108238800D01*
X168069485Y-108353085D01*
X168183771Y-108467371D01*
X168240914Y-108581657D01*
X168983771Y-107381657D02*
X169040914Y-107324514D01*
X169098057Y-107381657D01*
X169040914Y-107438800D01*
X168983771Y-107381657D01*
X169098057Y-107381657D01*
X168012342Y-106867371D02*
X167955200Y-106810228D01*
X167898057Y-106695942D01*
X167898057Y-106410228D01*
X167955200Y-106295942D01*
X168012342Y-106238800D01*
X168126628Y-106181657D01*
X168240914Y-106181657D01*
X168412342Y-106238800D01*
X169098057Y-106924514D01*
X169098057Y-106181657D01*
X168640914Y-105667371D02*
X168640914Y-104753085D01*
X169098057Y-103553085D02*
X169098057Y-104238800D01*
X169098057Y-103895942D02*
X167898057Y-103895942D01*
X168069485Y-104010228D01*
X168183771Y-104124514D01*
X168240914Y-104238800D01*
X168983771Y-103038800D02*
X169040914Y-102981657D01*
X169098057Y-103038800D01*
X169040914Y-103095942D01*
X168983771Y-103038800D01*
X169098057Y-103038800D01*
X167898057Y-101895942D02*
X167898057Y-102467371D01*
X168469485Y-102524514D01*
X168412342Y-102467371D01*
X168355200Y-102353085D01*
X168355200Y-102067371D01*
X168412342Y-101953085D01*
X168469485Y-101895942D01*
X168583771Y-101838800D01*
X168869485Y-101838800D01*
X168983771Y-101895942D01*
X169040914Y-101953085D01*
X169098057Y-102067371D01*
X169098057Y-102353085D01*
X169040914Y-102467371D01*
X168983771Y-102524514D01*
D11*
%TO.C,C1*%
X163206133Y-84177142D02*
X163158514Y-84224761D01*
X163015657Y-84272380D01*
X162920419Y-84272380D01*
X162777561Y-84224761D01*
X162682323Y-84129523D01*
X162634704Y-84034285D01*
X162587085Y-83843809D01*
X162587085Y-83700952D01*
X162634704Y-83510476D01*
X162682323Y-83415238D01*
X162777561Y-83320000D01*
X162920419Y-83272380D01*
X163015657Y-83272380D01*
X163158514Y-83320000D01*
X163206133Y-83367619D01*
X164158514Y-84272380D02*
X163587085Y-84272380D01*
X163872800Y-84272380D02*
X163872800Y-83272380D01*
X163777561Y-83415238D01*
X163682323Y-83510476D01*
X163587085Y-83558095D01*
%TO.C,J1*%
X152218666Y-100931238D02*
X152218666Y-100455047D01*
X152504380Y-101026476D02*
X151504380Y-100693142D01*
X152504380Y-100359809D01*
X151504380Y-100169333D02*
X151504380Y-99597904D01*
X152504380Y-99883619D02*
X151504380Y-99883619D01*
X151504380Y-99359809D02*
X152504380Y-98693142D01*
X151504380Y-98693142D02*
X152504380Y-99359809D01*
%TO.C,J2*%
X174262380Y-105973333D02*
X175262380Y-105306666D01*
X174262380Y-105306666D02*
X175262380Y-105973333D01*
X174738571Y-104592380D02*
X174786190Y-104449523D01*
X174833809Y-104401904D01*
X174929047Y-104354285D01*
X175071904Y-104354285D01*
X175167142Y-104401904D01*
X175214761Y-104449523D01*
X175262380Y-104544761D01*
X175262380Y-104925714D01*
X174262380Y-104925714D01*
X174262380Y-104592380D01*
X174310000Y-104497142D01*
X174357619Y-104449523D01*
X174452857Y-104401904D01*
X174548095Y-104401904D01*
X174643333Y-104449523D01*
X174690952Y-104497142D01*
X174738571Y-104592380D01*
X174738571Y-104925714D01*
X174262380Y-103735238D02*
X174262380Y-103544761D01*
X174310000Y-103449523D01*
X174405238Y-103354285D01*
X174595714Y-103306666D01*
X174929047Y-103306666D01*
X175119523Y-103354285D01*
X175214761Y-103449523D01*
X175262380Y-103544761D01*
X175262380Y-103735238D01*
X175214761Y-103830476D01*
X175119523Y-103925714D01*
X174929047Y-103973333D01*
X174595714Y-103973333D01*
X174405238Y-103925714D01*
X174310000Y-103830476D01*
X174262380Y-103735238D01*
X174262380Y-102973333D02*
X175262380Y-102306666D01*
X174262380Y-102306666D02*
X175262380Y-102973333D01*
%TO.C,Q1*%
X162464761Y-107354619D02*
X162369523Y-107307000D01*
X162274285Y-107211761D01*
X162131428Y-107068904D01*
X162036190Y-107021285D01*
X161940952Y-107021285D01*
X161988571Y-107259380D02*
X161893333Y-107211761D01*
X161798095Y-107116523D01*
X161750476Y-106926047D01*
X161750476Y-106592714D01*
X161798095Y-106402238D01*
X161893333Y-106307000D01*
X161988571Y-106259380D01*
X162179047Y-106259380D01*
X162274285Y-106307000D01*
X162369523Y-106402238D01*
X162417142Y-106592714D01*
X162417142Y-106926047D01*
X162369523Y-107116523D01*
X162274285Y-107211761D01*
X162179047Y-107259380D01*
X161988571Y-107259380D01*
X163369523Y-107259380D02*
X162798095Y-107259380D01*
X163083809Y-107259380D02*
X163083809Y-106259380D01*
X162988571Y-106402238D01*
X162893333Y-106497476D01*
X162798095Y-106545095D01*
%TO.C,R1*%
X166060380Y-97956666D02*
X165584190Y-98290000D01*
X166060380Y-98528095D02*
X165060380Y-98528095D01*
X165060380Y-98147142D01*
X165108000Y-98051904D01*
X165155619Y-98004285D01*
X165250857Y-97956666D01*
X165393714Y-97956666D01*
X165488952Y-98004285D01*
X165536571Y-98051904D01*
X165584190Y-98147142D01*
X165584190Y-98528095D01*
X166060380Y-97004285D02*
X166060380Y-97575714D01*
X166060380Y-97290000D02*
X165060380Y-97290000D01*
X165203238Y-97385238D01*
X165298476Y-97480476D01*
X165346095Y-97575714D01*
%TO.C,Q2*%
X162464761Y-89115119D02*
X162369523Y-89067500D01*
X162274285Y-88972261D01*
X162131428Y-88829404D01*
X162036190Y-88781785D01*
X161940952Y-88781785D01*
X161988571Y-89019880D02*
X161893333Y-88972261D01*
X161798095Y-88877023D01*
X161750476Y-88686547D01*
X161750476Y-88353214D01*
X161798095Y-88162738D01*
X161893333Y-88067500D01*
X161988571Y-88019880D01*
X162179047Y-88019880D01*
X162274285Y-88067500D01*
X162369523Y-88162738D01*
X162417142Y-88353214D01*
X162417142Y-88686547D01*
X162369523Y-88877023D01*
X162274285Y-88972261D01*
X162179047Y-89019880D01*
X161988571Y-89019880D01*
X162798095Y-88115119D02*
X162845714Y-88067500D01*
X162940952Y-88019880D01*
X163179047Y-88019880D01*
X163274285Y-88067500D01*
X163321904Y-88115119D01*
X163369523Y-88210357D01*
X163369523Y-88305595D01*
X163321904Y-88448452D01*
X162750476Y-89019880D01*
X163369523Y-89019880D01*
%TO.C,R3*%
X161996380Y-98210666D02*
X161520190Y-98544000D01*
X161996380Y-98782095D02*
X160996380Y-98782095D01*
X160996380Y-98401142D01*
X161044000Y-98305904D01*
X161091619Y-98258285D01*
X161186857Y-98210666D01*
X161329714Y-98210666D01*
X161424952Y-98258285D01*
X161472571Y-98305904D01*
X161520190Y-98401142D01*
X161520190Y-98782095D01*
X160996380Y-97877333D02*
X160996380Y-97258285D01*
X161377333Y-97591619D01*
X161377333Y-97448761D01*
X161424952Y-97353523D01*
X161472571Y-97305904D01*
X161567809Y-97258285D01*
X161805904Y-97258285D01*
X161901142Y-97305904D01*
X161948761Y-97353523D01*
X161996380Y-97448761D01*
X161996380Y-97734476D01*
X161948761Y-97829714D01*
X161901142Y-97877333D01*
%TO.C,C2*%
X169521142Y-80430666D02*
X169568761Y-80478285D01*
X169616380Y-80621142D01*
X169616380Y-80716380D01*
X169568761Y-80859238D01*
X169473523Y-80954476D01*
X169378285Y-81002095D01*
X169187809Y-81049714D01*
X169044952Y-81049714D01*
X168854476Y-81002095D01*
X168759238Y-80954476D01*
X168664000Y-80859238D01*
X168616380Y-80716380D01*
X168616380Y-80621142D01*
X168664000Y-80478285D01*
X168711619Y-80430666D01*
X168711619Y-80049714D02*
X168664000Y-80002095D01*
X168616380Y-79906857D01*
X168616380Y-79668761D01*
X168664000Y-79573523D01*
X168711619Y-79525904D01*
X168806857Y-79478285D01*
X168902095Y-79478285D01*
X169044952Y-79525904D01*
X169616380Y-80097333D01*
X169616380Y-79478285D01*
%TO.C,R2*%
X164028380Y-98210666D02*
X163552190Y-98544000D01*
X164028380Y-98782095D02*
X163028380Y-98782095D01*
X163028380Y-98401142D01*
X163076000Y-98305904D01*
X163123619Y-98258285D01*
X163218857Y-98210666D01*
X163361714Y-98210666D01*
X163456952Y-98258285D01*
X163504571Y-98305904D01*
X163552190Y-98401142D01*
X163552190Y-98782095D01*
X163123619Y-97829714D02*
X163076000Y-97782095D01*
X163028380Y-97686857D01*
X163028380Y-97448761D01*
X163076000Y-97353523D01*
X163123619Y-97305904D01*
X163218857Y-97258285D01*
X163314095Y-97258285D01*
X163456952Y-97305904D01*
X164028380Y-97877333D01*
X164028380Y-97258285D01*
%TO.C,U1*%
X162458095Y-73692380D02*
X162458095Y-74501904D01*
X162505714Y-74597142D01*
X162553333Y-74644761D01*
X162648571Y-74692380D01*
X162839047Y-74692380D01*
X162934285Y-74644761D01*
X162981904Y-74597142D01*
X163029523Y-74501904D01*
X163029523Y-73692380D01*
X164029523Y-74692380D02*
X163458095Y-74692380D01*
X163743809Y-74692380D02*
X163743809Y-73692380D01*
X163648571Y-73835238D01*
X163553333Y-73930476D01*
X163458095Y-73978095D01*
D12*
%TO.C,C1*%
X160692220Y-84330000D02*
X160973380Y-84330000D01*
X160692220Y-83310000D02*
X160973380Y-83310000D01*
%TO.C,J1*%
X146812000Y-83036000D02*
X156972000Y-83036000D01*
X146812000Y-125476000D02*
X156972000Y-125476000D01*
X156972000Y-125476000D02*
X156972000Y-74676000D01*
X156972000Y-74676000D02*
X146812000Y-74676000D01*
X146812000Y-74676000D02*
X146812000Y-125476000D01*
%TO.C,J2*%
X170010000Y-125840000D02*
X179310000Y-125840000D01*
X179310000Y-125840000D02*
X179310000Y-82540000D01*
X179310000Y-82540000D02*
X170010000Y-82540000D01*
X170010000Y-82540000D02*
X170010000Y-125840000D01*
%TO.C,R1*%
X165085500Y-95741258D02*
X165085500Y-95266742D01*
X166130500Y-95741258D02*
X166130500Y-95266742D01*
%TO.C,R3*%
X161021500Y-95741258D02*
X161021500Y-95266742D01*
X162066500Y-95741258D02*
X162066500Y-95266742D01*
%TO.C,C2*%
X168654000Y-77583420D02*
X168654000Y-77864580D01*
X169674000Y-77583420D02*
X169674000Y-77864580D01*
%TO.C,R2*%
X163053500Y-95266742D02*
X163053500Y-95741258D01*
X164098500Y-95266742D02*
X164098500Y-95741258D01*
%TO.C,U1*%
X161370000Y-82150000D02*
X165130000Y-82150000D01*
X159120000Y-75330000D02*
X165130000Y-75330000D01*
X165130000Y-82150000D02*
X165130000Y-80890000D01*
X165130000Y-75330000D02*
X165130000Y-76590000D01*
%TD*%
M02*
