%TF.GenerationSoftware,KiCad,Pcbnew,(6.0.7)*%
%TF.CreationDate,2023-01-08T00:03:09+11:00*%
%TF.ProjectId,Xbox_ATX,58626f78-5f41-4545-982e-6b696361645f,rev?*%
%TF.SameCoordinates,Original*%
%TF.FileFunction,Copper,L1,Top*%
%TF.FilePolarity,Positive*%
%FSLAX46Y46*%
G04 Gerber Fmt 4.6, Leading zero omitted, Abs format (unit mm)*
G04 Created by KiCad (PCBNEW (6.0.7)) date 2023-01-08 00:03:09*
%MOMM*%
%LPD*%
G01*
G04 APERTURE LIST*
G04 Aperture macros list*
%AMRoundRect*
0 Rectangle with rounded corners*
0 $1 Rounding radius*
0 $2 $3 $4 $5 $6 $7 $8 $9 X,Y pos of 4 corners*
0 Add a 4 corners polygon primitive as box body*
4,1,4,$2,$3,$4,$5,$6,$7,$8,$9,$2,$3,0*
0 Add four circle primitives for the rounded corners*
1,1,$1+$1,$2,$3*
1,1,$1+$1,$4,$5*
1,1,$1+$1,$6,$7*
1,1,$1+$1,$8,$9*
0 Add four rect primitives between the rounded corners*
20,1,$1+$1,$2,$3,$4,$5,0*
20,1,$1+$1,$4,$5,$6,$7,0*
20,1,$1+$1,$6,$7,$8,$9,0*
20,1,$1+$1,$8,$9,$2,$3,0*%
G04 Aperture macros list end*
%TA.AperFunction,SMDPad,CuDef*%
%ADD10RoundRect,0.250000X-0.250000X-0.275000X0.250000X-0.275000X0.250000X0.275000X-0.250000X0.275000X0*%
%TD*%
%TA.AperFunction,ComponentPad*%
%ADD11C,2.700000*%
%TD*%
%TA.AperFunction,SMDPad,CuDef*%
%ADD12RoundRect,0.175000X-0.175000X0.625000X-0.175000X-0.625000X0.175000X-0.625000X0.175000X0.625000X0*%
%TD*%
%TA.AperFunction,SMDPad,CuDef*%
%ADD13RoundRect,0.225000X0.275000X-0.225000X0.275000X0.225000X-0.275000X0.225000X-0.275000X-0.225000X0*%
%TD*%
%TA.AperFunction,SMDPad,CuDef*%
%ADD14RoundRect,0.175000X0.175000X-0.625000X0.175000X0.625000X-0.175000X0.625000X-0.175000X-0.625000X0*%
%TD*%
%TA.AperFunction,SMDPad,CuDef*%
%ADD15RoundRect,0.250000X-0.275000X0.250000X-0.275000X-0.250000X0.275000X-0.250000X0.275000X0.250000X0*%
%TD*%
%TA.AperFunction,SMDPad,CuDef*%
%ADD16RoundRect,0.225000X-0.275000X0.225000X-0.275000X-0.225000X0.275000X-0.225000X0.275000X0.225000X0*%
%TD*%
%TA.AperFunction,SMDPad,CuDef*%
%ADD17R,2.000000X1.500000*%
%TD*%
%TA.AperFunction,SMDPad,CuDef*%
%ADD18R,2.000000X3.800000*%
%TD*%
%TA.AperFunction,ViaPad*%
%ADD19C,0.800000*%
%TD*%
%TA.AperFunction,Conductor*%
%ADD20C,0.500000*%
%TD*%
%TA.AperFunction,Conductor*%
%ADD21C,0.250000*%
%TD*%
%TA.AperFunction,Conductor*%
%ADD22C,0.750000*%
%TD*%
%TA.AperFunction,Conductor*%
%ADD23C,1.500000*%
%TD*%
G04 APERTURE END LIST*
D10*
%TO.P,C1,1*%
%TO.N,5VSB*%
X160057800Y-83820000D03*
%TO.P,C1,2*%
%TO.N,GND*%
X161607800Y-83820000D03*
%TD*%
D11*
%TO.P,J1,1,+3.3V*%
%TO.N,3.3v*%
X149352000Y-122936000D03*
%TO.P,J1,2,+3.3V*%
X149352000Y-118736000D03*
%TO.P,J1,3,GND*%
%TO.N,GND*%
X149352000Y-114536000D03*
%TO.P,J1,4,+5V*%
%TO.N,5V*%
X149352000Y-110336000D03*
%TO.P,J1,5,GND*%
%TO.N,GND*%
X149352000Y-106136000D03*
%TO.P,J1,6,+5V*%
%TO.N,5V*%
X149352000Y-101936000D03*
%TO.P,J1,7,GND*%
%TO.N,GND*%
X149352000Y-97736000D03*
%TO.P,J1,8,PWR_OK*%
%TO.N,PWR_OK*%
X149352000Y-93536000D03*
%TO.P,J1,9,+5VSB*%
%TO.N,5VSB*%
X149352000Y-89336000D03*
%TO.P,J1,10,+12V*%
%TO.N,12V*%
X149352000Y-85136000D03*
%TO.P,J1,11,+12V*%
X149352000Y-80936000D03*
%TO.P,J1,12,+3.3V*%
%TO.N,3.3v*%
X149352000Y-76736000D03*
%TO.P,J1,13,+3.3V*%
X154852000Y-122936000D03*
%TO.P,J1,14,-12V*%
%TO.N,x*%
X154852000Y-118736000D03*
%TO.P,J1,15,GND*%
%TO.N,GND*%
X154852000Y-114536000D03*
%TO.P,J1,16,PS_ON#*%
%TO.N,PS_ON*%
X154852000Y-110336000D03*
%TO.P,J1,17,GND*%
%TO.N,GND*%
X154852000Y-106136000D03*
%TO.P,J1,18,GND*%
X154852000Y-101936000D03*
%TO.P,J1,19,GND*%
X154852000Y-97736000D03*
%TO.P,J1,20,NC*%
%TO.N,x*%
X154852000Y-93536000D03*
%TO.P,J1,21,+5V*%
%TO.N,5V*%
X154852000Y-89336000D03*
%TO.P,J1,22,+5V*%
X154852000Y-85136000D03*
%TO.P,J1,23,+5V*%
X154852000Y-80936000D03*
%TO.P,J1,24,GND*%
%TO.N,GND*%
X154852000Y-76736000D03*
%TD*%
%TO.P,J2,1,Pin_1*%
%TO.N,5V*%
X172010000Y-123040000D03*
%TO.P,J2,2,Pin_2*%
X172010000Y-118840000D03*
%TO.P,J2,3,Pin_3*%
X172010000Y-114640000D03*
%TO.P,J2,4,Pin_4*%
%TO.N,x*%
X172010000Y-110440000D03*
%TO.P,J2,5,Pin_5*%
%TO.N,GND*%
X172010000Y-106240000D03*
%TO.P,J2,6,Pin_6*%
%TO.N,x*%
X172010000Y-102040000D03*
%TO.P,J2,7,Pin_7*%
%TO.N,3.3v*%
X172010000Y-97840000D03*
%TO.P,J2,8,Pin_8*%
%TO.N,x*%
X172010000Y-93640000D03*
%TO.P,J2,9,Pin_9*%
%TO.N,GND*%
X172010000Y-89440000D03*
%TO.P,J2,10,Pin_10*%
%TO.N,Power_ON*%
X172010000Y-85240000D03*
%TO.P,J2,11,Pin_11*%
%TO.N,12V*%
X177510000Y-123040000D03*
%TO.P,J2,12,Pin_12*%
%TO.N,x*%
X177510000Y-118840000D03*
%TO.P,J2,13,Pin_13*%
%TO.N,5V*%
X177510000Y-114640000D03*
%TO.P,J2,14,Pin_14*%
%TO.N,GND*%
X177510000Y-110440000D03*
%TO.P,J2,15,Pin_15*%
%TO.N,3v3SB*%
X177510000Y-106240000D03*
%TO.P,J2,16,Pin_16*%
%TO.N,GND*%
X177510000Y-102040000D03*
%TO.P,J2,17,Pin_17*%
%TO.N,x*%
X177510000Y-97840000D03*
%TO.P,J2,18,Pin_18*%
%TO.N,3.3v*%
X177510000Y-93640000D03*
%TO.P,J2,19,Pin_19*%
%TO.N,GND*%
X177510000Y-89440000D03*
%TO.P,J2,20,Pin_20*%
%TO.N,Power_OK*%
X177510000Y-85240000D03*
%TD*%
D12*
%TO.P,Q1,1,B*%
%TO.N,Net-(Q1-Pad1)*%
X163510000Y-103329500D03*
%TO.P,Q1,2,E*%
%TO.N,GND*%
X161610000Y-103329500D03*
%TO.P,Q1,3,C*%
%TO.N,PS_ON*%
X162560000Y-105204500D03*
%TD*%
D13*
%TO.P,R1,1*%
%TO.N,Net-(Q1-Pad1)*%
X165608000Y-96329000D03*
%TO.P,R1,2*%
%TO.N,Power_OK*%
X165608000Y-94679000D03*
%TD*%
D14*
%TO.P,Q2,1,B*%
%TO.N,Net-(R3-Pad2)*%
X161610000Y-92045000D03*
%TO.P,Q2,2,E*%
%TO.N,Power_ON*%
X163510000Y-92045000D03*
%TO.P,Q2,3,C*%
%TO.N,3v3SB*%
X162560000Y-90170000D03*
%TD*%
D13*
%TO.P,R3,1*%
%TO.N,PWR_OK*%
X161544000Y-96329000D03*
%TO.P,R3,2*%
%TO.N,Net-(R3-Pad2)*%
X161544000Y-94679000D03*
%TD*%
D15*
%TO.P,C2,1*%
%TO.N,GND*%
X169164000Y-76949000D03*
%TO.P,C2,2*%
%TO.N,3v3SB*%
X169164000Y-78499000D03*
%TD*%
D16*
%TO.P,R2,1*%
%TO.N,Power_ON*%
X163576000Y-94679000D03*
%TO.P,R2,2*%
%TO.N,GND*%
X163576000Y-96329000D03*
%TD*%
D17*
%TO.P,U1,1,GND*%
%TO.N,GND*%
X160070000Y-76440000D03*
D18*
%TO.P,U1,2,VO*%
%TO.N,3v3SB*%
X166370000Y-78740000D03*
D17*
X160070000Y-78740000D03*
%TO.P,U1,3,VI*%
%TO.N,5VSB*%
X160070000Y-81040000D03*
%TD*%
D19*
%TO.N,5V*%
X162255200Y-115468400D03*
X163271200Y-115468400D03*
X161290000Y-113741200D03*
X163271200Y-113741200D03*
X163271200Y-114604800D03*
X161239200Y-114604800D03*
X162255200Y-114604800D03*
X162255200Y-113741200D03*
X161239200Y-115468400D03*
%TO.N,3v3SB*%
X173939200Y-78892400D03*
X175666400Y-77978000D03*
X174802800Y-77978000D03*
X175666400Y-78892400D03*
X173939200Y-77978000D03*
X174802800Y-78892400D03*
%TD*%
D20*
%TO.N,3v3SB*%
X162560000Y-89154000D02*
X162560000Y-90170000D01*
X166370000Y-85344000D02*
X162560000Y-89154000D01*
X166370000Y-78486000D02*
X166370000Y-85344000D01*
D21*
%TO.N,Net-(Q1-Pad1)*%
X165608000Y-98552000D02*
X165608000Y-96329000D01*
X163510000Y-100650000D02*
X165608000Y-98552000D01*
X163510000Y-103329500D02*
X163510000Y-100650000D01*
D20*
%TO.N,Power_ON*%
X163510000Y-94745000D02*
X163510000Y-92377500D01*
D21*
X172010000Y-85240000D02*
X170647500Y-85240000D01*
D20*
X163510000Y-91506000D02*
X163510000Y-92377500D01*
X170647500Y-85240000D02*
X169776000Y-85240000D01*
X169776000Y-85240000D02*
X163510000Y-91506000D01*
%TO.N,Power_OK*%
X170053000Y-87376000D02*
X165608000Y-91821000D01*
X176784000Y-87376000D02*
X170053000Y-87376000D01*
X177510000Y-85344000D02*
X177510000Y-86650000D01*
X165608000Y-91821000D02*
X165608000Y-94679000D01*
X177510000Y-86650000D02*
X176784000Y-87376000D01*
D21*
X177510000Y-85344000D02*
X177510000Y-85240000D01*
D20*
%TO.N,PWR_OK*%
X151447000Y-95631000D02*
X157657800Y-95631000D01*
X149352000Y-93536000D02*
X151447000Y-95631000D01*
X157657800Y-95631000D02*
X158355800Y-96329000D01*
X158355800Y-96329000D02*
X161544000Y-96329000D01*
%TO.N,PS_ON*%
X158904000Y-110336000D02*
X162560000Y-106680000D01*
X154852000Y-110336000D02*
X158904000Y-110336000D01*
X162560000Y-106680000D02*
X162560000Y-105204500D01*
D21*
%TO.N,Net-(R3-Pad2)*%
X161610000Y-94613000D02*
X161544000Y-94679000D01*
D20*
X161610000Y-92045000D02*
X161610000Y-94613000D01*
D22*
%TO.N,5VSB*%
X151456000Y-91440000D02*
X149352000Y-89336000D01*
X155956000Y-91440000D02*
X160070000Y-87326000D01*
X160070000Y-84118000D02*
X160070000Y-81040000D01*
X155448000Y-91440000D02*
X151456000Y-91440000D01*
X155194000Y-91440000D02*
X155956000Y-91440000D01*
X160070000Y-87326000D02*
X160070000Y-83108000D01*
D23*
%TO.N,5V*%
X152146000Y-104730000D02*
X149352000Y-101936000D01*
X172010000Y-123040000D02*
X172010000Y-114640000D01*
X152146000Y-107542000D02*
X152146000Y-104730000D01*
X149352000Y-110336000D02*
X152146000Y-107542000D01*
X154852000Y-80936000D02*
X154852000Y-89336000D01*
X177510000Y-114640000D02*
X172010000Y-114640000D01*
X162290400Y-114640000D02*
X172010000Y-114640000D01*
X162255200Y-114604800D02*
X162290400Y-114640000D01*
D22*
%TO.N,3v3SB*%
X175666400Y-77978000D02*
X175158400Y-78486000D01*
X175158400Y-78486000D02*
X166370000Y-78486000D01*
D23*
%TO.N,3.3v*%
X173310000Y-97840000D02*
X172010000Y-97840000D01*
X177510000Y-93640000D02*
X173310000Y-97840000D01*
X149352000Y-122936000D02*
X149352000Y-118736000D01*
X154852000Y-122936000D02*
X149352000Y-122936000D01*
%TO.N,12V*%
X149352000Y-80936000D02*
X149352000Y-85136000D01*
%TD*%
%TA.AperFunction,Conductor*%
%TO.N,5V*%
G36*
X163721321Y-113304002D02*
G01*
X163767814Y-113357658D01*
X163779200Y-113410000D01*
X163779200Y-115799600D01*
X163759198Y-115867721D01*
X163705542Y-115914214D01*
X163653200Y-115925600D01*
X160908000Y-115925600D01*
X160839879Y-115905598D01*
X160793386Y-115851942D01*
X160782000Y-115799600D01*
X160782000Y-113410000D01*
X160802002Y-113341879D01*
X160855658Y-113295386D01*
X160908000Y-113284000D01*
X163653200Y-113284000D01*
X163721321Y-113304002D01*
G37*
%TD.AperFunction*%
%TD*%
%TA.AperFunction,Conductor*%
%TO.N,GND*%
G36*
X179773621Y-73172502D02*
G01*
X179820114Y-73226158D01*
X179831500Y-73278500D01*
X179831500Y-126238500D01*
X179811498Y-126306621D01*
X179757842Y-126353114D01*
X179705500Y-126364500D01*
X145922500Y-126364500D01*
X145854379Y-126344498D01*
X145807886Y-126290842D01*
X145796500Y-126238500D01*
X145796500Y-122877474D01*
X147489672Y-122877474D01*
X147500005Y-123140462D01*
X147547290Y-123399371D01*
X147630584Y-123649034D01*
X147632577Y-123653022D01*
X147709950Y-123807869D01*
X147748225Y-123884470D01*
X147750754Y-123888129D01*
X147820104Y-123988470D01*
X147897865Y-124100982D01*
X148076520Y-124294249D01*
X148280623Y-124460415D01*
X148284431Y-124462708D01*
X148284433Y-124462709D01*
X148502288Y-124593868D01*
X148502292Y-124593870D01*
X148506104Y-124596165D01*
X148642026Y-124653721D01*
X148744359Y-124697054D01*
X148744364Y-124697056D01*
X148748462Y-124698791D01*
X148752760Y-124699930D01*
X148752764Y-124699932D01*
X148875662Y-124732518D01*
X149002862Y-124766244D01*
X149264229Y-124797179D01*
X149527347Y-124790978D01*
X149531745Y-124790246D01*
X149782576Y-124748496D01*
X149782580Y-124748495D01*
X149786966Y-124747765D01*
X149791207Y-124746424D01*
X149791210Y-124746423D01*
X150033661Y-124669746D01*
X150033663Y-124669745D01*
X150037907Y-124668403D01*
X150041918Y-124666477D01*
X150041923Y-124666475D01*
X150271143Y-124556405D01*
X150271144Y-124556404D01*
X150275162Y-124554475D01*
X150385187Y-124480958D01*
X150490289Y-124410732D01*
X150490293Y-124410729D01*
X150493997Y-124408254D01*
X150497314Y-124405283D01*
X150497318Y-124405280D01*
X150686730Y-124235628D01*
X150690047Y-124232657D01*
X150690331Y-124232319D01*
X150751226Y-124197815D01*
X150779940Y-124194500D01*
X153429199Y-124194500D01*
X153497320Y-124214502D01*
X153521724Y-124234971D01*
X153576520Y-124294249D01*
X153780623Y-124460415D01*
X153784431Y-124462708D01*
X153784433Y-124462709D01*
X154002288Y-124593868D01*
X154002292Y-124593870D01*
X154006104Y-124596165D01*
X154142026Y-124653721D01*
X154244359Y-124697054D01*
X154244364Y-124697056D01*
X154248462Y-124698791D01*
X154252760Y-124699930D01*
X154252764Y-124699932D01*
X154375662Y-124732518D01*
X154502862Y-124766244D01*
X154764229Y-124797179D01*
X155027347Y-124790978D01*
X155031745Y-124790246D01*
X155282576Y-124748496D01*
X155282580Y-124748495D01*
X155286966Y-124747765D01*
X155291207Y-124746424D01*
X155291210Y-124746423D01*
X155533661Y-124669746D01*
X155533663Y-124669745D01*
X155537907Y-124668403D01*
X155541918Y-124666477D01*
X155541923Y-124666475D01*
X155771143Y-124556405D01*
X155771144Y-124556404D01*
X155775162Y-124554475D01*
X155885187Y-124480958D01*
X155990289Y-124410732D01*
X155990293Y-124410729D01*
X155993997Y-124408254D01*
X155997314Y-124405283D01*
X155997318Y-124405280D01*
X156186729Y-124235629D01*
X156186730Y-124235628D01*
X156190047Y-124232657D01*
X156359398Y-124031189D01*
X156383759Y-123992129D01*
X156496320Y-123811643D01*
X156498674Y-123807869D01*
X156557318Y-123675219D01*
X156603295Y-123571219D01*
X156605093Y-123567152D01*
X156676534Y-123313843D01*
X156685853Y-123244462D01*
X156711143Y-123056176D01*
X156711144Y-123056168D01*
X156711570Y-123052994D01*
X156715247Y-122936000D01*
X156696659Y-122673466D01*
X156685167Y-122620085D01*
X156642201Y-122420523D01*
X156641264Y-122416171D01*
X156622218Y-122364543D01*
X156551710Y-122173424D01*
X156550169Y-122169247D01*
X156456988Y-121996552D01*
X156427304Y-121941538D01*
X156425191Y-121937622D01*
X156268824Y-121725918D01*
X156249088Y-121705869D01*
X156146593Y-121601752D01*
X156084187Y-121538358D01*
X156080647Y-121535657D01*
X156080641Y-121535651D01*
X155878506Y-121381386D01*
X155878502Y-121381383D01*
X155874965Y-121378684D01*
X155645332Y-121250084D01*
X155399870Y-121155122D01*
X155395545Y-121154119D01*
X155395540Y-121154118D01*
X155254794Y-121121495D01*
X155143476Y-121095693D01*
X154881267Y-121072983D01*
X154876832Y-121073227D01*
X154876828Y-121073227D01*
X154622916Y-121087200D01*
X154622909Y-121087201D01*
X154618473Y-121087445D01*
X154490369Y-121112927D01*
X154364711Y-121137921D01*
X154364706Y-121137922D01*
X154360339Y-121138791D01*
X154356136Y-121140267D01*
X154116223Y-121224518D01*
X154116220Y-121224519D01*
X154112015Y-121225996D01*
X154108062Y-121228049D01*
X154108056Y-121228052D01*
X154048245Y-121259122D01*
X153878456Y-121347321D01*
X153874841Y-121349904D01*
X153874835Y-121349908D01*
X153771585Y-121423692D01*
X153664322Y-121500344D01*
X153661095Y-121503422D01*
X153661093Y-121503424D01*
X153515125Y-121642670D01*
X153452029Y-121675217D01*
X153428154Y-121677500D01*
X150773932Y-121677500D01*
X150705811Y-121657498D01*
X150684144Y-121639897D01*
X150646707Y-121601868D01*
X150613173Y-121539292D01*
X150610500Y-121513476D01*
X150610500Y-120160202D01*
X150630502Y-120092081D01*
X150652435Y-120066345D01*
X150686729Y-120035629D01*
X150686730Y-120035628D01*
X150690047Y-120032657D01*
X150859398Y-119831189D01*
X150883759Y-119792129D01*
X150996320Y-119611643D01*
X150998674Y-119607869D01*
X151057318Y-119475219D01*
X151103295Y-119371219D01*
X151105093Y-119367152D01*
X151176534Y-119113843D01*
X151185853Y-119044462D01*
X151211143Y-118856176D01*
X151211144Y-118856168D01*
X151211570Y-118852994D01*
X151215247Y-118736000D01*
X151211103Y-118677474D01*
X152989672Y-118677474D01*
X153000005Y-118940462D01*
X153047290Y-119199371D01*
X153130584Y-119449034D01*
X153132577Y-119453022D01*
X153209950Y-119607869D01*
X153248225Y-119684470D01*
X153250754Y-119688129D01*
X153320104Y-119788470D01*
X153397865Y-119900982D01*
X153576520Y-120094249D01*
X153780623Y-120260415D01*
X153784431Y-120262708D01*
X153784433Y-120262709D01*
X154002288Y-120393868D01*
X154002292Y-120393870D01*
X154006104Y-120396165D01*
X154142026Y-120453721D01*
X154244359Y-120497054D01*
X154244364Y-120497056D01*
X154248462Y-120498791D01*
X154252760Y-120499930D01*
X154252764Y-120499932D01*
X154375662Y-120532517D01*
X154502862Y-120566244D01*
X154764229Y-120597179D01*
X155027347Y-120590978D01*
X155031745Y-120590246D01*
X155282576Y-120548496D01*
X155282580Y-120548495D01*
X155286966Y-120547765D01*
X155291207Y-120546424D01*
X155291210Y-120546423D01*
X155533661Y-120469746D01*
X155533663Y-120469745D01*
X155537907Y-120468403D01*
X155541918Y-120466477D01*
X155541923Y-120466475D01*
X155771143Y-120356405D01*
X155771144Y-120356404D01*
X155775162Y-120354475D01*
X155910265Y-120264202D01*
X155990289Y-120210732D01*
X155990293Y-120210729D01*
X155993997Y-120208254D01*
X155997314Y-120205283D01*
X155997318Y-120205280D01*
X156186729Y-120035629D01*
X156186730Y-120035628D01*
X156190047Y-120032657D01*
X156359398Y-119831189D01*
X156383759Y-119792129D01*
X156496320Y-119611643D01*
X156498674Y-119607869D01*
X156557318Y-119475219D01*
X156603295Y-119371219D01*
X156605093Y-119367152D01*
X156676534Y-119113843D01*
X156685853Y-119044462D01*
X156711143Y-118856176D01*
X156711144Y-118856168D01*
X156711570Y-118852994D01*
X156715247Y-118736000D01*
X156696659Y-118473466D01*
X156685167Y-118420085D01*
X156642201Y-118220523D01*
X156641264Y-118216171D01*
X156622218Y-118164543D01*
X156551710Y-117973424D01*
X156550169Y-117969247D01*
X156456988Y-117796552D01*
X156427304Y-117741538D01*
X156425191Y-117737622D01*
X156268824Y-117525918D01*
X156249088Y-117505869D01*
X156087318Y-117341539D01*
X156084187Y-117338358D01*
X156080647Y-117335657D01*
X156080641Y-117335651D01*
X155878506Y-117181386D01*
X155878502Y-117181383D01*
X155874965Y-117178684D01*
X155645332Y-117050084D01*
X155399870Y-116955122D01*
X155395545Y-116954119D01*
X155395540Y-116954118D01*
X155254794Y-116921495D01*
X155143476Y-116895693D01*
X154881267Y-116872983D01*
X154876832Y-116873227D01*
X154876828Y-116873227D01*
X154622916Y-116887200D01*
X154622909Y-116887201D01*
X154618473Y-116887445D01*
X154490369Y-116912927D01*
X154364711Y-116937921D01*
X154364706Y-116937922D01*
X154360339Y-116938791D01*
X154356136Y-116940267D01*
X154116223Y-117024518D01*
X154116220Y-117024519D01*
X154112015Y-117025996D01*
X154108062Y-117028049D01*
X154108056Y-117028052D01*
X154048245Y-117059122D01*
X153878456Y-117147321D01*
X153874841Y-117149904D01*
X153874835Y-117149908D01*
X153771585Y-117223692D01*
X153664322Y-117300344D01*
X153661095Y-117303422D01*
X153661093Y-117303424D01*
X153484479Y-117471905D01*
X153473885Y-117482011D01*
X153310945Y-117688700D01*
X153282529Y-117737622D01*
X153180987Y-117912438D01*
X153180984Y-117912444D01*
X153178753Y-117916285D01*
X153079947Y-118160225D01*
X153078876Y-118164538D01*
X153078874Y-118164543D01*
X153041255Y-118315990D01*
X153016498Y-118415654D01*
X152989672Y-118677474D01*
X151211103Y-118677474D01*
X151196659Y-118473466D01*
X151185167Y-118420085D01*
X151142201Y-118220523D01*
X151141264Y-118216171D01*
X151122218Y-118164543D01*
X151051710Y-117973424D01*
X151050169Y-117969247D01*
X150956988Y-117796552D01*
X150927304Y-117741538D01*
X150925191Y-117737622D01*
X150768824Y-117525918D01*
X150749088Y-117505869D01*
X150587318Y-117341539D01*
X150584187Y-117338358D01*
X150580647Y-117335657D01*
X150580641Y-117335651D01*
X150378506Y-117181386D01*
X150378502Y-117181383D01*
X150374965Y-117178684D01*
X150145332Y-117050084D01*
X149899870Y-116955122D01*
X149895545Y-116954119D01*
X149895540Y-116954118D01*
X149754794Y-116921495D01*
X149643476Y-116895693D01*
X149381267Y-116872983D01*
X149376832Y-116873227D01*
X149376828Y-116873227D01*
X149122916Y-116887200D01*
X149122909Y-116887201D01*
X149118473Y-116887445D01*
X148990369Y-116912927D01*
X148864711Y-116937921D01*
X148864706Y-116937922D01*
X148860339Y-116938791D01*
X148856136Y-116940267D01*
X148616223Y-117024518D01*
X148616220Y-117024519D01*
X148612015Y-117025996D01*
X148608062Y-117028049D01*
X148608056Y-117028052D01*
X148548245Y-117059122D01*
X148378456Y-117147321D01*
X148374841Y-117149904D01*
X148374835Y-117149908D01*
X148271585Y-117223692D01*
X148164322Y-117300344D01*
X148161095Y-117303422D01*
X148161093Y-117303424D01*
X147984479Y-117471905D01*
X147973885Y-117482011D01*
X147810945Y-117688700D01*
X147782529Y-117737622D01*
X147680987Y-117912438D01*
X147680984Y-117912444D01*
X147678753Y-117916285D01*
X147579947Y-118160225D01*
X147578876Y-118164538D01*
X147578874Y-118164543D01*
X147541255Y-118315990D01*
X147516498Y-118415654D01*
X147489672Y-118677474D01*
X147500005Y-118940462D01*
X147547290Y-119199371D01*
X147630584Y-119449034D01*
X147632577Y-119453022D01*
X147709950Y-119607869D01*
X147748225Y-119684470D01*
X147750754Y-119688129D01*
X147820104Y-119788470D01*
X147897865Y-119900982D01*
X148016431Y-120029245D01*
X148060024Y-120076404D01*
X148091577Y-120140004D01*
X148093500Y-120161933D01*
X148093500Y-121513966D01*
X148073498Y-121582087D01*
X148054474Y-121605134D01*
X147973885Y-121682011D01*
X147810945Y-121888700D01*
X147782529Y-121937622D01*
X147680987Y-122112438D01*
X147680984Y-122112444D01*
X147678753Y-122116285D01*
X147579947Y-122360225D01*
X147578876Y-122364538D01*
X147578874Y-122364543D01*
X147541255Y-122515990D01*
X147516498Y-122615654D01*
X147489672Y-122877474D01*
X145796500Y-122877474D01*
X145796500Y-116018263D01*
X148234904Y-116018263D01*
X148242294Y-116028566D01*
X148277455Y-116057192D01*
X148284731Y-116062305D01*
X148502514Y-116193421D01*
X148510428Y-116197454D01*
X148744523Y-116296581D01*
X148752928Y-116299458D01*
X148998650Y-116364610D01*
X149007382Y-116366276D01*
X149259835Y-116396155D01*
X149268703Y-116396573D01*
X149522843Y-116390584D01*
X149531698Y-116389747D01*
X149782459Y-116348009D01*
X149791093Y-116345936D01*
X150033477Y-116269280D01*
X150041739Y-116266009D01*
X150270895Y-116155970D01*
X150278619Y-116151564D01*
X150461218Y-116029556D01*
X150469506Y-116019638D01*
X150468802Y-116018263D01*
X153734904Y-116018263D01*
X153742294Y-116028566D01*
X153777455Y-116057192D01*
X153784731Y-116062305D01*
X154002514Y-116193421D01*
X154010428Y-116197454D01*
X154244523Y-116296581D01*
X154252928Y-116299458D01*
X154498650Y-116364610D01*
X154507382Y-116366276D01*
X154759835Y-116396155D01*
X154768703Y-116396573D01*
X155022843Y-116390584D01*
X155031698Y-116389747D01*
X155282459Y-116348009D01*
X155291093Y-116345936D01*
X155533477Y-116269280D01*
X155541739Y-116266009D01*
X155770895Y-116155970D01*
X155778619Y-116151564D01*
X155961218Y-116029556D01*
X155969506Y-116019638D01*
X155962249Y-116005459D01*
X155756390Y-115799600D01*
X160268500Y-115799600D01*
X160268860Y-115802946D01*
X160268860Y-115802951D01*
X160279489Y-115901815D01*
X160280234Y-115908749D01*
X160280952Y-115912049D01*
X160280952Y-115912050D01*
X160287961Y-115944269D01*
X160291620Y-115961091D01*
X160326290Y-116065257D01*
X160405308Y-116188212D01*
X160408250Y-116191607D01*
X160408252Y-116191610D01*
X160413316Y-116197454D01*
X160451801Y-116241868D01*
X160455194Y-116244808D01*
X160555450Y-116331681D01*
X160555453Y-116331683D01*
X160562261Y-116337582D01*
X160695210Y-116398298D01*
X160710512Y-116402791D01*
X160759008Y-116417031D01*
X160759012Y-116417032D01*
X160763331Y-116418300D01*
X160767780Y-116418940D01*
X160767786Y-116418941D01*
X160903553Y-116438461D01*
X160903558Y-116438461D01*
X160908000Y-116439100D01*
X163653200Y-116439100D01*
X163656546Y-116438740D01*
X163656551Y-116438740D01*
X163758985Y-116427728D01*
X163758992Y-116427727D01*
X163762349Y-116427366D01*
X163765650Y-116426648D01*
X163811410Y-116416694D01*
X163811415Y-116416693D01*
X163814691Y-116415980D01*
X163918857Y-116381310D01*
X164041812Y-116302292D01*
X164095468Y-116255799D01*
X164110479Y-116238475D01*
X164185281Y-116152150D01*
X164185283Y-116152147D01*
X164191182Y-116145339D01*
X164251898Y-116012390D01*
X164258766Y-115989000D01*
X164297147Y-115929277D01*
X164361728Y-115899783D01*
X164379661Y-115898500D01*
X170587199Y-115898500D01*
X170655320Y-115918502D01*
X170679724Y-115938971D01*
X170718025Y-115980405D01*
X170749577Y-116044005D01*
X170751500Y-116065934D01*
X170751500Y-117417966D01*
X170731498Y-117486087D01*
X170712474Y-117509134D01*
X170631885Y-117586011D01*
X170468945Y-117792700D01*
X170440529Y-117841622D01*
X170338987Y-118016438D01*
X170338984Y-118016444D01*
X170336753Y-118020285D01*
X170335083Y-118024408D01*
X170281743Y-118156099D01*
X170237947Y-118264225D01*
X170174498Y-118519654D01*
X170147672Y-118781474D01*
X170158005Y-119044462D01*
X170205290Y-119303371D01*
X170288584Y-119553034D01*
X170290577Y-119557022D01*
X170367950Y-119711869D01*
X170406225Y-119788470D01*
X170555865Y-120004982D01*
X170647309Y-120103905D01*
X170718024Y-120180404D01*
X170749577Y-120244004D01*
X170751500Y-120265933D01*
X170751500Y-121617966D01*
X170731498Y-121686087D01*
X170712474Y-121709134D01*
X170631885Y-121786011D01*
X170468945Y-121992700D01*
X170440529Y-122041622D01*
X170338987Y-122216438D01*
X170338984Y-122216444D01*
X170336753Y-122220285D01*
X170335083Y-122224408D01*
X170281743Y-122356099D01*
X170237947Y-122464225D01*
X170174498Y-122719654D01*
X170147672Y-122981474D01*
X170158005Y-123244462D01*
X170205290Y-123503371D01*
X170288584Y-123753034D01*
X170290577Y-123757022D01*
X170367950Y-123911869D01*
X170406225Y-123988470D01*
X170408754Y-123992129D01*
X170550912Y-124197815D01*
X170555865Y-124204982D01*
X170734520Y-124398249D01*
X170938623Y-124564415D01*
X170942431Y-124566708D01*
X170942433Y-124566709D01*
X171160288Y-124697868D01*
X171160292Y-124697870D01*
X171164104Y-124700165D01*
X171276515Y-124747765D01*
X171402359Y-124801054D01*
X171402364Y-124801056D01*
X171406462Y-124802791D01*
X171410760Y-124803930D01*
X171410764Y-124803932D01*
X171533662Y-124836517D01*
X171660862Y-124870244D01*
X171922229Y-124901179D01*
X172185347Y-124894978D01*
X172189745Y-124894246D01*
X172440576Y-124852496D01*
X172440580Y-124852495D01*
X172444966Y-124851765D01*
X172449207Y-124850424D01*
X172449210Y-124850423D01*
X172691661Y-124773746D01*
X172691663Y-124773745D01*
X172695907Y-124772403D01*
X172699918Y-124770477D01*
X172699923Y-124770475D01*
X172929143Y-124660405D01*
X172929144Y-124660404D01*
X172933162Y-124658475D01*
X173043187Y-124584958D01*
X173148289Y-124514732D01*
X173148293Y-124514729D01*
X173151997Y-124512254D01*
X173155314Y-124509283D01*
X173155318Y-124509280D01*
X173344729Y-124339629D01*
X173344730Y-124339628D01*
X173348047Y-124336657D01*
X173517398Y-124135189D01*
X173536689Y-124104258D01*
X173654320Y-123915643D01*
X173656674Y-123911869D01*
X173667170Y-123888129D01*
X173761295Y-123675219D01*
X173763093Y-123671152D01*
X173834534Y-123417843D01*
X173849095Y-123309435D01*
X173869143Y-123160176D01*
X173869144Y-123160168D01*
X173869570Y-123156994D01*
X173870090Y-123140462D01*
X173873146Y-123043222D01*
X173873146Y-123043217D01*
X173873247Y-123040000D01*
X173869103Y-122981474D01*
X175647672Y-122981474D01*
X175658005Y-123244462D01*
X175705290Y-123503371D01*
X175788584Y-123753034D01*
X175790577Y-123757022D01*
X175867950Y-123911869D01*
X175906225Y-123988470D01*
X175908754Y-123992129D01*
X176050912Y-124197815D01*
X176055865Y-124204982D01*
X176234520Y-124398249D01*
X176438623Y-124564415D01*
X176442431Y-124566708D01*
X176442433Y-124566709D01*
X176660288Y-124697868D01*
X176660292Y-124697870D01*
X176664104Y-124700165D01*
X176776515Y-124747765D01*
X176902359Y-124801054D01*
X176902364Y-124801056D01*
X176906462Y-124802791D01*
X176910760Y-124803930D01*
X176910764Y-124803932D01*
X177033662Y-124836517D01*
X177160862Y-124870244D01*
X177422229Y-124901179D01*
X177685347Y-124894978D01*
X177689745Y-124894246D01*
X177940576Y-124852496D01*
X177940580Y-124852495D01*
X177944966Y-124851765D01*
X177949207Y-124850424D01*
X177949210Y-124850423D01*
X178191661Y-124773746D01*
X178191663Y-124773745D01*
X178195907Y-124772403D01*
X178199918Y-124770477D01*
X178199923Y-124770475D01*
X178429143Y-124660405D01*
X178429144Y-124660404D01*
X178433162Y-124658475D01*
X178543187Y-124584958D01*
X178648289Y-124514732D01*
X178648293Y-124514729D01*
X178651997Y-124512254D01*
X178655314Y-124509283D01*
X178655318Y-124509280D01*
X178844729Y-124339629D01*
X178844730Y-124339628D01*
X178848047Y-124336657D01*
X179017398Y-124135189D01*
X179036689Y-124104258D01*
X179154320Y-123915643D01*
X179156674Y-123911869D01*
X179167170Y-123888129D01*
X179261295Y-123675219D01*
X179263093Y-123671152D01*
X179334534Y-123417843D01*
X179349095Y-123309435D01*
X179369143Y-123160176D01*
X179369144Y-123160168D01*
X179369570Y-123156994D01*
X179370090Y-123140462D01*
X179373146Y-123043222D01*
X179373146Y-123043217D01*
X179373247Y-123040000D01*
X179354659Y-122777466D01*
X179343167Y-122724085D01*
X179300201Y-122524523D01*
X179299264Y-122520171D01*
X179280218Y-122468543D01*
X179209710Y-122277424D01*
X179208169Y-122273247D01*
X179177517Y-122216438D01*
X179085304Y-122045538D01*
X179083191Y-122041622D01*
X178926824Y-121829918D01*
X178742187Y-121642358D01*
X178738647Y-121639657D01*
X178738641Y-121639651D01*
X178536506Y-121485386D01*
X178536502Y-121485383D01*
X178532965Y-121482684D01*
X178303332Y-121354084D01*
X178057870Y-121259122D01*
X178053545Y-121258119D01*
X178053540Y-121258118D01*
X177908578Y-121224518D01*
X177801476Y-121199693D01*
X177539267Y-121176983D01*
X177534832Y-121177227D01*
X177534828Y-121177227D01*
X177280916Y-121191200D01*
X177280909Y-121191201D01*
X177276473Y-121191445D01*
X177148369Y-121216927D01*
X177022711Y-121241921D01*
X177022706Y-121241922D01*
X177018339Y-121242791D01*
X177014136Y-121244267D01*
X176774223Y-121328518D01*
X176774220Y-121328519D01*
X176770015Y-121329996D01*
X176766062Y-121332049D01*
X176766056Y-121332052D01*
X176634615Y-121400331D01*
X176536456Y-121451321D01*
X176532841Y-121453904D01*
X176532835Y-121453908D01*
X176471482Y-121497752D01*
X176322322Y-121604344D01*
X176319095Y-121607422D01*
X176319093Y-121607424D01*
X176191114Y-121729510D01*
X176131885Y-121786011D01*
X175968945Y-121992700D01*
X175940529Y-122041622D01*
X175838987Y-122216438D01*
X175838984Y-122216444D01*
X175836753Y-122220285D01*
X175835083Y-122224408D01*
X175781743Y-122356099D01*
X175737947Y-122464225D01*
X175674498Y-122719654D01*
X175647672Y-122981474D01*
X173869103Y-122981474D01*
X173854659Y-122777466D01*
X173843167Y-122724085D01*
X173800201Y-122524523D01*
X173799264Y-122520171D01*
X173780218Y-122468543D01*
X173709710Y-122277424D01*
X173708169Y-122273247D01*
X173677517Y-122216438D01*
X173585304Y-122045538D01*
X173583191Y-122041622D01*
X173426824Y-121829918D01*
X173324445Y-121725918D01*
X173304708Y-121705869D01*
X173271173Y-121643292D01*
X173268500Y-121617476D01*
X173268500Y-120264202D01*
X173288502Y-120196081D01*
X173310435Y-120170345D01*
X173344729Y-120139629D01*
X173344730Y-120139628D01*
X173348047Y-120136657D01*
X173517398Y-119935189D01*
X173536689Y-119904258D01*
X173654320Y-119715643D01*
X173656674Y-119711869D01*
X173667170Y-119688129D01*
X173761295Y-119475219D01*
X173763093Y-119471152D01*
X173834534Y-119217843D01*
X173849095Y-119109435D01*
X173869143Y-118960176D01*
X173869144Y-118960168D01*
X173869570Y-118956994D01*
X173870090Y-118940462D01*
X173873146Y-118843222D01*
X173873146Y-118843217D01*
X173873247Y-118840000D01*
X173869103Y-118781474D01*
X175647672Y-118781474D01*
X175658005Y-119044462D01*
X175705290Y-119303371D01*
X175788584Y-119553034D01*
X175790577Y-119557022D01*
X175867950Y-119711869D01*
X175906225Y-119788470D01*
X176055865Y-120004982D01*
X176234520Y-120198249D01*
X176438623Y-120364415D01*
X176442431Y-120366708D01*
X176442433Y-120366709D01*
X176660288Y-120497868D01*
X176660292Y-120497870D01*
X176664104Y-120500165D01*
X176776515Y-120547765D01*
X176902359Y-120601054D01*
X176902364Y-120601056D01*
X176906462Y-120602791D01*
X176910760Y-120603930D01*
X176910764Y-120603932D01*
X177033662Y-120636517D01*
X177160862Y-120670244D01*
X177422229Y-120701179D01*
X177685347Y-120694978D01*
X177689745Y-120694246D01*
X177940576Y-120652496D01*
X177940580Y-120652495D01*
X177944966Y-120651765D01*
X177949207Y-120650424D01*
X177949210Y-120650423D01*
X178191661Y-120573746D01*
X178191663Y-120573745D01*
X178195907Y-120572403D01*
X178199918Y-120570477D01*
X178199923Y-120570475D01*
X178429143Y-120460405D01*
X178429144Y-120460404D01*
X178433162Y-120458475D01*
X178543187Y-120384958D01*
X178648289Y-120314732D01*
X178648293Y-120314729D01*
X178651997Y-120312254D01*
X178655314Y-120309283D01*
X178655318Y-120309280D01*
X178844729Y-120139629D01*
X178844730Y-120139628D01*
X178848047Y-120136657D01*
X179017398Y-119935189D01*
X179036689Y-119904258D01*
X179154320Y-119715643D01*
X179156674Y-119711869D01*
X179167170Y-119688129D01*
X179261295Y-119475219D01*
X179263093Y-119471152D01*
X179334534Y-119217843D01*
X179349095Y-119109435D01*
X179369143Y-118960176D01*
X179369144Y-118960168D01*
X179369570Y-118956994D01*
X179370090Y-118940462D01*
X179373146Y-118843222D01*
X179373146Y-118843217D01*
X179373247Y-118840000D01*
X179354659Y-118577466D01*
X179343167Y-118524085D01*
X179300201Y-118324523D01*
X179299264Y-118320171D01*
X179280218Y-118268543D01*
X179209710Y-118077424D01*
X179208169Y-118073247D01*
X179177517Y-118016438D01*
X179085304Y-117845538D01*
X179083191Y-117841622D01*
X178926824Y-117629918D01*
X178742187Y-117442358D01*
X178738647Y-117439657D01*
X178738641Y-117439651D01*
X178536506Y-117285386D01*
X178536502Y-117285383D01*
X178532965Y-117282684D01*
X178303332Y-117154084D01*
X178057870Y-117059122D01*
X178053545Y-117058119D01*
X178053540Y-117058118D01*
X177908578Y-117024518D01*
X177801476Y-116999693D01*
X177539267Y-116976983D01*
X177534832Y-116977227D01*
X177534828Y-116977227D01*
X177280916Y-116991200D01*
X177280909Y-116991201D01*
X177276473Y-116991445D01*
X177148369Y-117016927D01*
X177022711Y-117041921D01*
X177022706Y-117041922D01*
X177018339Y-117042791D01*
X177014136Y-117044267D01*
X176774223Y-117128518D01*
X176774220Y-117128519D01*
X176770015Y-117129996D01*
X176766062Y-117132049D01*
X176766056Y-117132052D01*
X176634615Y-117200331D01*
X176536456Y-117251321D01*
X176532841Y-117253904D01*
X176532835Y-117253908D01*
X176471482Y-117297752D01*
X176322322Y-117404344D01*
X176319095Y-117407422D01*
X176319093Y-117407424D01*
X176191114Y-117529510D01*
X176131885Y-117586011D01*
X175968945Y-117792700D01*
X175940529Y-117841622D01*
X175838987Y-118016438D01*
X175838984Y-118016444D01*
X175836753Y-118020285D01*
X175835083Y-118024408D01*
X175781743Y-118156099D01*
X175737947Y-118264225D01*
X175674498Y-118519654D01*
X175647672Y-118781474D01*
X173869103Y-118781474D01*
X173854659Y-118577466D01*
X173843167Y-118524085D01*
X173800201Y-118324523D01*
X173799264Y-118320171D01*
X173780218Y-118268543D01*
X173709710Y-118077424D01*
X173708169Y-118073247D01*
X173677517Y-118016438D01*
X173585304Y-117845538D01*
X173583191Y-117841622D01*
X173426824Y-117629918D01*
X173324445Y-117525918D01*
X173304708Y-117505869D01*
X173271173Y-117443292D01*
X173268500Y-117417476D01*
X173268500Y-116064202D01*
X173288502Y-115996081D01*
X173310435Y-115970345D01*
X173344730Y-115939628D01*
X173348047Y-115936657D01*
X173348331Y-115936319D01*
X173409226Y-115901815D01*
X173437940Y-115898500D01*
X176087199Y-115898500D01*
X176155320Y-115918502D01*
X176179724Y-115938971D01*
X176200172Y-115961091D01*
X176234520Y-115998249D01*
X176438623Y-116164415D01*
X176442431Y-116166708D01*
X176442433Y-116166709D01*
X176660288Y-116297868D01*
X176660292Y-116297870D01*
X176664104Y-116300165D01*
X176772195Y-116345936D01*
X176902359Y-116401054D01*
X176902364Y-116401056D01*
X176906462Y-116402791D01*
X176910760Y-116403930D01*
X176910764Y-116403932D01*
X176996439Y-116426648D01*
X177160862Y-116470244D01*
X177422229Y-116501179D01*
X177685347Y-116494978D01*
X177689745Y-116494246D01*
X177940576Y-116452496D01*
X177940580Y-116452495D01*
X177944966Y-116451765D01*
X177949207Y-116450424D01*
X177949210Y-116450423D01*
X178191661Y-116373746D01*
X178191663Y-116373745D01*
X178195907Y-116372403D01*
X178199918Y-116370477D01*
X178199923Y-116370475D01*
X178429143Y-116260405D01*
X178429144Y-116260404D01*
X178433162Y-116258475D01*
X178543978Y-116184430D01*
X178648289Y-116114732D01*
X178648293Y-116114729D01*
X178651997Y-116112254D01*
X178655314Y-116109283D01*
X178655318Y-116109280D01*
X178844729Y-115939629D01*
X178844730Y-115939628D01*
X178848047Y-115936657D01*
X179017398Y-115735189D01*
X179074085Y-115644296D01*
X179154320Y-115515643D01*
X179156674Y-115511869D01*
X179170660Y-115480235D01*
X179261295Y-115275219D01*
X179263093Y-115271152D01*
X179334534Y-115017843D01*
X179347940Y-114918034D01*
X179369143Y-114760176D01*
X179369144Y-114760168D01*
X179369570Y-114756994D01*
X179373247Y-114640000D01*
X179366094Y-114538965D01*
X179354974Y-114381915D01*
X179354659Y-114377466D01*
X179320795Y-114220174D01*
X179300201Y-114124523D01*
X179299264Y-114120171D01*
X179262554Y-114020662D01*
X179209710Y-113877424D01*
X179208169Y-113873247D01*
X179083191Y-113641622D01*
X178926824Y-113429918D01*
X178923591Y-113426633D01*
X178781490Y-113282283D01*
X178742187Y-113242358D01*
X178738647Y-113239657D01*
X178738641Y-113239651D01*
X178536506Y-113085386D01*
X178536502Y-113085383D01*
X178532965Y-113082684D01*
X178303332Y-112954084D01*
X178057870Y-112859122D01*
X178053545Y-112858119D01*
X178053540Y-112858118D01*
X177910563Y-112824978D01*
X177801476Y-112799693D01*
X177539267Y-112776983D01*
X177534832Y-112777227D01*
X177534828Y-112777227D01*
X177280916Y-112791200D01*
X177280909Y-112791201D01*
X177276473Y-112791445D01*
X177183020Y-112810034D01*
X177022711Y-112841921D01*
X177022706Y-112841922D01*
X177018339Y-112842791D01*
X177014136Y-112844267D01*
X176774223Y-112928518D01*
X176774220Y-112928519D01*
X176770015Y-112929996D01*
X176766062Y-112932049D01*
X176766056Y-112932052D01*
X176679673Y-112976925D01*
X176536456Y-113051321D01*
X176532841Y-113053904D01*
X176532835Y-113053908D01*
X176429585Y-113127692D01*
X176322322Y-113204344D01*
X176319095Y-113207422D01*
X176319093Y-113207424D01*
X176173125Y-113346670D01*
X176110029Y-113379217D01*
X176086154Y-113381500D01*
X173431932Y-113381500D01*
X173363811Y-113361498D01*
X173342140Y-113343893D01*
X173306651Y-113307842D01*
X173242187Y-113242358D01*
X173238647Y-113239657D01*
X173238641Y-113239651D01*
X173036506Y-113085386D01*
X173036502Y-113085383D01*
X173032965Y-113082684D01*
X172803332Y-112954084D01*
X172557870Y-112859122D01*
X172553545Y-112858119D01*
X172553540Y-112858118D01*
X172410563Y-112824978D01*
X172301476Y-112799693D01*
X172039267Y-112776983D01*
X172034832Y-112777227D01*
X172034828Y-112777227D01*
X171780916Y-112791200D01*
X171780909Y-112791201D01*
X171776473Y-112791445D01*
X171683020Y-112810034D01*
X171522711Y-112841921D01*
X171522706Y-112841922D01*
X171518339Y-112842791D01*
X171514136Y-112844267D01*
X171274223Y-112928518D01*
X171274220Y-112928519D01*
X171270015Y-112929996D01*
X171266062Y-112932049D01*
X171266056Y-112932052D01*
X171179673Y-112976925D01*
X171036456Y-113051321D01*
X171032841Y-113053904D01*
X171032835Y-113053908D01*
X170929585Y-113127692D01*
X170822322Y-113204344D01*
X170819095Y-113207422D01*
X170819093Y-113207424D01*
X170673125Y-113346670D01*
X170610029Y-113379217D01*
X170586154Y-113381500D01*
X164400048Y-113381500D01*
X164331927Y-113361498D01*
X164285434Y-113307842D01*
X164276927Y-113282283D01*
X164270294Y-113251790D01*
X164270293Y-113251785D01*
X164269580Y-113248509D01*
X164234910Y-113144343D01*
X164155892Y-113021388D01*
X164109399Y-112967732D01*
X164100133Y-112959703D01*
X164005750Y-112877919D01*
X164005747Y-112877917D01*
X163998939Y-112872018D01*
X163865990Y-112811302D01*
X163842236Y-112804327D01*
X163802192Y-112792569D01*
X163802188Y-112792568D01*
X163797869Y-112791300D01*
X163793420Y-112790660D01*
X163793414Y-112790659D01*
X163657647Y-112771139D01*
X163657642Y-112771139D01*
X163653200Y-112770500D01*
X160908000Y-112770500D01*
X160904654Y-112770860D01*
X160904649Y-112770860D01*
X160802215Y-112781872D01*
X160802208Y-112781873D01*
X160798851Y-112782234D01*
X160795551Y-112782952D01*
X160795550Y-112782952D01*
X160749790Y-112792906D01*
X160749785Y-112792907D01*
X160746509Y-112793620D01*
X160642343Y-112828290D01*
X160519388Y-112907308D01*
X160515993Y-112910250D01*
X160515990Y-112910252D01*
X160490832Y-112932052D01*
X160465732Y-112953801D01*
X160462792Y-112957194D01*
X160375919Y-113057450D01*
X160375917Y-113057453D01*
X160370018Y-113064261D01*
X160309302Y-113197210D01*
X160289300Y-113265331D01*
X160288660Y-113269780D01*
X160288659Y-113269786D01*
X160269139Y-113405553D01*
X160268500Y-113410000D01*
X160268500Y-115799600D01*
X155756390Y-115799600D01*
X154864812Y-114908022D01*
X154850868Y-114900408D01*
X154849035Y-114900539D01*
X154842420Y-114904790D01*
X153742070Y-116005140D01*
X153734904Y-116018263D01*
X150468802Y-116018263D01*
X150462249Y-116005459D01*
X149364812Y-114908022D01*
X149350868Y-114900408D01*
X149349035Y-114900539D01*
X149342420Y-114904790D01*
X148242070Y-116005140D01*
X148234904Y-116018263D01*
X145796500Y-116018263D01*
X145796500Y-114481942D01*
X147490348Y-114481942D01*
X147500328Y-114735960D01*
X147501302Y-114744784D01*
X147546978Y-114994875D01*
X147549182Y-115003462D01*
X147629636Y-115244613D01*
X147633040Y-115252831D01*
X147746667Y-115480235D01*
X147751185Y-115487874D01*
X147859294Y-115644296D01*
X147869612Y-115652647D01*
X147883267Y-115645523D01*
X148979978Y-114548812D01*
X148986356Y-114537132D01*
X149716408Y-114537132D01*
X149716539Y-114538965D01*
X149720790Y-114545580D01*
X150822027Y-115646817D01*
X150835428Y-115654135D01*
X150845329Y-115647149D01*
X150856127Y-115634305D01*
X150861353Y-115627110D01*
X150995867Y-115411425D01*
X151000038Y-115403547D01*
X151102817Y-115171065D01*
X151105833Y-115162688D01*
X151174832Y-114918034D01*
X151176636Y-114909326D01*
X151210643Y-114656145D01*
X151211171Y-114649752D01*
X151214645Y-114539222D01*
X151214518Y-114532779D01*
X151210919Y-114481942D01*
X152990348Y-114481942D01*
X153000328Y-114735960D01*
X153001302Y-114744784D01*
X153046978Y-114994875D01*
X153049182Y-115003462D01*
X153129636Y-115244613D01*
X153133040Y-115252831D01*
X153246667Y-115480235D01*
X153251185Y-115487874D01*
X153359294Y-115644296D01*
X153369612Y-115652647D01*
X153383267Y-115645523D01*
X154479978Y-114548812D01*
X154486356Y-114537132D01*
X155216408Y-114537132D01*
X155216539Y-114538965D01*
X155220790Y-114545580D01*
X156322027Y-115646817D01*
X156335428Y-115654135D01*
X156345329Y-115647149D01*
X156356127Y-115634305D01*
X156361353Y-115627110D01*
X156495867Y-115411425D01*
X156500038Y-115403547D01*
X156602817Y-115171065D01*
X156605833Y-115162688D01*
X156674832Y-114918034D01*
X156676636Y-114909326D01*
X156710643Y-114656145D01*
X156711171Y-114649752D01*
X156714645Y-114539222D01*
X156714518Y-114532779D01*
X156696478Y-114277986D01*
X156695225Y-114269183D01*
X156641720Y-114020662D01*
X156639241Y-114012129D01*
X156551254Y-113773630D01*
X156547599Y-113765535D01*
X156426881Y-113541807D01*
X156422122Y-113534309D01*
X156344004Y-113428545D01*
X156332876Y-113420103D01*
X156320283Y-113426927D01*
X155224022Y-114523188D01*
X155216408Y-114537132D01*
X154486356Y-114537132D01*
X154487592Y-114534868D01*
X154487461Y-114533035D01*
X154483210Y-114526420D01*
X153383423Y-113426633D01*
X153370582Y-113419621D01*
X153359893Y-113427416D01*
X153314115Y-113485485D01*
X153309122Y-113492833D01*
X153181440Y-113712655D01*
X153177532Y-113720629D01*
X153082097Y-113956247D01*
X153079348Y-113964709D01*
X153018067Y-114211413D01*
X153016538Y-114220174D01*
X152990627Y-114473059D01*
X152990348Y-114481942D01*
X151210919Y-114481942D01*
X151196478Y-114277986D01*
X151195225Y-114269183D01*
X151141720Y-114020662D01*
X151139241Y-114012129D01*
X151051254Y-113773630D01*
X151047599Y-113765535D01*
X150926881Y-113541807D01*
X150922122Y-113534309D01*
X150844004Y-113428545D01*
X150832876Y-113420103D01*
X150820283Y-113426927D01*
X149724022Y-114523188D01*
X149716408Y-114537132D01*
X148986356Y-114537132D01*
X148987592Y-114534868D01*
X148987461Y-114533035D01*
X148983210Y-114526420D01*
X147883423Y-113426633D01*
X147870582Y-113419621D01*
X147859893Y-113427416D01*
X147814115Y-113485485D01*
X147809122Y-113492833D01*
X147681440Y-113712655D01*
X147677532Y-113720629D01*
X147582097Y-113956247D01*
X147579348Y-113964709D01*
X147518067Y-114211413D01*
X147516538Y-114220174D01*
X147490627Y-114473059D01*
X147490348Y-114481942D01*
X145796500Y-114481942D01*
X145796500Y-113054533D01*
X148235889Y-113054533D01*
X148242869Y-113067659D01*
X149339188Y-114163978D01*
X149353132Y-114171592D01*
X149354965Y-114171461D01*
X149361580Y-114167210D01*
X150461129Y-113067661D01*
X150467983Y-113055109D01*
X150467556Y-113054533D01*
X153735889Y-113054533D01*
X153742869Y-113067659D01*
X154839188Y-114163978D01*
X154853132Y-114171592D01*
X154854965Y-114171461D01*
X154861580Y-114167210D01*
X155961129Y-113067661D01*
X155967983Y-113055109D01*
X155959776Y-113044039D01*
X155878230Y-112981805D01*
X155870801Y-112976925D01*
X155649005Y-112852713D01*
X155640971Y-112848932D01*
X155403865Y-112757203D01*
X155395392Y-112754596D01*
X155147736Y-112697193D01*
X155138960Y-112695803D01*
X154885691Y-112673868D01*
X154876820Y-112673728D01*
X154622976Y-112687698D01*
X154614174Y-112688810D01*
X154364832Y-112738408D01*
X154356279Y-112740748D01*
X154116421Y-112824978D01*
X154108255Y-112828512D01*
X153882669Y-112945696D01*
X153875097Y-112950335D01*
X153744292Y-113043810D01*
X153735889Y-113054533D01*
X150467556Y-113054533D01*
X150459776Y-113044039D01*
X150378230Y-112981805D01*
X150370801Y-112976925D01*
X150149005Y-112852713D01*
X150140971Y-112848932D01*
X149903865Y-112757203D01*
X149895392Y-112754596D01*
X149647736Y-112697193D01*
X149638960Y-112695803D01*
X149385691Y-112673868D01*
X149376820Y-112673728D01*
X149122976Y-112687698D01*
X149114174Y-112688810D01*
X148864832Y-112738408D01*
X148856279Y-112740748D01*
X148616421Y-112824978D01*
X148608255Y-112828512D01*
X148382669Y-112945696D01*
X148375097Y-112950335D01*
X148244292Y-113043810D01*
X148235889Y-113054533D01*
X145796500Y-113054533D01*
X145796500Y-110277474D01*
X147489672Y-110277474D01*
X147500005Y-110540462D01*
X147547290Y-110799371D01*
X147551511Y-110812022D01*
X147625104Y-111032607D01*
X147630584Y-111049034D01*
X147655354Y-111098606D01*
X147709950Y-111207869D01*
X147748225Y-111284470D01*
X147764351Y-111307803D01*
X147820104Y-111388470D01*
X147897865Y-111500982D01*
X148076520Y-111694249D01*
X148280623Y-111860415D01*
X148284431Y-111862708D01*
X148284433Y-111862709D01*
X148502288Y-111993868D01*
X148502292Y-111993870D01*
X148506104Y-111996165D01*
X148642026Y-112053721D01*
X148744359Y-112097054D01*
X148744364Y-112097056D01*
X148748462Y-112098791D01*
X148752760Y-112099930D01*
X148752764Y-112099932D01*
X148875662Y-112132517D01*
X149002862Y-112166244D01*
X149264229Y-112197179D01*
X149527347Y-112190978D01*
X149531745Y-112190246D01*
X149782576Y-112148496D01*
X149782580Y-112148495D01*
X149786966Y-112147765D01*
X149791207Y-112146424D01*
X149791210Y-112146423D01*
X150033661Y-112069746D01*
X150033663Y-112069745D01*
X150037907Y-112068403D01*
X150041918Y-112066477D01*
X150041923Y-112066475D01*
X150271143Y-111956405D01*
X150271144Y-111956404D01*
X150275162Y-111954475D01*
X150385187Y-111880958D01*
X150490289Y-111810732D01*
X150490293Y-111810729D01*
X150493997Y-111808254D01*
X150497314Y-111805283D01*
X150497318Y-111805280D01*
X150686729Y-111635629D01*
X150686730Y-111635628D01*
X150690047Y-111632657D01*
X150859398Y-111431189D01*
X150883759Y-111392129D01*
X150996320Y-111211643D01*
X150998674Y-111207869D01*
X151021238Y-111156831D01*
X151103295Y-110971219D01*
X151105093Y-110967152D01*
X151176534Y-110713843D01*
X151185853Y-110644462D01*
X151211143Y-110456176D01*
X151211144Y-110456168D01*
X151211570Y-110452994D01*
X151212080Y-110436779D01*
X151215146Y-110339222D01*
X151215146Y-110339217D01*
X151215247Y-110336000D01*
X151213788Y-110315397D01*
X151228931Y-110246036D01*
X151250379Y-110217408D01*
X152971259Y-108496528D01*
X152983651Y-108485660D01*
X152996843Y-108475538D01*
X152996851Y-108475531D01*
X153001292Y-108472123D01*
X153056168Y-108411815D01*
X153060267Y-108407520D01*
X153076198Y-108391589D01*
X153092934Y-108371573D01*
X153096379Y-108367624D01*
X153148703Y-108310121D01*
X153148706Y-108310117D01*
X153152485Y-108305964D01*
X153162013Y-108290775D01*
X153172091Y-108276903D01*
X153179992Y-108267455D01*
X153179997Y-108267448D01*
X153183594Y-108263146D01*
X153224887Y-108190752D01*
X153227592Y-108186232D01*
X153268886Y-108120404D01*
X153268888Y-108120401D01*
X153271864Y-108115656D01*
X153277684Y-108101179D01*
X153278552Y-108099021D01*
X153286012Y-108083589D01*
X153292120Y-108072881D01*
X153292124Y-108072872D01*
X153294899Y-108068007D01*
X153296768Y-108062730D01*
X153296770Y-108062725D01*
X153322715Y-107989458D01*
X153324580Y-107984522D01*
X153353566Y-107912416D01*
X153355656Y-107907217D01*
X153359294Y-107889650D01*
X153363899Y-107873156D01*
X153369889Y-107856241D01*
X153383355Y-107774009D01*
X153384317Y-107768819D01*
X153400277Y-107691754D01*
X153400278Y-107691750D01*
X153401213Y-107687233D01*
X153402815Y-107659452D01*
X153404262Y-107646347D01*
X153405286Y-107640090D01*
X153405286Y-107640083D01*
X153406194Y-107634542D01*
X153405994Y-107621795D01*
X153424924Y-107553369D01*
X153477844Y-107506040D01*
X153547951Y-107494834D01*
X153611529Y-107522106D01*
X153777455Y-107657191D01*
X153784731Y-107662305D01*
X154002514Y-107793421D01*
X154010428Y-107797454D01*
X154244523Y-107896581D01*
X154252928Y-107899458D01*
X154498650Y-107964610D01*
X154507382Y-107966276D01*
X154759835Y-107996155D01*
X154768703Y-107996573D01*
X155022843Y-107990584D01*
X155031698Y-107989747D01*
X155282459Y-107948009D01*
X155291093Y-107945936D01*
X155533477Y-107869280D01*
X155541739Y-107866009D01*
X155770895Y-107755970D01*
X155778619Y-107751564D01*
X155961218Y-107629556D01*
X155969506Y-107619638D01*
X155962249Y-107605459D01*
X154581885Y-106225095D01*
X154547859Y-106162783D01*
X154549694Y-106137132D01*
X155216408Y-106137132D01*
X155216539Y-106138965D01*
X155220790Y-106145580D01*
X156322027Y-107246817D01*
X156335428Y-107254135D01*
X156345329Y-107247149D01*
X156356127Y-107234305D01*
X156361353Y-107227110D01*
X156495867Y-107011425D01*
X156500038Y-107003547D01*
X156602817Y-106771065D01*
X156605833Y-106762688D01*
X156674832Y-106518034D01*
X156676636Y-106509326D01*
X156710643Y-106256145D01*
X156711171Y-106249752D01*
X156714645Y-106139222D01*
X156714518Y-106132779D01*
X156696478Y-105877986D01*
X156695225Y-105869183D01*
X156641720Y-105620662D01*
X156639241Y-105612129D01*
X156551254Y-105373630D01*
X156547599Y-105365535D01*
X156426881Y-105141807D01*
X156422122Y-105134309D01*
X156344004Y-105028545D01*
X156332876Y-105020103D01*
X156320283Y-105026927D01*
X155224022Y-106123188D01*
X155216408Y-106137132D01*
X154549694Y-106137132D01*
X154552924Y-106091968D01*
X154581885Y-106046905D01*
X155961129Y-104667661D01*
X155967983Y-104655109D01*
X155959776Y-104644039D01*
X155878230Y-104581805D01*
X155870801Y-104576925D01*
X155649005Y-104452713D01*
X155640971Y-104448932D01*
X155403865Y-104357203D01*
X155395392Y-104354596D01*
X155147736Y-104297193D01*
X155138960Y-104295803D01*
X154885691Y-104273868D01*
X154876820Y-104273728D01*
X154622976Y-104287698D01*
X154614174Y-104288810D01*
X154364832Y-104338408D01*
X154356279Y-104340748D01*
X154116421Y-104424978D01*
X154108255Y-104428512D01*
X153882669Y-104545696D01*
X153875097Y-104550335D01*
X153668263Y-104698142D01*
X153661413Y-104703808D01*
X153616415Y-104746734D01*
X153553319Y-104779281D01*
X153482642Y-104772549D01*
X153426825Y-104728675D01*
X153403943Y-104666764D01*
X153402180Y-104646999D01*
X153401823Y-104641760D01*
X153399091Y-104583832D01*
X153397897Y-104558512D01*
X153393892Y-104541023D01*
X153391212Y-104524104D01*
X153390115Y-104511821D01*
X153389617Y-104506238D01*
X153387981Y-104500258D01*
X153367631Y-104425870D01*
X153366345Y-104420752D01*
X153348994Y-104344997D01*
X153347742Y-104339530D01*
X153340707Y-104323037D01*
X153335072Y-104306855D01*
X153331820Y-104294967D01*
X153331817Y-104294958D01*
X153330337Y-104289549D01*
X153327922Y-104284486D01*
X153327918Y-104284475D01*
X153294466Y-104214343D01*
X153292293Y-104209532D01*
X153261803Y-104138048D01*
X153259604Y-104132892D01*
X153249756Y-104117900D01*
X153241344Y-104102971D01*
X153233622Y-104086782D01*
X153184996Y-104019111D01*
X153182013Y-104014771D01*
X153176376Y-104006190D01*
X160752000Y-104006190D01*
X160752266Y-104011979D01*
X160757893Y-104073218D01*
X160760506Y-104086265D01*
X160805668Y-104230379D01*
X160811875Y-104244125D01*
X160889639Y-104372530D01*
X160898952Y-104384407D01*
X161005093Y-104490548D01*
X161016970Y-104499861D01*
X161145375Y-104577625D01*
X161159121Y-104583832D01*
X161303234Y-104628994D01*
X161316283Y-104631607D01*
X161337961Y-104633599D01*
X161352836Y-104630678D01*
X161356000Y-104618784D01*
X161356000Y-103601615D01*
X161351525Y-103586376D01*
X161350135Y-103585171D01*
X161342452Y-103583500D01*
X160770115Y-103583500D01*
X160754876Y-103587975D01*
X160753671Y-103589365D01*
X160752000Y-103597048D01*
X160752000Y-104006190D01*
X153176376Y-104006190D01*
X153138805Y-103948992D01*
X153138801Y-103948987D01*
X153136265Y-103945126D01*
X153117751Y-103924346D01*
X153109506Y-103914055D01*
X153105807Y-103908907D01*
X153105803Y-103908903D01*
X153102529Y-103904346D01*
X153025777Y-103829968D01*
X153024367Y-103828579D01*
X152614051Y-103418263D01*
X153734904Y-103418263D01*
X153742294Y-103428566D01*
X153777455Y-103457192D01*
X153784731Y-103462305D01*
X154002514Y-103593421D01*
X154010428Y-103597454D01*
X154244523Y-103696581D01*
X154252928Y-103699458D01*
X154498650Y-103764610D01*
X154507382Y-103766276D01*
X154759835Y-103796155D01*
X154768703Y-103796573D01*
X155022843Y-103790584D01*
X155031698Y-103789747D01*
X155282459Y-103748009D01*
X155291093Y-103745936D01*
X155533477Y-103669280D01*
X155541739Y-103666009D01*
X155770895Y-103555970D01*
X155778619Y-103551564D01*
X155961218Y-103429556D01*
X155969506Y-103419638D01*
X155962249Y-103405459D01*
X155614175Y-103057385D01*
X160752000Y-103057385D01*
X160756475Y-103072624D01*
X160757865Y-103073829D01*
X160765548Y-103075500D01*
X161337885Y-103075500D01*
X161353124Y-103071025D01*
X161354329Y-103069635D01*
X161356000Y-103061952D01*
X161356000Y-102041858D01*
X161351729Y-102027313D01*
X161339595Y-102025250D01*
X161316283Y-102027393D01*
X161303234Y-102030006D01*
X161159121Y-102075168D01*
X161145375Y-102081375D01*
X161016970Y-102159139D01*
X161005093Y-102168452D01*
X160898952Y-102274593D01*
X160889639Y-102286470D01*
X160811875Y-102414875D01*
X160805668Y-102428621D01*
X160760506Y-102572735D01*
X160757893Y-102585782D01*
X160752266Y-102647021D01*
X160752000Y-102652810D01*
X160752000Y-103057385D01*
X155614175Y-103057385D01*
X154864812Y-102308022D01*
X154850868Y-102300408D01*
X154849035Y-102300539D01*
X154842420Y-102304790D01*
X153742070Y-103405140D01*
X153734904Y-103418263D01*
X152614051Y-103418263D01*
X151251260Y-102055472D01*
X151217234Y-101993160D01*
X151214417Y-101962420D01*
X151215146Y-101939223D01*
X151215146Y-101939217D01*
X151215247Y-101936000D01*
X151211420Y-101881942D01*
X152990348Y-101881942D01*
X153000328Y-102135960D01*
X153001302Y-102144784D01*
X153046978Y-102394875D01*
X153049182Y-102403462D01*
X153129636Y-102644613D01*
X153133040Y-102652831D01*
X153246667Y-102880235D01*
X153251185Y-102887874D01*
X153359294Y-103044296D01*
X153369612Y-103052647D01*
X153383267Y-103045523D01*
X154479978Y-101948812D01*
X154486356Y-101937132D01*
X155216408Y-101937132D01*
X155216539Y-101938965D01*
X155220790Y-101945580D01*
X156322027Y-103046817D01*
X156335428Y-103054135D01*
X156345329Y-103047149D01*
X156356127Y-103034305D01*
X156361353Y-103027110D01*
X156495867Y-102811425D01*
X156500038Y-102803547D01*
X156602817Y-102571065D01*
X156605833Y-102562688D01*
X156674832Y-102318034D01*
X156676636Y-102309326D01*
X156710643Y-102056145D01*
X156711171Y-102049752D01*
X156714645Y-101939222D01*
X156714518Y-101932779D01*
X156696478Y-101677986D01*
X156695225Y-101669183D01*
X156641720Y-101420662D01*
X156639241Y-101412129D01*
X156551254Y-101173630D01*
X156547599Y-101165535D01*
X156426881Y-100941807D01*
X156422122Y-100934309D01*
X156344004Y-100828545D01*
X156332876Y-100820103D01*
X156320283Y-100826927D01*
X155224022Y-101923188D01*
X155216408Y-101937132D01*
X154486356Y-101937132D01*
X154487592Y-101934868D01*
X154487461Y-101933035D01*
X154483210Y-101926420D01*
X153383423Y-100826633D01*
X153370582Y-100819621D01*
X153359893Y-100827416D01*
X153314115Y-100885485D01*
X153309122Y-100892833D01*
X153181440Y-101112655D01*
X153177532Y-101120629D01*
X153082097Y-101356247D01*
X153079348Y-101364709D01*
X153018067Y-101611413D01*
X153016538Y-101620174D01*
X152990627Y-101873059D01*
X152990348Y-101881942D01*
X151211420Y-101881942D01*
X151196659Y-101673466D01*
X151195478Y-101667978D01*
X151142201Y-101420523D01*
X151141264Y-101416171D01*
X151122218Y-101364543D01*
X151051710Y-101173424D01*
X151050169Y-101169247D01*
X150956988Y-100996552D01*
X150927304Y-100941538D01*
X150925191Y-100937622D01*
X150768824Y-100725918D01*
X150584187Y-100538358D01*
X150580647Y-100535657D01*
X150580641Y-100535651D01*
X150474351Y-100454533D01*
X153735889Y-100454533D01*
X153742869Y-100467659D01*
X154839188Y-101563978D01*
X154853132Y-101571592D01*
X154854965Y-101571461D01*
X154861580Y-101567210D01*
X155961129Y-100467661D01*
X155967983Y-100455109D01*
X155959776Y-100444039D01*
X155878230Y-100381805D01*
X155870801Y-100376925D01*
X155649005Y-100252713D01*
X155640971Y-100248932D01*
X155403865Y-100157203D01*
X155395392Y-100154596D01*
X155147736Y-100097193D01*
X155138960Y-100095803D01*
X154885691Y-100073868D01*
X154876820Y-100073728D01*
X154622976Y-100087698D01*
X154614174Y-100088810D01*
X154364832Y-100138408D01*
X154356279Y-100140748D01*
X154116421Y-100224978D01*
X154108255Y-100228512D01*
X153882669Y-100345696D01*
X153875097Y-100350335D01*
X153744292Y-100443810D01*
X153735889Y-100454533D01*
X150474351Y-100454533D01*
X150378506Y-100381386D01*
X150378502Y-100381383D01*
X150374965Y-100378684D01*
X150145332Y-100250084D01*
X149899870Y-100155122D01*
X149895545Y-100154119D01*
X149895540Y-100154118D01*
X149754794Y-100121495D01*
X149643476Y-100095693D01*
X149381267Y-100072983D01*
X149376832Y-100073227D01*
X149376828Y-100073227D01*
X149122916Y-100087200D01*
X149122909Y-100087201D01*
X149118473Y-100087445D01*
X148990369Y-100112927D01*
X148864711Y-100137921D01*
X148864706Y-100137922D01*
X148860339Y-100138791D01*
X148856136Y-100140267D01*
X148616223Y-100224518D01*
X148616220Y-100224519D01*
X148612015Y-100225996D01*
X148608062Y-100228049D01*
X148608056Y-100228052D01*
X148484117Y-100292434D01*
X148378456Y-100347321D01*
X148374841Y-100349904D01*
X148374835Y-100349908D01*
X148293546Y-100407999D01*
X148164322Y-100500344D01*
X148161095Y-100503422D01*
X148161093Y-100503424D01*
X147982324Y-100673961D01*
X147973885Y-100682011D01*
X147810945Y-100888700D01*
X147784453Y-100934309D01*
X147680987Y-101112438D01*
X147680984Y-101112444D01*
X147678753Y-101116285D01*
X147579947Y-101360225D01*
X147578876Y-101364538D01*
X147578874Y-101364543D01*
X147552999Y-101468709D01*
X147516498Y-101615654D01*
X147489672Y-101877474D01*
X147489847Y-101881926D01*
X147497440Y-102075168D01*
X147500005Y-102140462D01*
X147518186Y-102240013D01*
X147530017Y-102304790D01*
X147547290Y-102399371D01*
X147556980Y-102428416D01*
X147609482Y-102585782D01*
X147630584Y-102649034D01*
X147748225Y-102884470D01*
X147764351Y-102907803D01*
X147878266Y-103072624D01*
X147897865Y-103100982D01*
X148076520Y-103294249D01*
X148280623Y-103460415D01*
X148284431Y-103462708D01*
X148284433Y-103462709D01*
X148502288Y-103593868D01*
X148502292Y-103593870D01*
X148506104Y-103596165D01*
X148642026Y-103653721D01*
X148744359Y-103697054D01*
X148744364Y-103697056D01*
X148748462Y-103698791D01*
X148752760Y-103699930D01*
X148752764Y-103699932D01*
X148875662Y-103732517D01*
X149002862Y-103766244D01*
X149264229Y-103797179D01*
X149320777Y-103795846D01*
X149375574Y-103794555D01*
X149444148Y-103812947D01*
X149467638Y-103831425D01*
X149715349Y-104079136D01*
X149749375Y-104141448D01*
X149744310Y-104212263D01*
X149701763Y-104269099D01*
X149635243Y-104293910D01*
X149615382Y-104293761D01*
X149385691Y-104273868D01*
X149376820Y-104273728D01*
X149122976Y-104287698D01*
X149114174Y-104288810D01*
X148864832Y-104338408D01*
X148856279Y-104340748D01*
X148616421Y-104424978D01*
X148608255Y-104428512D01*
X148382669Y-104545696D01*
X148375097Y-104550335D01*
X148244292Y-104643810D01*
X148235889Y-104654533D01*
X148242869Y-104667659D01*
X149622115Y-106046905D01*
X149656141Y-106109217D01*
X149651076Y-106180032D01*
X149622115Y-106225095D01*
X148242070Y-107605140D01*
X148234904Y-107618263D01*
X148242294Y-107628566D01*
X148277455Y-107657192D01*
X148284731Y-107662305D01*
X148502514Y-107793421D01*
X148510428Y-107797454D01*
X148744523Y-107896581D01*
X148752928Y-107899458D01*
X148998650Y-107964610D01*
X149007382Y-107966276D01*
X149259835Y-107996155D01*
X149268703Y-107996573D01*
X149522843Y-107990584D01*
X149531698Y-107989747D01*
X149607997Y-107977047D01*
X149678477Y-107985593D01*
X149733149Y-108030887D01*
X149754654Y-108098548D01*
X149736165Y-108167095D01*
X149717780Y-108190432D01*
X149471812Y-108436400D01*
X149409500Y-108470426D01*
X149382624Y-108473101D01*
X149381267Y-108472983D01*
X149376831Y-108473227D01*
X149376825Y-108473227D01*
X149122916Y-108487200D01*
X149122909Y-108487201D01*
X149118473Y-108487445D01*
X148990369Y-108512927D01*
X148864711Y-108537921D01*
X148864706Y-108537922D01*
X148860339Y-108538791D01*
X148856136Y-108540267D01*
X148616223Y-108624518D01*
X148616220Y-108624519D01*
X148612015Y-108625996D01*
X148608062Y-108628049D01*
X148608056Y-108628052D01*
X148548245Y-108659122D01*
X148378456Y-108747321D01*
X148374841Y-108749904D01*
X148374835Y-108749908D01*
X148271585Y-108823692D01*
X148164322Y-108900344D01*
X148161095Y-108903422D01*
X148161093Y-108903424D01*
X148012118Y-109045539D01*
X147973885Y-109082011D01*
X147810945Y-109288700D01*
X147782529Y-109337622D01*
X147680987Y-109512438D01*
X147680984Y-109512444D01*
X147678753Y-109516285D01*
X147579947Y-109760225D01*
X147578876Y-109764538D01*
X147578874Y-109764543D01*
X147552999Y-109868709D01*
X147516498Y-110015654D01*
X147489672Y-110277474D01*
X145796500Y-110277474D01*
X145796500Y-106081942D01*
X147490348Y-106081942D01*
X147500328Y-106335960D01*
X147501302Y-106344784D01*
X147546978Y-106594875D01*
X147549182Y-106603462D01*
X147629636Y-106844613D01*
X147633040Y-106852831D01*
X147746667Y-107080235D01*
X147751185Y-107087874D01*
X147859294Y-107244296D01*
X147869612Y-107252647D01*
X147883267Y-107245523D01*
X148979978Y-106148812D01*
X148987592Y-106134868D01*
X148987461Y-106133035D01*
X148983210Y-106126420D01*
X147883423Y-105026633D01*
X147870582Y-105019621D01*
X147859893Y-105027416D01*
X147814115Y-105085485D01*
X147809122Y-105092833D01*
X147681440Y-105312655D01*
X147677532Y-105320629D01*
X147582097Y-105556247D01*
X147579348Y-105564709D01*
X147518067Y-105811413D01*
X147516538Y-105820174D01*
X147490627Y-106073059D01*
X147490348Y-106081942D01*
X145796500Y-106081942D01*
X145796500Y-99218263D01*
X148234904Y-99218263D01*
X148242294Y-99228566D01*
X148277455Y-99257192D01*
X148284731Y-99262305D01*
X148502514Y-99393421D01*
X148510428Y-99397454D01*
X148744523Y-99496581D01*
X148752928Y-99499458D01*
X148998650Y-99564610D01*
X149007382Y-99566276D01*
X149259835Y-99596155D01*
X149268703Y-99596573D01*
X149522843Y-99590584D01*
X149531698Y-99589747D01*
X149782459Y-99548009D01*
X149791093Y-99545936D01*
X150033477Y-99469280D01*
X150041739Y-99466009D01*
X150270895Y-99355970D01*
X150278619Y-99351564D01*
X150461218Y-99229556D01*
X150469506Y-99219638D01*
X150468802Y-99218263D01*
X153734904Y-99218263D01*
X153742294Y-99228566D01*
X153777455Y-99257192D01*
X153784731Y-99262305D01*
X154002514Y-99393421D01*
X154010428Y-99397454D01*
X154244523Y-99496581D01*
X154252928Y-99499458D01*
X154498650Y-99564610D01*
X154507382Y-99566276D01*
X154759835Y-99596155D01*
X154768703Y-99596573D01*
X155022843Y-99590584D01*
X155031698Y-99589747D01*
X155282459Y-99548009D01*
X155291093Y-99545936D01*
X155533477Y-99469280D01*
X155541739Y-99466009D01*
X155770895Y-99355970D01*
X155778619Y-99351564D01*
X155961218Y-99229556D01*
X155969506Y-99219638D01*
X155962249Y-99205459D01*
X154864812Y-98108022D01*
X154850868Y-98100408D01*
X154849035Y-98100539D01*
X154842420Y-98104790D01*
X153742070Y-99205140D01*
X153734904Y-99218263D01*
X150468802Y-99218263D01*
X150462249Y-99205459D01*
X149364812Y-98108022D01*
X149350868Y-98100408D01*
X149349035Y-98100539D01*
X149342420Y-98104790D01*
X148242070Y-99205140D01*
X148234904Y-99218263D01*
X145796500Y-99218263D01*
X145796500Y-97681942D01*
X147490348Y-97681942D01*
X147500328Y-97935960D01*
X147501302Y-97944784D01*
X147546978Y-98194875D01*
X147549182Y-98203462D01*
X147629636Y-98444613D01*
X147633040Y-98452831D01*
X147746667Y-98680235D01*
X147751185Y-98687874D01*
X147859294Y-98844296D01*
X147869612Y-98852647D01*
X147883267Y-98845523D01*
X148979978Y-97748812D01*
X148986356Y-97737132D01*
X149716408Y-97737132D01*
X149716539Y-97738965D01*
X149720790Y-97745580D01*
X150822027Y-98846817D01*
X150835428Y-98854135D01*
X150845329Y-98847149D01*
X150856127Y-98834305D01*
X150861353Y-98827110D01*
X150995867Y-98611425D01*
X151000038Y-98603547D01*
X151102817Y-98371065D01*
X151105833Y-98362688D01*
X151174832Y-98118034D01*
X151176636Y-98109326D01*
X151210643Y-97856145D01*
X151211171Y-97849752D01*
X151214645Y-97739222D01*
X151214518Y-97732779D01*
X151196478Y-97477986D01*
X151195225Y-97469183D01*
X151141720Y-97220662D01*
X151139241Y-97212129D01*
X151051254Y-96973630D01*
X151047599Y-96965535D01*
X150926881Y-96741807D01*
X150922122Y-96734309D01*
X150844004Y-96628545D01*
X150832876Y-96620103D01*
X150820283Y-96626927D01*
X149724022Y-97723188D01*
X149716408Y-97737132D01*
X148986356Y-97737132D01*
X148987592Y-97734868D01*
X148987461Y-97733035D01*
X148983210Y-97726420D01*
X147883423Y-96626633D01*
X147870582Y-96619621D01*
X147859893Y-96627416D01*
X147814115Y-96685485D01*
X147809122Y-96692833D01*
X147681440Y-96912655D01*
X147677532Y-96920629D01*
X147582097Y-97156247D01*
X147579348Y-97164709D01*
X147518067Y-97411413D01*
X147516538Y-97420174D01*
X147490627Y-97673059D01*
X147490348Y-97681942D01*
X145796500Y-97681942D01*
X145796500Y-96254533D01*
X148235889Y-96254533D01*
X148242869Y-96267659D01*
X149339188Y-97363978D01*
X149353132Y-97371592D01*
X149354965Y-97371461D01*
X149361580Y-97367210D01*
X150461129Y-96267661D01*
X150467983Y-96255109D01*
X150459776Y-96244039D01*
X150378230Y-96181805D01*
X150370801Y-96176925D01*
X150149005Y-96052713D01*
X150140971Y-96048932D01*
X149903865Y-95957203D01*
X149895392Y-95954596D01*
X149647736Y-95897193D01*
X149638960Y-95895803D01*
X149385691Y-95873868D01*
X149376820Y-95873728D01*
X149122976Y-95887698D01*
X149114174Y-95888810D01*
X148864832Y-95938408D01*
X148856279Y-95940748D01*
X148616421Y-96024978D01*
X148608255Y-96028512D01*
X148382669Y-96145696D01*
X148375097Y-96150335D01*
X148244292Y-96243810D01*
X148235889Y-96254533D01*
X145796500Y-96254533D01*
X145796500Y-93477474D01*
X147489672Y-93477474D01*
X147500005Y-93740462D01*
X147500805Y-93744842D01*
X147546301Y-93993953D01*
X147547290Y-93999371D01*
X147630584Y-94249034D01*
X147660966Y-94309837D01*
X147709950Y-94407869D01*
X147748225Y-94484470D01*
X147750754Y-94488129D01*
X147820104Y-94588470D01*
X147897865Y-94700982D01*
X148076520Y-94894249D01*
X148280623Y-95060415D01*
X148284431Y-95062708D01*
X148284433Y-95062709D01*
X148502288Y-95193868D01*
X148502292Y-95193870D01*
X148506104Y-95196165D01*
X148642026Y-95253721D01*
X148744359Y-95297054D01*
X148744364Y-95297056D01*
X148748462Y-95298791D01*
X148752760Y-95299930D01*
X148752764Y-95299932D01*
X148861687Y-95328812D01*
X149002862Y-95366244D01*
X149264229Y-95397179D01*
X149527347Y-95390978D01*
X149531745Y-95390246D01*
X149782576Y-95348496D01*
X149782580Y-95348495D01*
X149786966Y-95347765D01*
X149791207Y-95346424D01*
X149791210Y-95346423D01*
X149945042Y-95297772D01*
X150016024Y-95296302D01*
X150072131Y-95328812D01*
X150863230Y-96119911D01*
X150875616Y-96134323D01*
X150884149Y-96145918D01*
X150884154Y-96145923D01*
X150888492Y-96151818D01*
X150894070Y-96156557D01*
X150894073Y-96156560D01*
X150928768Y-96186035D01*
X150936284Y-96192965D01*
X150941979Y-96198660D01*
X150944861Y-96200940D01*
X150964251Y-96216281D01*
X150967655Y-96219072D01*
X151010730Y-96255667D01*
X151023285Y-96266333D01*
X151029801Y-96269661D01*
X151034850Y-96273028D01*
X151039979Y-96276195D01*
X151045716Y-96280734D01*
X151111875Y-96311655D01*
X151115769Y-96313558D01*
X151180808Y-96346769D01*
X151187916Y-96348508D01*
X151193559Y-96350607D01*
X151199322Y-96352524D01*
X151205950Y-96355622D01*
X151213112Y-96357112D01*
X151213113Y-96357112D01*
X151277412Y-96370486D01*
X151281696Y-96371456D01*
X151352610Y-96388808D01*
X151358212Y-96389156D01*
X151358215Y-96389156D01*
X151363764Y-96389500D01*
X151363762Y-96389536D01*
X151367755Y-96389775D01*
X151371947Y-96390149D01*
X151379115Y-96391640D01*
X151456520Y-96389546D01*
X151459928Y-96389500D01*
X153287676Y-96389500D01*
X153355797Y-96409502D01*
X153402290Y-96463158D01*
X153412394Y-96533432D01*
X153386626Y-96593506D01*
X153314115Y-96685485D01*
X153309122Y-96692833D01*
X153181440Y-96912655D01*
X153177532Y-96920629D01*
X153082097Y-97156247D01*
X153079348Y-97164709D01*
X153018067Y-97411413D01*
X153016538Y-97420174D01*
X152990627Y-97673059D01*
X152990348Y-97681942D01*
X153000328Y-97935960D01*
X153001302Y-97944784D01*
X153046978Y-98194875D01*
X153049182Y-98203462D01*
X153129636Y-98444613D01*
X153133040Y-98452831D01*
X153246667Y-98680235D01*
X153251185Y-98687874D01*
X153359294Y-98844296D01*
X153369612Y-98852647D01*
X153383267Y-98845523D01*
X154762905Y-97465885D01*
X154825217Y-97431859D01*
X154896032Y-97436924D01*
X154941095Y-97465885D01*
X156322027Y-98846817D01*
X156335428Y-98854135D01*
X156345329Y-98847149D01*
X156356127Y-98834305D01*
X156361353Y-98827110D01*
X156495867Y-98611425D01*
X156500038Y-98603547D01*
X156602817Y-98371065D01*
X156605833Y-98362688D01*
X156674832Y-98118034D01*
X156676636Y-98109326D01*
X156710643Y-97856145D01*
X156711171Y-97849752D01*
X156714645Y-97739222D01*
X156714518Y-97732779D01*
X156696478Y-97477986D01*
X156695225Y-97469183D01*
X156641720Y-97220662D01*
X156639241Y-97212129D01*
X156551254Y-96973630D01*
X156547599Y-96965535D01*
X156426881Y-96741807D01*
X156422128Y-96734319D01*
X156315799Y-96590359D01*
X156291417Y-96523680D01*
X156306954Y-96454405D01*
X156357478Y-96404526D01*
X156417151Y-96389500D01*
X157291429Y-96389500D01*
X157359550Y-96409502D01*
X157380524Y-96426405D01*
X157772030Y-96817911D01*
X157784416Y-96832323D01*
X157792949Y-96843918D01*
X157792954Y-96843923D01*
X157797292Y-96849818D01*
X157802870Y-96854557D01*
X157802873Y-96854560D01*
X157837568Y-96884035D01*
X157845084Y-96890965D01*
X157850779Y-96896660D01*
X157853661Y-96898940D01*
X157873051Y-96914281D01*
X157876455Y-96917072D01*
X157926503Y-96959591D01*
X157932085Y-96964333D01*
X157938601Y-96967661D01*
X157943650Y-96971028D01*
X157948779Y-96974195D01*
X157954516Y-96978734D01*
X158020675Y-97009655D01*
X158024569Y-97011558D01*
X158089608Y-97044769D01*
X158096716Y-97046508D01*
X158102359Y-97048607D01*
X158108122Y-97050524D01*
X158114750Y-97053622D01*
X158121912Y-97055112D01*
X158121913Y-97055112D01*
X158186212Y-97068486D01*
X158190496Y-97069456D01*
X158261410Y-97086808D01*
X158267012Y-97087156D01*
X158267015Y-97087156D01*
X158272564Y-97087500D01*
X158272562Y-97087536D01*
X158276555Y-97087775D01*
X158280747Y-97088149D01*
X158287915Y-97089640D01*
X158365320Y-97087546D01*
X158368728Y-97087500D01*
X160713039Y-97087500D01*
X160781160Y-97107502D01*
X160802057Y-97124327D01*
X160811298Y-97133552D01*
X160817528Y-97137392D01*
X160817529Y-97137393D01*
X160949020Y-97218445D01*
X160956899Y-97223302D01*
X161119243Y-97277149D01*
X161126080Y-97277849D01*
X161126082Y-97277850D01*
X161167401Y-97282083D01*
X161220268Y-97287500D01*
X161867732Y-97287500D01*
X161870978Y-97287163D01*
X161870982Y-97287163D01*
X161905083Y-97283625D01*
X161970019Y-97276887D01*
X162123726Y-97225606D01*
X162125324Y-97225073D01*
X162125326Y-97225072D01*
X162132268Y-97222756D01*
X162177500Y-97194766D01*
X162271485Y-97136606D01*
X162277713Y-97132752D01*
X162398552Y-97011702D01*
X162453015Y-96923347D01*
X162505786Y-96875855D01*
X162575858Y-96864431D01*
X162640981Y-96892705D01*
X162667418Y-96923161D01*
X162718788Y-97006173D01*
X162727824Y-97017574D01*
X162838429Y-97127986D01*
X162849840Y-97136998D01*
X162982880Y-97219004D01*
X162996061Y-97225151D01*
X163144814Y-97274491D01*
X163158190Y-97277358D01*
X163249097Y-97286672D01*
X163255513Y-97287000D01*
X163303885Y-97287000D01*
X163319124Y-97282525D01*
X163320329Y-97281135D01*
X163322000Y-97273452D01*
X163322000Y-96201000D01*
X163342002Y-96132879D01*
X163395658Y-96086386D01*
X163448000Y-96075000D01*
X163704000Y-96075000D01*
X163772121Y-96095002D01*
X163818614Y-96148658D01*
X163830000Y-96201000D01*
X163830000Y-97268885D01*
X163834475Y-97284124D01*
X163835865Y-97285329D01*
X163843548Y-97287000D01*
X163896438Y-97287000D01*
X163902953Y-97286663D01*
X163995057Y-97277106D01*
X164008456Y-97274212D01*
X164157107Y-97224619D01*
X164170286Y-97218445D01*
X164303173Y-97136212D01*
X164314574Y-97127176D01*
X164424986Y-97016571D01*
X164433998Y-97005160D01*
X164484427Y-96923348D01*
X164537199Y-96875855D01*
X164607270Y-96864431D01*
X164672394Y-96892705D01*
X164698831Y-96923161D01*
X164733221Y-96978734D01*
X164754248Y-97012713D01*
X164875298Y-97133552D01*
X164881528Y-97137392D01*
X164881529Y-97137393D01*
X164914616Y-97157788D01*
X164962109Y-97210560D01*
X164974500Y-97265048D01*
X164974500Y-98237406D01*
X164954498Y-98305527D01*
X164937595Y-98326501D01*
X164006903Y-99257192D01*
X163117747Y-100146348D01*
X163109461Y-100153888D01*
X163102982Y-100158000D01*
X163097557Y-100163777D01*
X163056357Y-100207651D01*
X163053602Y-100210493D01*
X163033865Y-100230230D01*
X163031385Y-100233427D01*
X163023682Y-100242447D01*
X162993414Y-100274679D01*
X162989595Y-100281625D01*
X162989593Y-100281628D01*
X162983652Y-100292434D01*
X162972801Y-100308953D01*
X162960386Y-100324959D01*
X162957241Y-100332228D01*
X162957238Y-100332232D01*
X162942826Y-100365537D01*
X162937609Y-100376187D01*
X162916305Y-100414940D01*
X162914334Y-100422615D01*
X162914334Y-100422616D01*
X162911267Y-100434562D01*
X162904863Y-100453266D01*
X162904066Y-100455109D01*
X162896819Y-100471855D01*
X162895580Y-100479678D01*
X162895577Y-100479688D01*
X162889901Y-100515524D01*
X162887495Y-100527144D01*
X162878472Y-100562289D01*
X162876500Y-100569970D01*
X162876500Y-100590224D01*
X162874949Y-100609934D01*
X162871780Y-100629943D01*
X162872526Y-100637835D01*
X162875941Y-100673961D01*
X162876500Y-100685819D01*
X162876500Y-102144147D01*
X162856498Y-102212268D01*
X162839595Y-102233242D01*
X162793179Y-102279658D01*
X162789242Y-102286159D01*
X162712162Y-102413435D01*
X162707481Y-102421164D01*
X162705209Y-102428414D01*
X162705208Y-102428416D01*
X162679972Y-102508944D01*
X162640515Y-102567966D01*
X162575411Y-102596286D01*
X162505331Y-102584913D01*
X162452525Y-102537457D01*
X162439504Y-102508945D01*
X162414331Y-102428619D01*
X162408125Y-102414875D01*
X162330361Y-102286470D01*
X162321048Y-102274593D01*
X162214907Y-102168452D01*
X162203030Y-102159139D01*
X162074625Y-102081375D01*
X162060879Y-102075168D01*
X161916766Y-102030006D01*
X161903717Y-102027393D01*
X161882039Y-102025401D01*
X161867164Y-102028322D01*
X161864000Y-102040216D01*
X161864000Y-104086075D01*
X161844146Y-104153691D01*
X161843179Y-104154658D01*
X161840362Y-104159310D01*
X161840361Y-104159311D01*
X161761935Y-104288810D01*
X161757481Y-104296164D01*
X161755209Y-104303414D01*
X161711068Y-104444267D01*
X161708009Y-104454027D01*
X161701500Y-104524866D01*
X161701500Y-105884134D01*
X161708009Y-105954973D01*
X161710008Y-105961353D01*
X161710009Y-105961356D01*
X161715058Y-105977466D01*
X161757481Y-106112836D01*
X161761416Y-106119333D01*
X161761417Y-106119336D01*
X161783276Y-106155429D01*
X161801500Y-106220700D01*
X161801500Y-106313629D01*
X161781498Y-106381750D01*
X161764595Y-106402724D01*
X158626724Y-109540595D01*
X158564412Y-109574621D01*
X158537629Y-109577500D01*
X156629808Y-109577500D01*
X156561687Y-109557498D01*
X156518920Y-109511332D01*
X156427304Y-109341538D01*
X156425191Y-109337622D01*
X156268824Y-109125918D01*
X156084187Y-108938358D01*
X156080647Y-108935657D01*
X156080641Y-108935651D01*
X155878506Y-108781386D01*
X155878502Y-108781383D01*
X155874965Y-108778684D01*
X155645332Y-108650084D01*
X155399870Y-108555122D01*
X155395545Y-108554119D01*
X155395540Y-108554118D01*
X155254794Y-108521495D01*
X155143476Y-108495693D01*
X154881267Y-108472983D01*
X154876832Y-108473227D01*
X154876828Y-108473227D01*
X154622916Y-108487200D01*
X154622909Y-108487201D01*
X154618473Y-108487445D01*
X154490369Y-108512927D01*
X154364711Y-108537921D01*
X154364706Y-108537922D01*
X154360339Y-108538791D01*
X154356136Y-108540267D01*
X154116223Y-108624518D01*
X154116220Y-108624519D01*
X154112015Y-108625996D01*
X154108062Y-108628049D01*
X154108056Y-108628052D01*
X154048245Y-108659122D01*
X153878456Y-108747321D01*
X153874841Y-108749904D01*
X153874835Y-108749908D01*
X153771585Y-108823692D01*
X153664322Y-108900344D01*
X153661095Y-108903422D01*
X153661093Y-108903424D01*
X153512118Y-109045539D01*
X153473885Y-109082011D01*
X153310945Y-109288700D01*
X153282529Y-109337622D01*
X153180987Y-109512438D01*
X153180984Y-109512444D01*
X153178753Y-109516285D01*
X153079947Y-109760225D01*
X153078876Y-109764538D01*
X153078874Y-109764543D01*
X153052999Y-109868709D01*
X153016498Y-110015654D01*
X152989672Y-110277474D01*
X153000005Y-110540462D01*
X153047290Y-110799371D01*
X153051511Y-110812022D01*
X153125104Y-111032607D01*
X153130584Y-111049034D01*
X153155354Y-111098606D01*
X153209950Y-111207869D01*
X153248225Y-111284470D01*
X153264351Y-111307803D01*
X153320104Y-111388470D01*
X153397865Y-111500982D01*
X153576520Y-111694249D01*
X153780623Y-111860415D01*
X153784431Y-111862708D01*
X153784433Y-111862709D01*
X154002288Y-111993868D01*
X154002292Y-111993870D01*
X154006104Y-111996165D01*
X154142026Y-112053721D01*
X154244359Y-112097054D01*
X154244364Y-112097056D01*
X154248462Y-112098791D01*
X154252760Y-112099930D01*
X154252764Y-112099932D01*
X154375662Y-112132517D01*
X154502862Y-112166244D01*
X154764229Y-112197179D01*
X155027347Y-112190978D01*
X155031745Y-112190246D01*
X155282576Y-112148496D01*
X155282580Y-112148495D01*
X155286966Y-112147765D01*
X155291207Y-112146424D01*
X155291210Y-112146423D01*
X155533661Y-112069746D01*
X155533663Y-112069745D01*
X155537907Y-112068403D01*
X155541918Y-112066477D01*
X155541923Y-112066475D01*
X155771143Y-111956405D01*
X155771144Y-111956404D01*
X155775162Y-111954475D01*
X155885187Y-111880958D01*
X155990289Y-111810732D01*
X155990293Y-111810729D01*
X155993997Y-111808254D01*
X155997314Y-111805283D01*
X155997318Y-111805280D01*
X156186729Y-111635629D01*
X156186730Y-111635628D01*
X156190047Y-111632657D01*
X156359398Y-111431189D01*
X156383759Y-111392129D01*
X156496320Y-111211643D01*
X156498674Y-111207869D01*
X156515613Y-111169554D01*
X156561451Y-111115337D01*
X156630854Y-111094500D01*
X158836930Y-111094500D01*
X158855880Y-111095933D01*
X158870115Y-111098099D01*
X158870119Y-111098099D01*
X158877349Y-111099199D01*
X158884641Y-111098606D01*
X158884644Y-111098606D01*
X158930018Y-111094915D01*
X158940233Y-111094500D01*
X158948293Y-111094500D01*
X158961583Y-111092951D01*
X158976507Y-111091211D01*
X158980882Y-111090778D01*
X159046339Y-111085454D01*
X159046342Y-111085453D01*
X159053637Y-111084860D01*
X159060601Y-111082604D01*
X159066560Y-111081413D01*
X159072415Y-111080029D01*
X159079681Y-111079182D01*
X159148327Y-111054265D01*
X159152455Y-111052848D01*
X159214936Y-111032607D01*
X159214938Y-111032606D01*
X159221899Y-111030351D01*
X159228154Y-111026555D01*
X159233628Y-111024049D01*
X159239058Y-111021330D01*
X159245937Y-111018833D01*
X159306976Y-110978814D01*
X159310680Y-110976477D01*
X159373107Y-110938595D01*
X159381484Y-110931197D01*
X159381508Y-110931224D01*
X159384500Y-110928571D01*
X159387733Y-110925868D01*
X159393852Y-110921856D01*
X159447128Y-110865617D01*
X159449506Y-110863175D01*
X159931207Y-110381474D01*
X170147672Y-110381474D01*
X170158005Y-110644462D01*
X170158805Y-110648842D01*
X170188017Y-110808790D01*
X170205290Y-110903371D01*
X170225140Y-110962869D01*
X170269056Y-111094500D01*
X170288584Y-111153034D01*
X170313952Y-111203803D01*
X170367950Y-111311869D01*
X170406225Y-111388470D01*
X170555865Y-111604982D01*
X170734520Y-111798249D01*
X170938623Y-111964415D01*
X170942431Y-111966708D01*
X170942433Y-111966709D01*
X171160288Y-112097868D01*
X171160292Y-112097870D01*
X171164104Y-112100165D01*
X171276515Y-112147765D01*
X171402359Y-112201054D01*
X171402364Y-112201056D01*
X171406462Y-112202791D01*
X171410760Y-112203930D01*
X171410764Y-112203932D01*
X171533662Y-112236517D01*
X171660862Y-112270244D01*
X171922229Y-112301179D01*
X172185347Y-112294978D01*
X172192743Y-112293747D01*
X172440576Y-112252496D01*
X172440580Y-112252495D01*
X172444966Y-112251765D01*
X172449207Y-112250424D01*
X172449210Y-112250423D01*
X172691661Y-112173746D01*
X172691663Y-112173745D01*
X172695907Y-112172403D01*
X172699918Y-112170477D01*
X172699923Y-112170475D01*
X172929143Y-112060405D01*
X172929144Y-112060404D01*
X172933162Y-112058475D01*
X173043187Y-111984958D01*
X173137018Y-111922263D01*
X176392904Y-111922263D01*
X176400294Y-111932566D01*
X176435455Y-111961192D01*
X176442731Y-111966305D01*
X176660514Y-112097421D01*
X176668428Y-112101454D01*
X176902523Y-112200581D01*
X176910928Y-112203458D01*
X177156650Y-112268610D01*
X177165382Y-112270276D01*
X177417835Y-112300155D01*
X177426703Y-112300573D01*
X177680843Y-112294584D01*
X177689698Y-112293747D01*
X177940459Y-112252009D01*
X177949093Y-112249936D01*
X178191477Y-112173280D01*
X178199739Y-112170009D01*
X178428895Y-112059970D01*
X178436619Y-112055564D01*
X178619218Y-111933556D01*
X178627506Y-111923638D01*
X178620249Y-111909459D01*
X177522812Y-110812022D01*
X177508868Y-110804408D01*
X177507035Y-110804539D01*
X177500420Y-110808790D01*
X176400070Y-111909140D01*
X176392904Y-111922263D01*
X173137018Y-111922263D01*
X173148289Y-111914732D01*
X173148293Y-111914729D01*
X173151997Y-111912254D01*
X173155314Y-111909283D01*
X173155318Y-111909280D01*
X173344729Y-111739629D01*
X173344730Y-111739628D01*
X173348047Y-111736657D01*
X173517398Y-111535189D01*
X173536689Y-111504258D01*
X173654320Y-111315643D01*
X173656674Y-111311869D01*
X173667170Y-111288129D01*
X173761295Y-111075219D01*
X173763093Y-111071152D01*
X173834534Y-110817843D01*
X173849095Y-110709435D01*
X173869143Y-110560176D01*
X173869144Y-110560168D01*
X173869570Y-110556994D01*
X173870090Y-110540462D01*
X173873146Y-110443222D01*
X173873146Y-110443217D01*
X173873247Y-110440000D01*
X173869420Y-110385942D01*
X175648348Y-110385942D01*
X175658328Y-110639960D01*
X175659302Y-110648784D01*
X175704978Y-110898875D01*
X175707182Y-110907462D01*
X175787636Y-111148613D01*
X175791040Y-111156831D01*
X175904667Y-111384235D01*
X175909185Y-111391874D01*
X176017294Y-111548296D01*
X176027612Y-111556647D01*
X176041267Y-111549523D01*
X177137978Y-110452812D01*
X177144356Y-110441132D01*
X177874408Y-110441132D01*
X177874539Y-110442965D01*
X177878790Y-110449580D01*
X178980027Y-111550817D01*
X178993428Y-111558135D01*
X179003329Y-111551149D01*
X179014127Y-111538305D01*
X179019353Y-111531110D01*
X179153867Y-111315425D01*
X179158038Y-111307547D01*
X179260817Y-111075065D01*
X179263833Y-111066688D01*
X179332832Y-110822034D01*
X179334636Y-110813326D01*
X179368643Y-110560145D01*
X179369171Y-110553752D01*
X179372645Y-110443222D01*
X179372518Y-110436779D01*
X179354478Y-110181986D01*
X179353225Y-110173183D01*
X179299720Y-109924662D01*
X179297241Y-109916129D01*
X179209254Y-109677630D01*
X179205599Y-109669535D01*
X179084881Y-109445807D01*
X179080122Y-109438309D01*
X179002004Y-109332545D01*
X178990876Y-109324103D01*
X178978283Y-109330927D01*
X177882022Y-110427188D01*
X177874408Y-110441132D01*
X177144356Y-110441132D01*
X177145592Y-110438868D01*
X177145461Y-110437035D01*
X177141210Y-110430420D01*
X176041423Y-109330633D01*
X176028582Y-109323621D01*
X176017893Y-109331416D01*
X175972115Y-109389485D01*
X175967122Y-109396833D01*
X175839440Y-109616655D01*
X175835532Y-109624629D01*
X175740097Y-109860247D01*
X175737348Y-109868709D01*
X175676067Y-110115413D01*
X175674538Y-110124174D01*
X175648627Y-110377059D01*
X175648348Y-110385942D01*
X173869420Y-110385942D01*
X173854659Y-110177466D01*
X173843186Y-110124174D01*
X173800201Y-109924523D01*
X173799264Y-109920171D01*
X173780218Y-109868543D01*
X173709710Y-109677424D01*
X173708169Y-109673247D01*
X173583191Y-109441622D01*
X173426824Y-109229918D01*
X173242187Y-109042358D01*
X173238647Y-109039657D01*
X173238641Y-109039651D01*
X173132351Y-108958533D01*
X176393889Y-108958533D01*
X176400869Y-108971659D01*
X177497188Y-110067978D01*
X177511132Y-110075592D01*
X177512965Y-110075461D01*
X177519580Y-110071210D01*
X178619129Y-108971661D01*
X178625983Y-108959109D01*
X178617776Y-108948039D01*
X178536230Y-108885805D01*
X178528801Y-108880925D01*
X178307005Y-108756713D01*
X178298971Y-108752932D01*
X178061865Y-108661203D01*
X178053392Y-108658596D01*
X177805736Y-108601193D01*
X177796960Y-108599803D01*
X177543691Y-108577868D01*
X177534820Y-108577728D01*
X177280976Y-108591698D01*
X177272174Y-108592810D01*
X177022832Y-108642408D01*
X177014279Y-108644748D01*
X176774421Y-108728978D01*
X176766255Y-108732512D01*
X176540669Y-108849696D01*
X176533097Y-108854335D01*
X176402292Y-108947810D01*
X176393889Y-108958533D01*
X173132351Y-108958533D01*
X173036506Y-108885386D01*
X173036502Y-108885383D01*
X173032965Y-108882684D01*
X172803332Y-108754084D01*
X172557870Y-108659122D01*
X172553545Y-108658119D01*
X172553540Y-108658118D01*
X172408578Y-108624518D01*
X172301476Y-108599693D01*
X172039267Y-108576983D01*
X172034832Y-108577227D01*
X172034828Y-108577227D01*
X171780916Y-108591200D01*
X171780909Y-108591201D01*
X171776473Y-108591445D01*
X171648369Y-108616927D01*
X171522711Y-108641921D01*
X171522706Y-108641922D01*
X171518339Y-108642791D01*
X171514136Y-108644267D01*
X171274223Y-108728518D01*
X171274220Y-108728519D01*
X171270015Y-108729996D01*
X171266062Y-108732049D01*
X171266056Y-108732052D01*
X171134615Y-108800331D01*
X171036456Y-108851321D01*
X171032841Y-108853904D01*
X171032835Y-108853908D01*
X170971482Y-108897752D01*
X170822322Y-109004344D01*
X170819095Y-109007422D01*
X170819093Y-109007424D01*
X170691114Y-109129510D01*
X170631885Y-109186011D01*
X170468945Y-109392700D01*
X170442453Y-109438309D01*
X170338987Y-109616438D01*
X170338984Y-109616444D01*
X170336753Y-109620285D01*
X170335083Y-109624408D01*
X170281743Y-109756099D01*
X170237947Y-109864225D01*
X170174498Y-110119654D01*
X170147672Y-110381474D01*
X159931207Y-110381474D01*
X162590418Y-107722263D01*
X170892904Y-107722263D01*
X170900294Y-107732566D01*
X170935455Y-107761192D01*
X170942731Y-107766305D01*
X171160514Y-107897421D01*
X171168428Y-107901454D01*
X171402523Y-108000581D01*
X171410928Y-108003458D01*
X171656650Y-108068610D01*
X171665382Y-108070276D01*
X171917835Y-108100155D01*
X171926703Y-108100573D01*
X172180843Y-108094584D01*
X172189698Y-108093747D01*
X172440459Y-108052009D01*
X172449093Y-108049936D01*
X172691477Y-107973280D01*
X172699739Y-107970009D01*
X172928895Y-107859970D01*
X172936619Y-107855564D01*
X173119218Y-107733556D01*
X173127506Y-107723638D01*
X173120249Y-107709459D01*
X172022812Y-106612022D01*
X172008868Y-106604408D01*
X172007035Y-106604539D01*
X172000420Y-106608790D01*
X170900070Y-107709140D01*
X170892904Y-107722263D01*
X162590418Y-107722263D01*
X163048911Y-107263770D01*
X163063323Y-107251384D01*
X163074918Y-107242851D01*
X163074923Y-107242846D01*
X163080818Y-107238508D01*
X163085557Y-107232930D01*
X163085560Y-107232927D01*
X163115035Y-107198232D01*
X163121965Y-107190716D01*
X163127661Y-107185020D01*
X163129924Y-107182159D01*
X163129929Y-107182154D01*
X163145293Y-107162734D01*
X163148082Y-107159333D01*
X163185199Y-107115643D01*
X163195333Y-107103715D01*
X163198659Y-107097202D01*
X163202020Y-107092163D01*
X163205196Y-107087021D01*
X163209734Y-107081284D01*
X163240655Y-107015125D01*
X163242561Y-107011225D01*
X163246482Y-107003547D01*
X163275769Y-106946192D01*
X163277508Y-106939083D01*
X163279604Y-106933449D01*
X163281523Y-106927679D01*
X163284622Y-106921050D01*
X163299491Y-106849565D01*
X163300461Y-106845282D01*
X163316473Y-106779844D01*
X163317808Y-106774390D01*
X163318500Y-106763236D01*
X163318535Y-106763238D01*
X163318775Y-106759266D01*
X163319152Y-106755045D01*
X163320641Y-106747885D01*
X163318546Y-106670458D01*
X163318500Y-106667050D01*
X163318500Y-106220700D01*
X163328205Y-106185942D01*
X170148348Y-106185942D01*
X170158328Y-106439960D01*
X170159302Y-106448784D01*
X170204978Y-106698875D01*
X170207182Y-106707462D01*
X170287636Y-106948613D01*
X170291040Y-106956831D01*
X170404667Y-107184235D01*
X170409185Y-107191874D01*
X170517294Y-107348296D01*
X170527612Y-107356647D01*
X170541267Y-107349523D01*
X171637978Y-106252812D01*
X171644356Y-106241132D01*
X172374408Y-106241132D01*
X172374539Y-106242965D01*
X172378790Y-106249580D01*
X173480027Y-107350817D01*
X173493428Y-107358135D01*
X173503329Y-107351149D01*
X173514127Y-107338305D01*
X173519353Y-107331110D01*
X173653867Y-107115425D01*
X173658038Y-107107547D01*
X173760817Y-106875065D01*
X173763833Y-106866688D01*
X173832832Y-106622034D01*
X173834636Y-106613326D01*
X173868643Y-106360145D01*
X173869171Y-106353752D01*
X173872645Y-106243222D01*
X173872518Y-106236779D01*
X173868602Y-106181474D01*
X175647672Y-106181474D01*
X175647847Y-106185926D01*
X175654089Y-106344784D01*
X175658005Y-106444462D01*
X175658805Y-106448842D01*
X175688017Y-106608790D01*
X175705290Y-106703371D01*
X175728984Y-106774390D01*
X175775523Y-106913884D01*
X175788584Y-106953034D01*
X175818630Y-107013166D01*
X175867950Y-107111869D01*
X175906225Y-107188470D01*
X176055865Y-107404982D01*
X176234520Y-107598249D01*
X176438623Y-107764415D01*
X176442431Y-107766708D01*
X176442433Y-107766709D01*
X176660288Y-107897868D01*
X176660292Y-107897870D01*
X176664104Y-107900165D01*
X176772195Y-107945936D01*
X176902359Y-108001054D01*
X176902364Y-108001056D01*
X176906462Y-108002791D01*
X176910760Y-108003930D01*
X176910764Y-108003932D01*
X177012426Y-108030887D01*
X177160862Y-108070244D01*
X177422229Y-108101179D01*
X177685347Y-108094978D01*
X177753771Y-108083589D01*
X177940576Y-108052496D01*
X177940580Y-108052495D01*
X177944966Y-108051765D01*
X177949207Y-108050424D01*
X177949210Y-108050423D01*
X178191661Y-107973746D01*
X178191663Y-107973745D01*
X178195907Y-107972403D01*
X178199918Y-107970477D01*
X178199923Y-107970475D01*
X178429143Y-107860405D01*
X178429144Y-107860404D01*
X178433162Y-107858475D01*
X178567342Y-107768819D01*
X178648289Y-107714732D01*
X178648293Y-107714729D01*
X178651997Y-107712254D01*
X178655314Y-107709283D01*
X178655318Y-107709280D01*
X178844729Y-107539629D01*
X178844730Y-107539628D01*
X178848047Y-107536657D01*
X179017398Y-107335189D01*
X179074085Y-107244296D01*
X179108901Y-107188470D01*
X179156674Y-107111869D01*
X179165552Y-107091789D01*
X179261295Y-106875219D01*
X179263093Y-106871152D01*
X179334534Y-106617843D01*
X179347940Y-106518034D01*
X179369143Y-106360176D01*
X179369144Y-106360168D01*
X179369570Y-106356994D01*
X179372740Y-106256145D01*
X179373146Y-106243222D01*
X179373146Y-106243217D01*
X179373247Y-106240000D01*
X179366094Y-106138965D01*
X179354974Y-105981915D01*
X179354659Y-105977466D01*
X179349817Y-105954973D01*
X179300201Y-105724523D01*
X179299264Y-105720171D01*
X179280218Y-105668543D01*
X179209710Y-105477424D01*
X179208169Y-105473247D01*
X179083191Y-105241622D01*
X178926824Y-105029918D01*
X178923591Y-105026633D01*
X178745318Y-104845539D01*
X178742187Y-104842358D01*
X178738647Y-104839657D01*
X178738641Y-104839651D01*
X178536506Y-104685386D01*
X178536502Y-104685383D01*
X178532965Y-104682684D01*
X178303332Y-104554084D01*
X178057870Y-104459122D01*
X178053545Y-104458119D01*
X178053540Y-104458118D01*
X177903414Y-104423321D01*
X177801476Y-104399693D01*
X177539267Y-104376983D01*
X177534832Y-104377227D01*
X177534828Y-104377227D01*
X177280916Y-104391200D01*
X177280909Y-104391201D01*
X177276473Y-104391445D01*
X177148369Y-104416927D01*
X177022711Y-104441921D01*
X177022706Y-104441922D01*
X177018339Y-104442791D01*
X177014136Y-104444267D01*
X176774223Y-104528518D01*
X176774220Y-104528519D01*
X176770015Y-104529996D01*
X176766062Y-104532049D01*
X176766056Y-104532052D01*
X176679673Y-104576925D01*
X176536456Y-104651321D01*
X176532841Y-104653904D01*
X176532835Y-104653908D01*
X176463008Y-104703808D01*
X176322322Y-104804344D01*
X176319095Y-104807422D01*
X176319093Y-104807424D01*
X176285311Y-104839651D01*
X176131885Y-104986011D01*
X175968945Y-105192700D01*
X175942453Y-105238309D01*
X175838987Y-105416438D01*
X175838984Y-105416444D01*
X175836753Y-105420285D01*
X175737947Y-105664225D01*
X175674498Y-105919654D01*
X175647672Y-106181474D01*
X173868602Y-106181474D01*
X173854478Y-105981986D01*
X173853225Y-105973183D01*
X173799720Y-105724662D01*
X173797241Y-105716129D01*
X173709254Y-105477630D01*
X173705599Y-105469535D01*
X173584881Y-105245807D01*
X173580122Y-105238309D01*
X173502004Y-105132545D01*
X173490876Y-105124103D01*
X173478283Y-105130927D01*
X172382022Y-106227188D01*
X172374408Y-106241132D01*
X171644356Y-106241132D01*
X171645592Y-106238868D01*
X171645461Y-106237035D01*
X171641210Y-106230420D01*
X170541423Y-105130633D01*
X170528582Y-105123621D01*
X170517893Y-105131416D01*
X170472115Y-105189485D01*
X170467122Y-105196833D01*
X170339440Y-105416655D01*
X170335532Y-105424629D01*
X170240097Y-105660247D01*
X170237348Y-105668709D01*
X170176067Y-105915413D01*
X170174538Y-105924174D01*
X170148627Y-106177059D01*
X170148348Y-106185942D01*
X163328205Y-106185942D01*
X163336724Y-106155429D01*
X163358583Y-106119336D01*
X163358584Y-106119333D01*
X163362519Y-106112836D01*
X163404942Y-105977466D01*
X163409991Y-105961356D01*
X163409992Y-105961353D01*
X163411991Y-105954973D01*
X163418500Y-105884134D01*
X163418500Y-104764000D01*
X163420105Y-104758533D01*
X170893889Y-104758533D01*
X170900869Y-104771659D01*
X171997188Y-105867978D01*
X172011132Y-105875592D01*
X172012965Y-105875461D01*
X172019580Y-105871210D01*
X173119129Y-104771661D01*
X173125983Y-104759109D01*
X173117776Y-104748039D01*
X173036230Y-104685805D01*
X173028801Y-104680925D01*
X172807005Y-104556713D01*
X172798971Y-104552932D01*
X172561865Y-104461203D01*
X172553392Y-104458596D01*
X172305736Y-104401193D01*
X172296960Y-104399803D01*
X172043691Y-104377868D01*
X172034820Y-104377728D01*
X171780976Y-104391698D01*
X171772174Y-104392810D01*
X171522832Y-104442408D01*
X171514279Y-104444748D01*
X171274421Y-104528978D01*
X171266255Y-104532512D01*
X171040669Y-104649696D01*
X171033097Y-104654335D01*
X170902292Y-104747810D01*
X170893889Y-104758533D01*
X163420105Y-104758533D01*
X163438502Y-104695879D01*
X163492158Y-104649386D01*
X163544500Y-104638000D01*
X163739634Y-104638000D01*
X163810473Y-104631491D01*
X163816853Y-104629492D01*
X163816856Y-104629491D01*
X163961086Y-104584291D01*
X163968336Y-104582019D01*
X163974833Y-104578084D01*
X163974836Y-104578083D01*
X164093467Y-104506238D01*
X164109842Y-104496321D01*
X164226821Y-104379342D01*
X164277195Y-104296164D01*
X164308583Y-104244336D01*
X164308584Y-104244333D01*
X164312519Y-104237836D01*
X164345407Y-104132892D01*
X164359991Y-104086356D01*
X164359992Y-104086353D01*
X164361991Y-104079973D01*
X164368500Y-104009134D01*
X164368500Y-102649866D01*
X164361991Y-102579027D01*
X164338282Y-102503371D01*
X164314791Y-102428414D01*
X164312519Y-102421164D01*
X164307839Y-102413435D01*
X164230758Y-102286159D01*
X164226821Y-102279658D01*
X164180405Y-102233242D01*
X164146379Y-102170930D01*
X164143500Y-102144147D01*
X164143500Y-101981474D01*
X170147672Y-101981474D01*
X170147847Y-101985926D01*
X170155019Y-102168452D01*
X170158005Y-102244462D01*
X170158805Y-102248842D01*
X170188017Y-102408790D01*
X170205290Y-102503371D01*
X170228401Y-102572644D01*
X170262572Y-102675065D01*
X170288584Y-102753034D01*
X170347652Y-102871247D01*
X170367950Y-102911869D01*
X170406225Y-102988470D01*
X170555865Y-103204982D01*
X170734520Y-103398249D01*
X170938623Y-103564415D01*
X170942431Y-103566708D01*
X170942433Y-103566709D01*
X171160288Y-103697868D01*
X171160292Y-103697870D01*
X171164104Y-103700165D01*
X171272195Y-103745936D01*
X171402359Y-103801054D01*
X171402364Y-103801056D01*
X171406462Y-103802791D01*
X171410760Y-103803930D01*
X171410764Y-103803932D01*
X171533662Y-103836517D01*
X171660862Y-103870244D01*
X171922229Y-103901179D01*
X172185347Y-103894978D01*
X172192743Y-103893747D01*
X172440576Y-103852496D01*
X172440580Y-103852495D01*
X172444966Y-103851765D01*
X172449207Y-103850424D01*
X172449210Y-103850423D01*
X172691661Y-103773746D01*
X172691663Y-103773745D01*
X172695907Y-103772403D01*
X172699918Y-103770477D01*
X172699923Y-103770475D01*
X172929143Y-103660405D01*
X172929144Y-103660404D01*
X172933162Y-103658475D01*
X173045370Y-103583500D01*
X173137018Y-103522263D01*
X176392904Y-103522263D01*
X176400294Y-103532566D01*
X176435455Y-103561192D01*
X176442731Y-103566305D01*
X176660514Y-103697421D01*
X176668428Y-103701454D01*
X176902523Y-103800581D01*
X176910928Y-103803458D01*
X177156650Y-103868610D01*
X177165382Y-103870276D01*
X177417835Y-103900155D01*
X177426703Y-103900573D01*
X177680843Y-103894584D01*
X177689698Y-103893747D01*
X177940459Y-103852009D01*
X177949093Y-103849936D01*
X178191477Y-103773280D01*
X178199739Y-103770009D01*
X178428895Y-103659970D01*
X178436619Y-103655564D01*
X178619218Y-103533556D01*
X178627506Y-103523638D01*
X178620249Y-103509459D01*
X177522812Y-102412022D01*
X177508868Y-102404408D01*
X177507035Y-102404539D01*
X177500420Y-102408790D01*
X176400070Y-103509140D01*
X176392904Y-103522263D01*
X173137018Y-103522263D01*
X173148289Y-103514732D01*
X173148293Y-103514729D01*
X173151997Y-103512254D01*
X173155314Y-103509283D01*
X173155318Y-103509280D01*
X173344729Y-103339629D01*
X173344730Y-103339628D01*
X173348047Y-103336657D01*
X173517398Y-103135189D01*
X173536689Y-103104258D01*
X173654320Y-102915643D01*
X173656674Y-102911869D01*
X173667170Y-102888129D01*
X173761295Y-102675219D01*
X173763093Y-102671152D01*
X173834534Y-102417843D01*
X173847940Y-102318034D01*
X173869143Y-102160176D01*
X173869144Y-102160168D01*
X173869570Y-102156994D01*
X173870090Y-102140462D01*
X173873146Y-102043222D01*
X173873146Y-102043217D01*
X173873247Y-102040000D01*
X173869420Y-101985942D01*
X175648348Y-101985942D01*
X175658328Y-102239960D01*
X175659302Y-102248784D01*
X175704978Y-102498875D01*
X175707182Y-102507462D01*
X175787636Y-102748613D01*
X175791040Y-102756831D01*
X175904667Y-102984235D01*
X175909185Y-102991874D01*
X176017294Y-103148296D01*
X176027612Y-103156647D01*
X176041267Y-103149523D01*
X177137978Y-102052812D01*
X177144356Y-102041132D01*
X177874408Y-102041132D01*
X177874539Y-102042965D01*
X177878790Y-102049580D01*
X178980027Y-103150817D01*
X178993428Y-103158135D01*
X179003329Y-103151149D01*
X179014127Y-103138305D01*
X179019353Y-103131110D01*
X179153867Y-102915425D01*
X179158038Y-102907547D01*
X179260817Y-102675065D01*
X179263833Y-102666688D01*
X179332832Y-102422034D01*
X179334636Y-102413326D01*
X179368643Y-102160145D01*
X179369171Y-102153752D01*
X179372645Y-102043222D01*
X179372518Y-102036779D01*
X179354478Y-101781986D01*
X179353225Y-101773183D01*
X179299720Y-101524662D01*
X179297241Y-101516129D01*
X179209254Y-101277630D01*
X179205599Y-101269535D01*
X179084881Y-101045807D01*
X179080122Y-101038309D01*
X179002004Y-100932545D01*
X178990876Y-100924103D01*
X178978283Y-100930927D01*
X177882022Y-102027188D01*
X177874408Y-102041132D01*
X177144356Y-102041132D01*
X177145592Y-102038868D01*
X177145461Y-102037035D01*
X177141210Y-102030420D01*
X176041423Y-100930633D01*
X176028582Y-100923621D01*
X176017893Y-100931416D01*
X175972115Y-100989485D01*
X175967122Y-100996833D01*
X175839440Y-101216655D01*
X175835532Y-101224629D01*
X175740097Y-101460247D01*
X175737348Y-101468709D01*
X175676067Y-101715413D01*
X175674538Y-101724174D01*
X175648627Y-101977059D01*
X175648348Y-101985942D01*
X173869420Y-101985942D01*
X173866094Y-101938965D01*
X173854974Y-101781915D01*
X173854659Y-101777466D01*
X173843186Y-101724174D01*
X173800201Y-101524523D01*
X173799264Y-101520171D01*
X173780218Y-101468543D01*
X173709710Y-101277424D01*
X173708169Y-101273247D01*
X173654419Y-101173630D01*
X173585304Y-101045538D01*
X173583191Y-101041622D01*
X173426824Y-100829918D01*
X173423591Y-100826633D01*
X173321312Y-100722736D01*
X173242187Y-100642358D01*
X173238647Y-100639657D01*
X173238641Y-100639651D01*
X173132351Y-100558533D01*
X176393889Y-100558533D01*
X176400869Y-100571659D01*
X177497188Y-101667978D01*
X177511132Y-101675592D01*
X177512965Y-101675461D01*
X177519580Y-101671210D01*
X178619129Y-100571661D01*
X178625983Y-100559109D01*
X178617776Y-100548039D01*
X178536230Y-100485805D01*
X178528801Y-100480925D01*
X178307005Y-100356713D01*
X178298971Y-100352932D01*
X178061865Y-100261203D01*
X178053392Y-100258596D01*
X177805736Y-100201193D01*
X177796960Y-100199803D01*
X177543691Y-100177868D01*
X177534820Y-100177728D01*
X177280976Y-100191698D01*
X177272174Y-100192810D01*
X177022832Y-100242408D01*
X177014279Y-100244748D01*
X176774421Y-100328978D01*
X176766255Y-100332512D01*
X176540669Y-100449696D01*
X176533097Y-100454335D01*
X176402292Y-100547810D01*
X176393889Y-100558533D01*
X173132351Y-100558533D01*
X173036506Y-100485386D01*
X173036502Y-100485383D01*
X173032965Y-100482684D01*
X172803332Y-100354084D01*
X172557870Y-100259122D01*
X172553545Y-100258119D01*
X172553540Y-100258118D01*
X172348070Y-100210493D01*
X172301476Y-100199693D01*
X172039267Y-100176983D01*
X172034832Y-100177227D01*
X172034828Y-100177227D01*
X171780916Y-100191200D01*
X171780909Y-100191201D01*
X171776473Y-100191445D01*
X171648369Y-100216927D01*
X171522711Y-100241921D01*
X171522706Y-100241922D01*
X171518339Y-100242791D01*
X171514136Y-100244267D01*
X171274223Y-100328518D01*
X171274220Y-100328519D01*
X171270015Y-100329996D01*
X171266062Y-100332049D01*
X171266056Y-100332052D01*
X171170279Y-100381805D01*
X171036456Y-100451321D01*
X171032841Y-100453904D01*
X171032835Y-100453908D01*
X170971482Y-100497752D01*
X170822322Y-100604344D01*
X170819095Y-100607422D01*
X170819093Y-100607424D01*
X170691114Y-100729510D01*
X170631885Y-100786011D01*
X170468945Y-100992700D01*
X170442453Y-101038309D01*
X170338987Y-101216438D01*
X170338984Y-101216444D01*
X170336753Y-101220285D01*
X170335083Y-101224408D01*
X170281743Y-101356099D01*
X170237947Y-101464225D01*
X170174498Y-101719654D01*
X170147672Y-101981474D01*
X164143500Y-101981474D01*
X164143500Y-100964594D01*
X164163502Y-100896473D01*
X164180405Y-100875499D01*
X166000253Y-99055652D01*
X166008539Y-99048112D01*
X166015018Y-99044000D01*
X166061644Y-98994348D01*
X166064398Y-98991507D01*
X166084135Y-98971770D01*
X166086615Y-98968573D01*
X166094320Y-98959551D01*
X166102793Y-98950528D01*
X166124586Y-98927321D01*
X166128405Y-98920375D01*
X166128407Y-98920372D01*
X166134348Y-98909566D01*
X166145199Y-98893047D01*
X166152758Y-98883301D01*
X166157614Y-98877041D01*
X166160759Y-98869772D01*
X166160762Y-98869768D01*
X166175174Y-98836463D01*
X166180391Y-98825813D01*
X166201695Y-98787060D01*
X166206733Y-98767437D01*
X166213137Y-98748734D01*
X166218033Y-98737420D01*
X166218033Y-98737419D01*
X166221181Y-98730145D01*
X166222420Y-98722322D01*
X166222423Y-98722312D01*
X166228099Y-98686476D01*
X166230505Y-98674856D01*
X166239528Y-98639711D01*
X166239528Y-98639710D01*
X166241500Y-98632030D01*
X166241500Y-98611776D01*
X166243051Y-98592065D01*
X166244980Y-98579886D01*
X166246220Y-98572057D01*
X166242059Y-98528038D01*
X166241500Y-98516181D01*
X166241500Y-97781474D01*
X170147672Y-97781474D01*
X170147847Y-97785926D01*
X170154089Y-97944784D01*
X170158005Y-98044462D01*
X170205290Y-98303371D01*
X170288584Y-98553034D01*
X170317936Y-98611776D01*
X170377082Y-98730145D01*
X170406225Y-98788470D01*
X170408754Y-98792129D01*
X170544447Y-98988461D01*
X170555865Y-99004982D01*
X170734520Y-99198249D01*
X170938623Y-99364415D01*
X170942431Y-99366708D01*
X170942433Y-99366709D01*
X171160288Y-99497868D01*
X171160292Y-99497870D01*
X171164104Y-99500165D01*
X171272195Y-99545936D01*
X171402359Y-99601054D01*
X171402364Y-99601056D01*
X171406462Y-99602791D01*
X171410760Y-99603930D01*
X171410764Y-99603932D01*
X171533662Y-99636518D01*
X171660862Y-99670244D01*
X171922229Y-99701179D01*
X172185347Y-99694978D01*
X172189745Y-99694246D01*
X172440576Y-99652496D01*
X172440580Y-99652495D01*
X172444966Y-99651765D01*
X172449207Y-99650424D01*
X172449210Y-99650423D01*
X172691661Y-99573746D01*
X172691663Y-99573745D01*
X172695907Y-99572403D01*
X172699918Y-99570477D01*
X172699923Y-99570475D01*
X172929143Y-99460405D01*
X172929144Y-99460404D01*
X172933162Y-99458475D01*
X173043187Y-99384958D01*
X173148289Y-99314732D01*
X173148293Y-99314729D01*
X173151997Y-99312254D01*
X173155314Y-99309283D01*
X173155318Y-99309280D01*
X173344730Y-99139628D01*
X173348047Y-99136657D01*
X173350912Y-99133249D01*
X173351934Y-99132194D01*
X173413704Y-99097194D01*
X173436481Y-99094019D01*
X173456018Y-99093097D01*
X173481488Y-99091896D01*
X173486947Y-99090646D01*
X173486952Y-99090645D01*
X173498970Y-99087892D01*
X173515899Y-99085211D01*
X173533762Y-99083617D01*
X173539178Y-99082135D01*
X173539180Y-99082135D01*
X173614133Y-99061630D01*
X173619251Y-99060344D01*
X173695000Y-99042995D01*
X173695002Y-99042994D01*
X173700470Y-99041742D01*
X173710970Y-99037263D01*
X173716967Y-99034706D01*
X173733142Y-99029073D01*
X173745039Y-99025818D01*
X173745043Y-99025817D01*
X173750451Y-99024337D01*
X173825667Y-98988461D01*
X173830476Y-98986290D01*
X173901949Y-98955804D01*
X173901950Y-98955804D01*
X173907109Y-98953603D01*
X173922110Y-98943749D01*
X173937025Y-98935346D01*
X173953218Y-98927622D01*
X173957769Y-98924352D01*
X173957772Y-98924350D01*
X174020881Y-98879001D01*
X174025232Y-98876011D01*
X174091010Y-98832804D01*
X174091018Y-98832798D01*
X174094874Y-98830265D01*
X174115662Y-98811743D01*
X174125939Y-98803510D01*
X174135654Y-98796529D01*
X174210063Y-98719745D01*
X174211452Y-98718335D01*
X175454122Y-97475665D01*
X175516434Y-97441639D01*
X175587249Y-97446704D01*
X175644085Y-97489251D01*
X175668896Y-97555771D01*
X175668561Y-97577598D01*
X175647672Y-97781474D01*
X175647847Y-97785926D01*
X175654089Y-97944784D01*
X175658005Y-98044462D01*
X175705290Y-98303371D01*
X175788584Y-98553034D01*
X175817936Y-98611776D01*
X175877082Y-98730145D01*
X175906225Y-98788470D01*
X175908754Y-98792129D01*
X176044447Y-98988461D01*
X176055865Y-99004982D01*
X176234520Y-99198249D01*
X176438623Y-99364415D01*
X176442431Y-99366708D01*
X176442433Y-99366709D01*
X176660288Y-99497868D01*
X176660292Y-99497870D01*
X176664104Y-99500165D01*
X176772195Y-99545936D01*
X176902359Y-99601054D01*
X176902364Y-99601056D01*
X176906462Y-99602791D01*
X176910760Y-99603930D01*
X176910764Y-99603932D01*
X177033662Y-99636518D01*
X177160862Y-99670244D01*
X177422229Y-99701179D01*
X177685347Y-99694978D01*
X177689745Y-99694246D01*
X177940576Y-99652496D01*
X177940580Y-99652495D01*
X177944966Y-99651765D01*
X177949207Y-99650424D01*
X177949210Y-99650423D01*
X178191661Y-99573746D01*
X178191663Y-99573745D01*
X178195907Y-99572403D01*
X178199918Y-99570477D01*
X178199923Y-99570475D01*
X178429143Y-99460405D01*
X178429144Y-99460404D01*
X178433162Y-99458475D01*
X178543187Y-99384958D01*
X178648289Y-99314732D01*
X178648293Y-99314729D01*
X178651997Y-99312254D01*
X178655314Y-99309283D01*
X178655318Y-99309280D01*
X178844729Y-99139629D01*
X178844730Y-99139628D01*
X178848047Y-99136657D01*
X179017398Y-98935189D01*
X179020613Y-98930035D01*
X179111383Y-98784490D01*
X179156674Y-98711869D01*
X179170660Y-98680235D01*
X179261295Y-98475219D01*
X179263093Y-98471152D01*
X179334534Y-98217843D01*
X179347940Y-98118034D01*
X179369143Y-97960176D01*
X179369144Y-97960168D01*
X179369570Y-97956994D01*
X179373247Y-97840000D01*
X179366094Y-97738965D01*
X179354974Y-97581915D01*
X179354659Y-97577466D01*
X179343167Y-97524085D01*
X179300201Y-97324523D01*
X179299264Y-97320171D01*
X179286903Y-97286663D01*
X179209710Y-97077424D01*
X179208169Y-97073247D01*
X179178298Y-97017886D01*
X179085304Y-96845538D01*
X179083191Y-96841622D01*
X178926824Y-96629918D01*
X178923591Y-96626633D01*
X178745318Y-96445539D01*
X178742187Y-96442358D01*
X178738647Y-96439657D01*
X178738641Y-96439651D01*
X178536506Y-96285386D01*
X178536502Y-96285383D01*
X178532965Y-96282684D01*
X178303332Y-96154084D01*
X178057870Y-96059122D01*
X178053545Y-96058119D01*
X178053540Y-96058118D01*
X177910563Y-96024978D01*
X177801476Y-95999693D01*
X177539267Y-95976983D01*
X177534832Y-95977227D01*
X177534828Y-95977227D01*
X177280916Y-95991200D01*
X177280909Y-95991201D01*
X177276473Y-95991445D01*
X177272108Y-95992313D01*
X177272102Y-95992314D01*
X177261766Y-95994370D01*
X177191052Y-95988041D01*
X177134985Y-95944486D01*
X177111367Y-95877533D01*
X177127695Y-95808440D01*
X177148091Y-95781696D01*
X177393081Y-95536706D01*
X177455393Y-95502680D01*
X177479205Y-95499836D01*
X177685347Y-95494978D01*
X177689745Y-95494246D01*
X177940576Y-95452496D01*
X177940580Y-95452495D01*
X177944966Y-95451765D01*
X177949207Y-95450424D01*
X177949210Y-95450423D01*
X178191661Y-95373746D01*
X178191663Y-95373745D01*
X178195907Y-95372403D01*
X178199918Y-95370477D01*
X178199923Y-95370475D01*
X178429143Y-95260405D01*
X178429144Y-95260404D01*
X178433162Y-95258475D01*
X178543187Y-95184958D01*
X178648289Y-95114732D01*
X178648293Y-95114729D01*
X178651997Y-95112254D01*
X178655314Y-95109283D01*
X178655318Y-95109280D01*
X178844729Y-94939629D01*
X178844730Y-94939628D01*
X178848047Y-94936657D01*
X179017398Y-94735189D01*
X179021528Y-94728568D01*
X179154320Y-94515643D01*
X179156674Y-94511869D01*
X179167170Y-94488129D01*
X179261295Y-94275219D01*
X179263093Y-94271152D01*
X179334534Y-94017843D01*
X179341486Y-93966086D01*
X179369143Y-93760176D01*
X179369144Y-93760168D01*
X179369570Y-93756994D01*
X179370090Y-93740462D01*
X179373146Y-93643222D01*
X179373146Y-93643217D01*
X179373247Y-93640000D01*
X179354659Y-93377466D01*
X179343167Y-93324085D01*
X179300201Y-93124523D01*
X179299264Y-93120171D01*
X179280218Y-93068543D01*
X179209710Y-92877424D01*
X179208169Y-92873247D01*
X179157344Y-92779051D01*
X179085304Y-92645538D01*
X179083191Y-92641622D01*
X178926824Y-92429918D01*
X178856933Y-92358920D01*
X178805736Y-92306913D01*
X178742187Y-92242358D01*
X178738647Y-92239657D01*
X178738641Y-92239651D01*
X178536506Y-92085386D01*
X178536502Y-92085383D01*
X178532965Y-92082684D01*
X178303332Y-91954084D01*
X178057870Y-91859122D01*
X178053545Y-91858119D01*
X178053540Y-91858118D01*
X177908578Y-91824518D01*
X177801476Y-91799693D01*
X177539267Y-91776983D01*
X177534832Y-91777227D01*
X177534828Y-91777227D01*
X177280916Y-91791200D01*
X177280909Y-91791201D01*
X177276473Y-91791445D01*
X177148369Y-91816927D01*
X177022711Y-91841921D01*
X177022706Y-91841922D01*
X177018339Y-91842791D01*
X177014136Y-91844267D01*
X176774223Y-91928518D01*
X176774220Y-91928519D01*
X176770015Y-91929996D01*
X176766062Y-91932049D01*
X176766056Y-91932052D01*
X176634615Y-92000331D01*
X176536456Y-92051321D01*
X176532841Y-92053904D01*
X176532835Y-92053908D01*
X176441399Y-92119250D01*
X176322322Y-92204344D01*
X176319095Y-92207422D01*
X176319093Y-92207424D01*
X176160284Y-92358920D01*
X176131885Y-92386011D01*
X175968945Y-92592700D01*
X175940529Y-92641622D01*
X175838987Y-92816438D01*
X175838984Y-92816444D01*
X175836753Y-92820285D01*
X175835083Y-92824408D01*
X175781743Y-92956099D01*
X175737947Y-93064225D01*
X175674498Y-93319654D01*
X175647672Y-93581474D01*
X175647847Y-93585926D01*
X175650841Y-93662139D01*
X175633528Y-93730992D01*
X175614033Y-93756180D01*
X173135384Y-96234828D01*
X173073072Y-96268854D01*
X173002256Y-96263789D01*
X172984723Y-96255667D01*
X172807223Y-96156262D01*
X172807211Y-96156256D01*
X172803332Y-96154084D01*
X172557870Y-96059122D01*
X172553545Y-96058119D01*
X172553540Y-96058118D01*
X172410563Y-96024978D01*
X172301476Y-95999693D01*
X172039267Y-95976983D01*
X172034832Y-95977227D01*
X172034828Y-95977227D01*
X171780916Y-95991200D01*
X171780909Y-95991201D01*
X171776473Y-95991445D01*
X171648369Y-96016927D01*
X171522711Y-96041921D01*
X171522706Y-96041922D01*
X171518339Y-96042791D01*
X171514136Y-96044267D01*
X171274223Y-96128518D01*
X171274220Y-96128519D01*
X171270015Y-96129996D01*
X171266062Y-96132049D01*
X171266056Y-96132052D01*
X171137832Y-96198660D01*
X171036456Y-96251321D01*
X171032841Y-96253904D01*
X171032835Y-96253908D01*
X170950747Y-96312570D01*
X170822322Y-96404344D01*
X170819095Y-96407422D01*
X170819093Y-96407424D01*
X170760669Y-96463158D01*
X170631885Y-96586011D01*
X170468945Y-96792700D01*
X170422692Y-96872331D01*
X170338987Y-97016438D01*
X170338984Y-97016444D01*
X170336753Y-97020285D01*
X170335083Y-97024408D01*
X170253774Y-97225151D01*
X170237947Y-97264225D01*
X170236876Y-97268538D01*
X170236874Y-97268543D01*
X170232249Y-97287163D01*
X170174498Y-97519654D01*
X170147672Y-97781474D01*
X166241500Y-97781474D01*
X166241500Y-97264968D01*
X166261502Y-97196847D01*
X166301197Y-97157824D01*
X166303746Y-97156247D01*
X166341713Y-97132752D01*
X166462552Y-97011702D01*
X166494674Y-96959591D01*
X166548462Y-96872331D01*
X166548463Y-96872329D01*
X166552302Y-96866101D01*
X166606149Y-96703757D01*
X166607269Y-96692833D01*
X166613346Y-96633510D01*
X166616500Y-96602732D01*
X166616500Y-96055268D01*
X166615206Y-96042791D01*
X166608417Y-95977367D01*
X166605887Y-95952981D01*
X166594304Y-95918263D01*
X166554073Y-95797676D01*
X166554072Y-95797674D01*
X166551756Y-95790732D01*
X166461752Y-95645287D01*
X166409533Y-95593159D01*
X166375454Y-95530877D01*
X166380457Y-95460056D01*
X166409379Y-95414968D01*
X166457377Y-95366887D01*
X166457381Y-95366882D01*
X166462552Y-95361702D01*
X166526182Y-95258475D01*
X166548462Y-95222331D01*
X166548463Y-95222329D01*
X166552302Y-95216101D01*
X166606149Y-95053757D01*
X166616500Y-94952732D01*
X166616500Y-94405268D01*
X166605887Y-94302981D01*
X166570023Y-94195483D01*
X166554073Y-94147676D01*
X166554072Y-94147674D01*
X166551756Y-94140732D01*
X166516875Y-94084364D01*
X166465606Y-94001515D01*
X166461752Y-93995287D01*
X166456570Y-93990114D01*
X166456566Y-93990109D01*
X166403483Y-93937119D01*
X166369403Y-93874837D01*
X166366500Y-93847946D01*
X166366500Y-93581474D01*
X170147672Y-93581474D01*
X170147847Y-93585926D01*
X170155580Y-93782732D01*
X170158005Y-93844462D01*
X170205290Y-94103371D01*
X170288584Y-94353034D01*
X170316316Y-94408534D01*
X170367950Y-94511869D01*
X170406225Y-94588470D01*
X170555865Y-94804982D01*
X170734520Y-94998249D01*
X170938623Y-95164415D01*
X170942431Y-95166708D01*
X170942433Y-95166709D01*
X171160288Y-95297868D01*
X171160292Y-95297870D01*
X171164104Y-95300165D01*
X171276515Y-95347765D01*
X171402359Y-95401054D01*
X171402364Y-95401056D01*
X171406462Y-95402791D01*
X171410760Y-95403930D01*
X171410764Y-95403932D01*
X171516805Y-95432048D01*
X171660862Y-95470244D01*
X171922229Y-95501179D01*
X172185347Y-95494978D01*
X172189745Y-95494246D01*
X172440576Y-95452496D01*
X172440580Y-95452495D01*
X172444966Y-95451765D01*
X172449207Y-95450424D01*
X172449210Y-95450423D01*
X172691661Y-95373746D01*
X172691663Y-95373745D01*
X172695907Y-95372403D01*
X172699918Y-95370477D01*
X172699923Y-95370475D01*
X172929143Y-95260405D01*
X172929144Y-95260404D01*
X172933162Y-95258475D01*
X173043187Y-95184958D01*
X173148289Y-95114732D01*
X173148293Y-95114729D01*
X173151997Y-95112254D01*
X173155314Y-95109283D01*
X173155318Y-95109280D01*
X173344729Y-94939629D01*
X173344730Y-94939628D01*
X173348047Y-94936657D01*
X173517398Y-94735189D01*
X173521528Y-94728568D01*
X173654320Y-94515643D01*
X173656674Y-94511869D01*
X173667170Y-94488129D01*
X173761295Y-94275219D01*
X173763093Y-94271152D01*
X173834534Y-94017843D01*
X173841486Y-93966086D01*
X173869143Y-93760176D01*
X173869144Y-93760168D01*
X173869570Y-93756994D01*
X173870090Y-93740462D01*
X173873146Y-93643222D01*
X173873146Y-93643217D01*
X173873247Y-93640000D01*
X173854659Y-93377466D01*
X173843167Y-93324085D01*
X173800201Y-93124523D01*
X173799264Y-93120171D01*
X173780218Y-93068543D01*
X173709710Y-92877424D01*
X173708169Y-92873247D01*
X173657344Y-92779051D01*
X173585304Y-92645538D01*
X173583191Y-92641622D01*
X173426824Y-92429918D01*
X173356933Y-92358920D01*
X173305736Y-92306913D01*
X173242187Y-92242358D01*
X173238647Y-92239657D01*
X173238641Y-92239651D01*
X173036506Y-92085386D01*
X173036502Y-92085383D01*
X173032965Y-92082684D01*
X172803332Y-91954084D01*
X172557870Y-91859122D01*
X172553545Y-91858119D01*
X172553540Y-91858118D01*
X172408578Y-91824518D01*
X172301476Y-91799693D01*
X172039267Y-91776983D01*
X172034832Y-91777227D01*
X172034828Y-91777227D01*
X171780916Y-91791200D01*
X171780909Y-91791201D01*
X171776473Y-91791445D01*
X171648369Y-91816927D01*
X171522711Y-91841921D01*
X171522706Y-91841922D01*
X171518339Y-91842791D01*
X171514136Y-91844267D01*
X171274223Y-91928518D01*
X171274220Y-91928519D01*
X171270015Y-91929996D01*
X171266062Y-91932049D01*
X171266056Y-91932052D01*
X171134615Y-92000331D01*
X171036456Y-92051321D01*
X171032841Y-92053904D01*
X171032835Y-92053908D01*
X170941399Y-92119250D01*
X170822322Y-92204344D01*
X170819095Y-92207422D01*
X170819093Y-92207424D01*
X170660284Y-92358920D01*
X170631885Y-92386011D01*
X170468945Y-92592700D01*
X170440529Y-92641622D01*
X170338987Y-92816438D01*
X170338984Y-92816444D01*
X170336753Y-92820285D01*
X170335083Y-92824408D01*
X170281743Y-92956099D01*
X170237947Y-93064225D01*
X170174498Y-93319654D01*
X170147672Y-93581474D01*
X166366500Y-93581474D01*
X166366500Y-92187371D01*
X166386502Y-92119250D01*
X166403405Y-92098276D01*
X167579418Y-90922263D01*
X170892904Y-90922263D01*
X170900294Y-90932566D01*
X170935455Y-90961192D01*
X170942731Y-90966305D01*
X171160514Y-91097421D01*
X171168428Y-91101454D01*
X171402523Y-91200581D01*
X171410928Y-91203458D01*
X171656650Y-91268610D01*
X171665382Y-91270276D01*
X171917835Y-91300155D01*
X171926703Y-91300573D01*
X172180843Y-91294584D01*
X172189698Y-91293747D01*
X172440459Y-91252009D01*
X172449093Y-91249936D01*
X172691477Y-91173280D01*
X172699739Y-91170009D01*
X172928895Y-91059970D01*
X172936619Y-91055564D01*
X173119218Y-90933556D01*
X173127506Y-90923638D01*
X173126802Y-90922263D01*
X176392904Y-90922263D01*
X176400294Y-90932566D01*
X176435455Y-90961192D01*
X176442731Y-90966305D01*
X176660514Y-91097421D01*
X176668428Y-91101454D01*
X176902523Y-91200581D01*
X176910928Y-91203458D01*
X177156650Y-91268610D01*
X177165382Y-91270276D01*
X177417835Y-91300155D01*
X177426703Y-91300573D01*
X177680843Y-91294584D01*
X177689698Y-91293747D01*
X177940459Y-91252009D01*
X177949093Y-91249936D01*
X178191477Y-91173280D01*
X178199739Y-91170009D01*
X178428895Y-91059970D01*
X178436619Y-91055564D01*
X178619218Y-90933556D01*
X178627506Y-90923638D01*
X178620249Y-90909459D01*
X177522812Y-89812022D01*
X177508868Y-89804408D01*
X177507035Y-89804539D01*
X177500420Y-89808790D01*
X176400070Y-90909140D01*
X176392904Y-90922263D01*
X173126802Y-90922263D01*
X173120249Y-90909459D01*
X172022812Y-89812022D01*
X172008868Y-89804408D01*
X172007035Y-89804539D01*
X172000420Y-89808790D01*
X170900070Y-90909140D01*
X170892904Y-90922263D01*
X167579418Y-90922263D01*
X170301847Y-88199834D01*
X170364159Y-88165808D01*
X170434974Y-88170873D01*
X170491810Y-88213420D01*
X170516621Y-88279940D01*
X170501530Y-88349314D01*
X170489892Y-88366935D01*
X170472115Y-88389485D01*
X170467122Y-88396833D01*
X170339440Y-88616655D01*
X170335532Y-88624629D01*
X170240097Y-88860247D01*
X170237348Y-88868709D01*
X170176067Y-89115413D01*
X170174538Y-89124174D01*
X170148627Y-89377059D01*
X170148348Y-89385942D01*
X170158328Y-89639960D01*
X170159302Y-89648784D01*
X170204978Y-89898875D01*
X170207182Y-89907462D01*
X170287636Y-90148613D01*
X170291040Y-90156831D01*
X170404667Y-90384235D01*
X170409185Y-90391874D01*
X170517294Y-90548296D01*
X170527612Y-90556647D01*
X170541267Y-90549523D01*
X171920905Y-89169885D01*
X171983217Y-89135859D01*
X172054032Y-89140924D01*
X172099095Y-89169885D01*
X173480027Y-90550817D01*
X173493428Y-90558135D01*
X173503329Y-90551149D01*
X173514127Y-90538305D01*
X173519353Y-90531110D01*
X173653867Y-90315425D01*
X173658038Y-90307547D01*
X173760817Y-90075065D01*
X173763833Y-90066688D01*
X173832832Y-89822034D01*
X173834636Y-89813326D01*
X173868643Y-89560145D01*
X173869171Y-89553752D01*
X173872645Y-89443222D01*
X173872518Y-89436779D01*
X173854478Y-89181986D01*
X173853225Y-89173183D01*
X173799720Y-88924662D01*
X173797241Y-88916129D01*
X173709254Y-88677630D01*
X173705599Y-88669535D01*
X173584881Y-88445807D01*
X173580128Y-88438319D01*
X173504082Y-88335359D01*
X173479700Y-88268680D01*
X173495237Y-88199405D01*
X173545761Y-88149526D01*
X173605434Y-88134500D01*
X175913354Y-88134500D01*
X175981475Y-88154502D01*
X176027968Y-88208158D01*
X176038072Y-88278432D01*
X176012304Y-88338506D01*
X175972115Y-88389485D01*
X175967122Y-88396833D01*
X175839440Y-88616655D01*
X175835532Y-88624629D01*
X175740097Y-88860247D01*
X175737348Y-88868709D01*
X175676067Y-89115413D01*
X175674538Y-89124174D01*
X175648627Y-89377059D01*
X175648348Y-89385942D01*
X175658328Y-89639960D01*
X175659302Y-89648784D01*
X175704978Y-89898875D01*
X175707182Y-89907462D01*
X175787636Y-90148613D01*
X175791040Y-90156831D01*
X175904667Y-90384235D01*
X175909185Y-90391874D01*
X176017294Y-90548296D01*
X176027612Y-90556647D01*
X176041267Y-90549523D01*
X177149658Y-89441132D01*
X177874408Y-89441132D01*
X177874539Y-89442965D01*
X177878790Y-89449580D01*
X178980027Y-90550817D01*
X178993428Y-90558135D01*
X179003329Y-90551149D01*
X179014127Y-90538305D01*
X179019353Y-90531110D01*
X179153867Y-90315425D01*
X179158038Y-90307547D01*
X179260817Y-90075065D01*
X179263833Y-90066688D01*
X179332832Y-89822034D01*
X179334636Y-89813326D01*
X179368643Y-89560145D01*
X179369171Y-89553752D01*
X179372645Y-89443222D01*
X179372518Y-89436779D01*
X179354478Y-89181986D01*
X179353225Y-89173183D01*
X179299720Y-88924662D01*
X179297241Y-88916129D01*
X179209254Y-88677630D01*
X179205599Y-88669535D01*
X179084881Y-88445807D01*
X179080122Y-88438309D01*
X179002004Y-88332545D01*
X178990876Y-88324103D01*
X178978283Y-88330927D01*
X177882022Y-89427188D01*
X177874408Y-89441132D01*
X177149658Y-89441132D01*
X178619129Y-87971661D01*
X178625983Y-87959109D01*
X178617776Y-87948039D01*
X178536230Y-87885805D01*
X178528801Y-87880925D01*
X178307005Y-87756713D01*
X178298971Y-87752932D01*
X178061865Y-87661203D01*
X178053392Y-87658596D01*
X177885488Y-87619678D01*
X177823643Y-87584810D01*
X177790466Y-87522042D01*
X177796492Y-87451302D01*
X177824844Y-87407837D01*
X177998911Y-87233770D01*
X178013323Y-87221384D01*
X178024918Y-87212851D01*
X178024923Y-87212846D01*
X178030818Y-87208508D01*
X178035557Y-87202930D01*
X178035560Y-87202927D01*
X178065035Y-87168232D01*
X178071965Y-87160716D01*
X178077660Y-87155021D01*
X178095281Y-87132749D01*
X178098072Y-87129345D01*
X178140591Y-87079297D01*
X178140592Y-87079295D01*
X178145333Y-87073715D01*
X178148661Y-87067199D01*
X178152028Y-87062150D01*
X178155196Y-87057020D01*
X178159734Y-87051284D01*
X178177752Y-87012732D01*
X178224713Y-86959489D01*
X178237357Y-86952499D01*
X178429143Y-86860405D01*
X178429144Y-86860404D01*
X178433162Y-86858475D01*
X178560478Y-86773405D01*
X178648289Y-86714732D01*
X178648293Y-86714729D01*
X178651997Y-86712254D01*
X178655314Y-86709283D01*
X178655318Y-86709280D01*
X178844729Y-86539629D01*
X178844730Y-86539628D01*
X178848047Y-86536657D01*
X179017398Y-86335189D01*
X179036689Y-86304258D01*
X179154320Y-86115643D01*
X179156674Y-86111869D01*
X179167170Y-86088129D01*
X179261295Y-85875219D01*
X179263093Y-85871152D01*
X179334534Y-85617843D01*
X179349095Y-85509435D01*
X179369143Y-85360176D01*
X179369144Y-85360168D01*
X179369570Y-85356994D01*
X179370090Y-85340462D01*
X179373146Y-85243222D01*
X179373146Y-85243217D01*
X179373247Y-85240000D01*
X179354659Y-84977466D01*
X179345318Y-84934077D01*
X179300201Y-84724523D01*
X179299264Y-84720171D01*
X179296102Y-84711598D01*
X179209710Y-84477424D01*
X179208169Y-84473247D01*
X179174354Y-84410576D01*
X179085304Y-84245538D01*
X179083191Y-84241622D01*
X178926824Y-84029918D01*
X178742187Y-83842358D01*
X178738647Y-83839657D01*
X178738641Y-83839651D01*
X178536506Y-83685386D01*
X178536502Y-83685383D01*
X178532965Y-83682684D01*
X178303332Y-83554084D01*
X178057870Y-83459122D01*
X178053545Y-83458119D01*
X178053540Y-83458118D01*
X177912794Y-83425495D01*
X177801476Y-83399693D01*
X177539267Y-83376983D01*
X177534832Y-83377227D01*
X177534828Y-83377227D01*
X177280916Y-83391200D01*
X177280909Y-83391201D01*
X177276473Y-83391445D01*
X177148369Y-83416927D01*
X177022711Y-83441921D01*
X177022706Y-83441922D01*
X177018339Y-83442791D01*
X177014136Y-83444267D01*
X176774223Y-83528518D01*
X176774220Y-83528519D01*
X176770015Y-83529996D01*
X176766062Y-83532049D01*
X176766056Y-83532052D01*
X176634615Y-83600331D01*
X176536456Y-83651321D01*
X176532841Y-83653904D01*
X176532835Y-83653908D01*
X176449479Y-83713476D01*
X176322322Y-83804344D01*
X176319095Y-83807422D01*
X176319093Y-83807424D01*
X176191114Y-83929510D01*
X176131885Y-83986011D01*
X175968945Y-84192700D01*
X175938969Y-84244308D01*
X175838987Y-84416438D01*
X175838984Y-84416444D01*
X175836753Y-84420285D01*
X175835083Y-84424408D01*
X175739879Y-84659456D01*
X175737947Y-84664225D01*
X175736876Y-84668538D01*
X175736874Y-84668543D01*
X175725088Y-84715990D01*
X175674498Y-84919654D01*
X175647672Y-85181474D01*
X175658005Y-85444462D01*
X175705290Y-85703371D01*
X175788584Y-85953034D01*
X175790577Y-85957022D01*
X175867950Y-86111869D01*
X175906225Y-86188470D01*
X176055865Y-86404982D01*
X176058893Y-86408258D01*
X176061672Y-86411726D01*
X176060217Y-86412892D01*
X176088335Y-86469586D01*
X176080485Y-86540147D01*
X176035733Y-86595264D01*
X175964255Y-86617500D01*
X173550607Y-86617500D01*
X173482486Y-86597498D01*
X173435993Y-86543842D01*
X173425889Y-86473568D01*
X173454156Y-86410425D01*
X173514533Y-86338597D01*
X173517398Y-86335189D01*
X173536689Y-86304258D01*
X173654320Y-86115643D01*
X173656674Y-86111869D01*
X173667170Y-86088129D01*
X173761295Y-85875219D01*
X173763093Y-85871152D01*
X173834534Y-85617843D01*
X173849095Y-85509435D01*
X173869143Y-85360176D01*
X173869144Y-85360168D01*
X173869570Y-85356994D01*
X173870090Y-85340462D01*
X173873146Y-85243222D01*
X173873146Y-85243217D01*
X173873247Y-85240000D01*
X173854659Y-84977466D01*
X173845318Y-84934077D01*
X173800201Y-84724523D01*
X173799264Y-84720171D01*
X173796102Y-84711598D01*
X173709710Y-84477424D01*
X173708169Y-84473247D01*
X173674354Y-84410576D01*
X173585304Y-84245538D01*
X173583191Y-84241622D01*
X173426824Y-84029918D01*
X173242187Y-83842358D01*
X173238647Y-83839657D01*
X173238641Y-83839651D01*
X173036506Y-83685386D01*
X173036502Y-83685383D01*
X173032965Y-83682684D01*
X172803332Y-83554084D01*
X172557870Y-83459122D01*
X172553545Y-83458119D01*
X172553540Y-83458118D01*
X172412794Y-83425495D01*
X172301476Y-83399693D01*
X172039267Y-83376983D01*
X172034832Y-83377227D01*
X172034828Y-83377227D01*
X171780916Y-83391200D01*
X171780909Y-83391201D01*
X171776473Y-83391445D01*
X171648369Y-83416927D01*
X171522711Y-83441921D01*
X171522706Y-83441922D01*
X171518339Y-83442791D01*
X171514136Y-83444267D01*
X171274223Y-83528518D01*
X171274220Y-83528519D01*
X171270015Y-83529996D01*
X171266062Y-83532049D01*
X171266056Y-83532052D01*
X171134615Y-83600331D01*
X171036456Y-83651321D01*
X171032841Y-83653904D01*
X171032835Y-83653908D01*
X170949479Y-83713476D01*
X170822322Y-83804344D01*
X170819095Y-83807422D01*
X170819093Y-83807424D01*
X170691114Y-83929510D01*
X170631885Y-83986011D01*
X170468945Y-84192700D01*
X170337624Y-84418786D01*
X170286113Y-84467644D01*
X170228670Y-84481500D01*
X169843069Y-84481500D01*
X169824121Y-84480067D01*
X169816780Y-84478950D01*
X169809883Y-84477901D01*
X169809881Y-84477901D01*
X169802651Y-84476801D01*
X169795359Y-84477394D01*
X169795356Y-84477394D01*
X169749982Y-84481085D01*
X169739767Y-84481500D01*
X169731707Y-84481500D01*
X169718417Y-84483049D01*
X169703493Y-84484789D01*
X169699118Y-84485222D01*
X169633661Y-84490546D01*
X169633658Y-84490547D01*
X169626363Y-84491140D01*
X169619399Y-84493396D01*
X169613440Y-84494587D01*
X169607585Y-84495971D01*
X169600319Y-84496818D01*
X169531673Y-84521735D01*
X169527545Y-84523152D01*
X169465064Y-84543393D01*
X169465062Y-84543394D01*
X169458101Y-84545649D01*
X169451846Y-84549445D01*
X169446372Y-84551951D01*
X169440942Y-84554670D01*
X169434063Y-84557167D01*
X169427943Y-84561180D01*
X169427942Y-84561180D01*
X169373024Y-84597186D01*
X169369320Y-84599523D01*
X169306893Y-84637405D01*
X169298516Y-84644803D01*
X169298492Y-84644776D01*
X169295500Y-84647429D01*
X169292267Y-84650132D01*
X169286148Y-84654144D01*
X169281116Y-84659456D01*
X169232872Y-84710383D01*
X169230494Y-84712825D01*
X163633595Y-90309724D01*
X163571283Y-90343750D01*
X163500468Y-90338685D01*
X163443632Y-90296138D01*
X163418821Y-90229618D01*
X163418500Y-90220629D01*
X163418500Y-89490366D01*
X163413624Y-89437304D01*
X163427308Y-89367641D01*
X163450000Y-89336681D01*
X166858911Y-85927770D01*
X166873323Y-85915384D01*
X166884918Y-85906851D01*
X166884923Y-85906846D01*
X166890818Y-85902508D01*
X166895557Y-85896930D01*
X166895560Y-85896927D01*
X166925035Y-85862232D01*
X166931965Y-85854716D01*
X166937661Y-85849020D01*
X166939924Y-85846159D01*
X166939929Y-85846154D01*
X166955293Y-85826734D01*
X166958082Y-85823333D01*
X166959743Y-85821378D01*
X167005333Y-85767715D01*
X167008659Y-85761202D01*
X167012020Y-85756163D01*
X167015196Y-85751021D01*
X167019734Y-85745284D01*
X167050655Y-85679125D01*
X167052561Y-85675225D01*
X167085769Y-85610192D01*
X167087508Y-85603083D01*
X167089604Y-85597449D01*
X167091523Y-85591679D01*
X167094622Y-85585050D01*
X167109491Y-85513565D01*
X167110461Y-85509282D01*
X167126473Y-85443844D01*
X167127808Y-85438390D01*
X167128500Y-85427236D01*
X167128535Y-85427238D01*
X167128775Y-85423266D01*
X167129152Y-85419045D01*
X167130641Y-85411885D01*
X167128546Y-85334458D01*
X167128500Y-85331050D01*
X167128500Y-81274500D01*
X167148502Y-81206379D01*
X167202158Y-81159886D01*
X167254500Y-81148500D01*
X167418134Y-81148500D01*
X167480316Y-81141745D01*
X167616705Y-81090615D01*
X167733261Y-81003261D01*
X167820615Y-80886705D01*
X167871745Y-80750316D01*
X167878500Y-80688134D01*
X167878500Y-79495500D01*
X167898502Y-79427379D01*
X167952158Y-79380886D01*
X168004500Y-79369500D01*
X168414367Y-79369500D01*
X168480483Y-79388240D01*
X168559090Y-79436694D01*
X168566262Y-79441115D01*
X168610262Y-79455709D01*
X168727611Y-79494632D01*
X168727613Y-79494632D01*
X168734139Y-79496797D01*
X168740975Y-79497497D01*
X168740978Y-79497498D01*
X168784031Y-79501909D01*
X168838600Y-79507500D01*
X169489400Y-79507500D01*
X169492646Y-79507163D01*
X169492650Y-79507163D01*
X169588308Y-79497238D01*
X169588312Y-79497237D01*
X169595166Y-79496526D01*
X169601702Y-79494345D01*
X169601704Y-79494345D01*
X169733806Y-79450272D01*
X169762946Y-79440550D01*
X169847290Y-79388356D01*
X169913593Y-79369500D01*
X172887118Y-79369500D01*
X172955239Y-79389502D01*
X173001732Y-79443158D01*
X173006670Y-79455709D01*
X173008694Y-79461790D01*
X173026290Y-79514657D01*
X173105308Y-79637612D01*
X173151801Y-79691268D01*
X173155194Y-79694208D01*
X173255450Y-79781081D01*
X173255453Y-79781083D01*
X173262261Y-79786982D01*
X173395210Y-79847698D01*
X173414156Y-79853261D01*
X173459008Y-79866431D01*
X173459012Y-79866432D01*
X173463331Y-79867700D01*
X173467780Y-79868340D01*
X173467786Y-79868341D01*
X173603553Y-79887861D01*
X173603558Y-79887861D01*
X173608000Y-79888500D01*
X176023000Y-79888500D01*
X176026346Y-79888140D01*
X176026351Y-79888140D01*
X176128785Y-79877128D01*
X176128792Y-79877127D01*
X176132149Y-79876766D01*
X176135450Y-79876048D01*
X176181210Y-79866094D01*
X176181215Y-79866093D01*
X176184491Y-79865380D01*
X176288657Y-79830710D01*
X176411612Y-79751692D01*
X176437212Y-79729510D01*
X176461875Y-79708139D01*
X176465268Y-79705199D01*
X176482331Y-79685507D01*
X176555081Y-79601550D01*
X176555083Y-79601547D01*
X176560982Y-79594739D01*
X176621698Y-79461790D01*
X176641700Y-79393669D01*
X176643855Y-79378684D01*
X176661861Y-79253447D01*
X176661861Y-79253442D01*
X176662500Y-79249000D01*
X176662500Y-77596000D01*
X176662140Y-77592649D01*
X176651128Y-77490215D01*
X176651127Y-77490208D01*
X176650766Y-77486851D01*
X176643366Y-77452831D01*
X176640094Y-77437790D01*
X176640093Y-77437785D01*
X176639380Y-77434509D01*
X176604710Y-77330343D01*
X176525692Y-77207388D01*
X176522405Y-77203594D01*
X176482139Y-77157125D01*
X176479199Y-77153732D01*
X176469933Y-77145703D01*
X176375550Y-77063919D01*
X176375547Y-77063917D01*
X176368739Y-77058018D01*
X176235790Y-76997302D01*
X176212036Y-76990327D01*
X176171992Y-76978569D01*
X176171988Y-76978568D01*
X176167669Y-76977300D01*
X176163220Y-76976660D01*
X176163214Y-76976659D01*
X176027447Y-76957139D01*
X176027442Y-76957139D01*
X176023000Y-76956500D01*
X173608000Y-76956500D01*
X173604654Y-76956860D01*
X173604649Y-76956860D01*
X173502215Y-76967872D01*
X173502208Y-76967873D01*
X173498851Y-76968234D01*
X173495551Y-76968952D01*
X173495550Y-76968952D01*
X173449790Y-76978906D01*
X173449785Y-76978907D01*
X173446509Y-76979620D01*
X173342343Y-77014290D01*
X173219388Y-77093308D01*
X173215993Y-77096250D01*
X173215990Y-77096252D01*
X173190744Y-77118128D01*
X173165732Y-77139801D01*
X173162792Y-77143194D01*
X173075919Y-77243450D01*
X173075917Y-77243453D01*
X173070018Y-77250261D01*
X173009302Y-77383210D01*
X173008034Y-77387529D01*
X172991273Y-77444613D01*
X172989300Y-77451331D01*
X172988659Y-77455788D01*
X172988657Y-77455798D01*
X172983102Y-77494432D01*
X172953609Y-77559013D01*
X172893883Y-77597396D01*
X172858385Y-77602500D01*
X170278343Y-77602500D01*
X170210222Y-77582498D01*
X170163729Y-77528842D01*
X170153625Y-77458568D01*
X170158750Y-77436833D01*
X170184137Y-77360293D01*
X170187005Y-77346914D01*
X170196672Y-77252562D01*
X170197000Y-77246146D01*
X170197000Y-77221115D01*
X170192525Y-77205876D01*
X170191135Y-77204671D01*
X170183452Y-77203000D01*
X168149116Y-77203000D01*
X168133877Y-77207475D01*
X168132672Y-77208865D01*
X168131001Y-77216548D01*
X168131001Y-77246095D01*
X168131338Y-77252614D01*
X168141257Y-77348206D01*
X168144149Y-77361600D01*
X168169179Y-77436624D01*
X168171763Y-77507573D01*
X168135580Y-77568657D01*
X168072115Y-77600482D01*
X168049655Y-77602500D01*
X168004500Y-77602500D01*
X167936379Y-77582498D01*
X167889886Y-77528842D01*
X167878500Y-77476500D01*
X167878500Y-76791866D01*
X167871745Y-76729684D01*
X167851952Y-76676885D01*
X168131000Y-76676885D01*
X168135475Y-76692124D01*
X168136865Y-76693329D01*
X168144548Y-76695000D01*
X168891885Y-76695000D01*
X168907124Y-76690525D01*
X168908329Y-76689135D01*
X168910000Y-76681452D01*
X168910000Y-76676885D01*
X169418000Y-76676885D01*
X169422475Y-76692124D01*
X169423865Y-76693329D01*
X169431548Y-76695000D01*
X170178884Y-76695000D01*
X170194123Y-76690525D01*
X170195328Y-76689135D01*
X170196999Y-76681452D01*
X170196999Y-76651905D01*
X170196662Y-76645386D01*
X170186743Y-76549794D01*
X170183851Y-76536400D01*
X170132412Y-76382216D01*
X170126239Y-76369038D01*
X170040937Y-76231193D01*
X170031901Y-76219792D01*
X169917171Y-76105261D01*
X169905760Y-76096249D01*
X169767757Y-76011184D01*
X169754576Y-76005037D01*
X169600290Y-75953862D01*
X169586914Y-75950995D01*
X169492562Y-75941328D01*
X169486145Y-75941000D01*
X169436115Y-75941000D01*
X169420876Y-75945475D01*
X169419671Y-75946865D01*
X169418000Y-75954548D01*
X169418000Y-76676885D01*
X168910000Y-76676885D01*
X168910000Y-75959116D01*
X168905525Y-75943877D01*
X168904135Y-75942672D01*
X168896452Y-75941001D01*
X168841905Y-75941001D01*
X168835386Y-75941338D01*
X168739794Y-75951257D01*
X168726400Y-75954149D01*
X168572216Y-76005588D01*
X168559038Y-76011761D01*
X168421193Y-76097063D01*
X168409792Y-76106099D01*
X168295261Y-76220829D01*
X168286249Y-76232240D01*
X168201184Y-76370243D01*
X168195037Y-76383424D01*
X168143862Y-76537710D01*
X168140995Y-76551086D01*
X168131328Y-76645438D01*
X168131000Y-76651855D01*
X168131000Y-76676885D01*
X167851952Y-76676885D01*
X167820615Y-76593295D01*
X167733261Y-76476739D01*
X167616705Y-76389385D01*
X167480316Y-76338255D01*
X167418134Y-76331500D01*
X165321866Y-76331500D01*
X165259684Y-76338255D01*
X165123295Y-76389385D01*
X165006739Y-76476739D01*
X164919385Y-76593295D01*
X164868255Y-76729684D01*
X164861500Y-76791866D01*
X164861500Y-80688134D01*
X164868255Y-80750316D01*
X164919385Y-80886705D01*
X165006739Y-81003261D01*
X165123295Y-81090615D01*
X165259684Y-81141745D01*
X165321866Y-81148500D01*
X165485500Y-81148500D01*
X165553621Y-81168502D01*
X165600114Y-81222158D01*
X165611500Y-81274500D01*
X165611500Y-84977629D01*
X165591498Y-85045750D01*
X165574595Y-85066724D01*
X162071089Y-88570230D01*
X162056677Y-88582616D01*
X162045082Y-88591149D01*
X162045077Y-88591154D01*
X162039182Y-88595492D01*
X162034443Y-88601070D01*
X162034440Y-88601073D01*
X162004965Y-88635768D01*
X161998035Y-88643284D01*
X161992340Y-88648979D01*
X161990060Y-88651861D01*
X161974719Y-88671251D01*
X161971928Y-88674655D01*
X161969401Y-88677630D01*
X161924667Y-88730285D01*
X161921339Y-88736801D01*
X161917972Y-88741850D01*
X161914805Y-88746979D01*
X161910266Y-88752716D01*
X161879345Y-88818875D01*
X161877442Y-88822769D01*
X161844231Y-88887808D01*
X161842492Y-88894916D01*
X161840393Y-88900559D01*
X161838476Y-88906322D01*
X161835378Y-88912950D01*
X161833888Y-88920112D01*
X161833888Y-88920113D01*
X161820514Y-88984412D01*
X161819544Y-88988696D01*
X161802192Y-89059610D01*
X161801500Y-89070764D01*
X161801464Y-89070762D01*
X161801225Y-89074755D01*
X161800851Y-89078947D01*
X161799360Y-89086115D01*
X161799558Y-89093432D01*
X161801114Y-89150954D01*
X161782936Y-89219631D01*
X161761419Y-89255160D01*
X161761416Y-89255166D01*
X161757481Y-89261664D01*
X161755209Y-89268914D01*
X161735195Y-89332779D01*
X161708009Y-89419527D01*
X161701500Y-89490366D01*
X161701500Y-90610500D01*
X161681498Y-90678621D01*
X161627842Y-90725114D01*
X161575500Y-90736500D01*
X161380366Y-90736500D01*
X161309527Y-90743009D01*
X161303147Y-90745008D01*
X161303144Y-90745009D01*
X161176078Y-90784830D01*
X161151664Y-90792481D01*
X161145167Y-90796416D01*
X161145164Y-90796417D01*
X161044135Y-90857602D01*
X161010158Y-90878179D01*
X160893179Y-90995158D01*
X160889242Y-91001659D01*
X160828805Y-91101454D01*
X160807481Y-91136664D01*
X160805209Y-91143914D01*
X160771334Y-91252009D01*
X160758009Y-91294527D01*
X160751500Y-91365366D01*
X160751500Y-92724634D01*
X160758009Y-92795473D01*
X160760008Y-92801853D01*
X160760009Y-92801856D01*
X160767077Y-92824408D01*
X160807481Y-92953336D01*
X160811416Y-92959833D01*
X160811417Y-92959836D01*
X160833276Y-92995929D01*
X160851500Y-93061200D01*
X160851500Y-93782754D01*
X160831498Y-93850875D01*
X160809834Y-93874796D01*
X160810287Y-93875248D01*
X160689448Y-93996298D01*
X160685608Y-94002528D01*
X160685607Y-94002529D01*
X160604255Y-94134507D01*
X160599698Y-94141899D01*
X160545851Y-94304243D01*
X160535500Y-94405268D01*
X160535500Y-94952732D01*
X160546113Y-95055019D01*
X160548295Y-95061559D01*
X160597537Y-95209153D01*
X160600244Y-95217268D01*
X160604096Y-95223492D01*
X160604096Y-95223493D01*
X160635241Y-95273823D01*
X160690248Y-95362713D01*
X160694357Y-95366815D01*
X160720759Y-95432048D01*
X160707587Y-95501812D01*
X160658789Y-95553380D01*
X160595376Y-95570500D01*
X158722171Y-95570500D01*
X158654050Y-95550498D01*
X158633076Y-95533595D01*
X158241570Y-95142089D01*
X158229184Y-95127677D01*
X158220651Y-95116082D01*
X158220646Y-95116077D01*
X158216308Y-95110182D01*
X158210730Y-95105443D01*
X158210727Y-95105440D01*
X158176032Y-95075965D01*
X158168516Y-95069035D01*
X158162821Y-95063340D01*
X158155568Y-95057602D01*
X158140549Y-95045719D01*
X158137145Y-95042928D01*
X158087097Y-95000409D01*
X158087095Y-95000408D01*
X158081515Y-94995667D01*
X158074999Y-94992339D01*
X158069950Y-94988972D01*
X158064821Y-94985805D01*
X158059084Y-94981266D01*
X157992925Y-94950345D01*
X157989025Y-94948439D01*
X157971772Y-94939629D01*
X157923992Y-94915231D01*
X157916884Y-94913492D01*
X157911241Y-94911393D01*
X157905478Y-94909476D01*
X157898850Y-94906378D01*
X157827383Y-94891513D01*
X157823099Y-94890543D01*
X157752190Y-94873192D01*
X157746588Y-94872844D01*
X157746585Y-94872844D01*
X157741036Y-94872500D01*
X157741038Y-94872464D01*
X157737045Y-94872225D01*
X157732853Y-94871851D01*
X157725685Y-94870360D01*
X157659475Y-94872151D01*
X157648279Y-94872454D01*
X157644872Y-94872500D01*
X156427071Y-94872500D01*
X156358950Y-94852498D01*
X156312457Y-94798842D01*
X156302353Y-94728568D01*
X156330620Y-94665425D01*
X156356533Y-94634598D01*
X156356537Y-94634593D01*
X156359398Y-94631189D01*
X156383759Y-94592129D01*
X156496320Y-94411643D01*
X156498674Y-94407869D01*
X156547936Y-94296441D01*
X156603295Y-94171219D01*
X156605093Y-94167152D01*
X156676534Y-93913843D01*
X156685853Y-93844462D01*
X156711143Y-93656176D01*
X156711144Y-93656168D01*
X156711570Y-93652994D01*
X156715247Y-93536000D01*
X156696659Y-93273466D01*
X156685167Y-93220085D01*
X156642201Y-93020523D01*
X156641264Y-93016171D01*
X156633797Y-92995929D01*
X156551710Y-92773424D01*
X156550169Y-92769247D01*
X156526097Y-92724634D01*
X156427304Y-92541538D01*
X156425191Y-92537622D01*
X156328624Y-92406880D01*
X156304241Y-92340203D01*
X156319778Y-92270927D01*
X156366969Y-92222906D01*
X156368807Y-92221845D01*
X156374875Y-92218342D01*
X156380637Y-92215213D01*
X156439839Y-92185047D01*
X156450259Y-92176609D01*
X156466552Y-92165411D01*
X156466903Y-92165209D01*
X156478169Y-92158704D01*
X156483075Y-92154287D01*
X156483080Y-92154283D01*
X156527538Y-92114253D01*
X156532554Y-92109969D01*
X156545409Y-92099559D01*
X156545412Y-92099556D01*
X156547986Y-92097472D01*
X156562031Y-92083427D01*
X156566816Y-92078886D01*
X156611274Y-92038856D01*
X156611275Y-92038855D01*
X156616185Y-92034434D01*
X156624075Y-92023574D01*
X156636912Y-92008546D01*
X160638542Y-88006915D01*
X160653577Y-87994074D01*
X160659084Y-87990073D01*
X160659090Y-87990068D01*
X160664434Y-87986185D01*
X160677512Y-87971661D01*
X160708895Y-87936806D01*
X160713436Y-87932021D01*
X160727472Y-87917985D01*
X160733427Y-87910631D01*
X160739969Y-87902553D01*
X160744253Y-87897538D01*
X160784283Y-87853080D01*
X160784287Y-87853075D01*
X160788704Y-87848169D01*
X160795412Y-87836551D01*
X160806607Y-87820263D01*
X160810890Y-87814974D01*
X160810891Y-87814973D01*
X160815048Y-87809839D01*
X160845214Y-87750634D01*
X160848337Y-87744881D01*
X160881564Y-87687331D01*
X160883606Y-87681047D01*
X160883608Y-87681042D01*
X160885708Y-87674579D01*
X160893272Y-87656317D01*
X160896363Y-87650251D01*
X160896366Y-87650242D01*
X160899362Y-87644363D01*
X160905976Y-87619678D01*
X160916556Y-87580196D01*
X160918422Y-87573894D01*
X160938954Y-87510702D01*
X160940355Y-87497372D01*
X160943958Y-87477929D01*
X160947430Y-87464971D01*
X160948147Y-87451302D01*
X160950907Y-87398633D01*
X160951424Y-87392059D01*
X160953156Y-87375577D01*
X160953500Y-87372306D01*
X160953500Y-87352445D01*
X160953673Y-87345850D01*
X160956805Y-87286098D01*
X160956805Y-87286094D01*
X160957150Y-87279507D01*
X160955051Y-87266253D01*
X160953500Y-87246544D01*
X160953500Y-84934077D01*
X160973502Y-84865956D01*
X161027158Y-84819463D01*
X161097432Y-84809359D01*
X161119168Y-84814484D01*
X161196510Y-84840138D01*
X161209886Y-84843005D01*
X161304238Y-84852672D01*
X161310654Y-84853000D01*
X161335685Y-84853000D01*
X161350924Y-84848525D01*
X161352129Y-84847135D01*
X161353800Y-84839452D01*
X161353800Y-84834884D01*
X161861800Y-84834884D01*
X161866275Y-84850123D01*
X161867665Y-84851328D01*
X161875348Y-84852999D01*
X161904895Y-84852999D01*
X161911414Y-84852662D01*
X162007006Y-84842743D01*
X162020400Y-84839851D01*
X162174584Y-84788412D01*
X162187762Y-84782239D01*
X162325607Y-84696937D01*
X162337008Y-84687901D01*
X162451539Y-84573171D01*
X162460551Y-84561760D01*
X162545616Y-84423757D01*
X162551763Y-84410576D01*
X162602938Y-84256290D01*
X162605805Y-84242914D01*
X162615472Y-84148562D01*
X162615800Y-84142146D01*
X162615800Y-84092115D01*
X162611325Y-84076876D01*
X162609935Y-84075671D01*
X162602252Y-84074000D01*
X161879915Y-84074000D01*
X161864676Y-84078475D01*
X161863471Y-84079865D01*
X161861800Y-84087548D01*
X161861800Y-84834884D01*
X161353800Y-84834884D01*
X161353800Y-83547885D01*
X161861800Y-83547885D01*
X161866275Y-83563124D01*
X161867665Y-83564329D01*
X161875348Y-83566000D01*
X162597684Y-83566000D01*
X162612923Y-83561525D01*
X162614128Y-83560135D01*
X162615799Y-83552452D01*
X162615799Y-83497905D01*
X162615462Y-83491386D01*
X162605543Y-83395794D01*
X162602651Y-83382400D01*
X162551212Y-83228216D01*
X162545039Y-83215038D01*
X162459737Y-83077193D01*
X162450701Y-83065792D01*
X162335971Y-82951261D01*
X162324560Y-82942249D01*
X162186557Y-82857184D01*
X162173376Y-82851037D01*
X162019090Y-82799862D01*
X162005714Y-82796995D01*
X161911362Y-82787328D01*
X161904945Y-82787000D01*
X161879915Y-82787000D01*
X161864676Y-82791475D01*
X161863471Y-82792865D01*
X161861800Y-82800548D01*
X161861800Y-83547885D01*
X161353800Y-83547885D01*
X161353800Y-82805116D01*
X161349325Y-82789877D01*
X161347935Y-82788672D01*
X161340252Y-82787001D01*
X161310705Y-82787001D01*
X161304186Y-82787338D01*
X161208594Y-82797257D01*
X161195197Y-82800150D01*
X161119375Y-82825445D01*
X161048426Y-82828029D01*
X160987342Y-82791845D01*
X160955518Y-82728380D01*
X160953500Y-82705921D01*
X160953500Y-82424500D01*
X160973502Y-82356379D01*
X161027158Y-82309886D01*
X161079500Y-82298500D01*
X161118134Y-82298500D01*
X161180316Y-82291745D01*
X161316705Y-82240615D01*
X161433261Y-82153261D01*
X161520615Y-82036705D01*
X161571745Y-81900316D01*
X161578500Y-81838134D01*
X161578500Y-80241866D01*
X161571745Y-80179684D01*
X161520615Y-80043295D01*
X161462360Y-79965565D01*
X161437512Y-79899058D01*
X161452565Y-79829676D01*
X161462360Y-79814435D01*
X161515229Y-79743892D01*
X161515230Y-79743890D01*
X161520615Y-79736705D01*
X161571745Y-79600316D01*
X161578500Y-79538134D01*
X161578500Y-77941866D01*
X161571745Y-77879684D01*
X161520615Y-77743295D01*
X161462047Y-77665148D01*
X161437199Y-77598642D01*
X161452252Y-77529259D01*
X161462047Y-77514018D01*
X161514786Y-77443648D01*
X161523324Y-77428054D01*
X161568478Y-77307606D01*
X161572105Y-77292351D01*
X161577631Y-77241486D01*
X161578000Y-77234672D01*
X161578000Y-76712115D01*
X161573525Y-76696876D01*
X161572135Y-76695671D01*
X161564452Y-76694000D01*
X158580116Y-76694000D01*
X158564877Y-76698475D01*
X158563672Y-76699865D01*
X158562001Y-76707548D01*
X158562001Y-77234669D01*
X158562371Y-77241490D01*
X158567895Y-77292352D01*
X158571521Y-77307604D01*
X158616676Y-77428054D01*
X158625214Y-77443648D01*
X158677953Y-77514018D01*
X158702801Y-77580524D01*
X158687748Y-77649907D01*
X158677953Y-77665148D01*
X158619385Y-77743295D01*
X158568255Y-77879684D01*
X158561500Y-77941866D01*
X158561500Y-79538134D01*
X158568255Y-79600316D01*
X158619385Y-79736705D01*
X158624770Y-79743890D01*
X158624771Y-79743892D01*
X158677640Y-79814435D01*
X158702488Y-79880942D01*
X158687435Y-79950324D01*
X158677640Y-79965565D01*
X158619385Y-80043295D01*
X158568255Y-80179684D01*
X158561500Y-80241866D01*
X158561500Y-81838134D01*
X158568255Y-81900316D01*
X158619385Y-82036705D01*
X158706739Y-82153261D01*
X158823295Y-82240615D01*
X158959684Y-82291745D01*
X159021866Y-82298500D01*
X159060500Y-82298500D01*
X159128621Y-82318502D01*
X159175114Y-82372158D01*
X159186500Y-82424500D01*
X159186500Y-83071665D01*
X159167760Y-83137781D01*
X159115685Y-83222262D01*
X159113381Y-83229209D01*
X159064286Y-83377227D01*
X159060003Y-83390139D01*
X159049300Y-83494600D01*
X159049300Y-84145400D01*
X159049637Y-84148646D01*
X159049637Y-84148650D01*
X159059418Y-84242914D01*
X159060274Y-84251166D01*
X159116250Y-84418946D01*
X159120104Y-84425174D01*
X159120105Y-84425176D01*
X159167644Y-84501997D01*
X159186500Y-84568300D01*
X159186500Y-86907853D01*
X159166498Y-86975974D01*
X159149595Y-86996948D01*
X156916824Y-89229719D01*
X156854512Y-89263745D01*
X156783697Y-89258680D01*
X156726861Y-89216133D01*
X156702044Y-89149523D01*
X156696974Y-89077915D01*
X156696659Y-89073466D01*
X156692502Y-89054155D01*
X156642201Y-88820523D01*
X156641264Y-88816171D01*
X156622218Y-88764543D01*
X156551710Y-88573424D01*
X156550169Y-88569247D01*
X156425191Y-88337622D01*
X156268824Y-88125918D01*
X156202785Y-88058833D01*
X156146708Y-88001869D01*
X156113173Y-87939292D01*
X156110500Y-87913476D01*
X156110500Y-86560202D01*
X156130502Y-86492081D01*
X156152435Y-86466345D01*
X156186729Y-86435629D01*
X156186730Y-86435628D01*
X156190047Y-86432657D01*
X156359398Y-86231189D01*
X156383759Y-86192129D01*
X156481501Y-86035405D01*
X156498674Y-86007869D01*
X156501544Y-86001379D01*
X156603295Y-85771219D01*
X156605093Y-85767152D01*
X156676534Y-85513843D01*
X156685936Y-85443844D01*
X156711143Y-85256176D01*
X156711144Y-85256168D01*
X156711570Y-85252994D01*
X156715247Y-85136000D01*
X156696659Y-84873466D01*
X156695043Y-84865956D01*
X156642201Y-84620523D01*
X156641264Y-84616171D01*
X156634705Y-84598390D01*
X156551710Y-84373424D01*
X156550169Y-84369247D01*
X156456985Y-84196546D01*
X156427304Y-84141538D01*
X156425191Y-84137622D01*
X156268824Y-83925918D01*
X156189698Y-83845539D01*
X156146708Y-83801869D01*
X156113173Y-83739292D01*
X156110500Y-83713476D01*
X156110500Y-82360202D01*
X156130502Y-82292081D01*
X156152435Y-82266345D01*
X156186729Y-82235629D01*
X156186730Y-82235628D01*
X156190047Y-82232657D01*
X156359398Y-82031189D01*
X156498674Y-81807869D01*
X156605093Y-81567152D01*
X156676534Y-81313843D01*
X156698792Y-81148131D01*
X156711143Y-81056176D01*
X156711144Y-81056168D01*
X156711570Y-81052994D01*
X156715247Y-80936000D01*
X156711162Y-80878297D01*
X156696974Y-80677915D01*
X156696659Y-80673466D01*
X156685167Y-80620085D01*
X156642201Y-80420523D01*
X156641264Y-80416171D01*
X156622218Y-80364543D01*
X156551710Y-80173424D01*
X156550169Y-80169247D01*
X156425191Y-79937622D01*
X156268824Y-79725918D01*
X156084187Y-79538358D01*
X156080647Y-79535657D01*
X156080641Y-79535651D01*
X155878506Y-79381386D01*
X155878502Y-79381383D01*
X155874965Y-79378684D01*
X155645332Y-79250084D01*
X155399870Y-79155122D01*
X155395545Y-79154119D01*
X155395540Y-79154118D01*
X155254794Y-79121495D01*
X155143476Y-79095693D01*
X154881267Y-79072983D01*
X154876832Y-79073227D01*
X154876828Y-79073227D01*
X154622916Y-79087200D01*
X154622909Y-79087201D01*
X154618473Y-79087445D01*
X154490369Y-79112927D01*
X154364711Y-79137921D01*
X154364706Y-79137922D01*
X154360339Y-79138791D01*
X154356136Y-79140267D01*
X154116223Y-79224518D01*
X154116220Y-79224519D01*
X154112015Y-79225996D01*
X154108062Y-79228049D01*
X154108056Y-79228052D01*
X153976615Y-79296331D01*
X153878456Y-79347321D01*
X153874841Y-79349904D01*
X153874835Y-79349908D01*
X153771585Y-79423692D01*
X153664322Y-79500344D01*
X153661095Y-79503422D01*
X153661093Y-79503424D01*
X153551768Y-79607715D01*
X153473885Y-79682011D01*
X153310945Y-79888700D01*
X153282529Y-79937622D01*
X153180987Y-80112438D01*
X153180984Y-80112444D01*
X153178753Y-80116285D01*
X153079947Y-80360225D01*
X153016498Y-80615654D01*
X152989672Y-80877474D01*
X153000005Y-81140462D01*
X153047290Y-81399371D01*
X153130584Y-81649034D01*
X153132577Y-81653022D01*
X153226770Y-81841531D01*
X153248225Y-81884470D01*
X153250754Y-81888129D01*
X153353441Y-82036705D01*
X153397865Y-82100982D01*
X153451166Y-82158642D01*
X153560024Y-82276404D01*
X153591577Y-82340004D01*
X153593500Y-82361933D01*
X153593500Y-83713966D01*
X153573498Y-83782087D01*
X153554474Y-83805134D01*
X153473885Y-83882011D01*
X153471129Y-83885507D01*
X153322534Y-84074000D01*
X153310945Y-84088700D01*
X153276123Y-84148650D01*
X153180987Y-84312438D01*
X153180984Y-84312444D01*
X153178753Y-84316285D01*
X153177083Y-84320408D01*
X153086765Y-84543393D01*
X153079947Y-84560225D01*
X153078876Y-84564538D01*
X153078874Y-84564543D01*
X153042647Y-84710383D01*
X153016498Y-84815654D01*
X152989672Y-85077474D01*
X153000005Y-85340462D01*
X153000805Y-85344842D01*
X153044675Y-85585050D01*
X153047290Y-85599371D01*
X153130584Y-85849034D01*
X153169926Y-85927770D01*
X153223709Y-86035405D01*
X153248225Y-86084470D01*
X153250754Y-86088129D01*
X153320104Y-86188470D01*
X153397865Y-86300982D01*
X153490613Y-86401316D01*
X153560024Y-86476404D01*
X153591577Y-86540004D01*
X153593500Y-86561933D01*
X153593500Y-87913966D01*
X153573498Y-87982087D01*
X153554474Y-88005134D01*
X153473885Y-88082011D01*
X153310945Y-88288700D01*
X153252404Y-88389485D01*
X153180987Y-88512438D01*
X153180984Y-88512444D01*
X153178753Y-88516285D01*
X153177083Y-88520408D01*
X153087390Y-88741850D01*
X153079947Y-88760225D01*
X153078876Y-88764538D01*
X153078874Y-88764543D01*
X153039101Y-88924662D01*
X153016498Y-89015654D01*
X152989672Y-89277474D01*
X152989847Y-89281926D01*
X152998151Y-89493264D01*
X153000005Y-89540462D01*
X153047290Y-89799371D01*
X153130584Y-90049034D01*
X153248225Y-90284470D01*
X153264175Y-90307547D01*
X153299640Y-90358861D01*
X153321916Y-90426272D01*
X153304211Y-90495026D01*
X153252146Y-90543293D01*
X153195987Y-90556500D01*
X151874148Y-90556500D01*
X151806027Y-90536498D01*
X151785053Y-90519595D01*
X151185365Y-89919907D01*
X151151339Y-89857595D01*
X151153191Y-89796610D01*
X151175325Y-89718128D01*
X151176534Y-89713843D01*
X151198037Y-89553752D01*
X151211143Y-89456176D01*
X151211144Y-89456168D01*
X151211570Y-89452994D01*
X151212381Y-89427188D01*
X151215146Y-89339222D01*
X151215146Y-89339217D01*
X151215247Y-89336000D01*
X151196659Y-89073466D01*
X151192502Y-89054155D01*
X151142201Y-88820523D01*
X151141264Y-88816171D01*
X151122218Y-88764543D01*
X151051710Y-88573424D01*
X151050169Y-88569247D01*
X150925191Y-88337622D01*
X150768824Y-88125918D01*
X150702785Y-88058833D01*
X150662204Y-88017610D01*
X150584187Y-87938358D01*
X150580647Y-87935657D01*
X150580641Y-87935651D01*
X150378506Y-87781386D01*
X150378502Y-87781383D01*
X150374965Y-87778684D01*
X150145332Y-87650084D01*
X149899870Y-87555122D01*
X149895545Y-87554119D01*
X149895540Y-87554118D01*
X149708229Y-87510702D01*
X149643476Y-87495693D01*
X149381267Y-87472983D01*
X149376832Y-87473227D01*
X149376828Y-87473227D01*
X149122916Y-87487200D01*
X149122909Y-87487201D01*
X149118473Y-87487445D01*
X149034572Y-87504134D01*
X148864711Y-87537921D01*
X148864706Y-87537922D01*
X148860339Y-87538791D01*
X148856136Y-87540267D01*
X148616223Y-87624518D01*
X148616220Y-87624519D01*
X148612015Y-87625996D01*
X148608062Y-87628049D01*
X148608056Y-87628052D01*
X148493941Y-87687331D01*
X148378456Y-87747321D01*
X148374841Y-87749904D01*
X148374835Y-87749908D01*
X148299209Y-87803952D01*
X148164322Y-87900344D01*
X148161095Y-87903422D01*
X148161093Y-87903424D01*
X147986108Y-88070351D01*
X147973885Y-88082011D01*
X147810945Y-88288700D01*
X147752404Y-88389485D01*
X147680987Y-88512438D01*
X147680984Y-88512444D01*
X147678753Y-88516285D01*
X147677083Y-88520408D01*
X147587390Y-88741850D01*
X147579947Y-88760225D01*
X147578876Y-88764538D01*
X147578874Y-88764543D01*
X147539101Y-88924662D01*
X147516498Y-89015654D01*
X147489672Y-89277474D01*
X147489847Y-89281926D01*
X147498151Y-89493264D01*
X147500005Y-89540462D01*
X147547290Y-89799371D01*
X147630584Y-90049034D01*
X147748225Y-90284470D01*
X147765679Y-90309724D01*
X147893749Y-90495026D01*
X147897865Y-90500982D01*
X147950697Y-90558135D01*
X148062074Y-90678621D01*
X148076520Y-90694249D01*
X148280623Y-90860415D01*
X148284431Y-90862708D01*
X148284433Y-90862709D01*
X148502288Y-90993868D01*
X148502292Y-90993870D01*
X148506104Y-90996165D01*
X148642026Y-91053721D01*
X148744359Y-91097054D01*
X148744364Y-91097056D01*
X148748462Y-91098791D01*
X148752760Y-91099930D01*
X148752764Y-91099932D01*
X148866786Y-91130164D01*
X149002862Y-91166244D01*
X149264229Y-91197179D01*
X149527347Y-91190978D01*
X149633675Y-91173280D01*
X149782569Y-91148497D01*
X149782571Y-91148497D01*
X149786966Y-91147765D01*
X149810741Y-91140246D01*
X149881719Y-91138775D01*
X149937828Y-91171286D01*
X150605809Y-91839267D01*
X150639835Y-91901579D01*
X150634770Y-91972394D01*
X150592223Y-92029230D01*
X150525703Y-92054041D01*
X150456329Y-92038950D01*
X150440272Y-92028525D01*
X150378506Y-91981386D01*
X150378502Y-91981383D01*
X150374965Y-91978684D01*
X150145332Y-91850084D01*
X149899870Y-91755122D01*
X149895545Y-91754119D01*
X149895540Y-91754118D01*
X149680393Y-91704250D01*
X149643476Y-91695693D01*
X149381267Y-91672983D01*
X149376832Y-91673227D01*
X149376828Y-91673227D01*
X149122916Y-91687200D01*
X149122909Y-91687201D01*
X149118473Y-91687445D01*
X148990369Y-91712927D01*
X148864711Y-91737921D01*
X148864706Y-91737922D01*
X148860339Y-91738791D01*
X148856136Y-91740267D01*
X148616223Y-91824518D01*
X148616220Y-91824519D01*
X148612015Y-91825996D01*
X148608062Y-91828049D01*
X148608056Y-91828052D01*
X148548245Y-91859122D01*
X148378456Y-91947321D01*
X148374841Y-91949904D01*
X148374835Y-91949908D01*
X148292780Y-92008546D01*
X148164322Y-92100344D01*
X148161095Y-92103422D01*
X148161093Y-92103424D01*
X147987145Y-92269362D01*
X147973885Y-92282011D01*
X147810945Y-92488700D01*
X147782529Y-92537622D01*
X147680987Y-92712438D01*
X147680984Y-92712444D01*
X147678753Y-92716285D01*
X147677083Y-92720408D01*
X147646679Y-92795473D01*
X147579947Y-92960225D01*
X147578876Y-92964538D01*
X147578874Y-92964543D01*
X147541255Y-93115990D01*
X147516498Y-93215654D01*
X147489672Y-93477474D01*
X145796500Y-93477474D01*
X145796500Y-85077474D01*
X147489672Y-85077474D01*
X147500005Y-85340462D01*
X147500805Y-85344842D01*
X147544675Y-85585050D01*
X147547290Y-85599371D01*
X147630584Y-85849034D01*
X147669926Y-85927770D01*
X147723709Y-86035405D01*
X147748225Y-86084470D01*
X147750754Y-86088129D01*
X147820104Y-86188470D01*
X147897865Y-86300982D01*
X148076520Y-86494249D01*
X148280623Y-86660415D01*
X148284431Y-86662708D01*
X148284433Y-86662709D01*
X148502288Y-86793868D01*
X148502292Y-86793870D01*
X148506104Y-86796165D01*
X148642026Y-86853721D01*
X148744359Y-86897054D01*
X148744364Y-86897056D01*
X148748462Y-86898791D01*
X148752760Y-86899930D01*
X148752764Y-86899932D01*
X148875662Y-86932517D01*
X149002862Y-86966244D01*
X149264229Y-86997179D01*
X149527347Y-86990978D01*
X149574281Y-86983166D01*
X149782576Y-86948496D01*
X149782580Y-86948495D01*
X149786966Y-86947765D01*
X149791207Y-86946424D01*
X149791210Y-86946423D01*
X150033661Y-86869746D01*
X150033663Y-86869745D01*
X150037907Y-86868403D01*
X150041918Y-86866477D01*
X150041923Y-86866475D01*
X150271143Y-86756405D01*
X150271144Y-86756404D01*
X150275162Y-86754475D01*
X150390480Y-86677422D01*
X150490289Y-86610732D01*
X150490293Y-86610729D01*
X150493997Y-86608254D01*
X150497314Y-86605283D01*
X150497318Y-86605280D01*
X150686729Y-86435629D01*
X150686730Y-86435628D01*
X150690047Y-86432657D01*
X150859398Y-86231189D01*
X150883759Y-86192129D01*
X150981501Y-86035405D01*
X150998674Y-86007869D01*
X151001544Y-86001379D01*
X151103295Y-85771219D01*
X151105093Y-85767152D01*
X151176534Y-85513843D01*
X151185936Y-85443844D01*
X151211143Y-85256176D01*
X151211144Y-85256168D01*
X151211570Y-85252994D01*
X151215247Y-85136000D01*
X151196659Y-84873466D01*
X151195043Y-84865956D01*
X151142201Y-84620523D01*
X151141264Y-84616171D01*
X151134705Y-84598390D01*
X151051710Y-84373424D01*
X151050169Y-84369247D01*
X150956985Y-84196546D01*
X150927304Y-84141538D01*
X150925191Y-84137622D01*
X150768824Y-83925918D01*
X150689698Y-83845539D01*
X150646708Y-83801869D01*
X150613173Y-83739292D01*
X150610500Y-83713476D01*
X150610500Y-82360202D01*
X150630502Y-82292081D01*
X150652435Y-82266345D01*
X150686729Y-82235629D01*
X150686730Y-82235628D01*
X150690047Y-82232657D01*
X150859398Y-82031189D01*
X150998674Y-81807869D01*
X151105093Y-81567152D01*
X151176534Y-81313843D01*
X151198792Y-81148131D01*
X151211143Y-81056176D01*
X151211144Y-81056168D01*
X151211570Y-81052994D01*
X151215247Y-80936000D01*
X151211162Y-80878297D01*
X151196974Y-80677915D01*
X151196659Y-80673466D01*
X151185167Y-80620085D01*
X151142201Y-80420523D01*
X151141264Y-80416171D01*
X151122218Y-80364543D01*
X151051710Y-80173424D01*
X151050169Y-80169247D01*
X150925191Y-79937622D01*
X150768824Y-79725918D01*
X150584187Y-79538358D01*
X150580647Y-79535657D01*
X150580641Y-79535651D01*
X150378506Y-79381386D01*
X150378502Y-79381383D01*
X150374965Y-79378684D01*
X150145332Y-79250084D01*
X149899870Y-79155122D01*
X149895545Y-79154119D01*
X149895540Y-79154118D01*
X149754794Y-79121495D01*
X149643476Y-79095693D01*
X149381267Y-79072983D01*
X149376832Y-79073227D01*
X149376828Y-79073227D01*
X149122916Y-79087200D01*
X149122909Y-79087201D01*
X149118473Y-79087445D01*
X148990369Y-79112927D01*
X148864711Y-79137921D01*
X148864706Y-79137922D01*
X148860339Y-79138791D01*
X148856136Y-79140267D01*
X148616223Y-79224518D01*
X148616220Y-79224519D01*
X148612015Y-79225996D01*
X148608062Y-79228049D01*
X148608056Y-79228052D01*
X148476615Y-79296331D01*
X148378456Y-79347321D01*
X148374841Y-79349904D01*
X148374835Y-79349908D01*
X148271585Y-79423692D01*
X148164322Y-79500344D01*
X148161095Y-79503422D01*
X148161093Y-79503424D01*
X148051768Y-79607715D01*
X147973885Y-79682011D01*
X147810945Y-79888700D01*
X147782529Y-79937622D01*
X147680987Y-80112438D01*
X147680984Y-80112444D01*
X147678753Y-80116285D01*
X147579947Y-80360225D01*
X147516498Y-80615654D01*
X147489672Y-80877474D01*
X147500005Y-81140462D01*
X147547290Y-81399371D01*
X147630584Y-81649034D01*
X147632577Y-81653022D01*
X147726770Y-81841531D01*
X147748225Y-81884470D01*
X147750754Y-81888129D01*
X147853441Y-82036705D01*
X147897865Y-82100982D01*
X147951166Y-82158642D01*
X148060024Y-82276404D01*
X148091577Y-82340004D01*
X148093500Y-82361933D01*
X148093500Y-83713966D01*
X148073498Y-83782087D01*
X148054474Y-83805134D01*
X147973885Y-83882011D01*
X147971129Y-83885507D01*
X147822534Y-84074000D01*
X147810945Y-84088700D01*
X147776123Y-84148650D01*
X147680987Y-84312438D01*
X147680984Y-84312444D01*
X147678753Y-84316285D01*
X147677083Y-84320408D01*
X147586765Y-84543393D01*
X147579947Y-84560225D01*
X147578876Y-84564538D01*
X147578874Y-84564543D01*
X147542647Y-84710383D01*
X147516498Y-84815654D01*
X147489672Y-85077474D01*
X145796500Y-85077474D01*
X145796500Y-76677474D01*
X147489672Y-76677474D01*
X147500005Y-76940462D01*
X147510154Y-76996034D01*
X147539575Y-77157125D01*
X147547290Y-77199371D01*
X147553021Y-77216548D01*
X147623585Y-77428054D01*
X147630584Y-77449034D01*
X147663055Y-77514018D01*
X147709950Y-77607869D01*
X147748225Y-77684470D01*
X147750754Y-77688129D01*
X147888575Y-77887540D01*
X147897865Y-77900982D01*
X148076520Y-78094249D01*
X148280623Y-78260415D01*
X148284431Y-78262708D01*
X148284433Y-78262709D01*
X148502288Y-78393868D01*
X148502292Y-78393870D01*
X148506104Y-78396165D01*
X148642026Y-78453721D01*
X148744359Y-78497054D01*
X148744364Y-78497056D01*
X148748462Y-78498791D01*
X148752760Y-78499930D01*
X148752764Y-78499932D01*
X148875662Y-78532518D01*
X149002862Y-78566244D01*
X149264229Y-78597179D01*
X149527347Y-78590978D01*
X149534743Y-78589747D01*
X149782576Y-78548496D01*
X149782580Y-78548495D01*
X149786966Y-78547765D01*
X149791207Y-78546424D01*
X149791210Y-78546423D01*
X150033661Y-78469746D01*
X150033663Y-78469745D01*
X150037907Y-78468403D01*
X150041918Y-78466477D01*
X150041923Y-78466475D01*
X150271143Y-78356405D01*
X150271144Y-78356404D01*
X150275162Y-78354475D01*
X150385187Y-78280958D01*
X150479018Y-78218263D01*
X153734904Y-78218263D01*
X153742294Y-78228566D01*
X153777455Y-78257192D01*
X153784731Y-78262305D01*
X154002514Y-78393421D01*
X154010428Y-78397454D01*
X154244523Y-78496581D01*
X154252928Y-78499458D01*
X154498650Y-78564610D01*
X154507382Y-78566276D01*
X154759835Y-78596155D01*
X154768703Y-78596573D01*
X155022843Y-78590584D01*
X155031698Y-78589747D01*
X155282459Y-78548009D01*
X155291093Y-78545936D01*
X155533477Y-78469280D01*
X155541739Y-78466009D01*
X155770895Y-78355970D01*
X155778619Y-78351564D01*
X155961218Y-78229556D01*
X155969506Y-78219638D01*
X155962249Y-78205459D01*
X154864812Y-77108022D01*
X154850868Y-77100408D01*
X154849035Y-77100539D01*
X154842420Y-77104790D01*
X153742070Y-78205140D01*
X153734904Y-78218263D01*
X150479018Y-78218263D01*
X150490289Y-78210732D01*
X150490293Y-78210729D01*
X150493997Y-78208254D01*
X150497314Y-78205283D01*
X150497318Y-78205280D01*
X150686729Y-78035629D01*
X150686730Y-78035628D01*
X150690047Y-78032657D01*
X150859398Y-77831189D01*
X150908971Y-77751703D01*
X150962951Y-77665148D01*
X150998674Y-77607869D01*
X151002754Y-77598642D01*
X151103295Y-77371219D01*
X151105093Y-77367152D01*
X151107028Y-77360293D01*
X151139981Y-77243450D01*
X151176534Y-77113843D01*
X151184535Y-77054274D01*
X151211143Y-76856176D01*
X151211144Y-76856168D01*
X151211570Y-76852994D01*
X151213598Y-76788469D01*
X151215146Y-76739222D01*
X151215146Y-76739217D01*
X151215247Y-76736000D01*
X151212141Y-76692124D01*
X151211420Y-76681942D01*
X152990348Y-76681942D01*
X153000328Y-76935960D01*
X153001302Y-76944784D01*
X153046978Y-77194875D01*
X153049182Y-77203462D01*
X153129636Y-77444613D01*
X153133040Y-77452831D01*
X153246667Y-77680235D01*
X153251185Y-77687874D01*
X153359294Y-77844296D01*
X153369612Y-77852647D01*
X153383267Y-77845523D01*
X154479978Y-76748812D01*
X154486356Y-76737132D01*
X155216408Y-76737132D01*
X155216539Y-76738965D01*
X155220790Y-76745580D01*
X156322027Y-77846817D01*
X156335428Y-77854135D01*
X156345329Y-77847149D01*
X156356127Y-77834305D01*
X156361353Y-77827110D01*
X156495867Y-77611425D01*
X156500038Y-77603547D01*
X156602817Y-77371065D01*
X156605833Y-77362688D01*
X156674832Y-77118034D01*
X156676636Y-77109326D01*
X156710643Y-76856145D01*
X156711171Y-76849752D01*
X156714645Y-76739222D01*
X156714518Y-76732779D01*
X156696478Y-76477986D01*
X156695225Y-76469183D01*
X156641720Y-76220662D01*
X156639241Y-76212129D01*
X156622919Y-76167885D01*
X158562000Y-76167885D01*
X158566475Y-76183124D01*
X158567865Y-76184329D01*
X158575548Y-76186000D01*
X159797885Y-76186000D01*
X159813124Y-76181525D01*
X159814329Y-76180135D01*
X159816000Y-76172452D01*
X159816000Y-76167885D01*
X160324000Y-76167885D01*
X160328475Y-76183124D01*
X160329865Y-76184329D01*
X160337548Y-76186000D01*
X161559884Y-76186000D01*
X161575123Y-76181525D01*
X161576328Y-76180135D01*
X161577999Y-76172452D01*
X161577999Y-75645331D01*
X161577629Y-75638510D01*
X161572105Y-75587648D01*
X161568479Y-75572396D01*
X161523324Y-75451946D01*
X161514786Y-75436351D01*
X161438285Y-75334276D01*
X161425724Y-75321715D01*
X161323649Y-75245214D01*
X161308054Y-75236676D01*
X161187606Y-75191522D01*
X161172351Y-75187895D01*
X161121486Y-75182369D01*
X161114672Y-75182000D01*
X160342115Y-75182000D01*
X160326876Y-75186475D01*
X160325671Y-75187865D01*
X160324000Y-75195548D01*
X160324000Y-76167885D01*
X159816000Y-76167885D01*
X159816000Y-75200116D01*
X159811525Y-75184877D01*
X159810135Y-75183672D01*
X159802452Y-75182001D01*
X159025331Y-75182001D01*
X159018510Y-75182371D01*
X158967648Y-75187895D01*
X158952396Y-75191521D01*
X158831946Y-75236676D01*
X158816351Y-75245214D01*
X158714276Y-75321715D01*
X158701715Y-75334276D01*
X158625214Y-75436351D01*
X158616676Y-75451946D01*
X158571522Y-75572394D01*
X158567895Y-75587649D01*
X158562369Y-75638514D01*
X158562000Y-75645328D01*
X158562000Y-76167885D01*
X156622919Y-76167885D01*
X156551254Y-75973630D01*
X156547599Y-75965535D01*
X156426881Y-75741807D01*
X156422122Y-75734309D01*
X156344004Y-75628545D01*
X156332876Y-75620103D01*
X156320283Y-75626927D01*
X155224022Y-76723188D01*
X155216408Y-76737132D01*
X154486356Y-76737132D01*
X154487592Y-76734868D01*
X154487461Y-76733035D01*
X154483210Y-76726420D01*
X153383423Y-75626633D01*
X153370582Y-75619621D01*
X153359893Y-75627416D01*
X153314115Y-75685485D01*
X153309122Y-75692833D01*
X153181440Y-75912655D01*
X153177532Y-75920629D01*
X153082097Y-76156247D01*
X153079348Y-76164709D01*
X153018067Y-76411413D01*
X153016538Y-76420174D01*
X152990627Y-76673059D01*
X152990348Y-76681942D01*
X151211420Y-76681942D01*
X151196974Y-76477915D01*
X151196659Y-76473466D01*
X151185186Y-76420174D01*
X151142201Y-76220523D01*
X151141264Y-76216171D01*
X151130134Y-76186000D01*
X151051710Y-75973424D01*
X151050169Y-75969247D01*
X150925191Y-75737622D01*
X150768824Y-75525918D01*
X150584187Y-75338358D01*
X150580647Y-75335657D01*
X150580641Y-75335651D01*
X150474351Y-75254533D01*
X153735889Y-75254533D01*
X153742869Y-75267659D01*
X154839188Y-76363978D01*
X154853132Y-76371592D01*
X154854965Y-76371461D01*
X154861580Y-76367210D01*
X155961129Y-75267661D01*
X155967983Y-75255109D01*
X155959776Y-75244039D01*
X155878230Y-75181805D01*
X155870801Y-75176925D01*
X155649005Y-75052713D01*
X155640971Y-75048932D01*
X155403865Y-74957203D01*
X155395392Y-74954596D01*
X155147736Y-74897193D01*
X155138960Y-74895803D01*
X154885691Y-74873868D01*
X154876820Y-74873728D01*
X154622976Y-74887698D01*
X154614174Y-74888810D01*
X154364832Y-74938408D01*
X154356279Y-74940748D01*
X154116421Y-75024978D01*
X154108255Y-75028512D01*
X153882669Y-75145696D01*
X153875097Y-75150335D01*
X153744292Y-75243810D01*
X153735889Y-75254533D01*
X150474351Y-75254533D01*
X150378506Y-75181386D01*
X150378502Y-75181383D01*
X150374965Y-75178684D01*
X150145332Y-75050084D01*
X149899870Y-74955122D01*
X149895545Y-74954119D01*
X149895540Y-74954118D01*
X149754794Y-74921495D01*
X149643476Y-74895693D01*
X149381267Y-74872983D01*
X149376832Y-74873227D01*
X149376828Y-74873227D01*
X149122916Y-74887200D01*
X149122909Y-74887201D01*
X149118473Y-74887445D01*
X148990369Y-74912927D01*
X148864711Y-74937921D01*
X148864706Y-74937922D01*
X148860339Y-74938791D01*
X148856136Y-74940267D01*
X148616223Y-75024518D01*
X148616220Y-75024519D01*
X148612015Y-75025996D01*
X148608062Y-75028049D01*
X148608056Y-75028052D01*
X148476615Y-75096331D01*
X148378456Y-75147321D01*
X148374841Y-75149904D01*
X148374835Y-75149908D01*
X148321720Y-75187865D01*
X148164322Y-75300344D01*
X148161095Y-75303422D01*
X148161093Y-75303424D01*
X148127311Y-75335651D01*
X147973885Y-75482011D01*
X147810945Y-75688700D01*
X147784453Y-75734309D01*
X147680987Y-75912438D01*
X147680984Y-75912444D01*
X147678753Y-75916285D01*
X147677083Y-75920408D01*
X147642582Y-76005588D01*
X147579947Y-76160225D01*
X147578876Y-76164538D01*
X147578874Y-76164543D01*
X147573544Y-76186000D01*
X147516498Y-76415654D01*
X147489672Y-76677474D01*
X145796500Y-76677474D01*
X145796500Y-73278500D01*
X145816502Y-73210379D01*
X145870158Y-73163886D01*
X145922500Y-73152500D01*
X179705500Y-73152500D01*
X179773621Y-73172502D01*
G37*
%TD.AperFunction*%
%TD*%
%TA.AperFunction,Conductor*%
%TO.N,3v3SB*%
G36*
X176091121Y-77490002D02*
G01*
X176137614Y-77543658D01*
X176149000Y-77596000D01*
X176149000Y-79249000D01*
X176128998Y-79317121D01*
X176075342Y-79363614D01*
X176023000Y-79375000D01*
X173608000Y-79375000D01*
X173539879Y-79354998D01*
X173493386Y-79301342D01*
X173482000Y-79249000D01*
X173482000Y-77596000D01*
X173502002Y-77527879D01*
X173555658Y-77481386D01*
X173608000Y-77470000D01*
X176023000Y-77470000D01*
X176091121Y-77490002D01*
G37*
%TD.AperFunction*%
%TD*%
M02*
