%TF.GenerationSoftware,KiCad,Pcbnew,(6.0.7)*%
%TF.CreationDate,2023-01-08T00:03:06+11:00*%
%TF.ProjectId,Xbox_ATX,58626f78-5f41-4545-982e-6b696361645f,rev?*%
%TF.SameCoordinates,Original*%
%TF.FileFunction,Drillmap*%
%TF.FilePolarity,Positive*%
%FSLAX45Y45*%
G04 Gerber Fmt 4.5, Leading zero omitted, Abs format (unit mm)*
G04 Created by KiCad (PCBNEW (6.0.7)) date 2023-01-08 00:03:06*
%MOMM*%
%LPD*%
G01*
G04 APERTURE LIST*
%ADD10C,0.100000*%
%ADD11C,0.200000*%
G04 APERTURE END LIST*
D10*
X14528800Y-12687300D02*
X18034000Y-12687300D01*
X18034000Y-12687300D02*
X18034000Y-7264400D01*
X18034000Y-7264400D02*
X14528800Y-7264400D01*
X14528800Y-7264400D02*
X14528800Y-12687300D01*
D11*
X14781419Y-13002776D02*
X14781419Y-12802776D01*
X14829038Y-12802776D01*
X14857609Y-12812300D01*
X14876657Y-12831348D01*
X14886181Y-12850395D01*
X14895705Y-12888490D01*
X14895705Y-12917062D01*
X14886181Y-12955157D01*
X14876657Y-12974205D01*
X14857609Y-12993252D01*
X14829038Y-13002776D01*
X14781419Y-13002776D01*
X14981419Y-13002776D02*
X14981419Y-12869443D01*
X14981419Y-12907538D02*
X14990943Y-12888490D01*
X15000467Y-12878967D01*
X15019514Y-12869443D01*
X15038562Y-12869443D01*
X15105228Y-13002776D02*
X15105228Y-12869443D01*
X15105228Y-12802776D02*
X15095705Y-12812300D01*
X15105228Y-12821824D01*
X15114752Y-12812300D01*
X15105228Y-12802776D01*
X15105228Y-12821824D01*
X15229038Y-13002776D02*
X15209990Y-12993252D01*
X15200467Y-12974205D01*
X15200467Y-12802776D01*
X15333800Y-13002776D02*
X15314752Y-12993252D01*
X15305228Y-12974205D01*
X15305228Y-12802776D01*
X15562371Y-13002776D02*
X15562371Y-12802776D01*
X15629038Y-12945633D01*
X15695705Y-12802776D01*
X15695705Y-13002776D01*
X15876657Y-13002776D02*
X15876657Y-12898014D01*
X15867133Y-12878967D01*
X15848086Y-12869443D01*
X15809990Y-12869443D01*
X15790943Y-12878967D01*
X15876657Y-12993252D02*
X15857609Y-13002776D01*
X15809990Y-13002776D01*
X15790943Y-12993252D01*
X15781419Y-12974205D01*
X15781419Y-12955157D01*
X15790943Y-12936109D01*
X15809990Y-12926586D01*
X15857609Y-12926586D01*
X15876657Y-12917062D01*
X15971895Y-12869443D02*
X15971895Y-13069443D01*
X15971895Y-12878967D02*
X15990943Y-12869443D01*
X16029038Y-12869443D01*
X16048086Y-12878967D01*
X16057609Y-12888490D01*
X16067133Y-12907538D01*
X16067133Y-12964681D01*
X16057609Y-12983728D01*
X16048086Y-12993252D01*
X16029038Y-13002776D01*
X15990943Y-13002776D01*
X15971895Y-12993252D01*
X16152848Y-12983728D02*
X16162371Y-12993252D01*
X16152848Y-13002776D01*
X16143324Y-12993252D01*
X16152848Y-12983728D01*
X16152848Y-13002776D01*
X16152848Y-12878967D02*
X16162371Y-12888490D01*
X16152848Y-12898014D01*
X16143324Y-12888490D01*
X16152848Y-12878967D01*
X16152848Y-12898014D01*
M02*
