M48
; DRILL file {KiCad (6.0.7)} date Sun Jan  8 00:03:06 2023
; FORMAT={-:-/ absolute / inch / decimal}
; #@! TF.CreationDate,2023-01-08T00:03:06+11:00
; #@! TF.GenerationSoftware,Kicad,Pcbnew,(6.0.7)
; #@! TF.FileFunction,Plated,1,2,PTH
FMAT,2
INCH
; #@! TA.AperFunction,Plated,PTH,ViaDrill
T1C0.0157
; #@! TA.AperFunction,Plated,PTH,ComponentDrill
T2C0.0551
; #@! TA.AperFunction,Plated,PTH,ComponentDrill
T3C0.0591
%
G90
G05
T1
X6.348Y-4.512
X6.348Y-4.546
X6.35Y-4.478
X6.388Y-4.478
X6.388Y-4.512
X6.388Y-4.546
X6.428Y-4.478
X6.428Y-4.512
X6.428Y-4.546
X6.848Y-3.07
X6.848Y-3.106
X6.882Y-3.07
X6.882Y-3.106
X6.916Y-3.07
X6.916Y-3.106
T2
X6.772Y-3.3559
X6.772Y-3.5213
X6.772Y-3.6866
X6.772Y-3.852
X6.772Y-4.0173
X6.772Y-4.1827
X6.772Y-4.348
X6.772Y-4.5134
X6.772Y-4.6787
X6.772Y-4.8441
X6.9886Y-3.3559
X6.9886Y-3.5213
X6.9886Y-3.6866
X6.9886Y-3.852
X6.9886Y-4.0173
X6.9886Y-4.1827
X6.9886Y-4.348
X6.9886Y-4.5134
X6.9886Y-4.6787
X6.9886Y-4.8441
T3
X5.88Y-3.0211
X5.88Y-3.1865
X5.88Y-3.3518
X5.88Y-3.5172
X5.88Y-3.6825
X5.88Y-3.8479
X5.88Y-4.0132
X5.88Y-4.1786
X5.88Y-4.3439
X5.88Y-4.5093
X5.88Y-4.6746
X5.88Y-4.84
X6.0965Y-3.0211
X6.0965Y-3.1865
X6.0965Y-3.3518
X6.0965Y-3.5172
X6.0965Y-3.6825
X6.0965Y-3.8479
X6.0965Y-4.0132
X6.0965Y-4.1786
X6.0965Y-4.3439
X6.0965Y-4.5093
X6.0965Y-4.6746
X6.0965Y-4.84
T0
M30
